<?xml version="1.0" encoding="UTF-8" standalone="no"?>
<svg width="210.164mm" height="296.926mm"
 viewBox="0 0 9934 14033"
 xmlns="http://www.w3.org/2000/svg" xmlns:xlink="http://www.w3.org/1999/xlink"  version="1.2" baseProfile="tiny">
<title>Qt SVG Document</title>
<desc>Generated with Qt</desc>
<defs>
</defs>
<g fill="none" stroke="black" stroke-width="1" fill-rule="evenodd" stroke-linecap="square" stroke-linejoin="bevel" >

<g fill="none" stroke="#000000" stroke-opacity="1" stroke-width="1" stroke-linecap="square" stroke-linejoin="bevel" transform="matrix(0.02014,0,0,-0.0201417,241.68,5384.52)"
font-family="MS Shell Dlg 2" font-size="130" font-weight="400" font-style="normal" 
>
</g>

<g fill="#c72e13" fill-opacity="0.713725" stroke="none" transform="matrix(0.02014,0,0,-0.0201417,241.68,5384.52)"
font-family="MS Shell Dlg 2" font-size="130" font-weight="400" font-style="normal" 
>
<path vector-effect="none" fill-rule="evenodd" d="M0,5775 L14315,5775 L14315,-5775 L0,-5775 L0,5775"/>
</g>

<g fill="#c72e13" fill-opacity="0.713725" stroke="none" transform="matrix(0,0.0201417,0.02014,0,615.316,5268.21)"
font-family="MS Shell Dlg 2" font-size="130" font-weight="400" font-style="normal" 
>
<path vector-effect="none" fill-rule="nonzero" d="M0,4237 L0,-4237 L11551,-4237 L11551,4237 L0,4237"/>
</g>

<g fill="#c72e13" fill-opacity="0.713725" stroke="none" transform="matrix(0,-0.0201417,-0.02014,0,615.316,5268.21)"
font-family="MS Shell Dlg 2" font-size="130" font-weight="400" font-style="normal" 
>
<path vector-effect="none" fill-rule="evenodd" d="M0,4237 L28985,4237 L28985,-4237 L0,-4237 L0,4237"/>
</g>

<g fill="#c72e13" fill-opacity="0.713725" stroke="none" transform="matrix(0,-0.0201417,-0.02014,0,615.316,5656.76)"
font-family="MS Shell Dlg 2" font-size="130" font-weight="400" font-style="normal" 
>
<path vector-effect="none" fill-rule="evenodd" d="M0,4237 L7740,4237 L7740,-4237 L0,-4237 L0,4237"/>
</g>

<g fill="#c72e13" fill-opacity="0.713725" stroke="none" transform="matrix(-0.02014,0,0,-0.0201417,695.352,5736.8)"
font-family="MS Shell Dlg 2" font-size="130" font-weight="400" font-style="normal" 
>
<path vector-effect="none" fill-rule="nonzero" d="M0,3974 L0,-3974 L7947,3974 L0,3974"/>
</g>

<g fill="#c72e13" fill-opacity="0.713725" stroke="none" transform="matrix(0.02014,0,0,-0.0201417,695.352,5736.8)"
font-family="MS Shell Dlg 2" font-size="130" font-weight="400" font-style="normal" 
>
<path vector-effect="none" fill-rule="evenodd" d="M0,3974 L53021,3974 L53021,-3974 L0,-3974 L0,3974"/>
</g>

<g fill="#c72e13" fill-opacity="0.713725" stroke="none" transform="matrix(0.02014,0,0,-0.0201417,695.352,5736.8)"
font-family="MS Shell Dlg 2" font-size="130" font-weight="400" font-style="normal" 
>
<path vector-effect="none" fill-rule="evenodd" d="M0,-8165 L53021,-8165 L53021,-16112 L0,-16112 L0,-8165"/>
</g>

<g fill="#c72e13" fill-opacity="0.713725" stroke="none" transform="matrix(0.02014,0,0,-0.0201417,1763.19,5981.3)"
font-family="MS Shell Dlg 2" font-size="130" font-weight="400" font-style="normal" 
>
<path vector-effect="none" fill-rule="evenodd" d="M0,4102 L52452,4102 L52452,-4102 L0,-4102 L0,4102"/>
</g>

<g fill="#c72e13" fill-opacity="0.713725" stroke="none" transform="matrix(0.02014,0,0,-0.0201417,1763.19,5981.3)"
font-family="MS Shell Dlg 2" font-size="130" font-weight="400" font-style="normal" 
>
<path vector-effect="none" fill-rule="evenodd" d="M0,-11788 L52452,-11788 L52452,-19992 L0,-19992 L0,-11788"/>
</g>

<g fill="#c72e13" fill-opacity="0.713725" stroke="none" transform="matrix(0.02014,0,0,-0.0201417,2819.57,6301.35)"
font-family="MS Shell Dlg 2" font-size="130" font-weight="400" font-style="normal" 
>
<path vector-effect="none" fill-rule="evenodd" d="M0,4117 L52452,4117 L52452,-4117 L0,-4117 L0,4117"/>
</g>

<g fill="#c72e13" fill-opacity="0.713725" stroke="none" transform="matrix(0.02014,0,0,-0.0201417,2819.57,6301.35)"
font-family="MS Shell Dlg 2" font-size="130" font-weight="400" font-style="normal" 
>
<path vector-effect="none" fill-rule="evenodd" d="M0,-13247 L52452,-13247 L52452,-21480 L0,-21480 L0,-13247"/>
</g>

<g fill="#c72e13" fill-opacity="0.713725" stroke="none" transform="matrix(0.02014,0,0,-0.0201417,3875.96,6651.09)"
font-family="MS Shell Dlg 2" font-size="130" font-weight="400" font-style="normal" 
>
<path vector-effect="none" fill-rule="evenodd" d="M0,4120 L52478,4120 L52478,-4120 L0,-4120 L0,4120"/>
</g>

<g fill="#c72e13" fill-opacity="0.713725" stroke="none" transform="matrix(0.02014,0,0,-0.0201417,3875.96,6651.09)"
font-family="MS Shell Dlg 2" font-size="130" font-weight="400" font-style="normal" 
>
<path vector-effect="none" fill-rule="evenodd" d="M0,-13727 L52478,-13727 L52478,-21967 L0,-21967 L0,-13727"/>
</g>

<g fill="#c72e13" fill-opacity="0.713725" stroke="none" transform="matrix(0.02014,0,0,-0.0201417,4932.86,7010.56)"
font-family="MS Shell Dlg 2" font-size="130" font-weight="400" font-style="normal" 
>
<path vector-effect="none" fill-rule="evenodd" d="M0,4120 L52478,4120 L52478,-4120 L0,-4120 L0,4120"/>
</g>

<g fill="#c72e13" fill-opacity="0.713725" stroke="none" transform="matrix(0.02014,0,0,-0.0201417,4932.86,7010.56)"
font-family="MS Shell Dlg 2" font-size="130" font-weight="400" font-style="normal" 
>
<path vector-effect="none" fill-rule="evenodd" d="M0,-13727 L52478,-13727 L52478,-21967 L0,-21967 L0,-13727"/>
</g>

<g fill="#c72e13" fill-opacity="0.713725" stroke="none" transform="matrix(0.02014,0,0,-0.0201417,5989.76,7370.03)"
font-family="MS Shell Dlg 2" font-size="130" font-weight="400" font-style="normal" 
>
<path vector-effect="none" fill-rule="evenodd" d="M0,4117 L52452,4117 L52452,-4117 L0,-4117 L0,4117"/>
</g>

<g fill="#c72e13" fill-opacity="0.713725" stroke="none" transform="matrix(0.02014,0,0,-0.0201417,5989.76,7370.03)"
font-family="MS Shell Dlg 2" font-size="130" font-weight="400" font-style="normal" 
>
<path vector-effect="none" fill-rule="evenodd" d="M0,-13247 L52452,-13247 L52452,-21480 L0,-21480 L0,-13247"/>
</g>

<g fill="#c72e13" fill-opacity="0.713725" stroke="none" transform="matrix(0.02014,0,0,-0.0201417,7046.15,7719.77)"
font-family="MS Shell Dlg 2" font-size="130" font-weight="400" font-style="normal" 
>
<path vector-effect="none" fill-rule="evenodd" d="M0,4102 L52452,4102 L52452,-4102 L0,-4102 L0,4102"/>
</g>

<g fill="#c72e13" fill-opacity="0.713725" stroke="none" transform="matrix(0.02014,0,0,-0.0201417,7046.15,7719.77)"
font-family="MS Shell Dlg 2" font-size="130" font-weight="400" font-style="normal" 
>
<path vector-effect="none" fill-rule="evenodd" d="M0,-11788 L52452,-11788 L52452,-19992 L0,-19992 L0,-11788"/>
</g>

<g fill="#c72e13" fill-opacity="0.713725" stroke="none" transform="matrix(0.02014,0,0,-0.0201417,8102.53,8039.82)"
font-family="MS Shell Dlg 2" font-size="130" font-weight="400" font-style="normal" 
>
<path vector-effect="none" fill-rule="evenodd" d="M0,3974 L53021,3974 L53021,-3974 L0,-3974 L0,3974"/>
</g>

<g fill="#c72e13" fill-opacity="0.713725" stroke="none" transform="matrix(0.02014,0,0,-0.0201417,8102.53,8039.82)"
font-family="MS Shell Dlg 2" font-size="130" font-weight="400" font-style="normal" 
>
<path vector-effect="none" fill-rule="evenodd" d="M0,-8165 L53021,-8165 L53021,-16112 L0,-16112 L0,-8165"/>
</g>

<g fill="#c72e13" fill-opacity="0.713725" stroke="none" transform="matrix(0.02014,0,0,0.0201417,9170.37,8284.32)"
font-family="MS Shell Dlg 2" font-size="130" font-weight="400" font-style="normal" 
>
<path vector-effect="none" fill-rule="nonzero" d="M0,3974 L0,-3974 L7947,3974 L0,3974"/>
</g>

<g fill="#c72e13" fill-opacity="0.713725" stroke="none" transform="matrix(0,-0.0201417,-0.02014,0,9250.4,8520.26)"
font-family="MS Shell Dlg 2" font-size="130" font-weight="400" font-style="normal" 
>
<path vector-effect="none" fill-rule="evenodd" d="M0,4237 L7740,4237 L7740,-4237 L0,-4237 L0,4237"/>
</g>

<g fill="#c72e13" fill-opacity="0.713725" stroke="none" transform="matrix(0,-0.0201417,-0.02014,0,9250.4,8752.92)"
font-family="MS Shell Dlg 2" font-size="130" font-weight="400" font-style="normal" 
>
<path vector-effect="none" fill-rule="nonzero" d="M0,4237 L0,-4237 L11551,-4237 L11551,4237 L0,4237"/>
</g>

<g fill="#c72e13" fill-opacity="0.713725" stroke="none" transform="matrix(0,-0.0201417,-0.02014,0,9250.4,9336.72)"
font-family="MS Shell Dlg 2" font-size="130" font-weight="400" font-style="normal" 
>
<path vector-effect="none" fill-rule="evenodd" d="M0,4237 L28985,4237 L28985,-4237 L0,-4237 L0,4237"/>
</g>

<g fill="#c72e13" fill-opacity="0.713725" stroke="none" transform="matrix(0.02014,0,0,-0.0201417,9335.74,8636.6)"
font-family="MS Shell Dlg 2" font-size="130" font-weight="400" font-style="normal" 
>
<path vector-effect="none" fill-rule="evenodd" d="M0,5775 L14315,5775 L14315,-5775 L0,-5775 L0,5775"/>
</g>

<g stroke="#6a3a00" stroke-opacity="1" stroke-width="1" stroke-linecap="butt" stroke-linejoin="bevel" transform="matrix(2.04622,0,0,2.04639,9422.58,8651.95)"
font-family="Arial For CAE" font-size="25" font-weight="400" font-style="normal" 
>
<text fill="#6a3a00" fill-opacity="1" stroke="none" xml:space="preserve" x="0" y="0" font-family="Arial For CAE" font-size="25" font-weight="400" font-style="normal" 
 >TL14</text>
</g>

<g stroke="#6a3a00" stroke-opacity="1" stroke-width="1" stroke-linecap="butt" stroke-linejoin="bevel" transform="matrix(2.04622,0,0,2.04639,9183.9,9352.07)"
font-family="Arial For CAE" font-size="25" font-weight="400" font-style="normal" 
>
<text fill="#6a3a00" fill-opacity="1" stroke="none" xml:space="preserve" x="0" y="0" font-family="Arial For CAE" font-size="25" font-weight="400" font-style="normal" 
 >Dis29</text>
</g>

<g stroke="#6a3a00" stroke-opacity="1" stroke-width="1" stroke-linecap="butt" stroke-linejoin="bevel" transform="matrix(2.04622,0,0,2.04639,9193.11,9060.18)"
font-family="Arial For CAE" font-size="25" font-weight="400" font-style="normal" 
>
<text fill="#6a3a00" fill-opacity="1" stroke="none" xml:space="preserve" x="0" y="0" font-family="Arial For CAE" font-size="25" font-weight="400" font-style="normal" 
 >TL13</text>
</g>

<g stroke="#6a3a00" stroke-opacity="1" stroke-width="1" stroke-linecap="butt" stroke-linejoin="bevel" transform="matrix(2.04622,0,0,2.04639,9183.9,8651.95)"
font-family="Arial For CAE" font-size="25" font-weight="400" font-style="normal" 
>
<text fill="#6a3a00" fill-opacity="1" stroke="none" xml:space="preserve" x="0" y="0" font-family="Arial For CAE" font-size="25" font-weight="400" font-style="normal" 
 >Dis28</text>
</g>

<g stroke="#6a3a00" stroke-opacity="1" stroke-width="1" stroke-linecap="butt" stroke-linejoin="bevel" transform="matrix(2.04622,0,0,2.04639,9193.11,8457.66)"
font-family="Arial For CAE" font-size="25" font-weight="400" font-style="normal" 
>
<text fill="#6a3a00" fill-opacity="1" stroke="none" xml:space="preserve" x="0" y="0" font-family="Arial For CAE" font-size="25" font-weight="400" font-style="normal" 
 >TL12</text>
</g>

<g stroke="#6a3a00" stroke-opacity="1" stroke-width="1" stroke-linecap="butt" stroke-linejoin="bevel" transform="matrix(2.04622,0,0,2.04639,9183.88,8299.67)"
font-family="Arial For CAE" font-size="25" font-weight="400" font-style="normal" 
>
<text fill="#6a3a00" fill-opacity="1" stroke="none" xml:space="preserve" x="0" y="0" font-family="Arial For CAE" font-size="25" font-weight="400" font-style="normal" 
 >Dis27</text>
</g>

<g stroke="#6a3a00" stroke-opacity="1" stroke-width="1" stroke-linecap="butt" stroke-linejoin="bevel" transform="matrix(2.04622,0,0,2.04639,9103.87,8055.17)"
font-family="Arial For CAE" font-size="25" font-weight="400" font-style="normal" 
>
<text fill="#6a3a00" fill-opacity="1" stroke="none" xml:space="preserve" x="0" y="0" font-family="Arial For CAE" font-size="25" font-weight="400" font-style="normal" 
 >Dis25</text>
</g>

<g stroke="#6a3a00" stroke-opacity="1" stroke-width="1" stroke-linecap="butt" stroke-linejoin="bevel" transform="matrix(2.04622,0,0,2.04639,8036.03,8299.67)"
font-family="Arial For CAE" font-size="25" font-weight="400" font-style="normal" 
>
<text fill="#6a3a00" fill-opacity="1" stroke="none" xml:space="preserve" x="0" y="0" font-family="Arial For CAE" font-size="25" font-weight="400" font-style="normal" 
 >Dis26</text>
</g>

<g stroke="#6a3a00" stroke-opacity="1" stroke-width="1" stroke-linecap="butt" stroke-linejoin="bevel" transform="matrix(2.04622,0,0,2.04639,8581.19,8177.41)"
font-family="Arial For CAE" font-size="25" font-weight="400" font-style="normal" 
>
<text fill="#6a3a00" fill-opacity="1" stroke="none" xml:space="preserve" x="0" y="0" font-family="Arial For CAE" font-size="25" font-weight="400" font-style="normal" 
 >TL11</text>
</g>

<g stroke="#6a3a00" stroke-opacity="1" stroke-width="1" stroke-linecap="butt" stroke-linejoin="bevel" transform="matrix(2.04622,0,0,2.04639,8036.03,8055.17)"
font-family="Arial For CAE" font-size="25" font-weight="400" font-style="normal" 
>
<text fill="#6a3a00" fill-opacity="1" stroke="none" xml:space="preserve" x="0" y="0" font-family="Arial For CAE" font-size="25" font-weight="400" font-style="normal" 
 >Dis24</text>
</g>

<g stroke="#6a3a00" stroke-opacity="1" stroke-width="1" stroke-linecap="butt" stroke-linejoin="bevel" transform="matrix(2.04622,0,0,2.04639,8036.03,7735.12)"
font-family="Arial For CAE" font-size="25" font-weight="400" font-style="normal" 
>
<text fill="#6a3a00" fill-opacity="1" stroke="none" xml:space="preserve" x="0" y="0" font-family="Arial For CAE" font-size="25" font-weight="400" font-style="normal" 
 >Dis22</text>
</g>

<g stroke="#6a3a00" stroke-opacity="1" stroke-width="1" stroke-linecap="butt" stroke-linejoin="bevel" transform="matrix(2.04622,0,0,2.04639,6979.64,8055.17)"
font-family="Arial For CAE" font-size="25" font-weight="400" font-style="normal" 
>
<text fill="#6a3a00" fill-opacity="1" stroke="none" xml:space="preserve" x="0" y="0" font-family="Arial For CAE" font-size="25" font-weight="400" font-style="normal" 
 >Dis23</text>
</g>

<g stroke="#6a3a00" stroke-opacity="1" stroke-width="1" stroke-linecap="butt" stroke-linejoin="bevel" transform="matrix(2.04622,0,0,2.04639,7517.04,7895.14)"
font-family="Arial For CAE" font-size="25" font-weight="400" font-style="normal" 
>
<text fill="#6a3a00" fill-opacity="1" stroke="none" xml:space="preserve" x="0" y="0" font-family="Arial For CAE" font-size="25" font-weight="400" font-style="normal" 
 >TL10</text>
</g>

<g stroke="#6a3a00" stroke-opacity="1" stroke-width="1" stroke-linecap="butt" stroke-linejoin="bevel" transform="matrix(2.04622,0,0,2.04639,6979.64,7735.12)"
font-family="Arial For CAE" font-size="25" font-weight="400" font-style="normal" 
>
<text fill="#6a3a00" fill-opacity="1" stroke="none" xml:space="preserve" x="0" y="0" font-family="Arial For CAE" font-size="25" font-weight="400" font-style="normal" 
 >Dis21</text>
</g>

<g stroke="#6a3a00" stroke-opacity="1" stroke-width="1" stroke-linecap="butt" stroke-linejoin="bevel" transform="matrix(2.04622,0,0,2.04639,6979.64,7385.38)"
font-family="Arial For CAE" font-size="25" font-weight="400" font-style="normal" 
>
<text fill="#6a3a00" fill-opacity="1" stroke="none" xml:space="preserve" x="0" y="0" font-family="Arial For CAE" font-size="25" font-weight="400" font-style="normal" 
 >Dis19</text>
</g>

<g stroke="#6a3a00" stroke-opacity="1" stroke-width="1" stroke-linecap="butt" stroke-linejoin="bevel" transform="matrix(2.04622,0,0,2.04639,5923.26,7735.12)"
font-family="Arial For CAE" font-size="25" font-weight="400" font-style="normal" 
>
<text fill="#6a3a00" fill-opacity="1" stroke="none" xml:space="preserve" x="0" y="0" font-family="Arial For CAE" font-size="25" font-weight="400" font-style="normal" 
 >Dis20</text>
</g>

<g stroke="#6a3a00" stroke-opacity="1" stroke-width="1" stroke-linecap="butt" stroke-linejoin="bevel" transform="matrix(2.04622,0,0,2.04639,6474.99,7560.25)"
font-family="Arial For CAE" font-size="25" font-weight="400" font-style="normal" 
>
<text fill="#6a3a00" fill-opacity="1" stroke="none" xml:space="preserve" x="0" y="0" font-family="Arial For CAE" font-size="25" font-weight="400" font-style="normal" 
 >TL9</text>
</g>

<g stroke="#6a3a00" stroke-opacity="1" stroke-width="1" stroke-linecap="butt" stroke-linejoin="bevel" transform="matrix(2.04622,0,0,2.04639,5923.26,7385.38)"
font-family="Arial For CAE" font-size="25" font-weight="400" font-style="normal" 
>
<text fill="#6a3a00" fill-opacity="1" stroke="none" xml:space="preserve" x="0" y="0" font-family="Arial For CAE" font-size="25" font-weight="400" font-style="normal" 
 >Dis18</text>
</g>

<g stroke="#6a3a00" stroke-opacity="1" stroke-width="1" stroke-linecap="butt" stroke-linejoin="bevel" transform="matrix(2.04622,0,0,2.04639,5923.26,7025.91)"
font-family="Arial For CAE" font-size="25" font-weight="400" font-style="normal" 
>
<text fill="#6a3a00" fill-opacity="1" stroke="none" xml:space="preserve" x="0" y="0" font-family="Arial For CAE" font-size="25" font-weight="400" font-style="normal" 
 >Dis16</text>
</g>

<g stroke="#6a3a00" stroke-opacity="1" stroke-width="1" stroke-linecap="butt" stroke-linejoin="bevel" transform="matrix(2.04622,0,0,2.04639,4866.36,7385.38)"
font-family="Arial For CAE" font-size="25" font-weight="400" font-style="normal" 
>
<text fill="#6a3a00" fill-opacity="1" stroke="none" xml:space="preserve" x="0" y="0" font-family="Arial For CAE" font-size="25" font-weight="400" font-style="normal" 
 >Dis17</text>
</g>

<g stroke="#6a3a00" stroke-opacity="1" stroke-width="1" stroke-linecap="butt" stroke-linejoin="bevel" transform="matrix(2.04622,0,0,2.04639,5418.34,7205.65)"
font-family="Arial For CAE" font-size="25" font-weight="400" font-style="normal" 
>
<text fill="#6a3a00" fill-opacity="1" stroke="none" xml:space="preserve" x="0" y="0" font-family="Arial For CAE" font-size="25" font-weight="400" font-style="normal" 
 >TL8</text>
</g>

<g stroke="#6a3a00" stroke-opacity="1" stroke-width="1" stroke-linecap="butt" stroke-linejoin="bevel" transform="matrix(2.04622,0,0,2.04639,4866.36,7025.91)"
font-family="Arial For CAE" font-size="25" font-weight="400" font-style="normal" 
>
<text fill="#6a3a00" fill-opacity="1" stroke="none" xml:space="preserve" x="0" y="0" font-family="Arial For CAE" font-size="25" font-weight="400" font-style="normal" 
 >Dis15</text>
</g>

<g stroke="#6a3a00" stroke-opacity="1" stroke-width="1" stroke-linecap="butt" stroke-linejoin="bevel" transform="matrix(2.04622,0,0,2.04639,4866.36,6666.44)"
font-family="Arial For CAE" font-size="25" font-weight="400" font-style="normal" 
>
<text fill="#6a3a00" fill-opacity="1" stroke="none" xml:space="preserve" x="0" y="0" font-family="Arial For CAE" font-size="25" font-weight="400" font-style="normal" 
 >Dis13</text>
</g>

<g stroke="#6a3a00" stroke-opacity="1" stroke-width="1" stroke-linecap="butt" stroke-linejoin="bevel" transform="matrix(2.04622,0,0,2.04639,3809.45,7025.91)"
font-family="Arial For CAE" font-size="25" font-weight="400" font-style="normal" 
>
<text fill="#6a3a00" fill-opacity="1" stroke="none" xml:space="preserve" x="0" y="0" font-family="Arial For CAE" font-size="25" font-weight="400" font-style="normal" 
 >Dis14</text>
</g>

<g stroke="#6a3a00" stroke-opacity="1" stroke-width="1" stroke-linecap="butt" stroke-linejoin="bevel" transform="matrix(2.04622,0,0,2.04639,4361.44,6846.19)"
font-family="Arial For CAE" font-size="25" font-weight="400" font-style="normal" 
>
<text fill="#6a3a00" fill-opacity="1" stroke="none" xml:space="preserve" x="0" y="0" font-family="Arial For CAE" font-size="25" font-weight="400" font-style="normal" 
 >TL7</text>
</g>

<g stroke="#6a3a00" stroke-opacity="1" stroke-width="1" stroke-linecap="butt" stroke-linejoin="bevel" transform="matrix(2.04622,0,0,2.04639,3809.45,6666.44)"
font-family="Arial For CAE" font-size="25" font-weight="400" font-style="normal" 
>
<text fill="#6a3a00" fill-opacity="1" stroke="none" xml:space="preserve" x="0" y="0" font-family="Arial For CAE" font-size="25" font-weight="400" font-style="normal" 
 >Dis12</text>
</g>

<g stroke="#6a3a00" stroke-opacity="1" stroke-width="1" stroke-linecap="butt" stroke-linejoin="bevel" transform="matrix(2.04622,0,0,2.04639,3809.45,6316.7)"
font-family="Arial For CAE" font-size="25" font-weight="400" font-style="normal" 
>
<text fill="#6a3a00" fill-opacity="1" stroke="none" xml:space="preserve" x="0" y="0" font-family="Arial For CAE" font-size="25" font-weight="400" font-style="normal" 
 >Dis10</text>
</g>

<g stroke="#6a3a00" stroke-opacity="1" stroke-width="1" stroke-linecap="butt" stroke-linejoin="bevel" transform="matrix(2.04622,0,0,2.04639,2755.12,6666.44)"
font-family="Arial For CAE" font-size="25" font-weight="400" font-style="normal" 
>
<text fill="#6a3a00" fill-opacity="1" stroke="none" xml:space="preserve" x="0" y="0" font-family="Arial For CAE" font-size="25" font-weight="400" font-style="normal" 
 >Dis11</text>
</g>

<g stroke="#6a3a00" stroke-opacity="1" stroke-width="1" stroke-linecap="butt" stroke-linejoin="bevel" transform="matrix(2.04622,0,0,2.04639,3304.8,6491.57)"
font-family="Arial For CAE" font-size="25" font-weight="400" font-style="normal" 
>
<text fill="#6a3a00" fill-opacity="1" stroke="none" xml:space="preserve" x="0" y="0" font-family="Arial For CAE" font-size="25" font-weight="400" font-style="normal" 
 >TL6</text>
</g>

<g stroke="#6a3a00" stroke-opacity="1" stroke-width="1" stroke-linecap="butt" stroke-linejoin="bevel" transform="matrix(2.04622,0,0,2.04639,2767.39,6316.7)"
font-family="Arial For CAE" font-size="25" font-weight="400" font-style="normal" 
>
<text fill="#6a3a00" fill-opacity="1" stroke="none" xml:space="preserve" x="0" y="0" font-family="Arial For CAE" font-size="25" font-weight="400" font-style="normal" 
 >Dis9</text>
</g>

<g stroke="#6a3a00" stroke-opacity="1" stroke-width="1" stroke-linecap="butt" stroke-linejoin="bevel" transform="matrix(2.04622,0,0,2.04639,2767.39,5996.65)"
font-family="Arial For CAE" font-size="25" font-weight="400" font-style="normal" 
>
<text fill="#6a3a00" fill-opacity="1" stroke="none" xml:space="preserve" x="0" y="0" font-family="Arial For CAE" font-size="25" font-weight="400" font-style="normal" 
 >Dis7</text>
</g>

<g stroke="#6a3a00" stroke-opacity="1" stroke-width="1" stroke-linecap="butt" stroke-linejoin="bevel" transform="matrix(2.04622,0,0,2.04639,1711.01,6316.7)"
font-family="Arial For CAE" font-size="25" font-weight="400" font-style="normal" 
>
<text fill="#6a3a00" fill-opacity="1" stroke="none" xml:space="preserve" x="0" y="0" font-family="Arial For CAE" font-size="25" font-weight="400" font-style="normal" 
 >Dis8</text>
</g>

<g stroke="#6a3a00" stroke-opacity="1" stroke-width="1" stroke-linecap="butt" stroke-linejoin="bevel" transform="matrix(2.04622,0,0,2.04639,2248.42,6156.68)"
font-family="Arial For CAE" font-size="25" font-weight="400" font-style="normal" 
>
<text fill="#6a3a00" fill-opacity="1" stroke="none" xml:space="preserve" x="0" y="0" font-family="Arial For CAE" font-size="25" font-weight="400" font-style="normal" 
 >TL5</text>
</g>

<g stroke="#6a3a00" stroke-opacity="1" stroke-width="1" stroke-linecap="butt" stroke-linejoin="bevel" transform="matrix(2.04622,0,0,2.04639,1711.01,5996.65)"
font-family="Arial For CAE" font-size="25" font-weight="400" font-style="normal" 
>
<text fill="#6a3a00" fill-opacity="1" stroke="none" xml:space="preserve" x="0" y="0" font-family="Arial For CAE" font-size="25" font-weight="400" font-style="normal" 
 >Dis6</text>
</g>

<g stroke="#6a3a00" stroke-opacity="1" stroke-width="1" stroke-linecap="butt" stroke-linejoin="bevel" transform="matrix(2.04622,0,0,2.04639,1711.01,5752.15)"
font-family="Arial For CAE" font-size="25" font-weight="400" font-style="normal" 
>
<text fill="#6a3a00" fill-opacity="1" stroke="none" xml:space="preserve" x="0" y="0" font-family="Arial For CAE" font-size="25" font-weight="400" font-style="normal" 
 >Dis4</text>
</g>

<g stroke="#6a3a00" stroke-opacity="1" stroke-width="1" stroke-linecap="butt" stroke-linejoin="bevel" transform="matrix(2.04622,0,0,2.04639,643.17,5996.65)"
font-family="Arial For CAE" font-size="25" font-weight="400" font-style="normal" 
>
<text fill="#6a3a00" fill-opacity="1" stroke="none" xml:space="preserve" x="0" y="0" font-family="Arial For CAE" font-size="25" font-weight="400" font-style="normal" 
 >Dis5</text>
</g>

<g stroke="#6a3a00" stroke-opacity="1" stroke-width="1" stroke-linecap="butt" stroke-linejoin="bevel" transform="matrix(2.04622,0,0,2.04639,1186.29,5874.39)"
font-family="Arial For CAE" font-size="25" font-weight="400" font-style="normal" 
>
<text fill="#6a3a00" fill-opacity="1" stroke="none" xml:space="preserve" x="0" y="0" font-family="Arial For CAE" font-size="25" font-weight="400" font-style="normal" 
 >TL4</text>
</g>

<g stroke="#6a3a00" stroke-opacity="1" stroke-width="1" stroke-linecap="butt" stroke-linejoin="bevel" transform="matrix(2.04622,0,0,2.04639,563.133,5752.15)"
font-family="Arial For CAE" font-size="25" font-weight="400" font-style="normal" 
>
<text fill="#6a3a00" fill-opacity="1" stroke="none" xml:space="preserve" x="0" y="0" font-family="Arial For CAE" font-size="25" font-weight="400" font-style="normal" 
 >Dis3</text>
</g>

<g stroke="#6a3a00" stroke-opacity="1" stroke-width="1" stroke-linecap="butt" stroke-linejoin="bevel" transform="matrix(2.04622,0,0,2.04639,572.347,5594.16)"
font-family="Arial For CAE" font-size="25" font-weight="400" font-style="normal" 
>
<text fill="#6a3a00" fill-opacity="1" stroke="none" xml:space="preserve" x="0" y="0" font-family="Arial For CAE" font-size="25" font-weight="400" font-style="normal" 
 >TL3</text>
</g>

<g stroke="#6a3a00" stroke-opacity="1" stroke-width="1" stroke-linecap="butt" stroke-linejoin="bevel" transform="matrix(2.04622,0,0,2.04639,563.133,4699.75)"
font-family="Arial For CAE" font-size="25" font-weight="400" font-style="normal" 
>
<text fill="#6a3a00" fill-opacity="1" stroke="none" xml:space="preserve" x="0" y="0" font-family="Arial For CAE" font-size="25" font-weight="400" font-style="normal" 
 >Dis2</text>
</g>

<g stroke="#6a3a00" stroke-opacity="1" stroke-width="1" stroke-linecap="butt" stroke-linejoin="bevel" transform="matrix(2.04622,0,0,2.04639,572.347,4991.66)"
font-family="Arial For CAE" font-size="25" font-weight="400" font-style="normal" 
>
<text fill="#6a3a00" fill-opacity="1" stroke="none" xml:space="preserve" x="0" y="0" font-family="Arial For CAE" font-size="25" font-weight="400" font-style="normal" 
 >TL2</text>
</g>

<g stroke="#6a3a00" stroke-opacity="1" stroke-width="1" stroke-linecap="butt" stroke-linejoin="bevel" transform="matrix(2.04622,0,0,2.04639,563.133,5399.89)"
font-family="Arial For CAE" font-size="25" font-weight="400" font-style="normal" 
>
<text fill="#6a3a00" fill-opacity="1" stroke="none" xml:space="preserve" x="0" y="0" font-family="Arial For CAE" font-size="25" font-weight="400" font-style="normal" 
 >Dis1</text>
</g>

<g stroke="#6a3a00" stroke-opacity="1" stroke-width="1" stroke-linecap="butt" stroke-linejoin="bevel" transform="matrix(2.04622,0,0,2.04639,342.853,5399.87)"
font-family="Arial For CAE" font-size="25" font-weight="400" font-style="normal" 
>
<text fill="#6a3a00" fill-opacity="1" stroke="none" xml:space="preserve" x="0" y="0" font-family="Arial For CAE" font-size="25" font-weight="400" font-style="normal" 
 >TL1</text>
</g>

<g fill="#c72e13" fill-opacity="0.713725" stroke="#c72e13" stroke-opacity="1" stroke-width="1" stroke-linecap="butt" stroke-linejoin="bevel" transform="matrix(0.02014,0,0,-0.0201417,241.68,5384.52)"
font-family="Arial For CAE" font-size="25" font-weight="400" font-style="normal" 
>
<path vector-effect="non-scaling-stroke" fill-rule="evenodd" d="M465858,-161460 L475858,-161460 L465858,-161460 L468358,-163960 L465858,-161460 L468358,-158960"/>
</g>

<g stroke="#6a3a00" stroke-opacity="1" stroke-width="1" stroke-linecap="butt" stroke-linejoin="bevel" transform="matrix(2.04622,0,0,2.04639,9649.03,8651.95)"
font-family="Arial For CAE" font-size="25" font-weight="400" font-style="normal" 
>
<text fill="#6a3a00" fill-opacity="1" stroke="none" xml:space="preserve" x="0" y="0" font-family="Arial For CAE" font-size="25" font-weight="400" font-style="normal" 
 >Port_2</text>
</g>

<g fill="#c72e13" fill-opacity="0.713725" stroke="#c72e13" stroke-opacity="1" stroke-width="1" stroke-linecap="butt" stroke-linejoin="bevel" transform="matrix(0.02014,0,0,-0.0201417,241.68,5384.52)"
font-family="Arial For CAE" font-size="25" font-weight="400" font-style="normal" 
>
<path vector-effect="non-scaling-stroke" fill-rule="evenodd" d="M0,0 L-10000,0 L0,0 L-2500,2500 L0,0 L-2500,-2500"/>
</g>

<g stroke="#6a3a00" stroke-opacity="1" stroke-width="1" stroke-linecap="butt" stroke-linejoin="bevel" transform="matrix(2.04622,0,0,2.04639,65.2736,5399.87)"
font-family="Arial For CAE" font-size="25" font-weight="400" font-style="normal" 
>
<text fill="#6a3a00" fill-opacity="1" stroke="none" xml:space="preserve" x="0" y="0" font-family="Arial For CAE" font-size="25" font-weight="400" font-style="normal" 
 >Port_1</text>
</g>

<g fill="none" stroke="#0076d6" stroke-opacity="1" stroke-width="1" stroke-linecap="square" stroke-linejoin="bevel" transform="matrix(1,0,0,1,0,0)"
font-family="Arial For CAE" font-size="25" font-weight="400" font-style="normal" 
>
</g>

<g fill="none" stroke="#0076d6" stroke-opacity="1" stroke-width="1" stroke-linecap="square" stroke-linejoin="bevel" transform="matrix(1,0,0,1,0,0)"
font-family="Arial For CAE" font-size="25" font-weight="400" font-style="normal" 
>
</g>

<g fill="#0076d6" fill-opacity="1" stroke="none" transform="matrix(0.02014,0,0,-0.0201417,241.68,5384.52)"
font-family="Arial For CAE" font-size="25" font-weight="400" font-style="normal" 
>
<path vector-effect="none" fill-rule="evenodd" d="M-124,124 L124,124 L124,-124 L-124,-124 L-124,124"/>
</g>

<g fill="#0076d6" fill-opacity="1" stroke="none" transform="matrix(0.02014,0,0,-0.0201417,241.68,5384.52)"
font-family="Arial For CAE" font-size="25" font-weight="400" font-style="normal" 
>
<path vector-effect="none" fill-rule="evenodd" d="M14191,124 L14439,124 L14439,-124 L14191,-124 L14191,124"/>
</g>

<g fill="#0076d6" fill-opacity="1" stroke="none" transform="matrix(0.02014,0,0,-0.0201417,241.68,5384.52)"
font-family="Arial For CAE" font-size="25" font-weight="400" font-style="normal" 
>
<path vector-effect="none" fill-rule="evenodd" d="M18428,-13392 L18676,-13392 L18676,-13640 L18428,-13640 L18428,-13392"/>
</g>

<g fill="#0076d6" fill-opacity="1" stroke="none" transform="matrix(0.02014,0,0,-0.0201417,241.68,5384.52)"
font-family="Arial For CAE" font-size="25" font-weight="400" font-style="normal" 
>
<path vector-effect="none" fill-rule="evenodd" d="M18428,-5652 L18676,-5652 L18676,-5900 L18428,-5900 L18428,-5652"/>
</g>

<g fill="#0076d6" fill-opacity="1" stroke="none" transform="matrix(0.02014,0,0,-0.0201417,241.68,5384.52)"
font-family="Arial For CAE" font-size="25" font-weight="400" font-style="normal" 
>
<path vector-effect="none" fill-rule="evenodd" d="M18428,5899 L18676,5899 L18676,5651 L18428,5651 L18428,5899"/>
</g>

<g fill="#0076d6" fill-opacity="1" stroke="none" transform="matrix(0.02014,0,0,-0.0201417,241.68,5384.52)"
font-family="Arial For CAE" font-size="25" font-weight="400" font-style="normal" 
>
<path vector-effect="none" fill-rule="evenodd" d="M18428,34884 L18676,34884 L18676,34636 L18428,34636 L18428,34884"/>
</g>

<g fill="#0076d6" fill-opacity="1" stroke="none" transform="matrix(0.02014,0,0,-0.0201417,241.68,5384.52)"
font-family="Arial For CAE" font-size="25" font-weight="400" font-style="normal" 
>
<path vector-effect="none" fill-rule="evenodd" d="M22402,-29505 L22650,-29505 L22650,-29753 L22402,-29753 L22402,-29505"/>
</g>

<g fill="#0076d6" fill-opacity="1" stroke="none" transform="matrix(0.02014,0,0,-0.0201417,241.68,5384.52)"
font-family="Arial For CAE" font-size="25" font-weight="400" font-style="normal" 
>
<path vector-effect="none" fill-rule="evenodd" d="M22402,-17366 L22650,-17366 L22650,-17614 L22402,-17614 L22402,-17366"/>
</g>

<g fill="#0076d6" fill-opacity="1" stroke="none" transform="matrix(0.02014,0,0,-0.0201417,241.68,5384.52)"
font-family="Arial For CAE" font-size="25" font-weight="400" font-style="normal" 
>
<path vector-effect="none" fill-rule="evenodd" d="M75423,-45395 L75671,-45395 L75671,-45643 L75423,-45643 L75423,-45395"/>
</g>

<g fill="#0076d6" fill-opacity="1" stroke="none" transform="matrix(0.02014,0,0,-0.0201417,241.68,5384.52)"
font-family="Arial For CAE" font-size="25" font-weight="400" font-style="normal" 
>
<path vector-effect="none" fill-rule="evenodd" d="M75423,-29505 L75671,-29505 L75671,-29753 L75423,-29753 L75423,-29505"/>
</g>

<g fill="#0076d6" fill-opacity="1" stroke="none" transform="matrix(0.02014,0,0,-0.0201417,241.68,5384.52)"
font-family="Arial For CAE" font-size="25" font-weight="400" font-style="normal" 
>
<path vector-effect="none" fill-rule="evenodd" d="M75423,-17366 L75671,-17366 L75671,-17614 L75423,-17614 L75423,-17366"/>
</g>

<g fill="#0076d6" fill-opacity="1" stroke="none" transform="matrix(0.02014,0,0,-0.0201417,241.68,5384.52)"
font-family="Arial For CAE" font-size="25" font-weight="400" font-style="normal" 
>
<path vector-effect="none" fill-rule="evenodd" d="M127875,-62759 L128123,-62759 L128123,-63007 L127875,-63007 L127875,-62759"/>
</g>

<g fill="#0076d6" fill-opacity="1" stroke="none" transform="matrix(0.02014,0,0,-0.0201417,241.68,5384.52)"
font-family="Arial For CAE" font-size="25" font-weight="400" font-style="normal" 
>
<path vector-effect="none" fill-rule="evenodd" d="M127875,-45395 L128123,-45395 L128123,-45643 L127875,-45643 L127875,-45395"/>
</g>

<g fill="#0076d6" fill-opacity="1" stroke="none" transform="matrix(0.02014,0,0,-0.0201417,241.68,5384.52)"
font-family="Arial For CAE" font-size="25" font-weight="400" font-style="normal" 
>
<path vector-effect="none" fill-rule="evenodd" d="M127875,-29505 L128123,-29505 L128123,-29753 L127875,-29753 L127875,-29505"/>
</g>

<g fill="#0076d6" fill-opacity="1" stroke="none" transform="matrix(0.02014,0,0,-0.0201417,241.68,5384.52)"
font-family="Arial For CAE" font-size="25" font-weight="400" font-style="normal" 
>
<path vector-effect="none" fill-rule="evenodd" d="M180327,-80606 L180575,-80606 L180575,-80854 L180327,-80854 L180327,-80606"/>
</g>

<g fill="#0076d6" fill-opacity="1" stroke="none" transform="matrix(0.02014,0,0,-0.0201417,241.68,5384.52)"
font-family="Arial For CAE" font-size="25" font-weight="400" font-style="normal" 
>
<path vector-effect="none" fill-rule="evenodd" d="M180327,-62759 L180575,-62759 L180575,-63007 L180327,-63007 L180327,-62759"/>
</g>

<g fill="#0076d6" fill-opacity="1" stroke="none" transform="matrix(0.02014,0,0,-0.0201417,241.68,5384.52)"
font-family="Arial For CAE" font-size="25" font-weight="400" font-style="normal" 
>
<path vector-effect="none" fill-rule="evenodd" d="M180327,-45395 L180575,-45395 L180575,-45643 L180327,-45643 L180327,-45395"/>
</g>

<g fill="#0076d6" fill-opacity="1" stroke="none" transform="matrix(0.02014,0,0,-0.0201417,241.68,5384.52)"
font-family="Arial For CAE" font-size="25" font-weight="400" font-style="normal" 
>
<path vector-effect="none" fill-rule="evenodd" d="M232805,-98453 L233053,-98453 L233053,-98701 L232805,-98701 L232805,-98453"/>
</g>

<g fill="#0076d6" fill-opacity="1" stroke="none" transform="matrix(0.02014,0,0,-0.0201417,241.68,5384.52)"
font-family="Arial For CAE" font-size="25" font-weight="400" font-style="normal" 
>
<path vector-effect="none" fill-rule="evenodd" d="M232805,-80606 L233053,-80606 L233053,-80854 L232805,-80854 L232805,-80606"/>
</g>

<g fill="#0076d6" fill-opacity="1" stroke="none" transform="matrix(0.02014,0,0,-0.0201417,241.68,5384.52)"
font-family="Arial For CAE" font-size="25" font-weight="400" font-style="normal" 
>
<path vector-effect="none" fill-rule="evenodd" d="M232805,-62759 L233053,-62759 L233053,-63007 L232805,-63007 L232805,-62759"/>
</g>

<g fill="#0076d6" fill-opacity="1" stroke="none" transform="matrix(0.02014,0,0,-0.0201417,241.68,5384.52)"
font-family="Arial For CAE" font-size="25" font-weight="400" font-style="normal" 
>
<path vector-effect="none" fill-rule="evenodd" d="M285283,-115817 L285531,-115817 L285531,-116065 L285283,-116065 L285283,-115817"/>
</g>

<g fill="#0076d6" fill-opacity="1" stroke="none" transform="matrix(0.02014,0,0,-0.0201417,241.68,5384.52)"
font-family="Arial For CAE" font-size="25" font-weight="400" font-style="normal" 
>
<path vector-effect="none" fill-rule="evenodd" d="M285283,-98453 L285531,-98453 L285531,-98701 L285283,-98701 L285283,-98453"/>
</g>

<g fill="#0076d6" fill-opacity="1" stroke="none" transform="matrix(0.02014,0,0,-0.0201417,241.68,5384.52)"
font-family="Arial For CAE" font-size="25" font-weight="400" font-style="normal" 
>
<path vector-effect="none" fill-rule="evenodd" d="M285283,-80606 L285531,-80606 L285531,-80854 L285283,-80854 L285283,-80606"/>
</g>

<g fill="#0076d6" fill-opacity="1" stroke="none" transform="matrix(0.02014,0,0,-0.0201417,241.68,5384.52)"
font-family="Arial For CAE" font-size="25" font-weight="400" font-style="normal" 
>
<path vector-effect="none" fill-rule="evenodd" d="M337735,-131707 L337983,-131707 L337983,-131955 L337735,-131955 L337735,-131707"/>
</g>

<g fill="#0076d6" fill-opacity="1" stroke="none" transform="matrix(0.02014,0,0,-0.0201417,241.68,5384.52)"
font-family="Arial For CAE" font-size="25" font-weight="400" font-style="normal" 
>
<path vector-effect="none" fill-rule="evenodd" d="M337735,-115817 L337983,-115817 L337983,-116065 L337735,-116065 L337735,-115817"/>
</g>

<g fill="#0076d6" fill-opacity="1" stroke="none" transform="matrix(0.02014,0,0,-0.0201417,241.68,5384.52)"
font-family="Arial For CAE" font-size="25" font-weight="400" font-style="normal" 
>
<path vector-effect="none" fill-rule="evenodd" d="M337735,-98453 L337983,-98453 L337983,-98701 L337735,-98701 L337735,-98453"/>
</g>

<g fill="#0076d6" fill-opacity="1" stroke="none" transform="matrix(0.02014,0,0,-0.0201417,241.68,5384.52)"
font-family="Arial For CAE" font-size="25" font-weight="400" font-style="normal" 
>
<path vector-effect="none" fill-rule="evenodd" d="M390187,-143846 L390435,-143846 L390435,-144094 L390187,-144094 L390187,-143846"/>
</g>

<g fill="#0076d6" fill-opacity="1" stroke="none" transform="matrix(0.02014,0,0,-0.0201417,241.68,5384.52)"
font-family="Arial For CAE" font-size="25" font-weight="400" font-style="normal" 
>
<path vector-effect="none" fill-rule="evenodd" d="M390187,-131707 L390435,-131707 L390435,-131955 L390187,-131955 L390187,-131707"/>
</g>

<g fill="#0076d6" fill-opacity="1" stroke="none" transform="matrix(0.02014,0,0,-0.0201417,241.68,5384.52)"
font-family="Arial For CAE" font-size="25" font-weight="400" font-style="normal" 
>
<path vector-effect="none" fill-rule="evenodd" d="M390187,-115817 L390435,-115817 L390435,-116065 L390187,-116065 L390187,-115817"/>
</g>

<g fill="#0076d6" fill-opacity="1" stroke="none" transform="matrix(0.02014,0,0,-0.0201417,241.68,5384.52)"
font-family="Arial For CAE" font-size="25" font-weight="400" font-style="normal" 
>
<path vector-effect="none" fill-rule="evenodd" d="M443208,-143846 L443456,-143846 L443456,-144094 L443208,-144094 L443208,-143846"/>
</g>

<g fill="#0076d6" fill-opacity="1" stroke="none" transform="matrix(0.02014,0,0,-0.0201417,241.68,5384.52)"
font-family="Arial For CAE" font-size="25" font-weight="400" font-style="normal" 
>
<path vector-effect="none" fill-rule="evenodd" d="M443208,-131707 L443456,-131707 L443456,-131955 L443208,-131955 L443208,-131707"/>
</g>

<g fill="#0076d6" fill-opacity="1" stroke="none" transform="matrix(0.02014,0,0,-0.0201417,241.68,5384.52)"
font-family="Arial For CAE" font-size="25" font-weight="400" font-style="normal" 
>
<path vector-effect="none" fill-rule="evenodd" d="M447182,-196096 L447430,-196096 L447430,-196344 L447182,-196344 L447182,-196096"/>
</g>

<g fill="#0076d6" fill-opacity="1" stroke="none" transform="matrix(0.02014,0,0,-0.0201417,241.68,5384.52)"
font-family="Arial For CAE" font-size="25" font-weight="400" font-style="normal" 
>
<path vector-effect="none" fill-rule="evenodd" d="M447182,-167111 L447430,-167111 L447430,-167359 L447182,-167359 L447182,-167111"/>
</g>

<g fill="#0076d6" fill-opacity="1" stroke="none" transform="matrix(0.02014,0,0,-0.0201417,241.68,5384.52)"
font-family="Arial For CAE" font-size="25" font-weight="400" font-style="normal" 
>
<path vector-effect="none" fill-rule="evenodd" d="M447182,-155560 L447430,-155560 L447430,-155808 L447182,-155808 L447182,-155560"/>
</g>

<g fill="#0076d6" fill-opacity="1" stroke="none" transform="matrix(0.02014,0,0,-0.0201417,241.68,5384.52)"
font-family="Arial For CAE" font-size="25" font-weight="400" font-style="normal" 
>
<path vector-effect="none" fill-rule="evenodd" d="M447182,-147820 L447430,-147820 L447430,-148068 L447182,-148068 L447182,-147820"/>
</g>

<g fill="#0076d6" fill-opacity="1" stroke="none" transform="matrix(0.02014,0,0,-0.0201417,241.68,5384.52)"
font-family="Arial For CAE" font-size="25" font-weight="400" font-style="normal" 
>
<path vector-effect="none" fill-rule="evenodd" d="M451419,-161336 L451667,-161336 L451667,-161584 L451419,-161584 L451419,-161336"/>
</g>

<g fill="#0076d6" fill-opacity="1" stroke="none" transform="matrix(0.02014,0,0,-0.0201417,241.68,5384.52)"
font-family="Arial For CAE" font-size="25" font-weight="400" font-style="normal" 
>
<path vector-effect="none" fill-rule="evenodd" d="M465734,-161336 L465982,-161336 L465982,-161584 L465734,-161584 L465734,-161336"/>
</g>

<g fill="none" stroke="#0c0000" stroke-opacity="1" stroke-dasharray="1,2" stroke-dashoffset="0" stroke-width="1" stroke-linecap="square" stroke-linejoin="bevel" transform="matrix(0.02014,0,0,-0.0201417,241.68,5384.52)"
font-family="Arial For CAE" font-size="25" font-weight="400" font-style="normal" 
>
</g>
</g>
</svg>
