<?xml version="1.0" encoding="UTF-8" standalone="no"?>
<svg width="210.058mm" height="296.926mm"
 viewBox="0 0 9917 14033"
 xmlns="http://www.w3.org/2000/svg" xmlns:xlink="http://www.w3.org/1999/xlink"  version="1.2" baseProfile="tiny">
<title>Qt SVG Document</title>
<desc>Generated with Qt</desc>
<defs>
</defs>
<g fill="none" stroke="black" stroke-width="1" fill-rule="evenodd" stroke-linecap="square" stroke-linejoin="bevel" >

<g fill="none" stroke="#000000" stroke-opacity="1" stroke-width="1" stroke-linecap="square" stroke-linejoin="bevel" transform="matrix(5.59414,0,0,-5.59402,447.531,6568.48)"
font-family="MS Shell Dlg 2" font-size="130" font-weight="400" font-style="normal" 
>
</g>

<g fill="none" stroke="#c71585" stroke-opacity="1" stroke-width="3" stroke-linecap="butt" stroke-linejoin="bevel" transform="matrix(5.59414,0,0,-5.59402,447.531,6568.48)"
font-family="MS Shell Dlg 2" font-size="130" font-weight="400" font-style="normal" 
>
<polyline fill="none" vector-effect="none" points="520,0 920,0 " />
<polyline fill="none" vector-effect="none" points="1080,0 1160,0 " />
<polyline fill="none" vector-effect="none" points="60,0 360,0 " />
</g>

<g fill="none" stroke="#0000cd" stroke-opacity="1" stroke-width="3" stroke-linecap="butt" stroke-linejoin="bevel" transform="matrix(-5.59414,0,0,5.59402,783.179,6568.48)"
font-family="MS Shell Dlg 2" font-size="130" font-weight="400" font-style="normal" 
>
<path vector-effect="none" fill-rule="evenodd" d="M20,30 L140,30 L140,-30 L20,-30 L20,30"/>
<polyline fill="none" vector-effect="none" points="123,0 101,0 93,-11 82,11 71,-11 60,11 48,-11 37,11 30,0 7,0 " />
<polyline fill="none" vector-effect="none" points="129,3 129,-4 " />
<polyline fill="none" vector-effect="none" points="126,5 126,-6 " />
<polyline fill="none" vector-effect="none" points="123,8 123,-8 " />
<polyline fill="none" vector-effect="none" points="0,0 7,0 " />
<polyline fill="none" vector-effect="none" points="6,5 12,-5 " />
</g>

<g fill="#ff4500" fill-opacity="1" stroke="#ff4500" stroke-opacity="1" stroke-width="3" stroke-linecap="butt" stroke-linejoin="bevel" transform="matrix(-5.59414,0,0,5.59402,783.179,6568.48)"
font-family="MS Shell Dlg 2" font-size="130" font-weight="400" font-style="normal" 
>
<polyline fill="none" vector-effect="none" points="26,-20 36,-20 " />
<polyline fill="none" vector-effect="none" points="31,-15 31,-25 " />
</g>

<g fill="none" stroke="#000000" stroke-opacity="1" stroke-width="1" stroke-linecap="butt" stroke-linejoin="bevel" transform="matrix(2.01389,0,0,2.01385,6147.96,6583.58)"
font-family="Arial For CAE" font-size="25" font-weight="400" font-style="normal" 
>
<text fill="#000000" fill-opacity="1" stroke="none" xml:space="preserve" x="0" y="0" font-family="Arial For CAE" font-size="25" font-weight="400" font-style="normal" 
 >Ref</text>
</g>

<g fill="none" stroke="#000000" stroke-opacity="1" stroke-width="1" stroke-linecap="butt" stroke-linejoin="bevel" transform="matrix(2.01389,0,0,2.01385,5843.08,6583.58)"
font-family="Arial For CAE" font-size="25" font-weight="400" font-style="normal" 
>
<text fill="#000000" fill-opacity="1" stroke="none" xml:space="preserve" x="0" y="0" font-family="Arial For CAE" font-size="25" font-weight="400" font-style="normal" 
 >1</text>
</g>

<g fill="none" stroke="#0000cd" stroke-opacity="1" stroke-width="3" stroke-linecap="butt" stroke-linejoin="bevel" transform="matrix(5.59414,0,0,-5.59402,5594.14,6568.48)"
font-family="Arial For CAE" font-size="25" font-weight="400" font-style="normal" 
>
<polyline fill="none" vector-effect="none" points="40,40 120,40 120,-40 40,-40 40,0 " />
<polyline fill="none" vector-effect="none" points="40,40 40,0 0,0 " />
<polyline fill="none" vector-effect="none" points="120,0 160,0 " />
<polyline fill="none" vector-effect="none" points="8,6 5,-6 " />
</g>

<g fill="none" stroke="#0000cd" stroke-opacity="1" stroke-width="3" stroke-linecap="butt" stroke-linejoin="bevel" transform="matrix(5.59414,0,0,-5.59402,6936.73,6568.48)"
font-family="Arial For CAE" font-size="25" font-weight="400" font-style="normal" 
>
<polyline fill="none" vector-effect="none" points="30,16 30,-16 " />
<polyline fill="none" vector-effect="none" points="40,12 40,-12 " />
<polyline fill="none" vector-effect="none" points="0,0 20,0 " />
<polyline fill="none" vector-effect="none" points="20,20 20,-20 " />
</g>

<g fill="none" stroke="#000000" stroke-opacity="1" stroke-width="1" stroke-linecap="butt" stroke-linejoin="bevel" transform="matrix(6.93673,0,0,6.93658,5465.47,4788.46)"
font-family="Arial For CAE" font-size="25" font-weight="400" font-style="normal" 
>
<text fill="#000000" fill-opacity="1" stroke="none" xml:space="preserve" x="0" y="0" font-family="Arial For CAE" font-size="25" font-weight="400" font-style="normal" 
 >S-PARAMETERS</text>
</g>

<g fill="none" stroke="#0000cd" stroke-opacity="1" stroke-width="3" stroke-linecap="butt" stroke-linejoin="bevel" transform="matrix(5.59414,0,0,-5.59402,4810.96,4554.63)"
font-family="Arial For CAE" font-size="25" font-weight="400" font-style="normal" 
>
<path vector-effect="none" fill-rule="evenodd" d="M85,0 L404,0 L404,-67 L85,-67 L85,0"/>
<path vector-effect="none" fill-rule="evenodd" d="M0,0 L85,0 L85,-67 L0,-67 L0,0"/>
</g>

<g fill="none" stroke="#0000cd" stroke-opacity="1" stroke-width="1" stroke-linecap="butt" stroke-linejoin="bevel" transform="matrix(5.59414,0,0,-5.59402,4810.96,4554.63)"
font-family="Arial For CAE" font-size="25" font-weight="400" font-style="normal" 
>
<polyline fill="none" vector-effect="none" points="48,-27 42,-31 35,-27 35,-12 " />
<polyline fill="none" vector-effect="none" points="21,-17 27,-12 35,-15 " />
<polyline fill="none" vector-effect="none" points="15,-27 17,-23 25,-23 " />
<polyline fill="none" vector-effect="none" points="35,-50 37,-58 " />
<polyline fill="none" vector-effect="none" points="35,-37 37,-44 " />
<polyline fill="none" vector-effect="none" points="29,-35 35,-37 35,-50 29,-48 " />
<polyline fill="none" vector-effect="none" points="21,-40 17,-35 17,-48 21,-52 " />
<polyline fill="none" vector-effect="none" points="29,-35 21,-40 21,-52 29,-48 29,-35 " />
<polyline fill="none" vector-effect="none" points="42,-15 35,-12 35,-8 42,-6 48,-8 48,-12 42,-15 " />
<polyline fill="none" vector-effect="none" points="62,-17 56,-12 48,-15 " />
<polyline fill="none" vector-effect="none" points="58,-23 54,-19 62,-17 62,-23 " />
<polyline fill="none" vector-effect="none" points="69,-27 67,-23 58,-23 " />
<polyline fill="none" vector-effect="none" points="69,-27 69,-40 67,-40 " />
<polyline fill="none" vector-effect="none" points="58,-31 60,-27 " />
<polyline fill="none" vector-effect="none" points="48,-50 46,-58 " />
<polyline fill="none" vector-effect="none" points="48,-37 46,-44 " />
<polyline fill="none" vector-effect="none" points="54,-35 48,-37 48,-50 54,-48 " />
<polyline fill="none" vector-effect="none" points="67,-35 58,-31 " />
<polyline fill="none" vector-effect="none" points="62,-40 67,-35 67,-48 62,-52 " />
<polyline fill="none" vector-effect="none" points="54,-35 62,-40 62,-52 54,-48 54,-35 " />
<polyline fill="none" vector-effect="none" points="37,-58 42,-58 " />
<polyline fill="none" vector-effect="none" points="37,-44 37,-58 " />
<polyline fill="none" vector-effect="none" points="37,-44 42,-44 " />
<polyline fill="none" vector-effect="none" points="48,-12 48,-27 " />
<polyline fill="none" vector-effect="none" points="60,-27 69,-27 " />
<polyline fill="none" vector-effect="none" points="42,-58 46,-58 " />
<polyline fill="none" vector-effect="none" points="46,-44 46,-58 " />
<polyline fill="none" vector-effect="none" points="42,-44 46,-44 " />
</g>

<g fill="#0000cd" fill-opacity="1" stroke="none" transform="matrix(5.59414,0,0,-5.59402,4810.96,4554.63)"
font-family="Arial For CAE" font-size="25" font-weight="400" font-style="normal" 
>
<path vector-effect="none" fill-rule="nonzero" d="M8,-67 L8,-75 L412,-75 L412,-8 L404,-8 L404,-67 L8,-67"/>
</g>

<g fill="#0000cd" fill-opacity="1" stroke="none" transform="matrix(5.59414,0,0,-5.59402,4810.96,4554.63)"
font-family="Arial For CAE" font-size="25" font-weight="400" font-style="normal" 
>
<path vector-effect="none" fill-rule="nonzero" d="M42,-15 L48,-12 L48,-27 L42,-31 L42,-15"/>
</g>

<g fill="#0000cd" fill-opacity="1" stroke="#0000cd" stroke-opacity="1" stroke-width="1" stroke-linecap="butt" stroke-linejoin="bevel" transform="matrix(5.59414,0,0,-5.59402,4810.96,4554.63)"
font-family="Arial For CAE" font-size="25" font-weight="400" font-style="normal" 
>
<polyline fill="none" vector-effect="none" points="35,-12 42,-15 42,-31 35,-27 35,-12 " />
<polyline fill="none" vector-effect="none" points="35,-12 42,-15 " />
</g>

<g fill="#0000cd" fill-opacity="1" stroke="none" transform="matrix(5.59414,0,0,-5.59402,4810.96,4554.63)"
font-family="Arial For CAE" font-size="25" font-weight="400" font-style="normal" 
>
<path vector-effect="none" fill-rule="nonzero" d="M48,-37 L46,-44 L46,-58 L48,-50 L48,-37"/>
</g>

<g fill="#0000cd" fill-opacity="1" stroke="none" transform="matrix(5.59414,0,0,-5.59402,4810.96,4554.63)"
font-family="Arial For CAE" font-size="25" font-weight="400" font-style="normal" 
>
<path vector-effect="none" fill-rule="nonzero" d="M29,-35 L21,-40 L21,-52 L29,-48 L29,-35"/>
</g>

<g fill="#0000cd" fill-opacity="1" stroke="none" transform="matrix(5.59414,0,0,-5.59402,4810.96,4554.63)"
font-family="Arial For CAE" font-size="25" font-weight="400" font-style="normal" 
>
<path vector-effect="none" fill-rule="nonzero" d="M54,-35 L48,-37 L48,-50 L54,-48 L54,-35"/>
</g>

<g fill="#0000cd" fill-opacity="1" stroke="none" transform="matrix(5.59414,0,0,-5.59402,4810.96,4554.63)"
font-family="Arial For CAE" font-size="25" font-weight="400" font-style="normal" 
>
<path vector-effect="none" fill-rule="nonzero" d="M54,-35 L62,-40 L62,-52 L54,-48 L54,-35"/>
</g>

<g fill="#0000cd" fill-opacity="1" stroke="none" transform="matrix(5.59414,0,0,-5.59402,4810.96,4554.63)"
font-family="Arial For CAE" font-size="25" font-weight="400" font-style="normal" 
>
<path vector-effect="none" fill-rule="nonzero" d="M60,-27 L58,-31 L67,-35 L67,-40 L69,-40 L69,-27 L60,-27"/>
</g>

<g fill="#0000cd" fill-opacity="1" stroke="none" transform="matrix(5.59414,0,0,-5.59402,4810.96,4554.63)"
font-family="Arial For CAE" font-size="25" font-weight="400" font-style="normal" 
>
<path vector-effect="none" fill-rule="nonzero" d="M54,-19 L62,-17 L62,-23 L58,-23 L54,-19"/>
</g>

<g fill="#0000cd" fill-opacity="1" stroke="none" transform="matrix(5.59414,0,0,-5.59402,4810.96,4554.63)"
font-family="Arial For CAE" font-size="25" font-weight="400" font-style="normal" 
>
<path vector-effect="none" fill-rule="nonzero" d="M29,-35 L35,-37 L37,-44 L37,-58 L35,-50 L29,-48 L29,-35"/>
</g>

<g fill="#0000cd" fill-opacity="1" stroke="none" transform="matrix(5.59414,0,0,-5.59402,4810.96,4554.63)"
font-family="Arial For CAE" font-size="25" font-weight="400" font-style="normal" 
>
<path vector-effect="none" fill-rule="nonzero" d="M21,-17 L29,-19 L25,-23 L21,-23 L21,-17"/>
</g>

<g fill="#0000cd" fill-opacity="1" stroke="none" transform="matrix(5.59414,0,0,-5.59402,4810.96,4554.63)"
font-family="Arial For CAE" font-size="25" font-weight="400" font-style="normal" 
>
<path vector-effect="none" fill-rule="nonzero" d="M17,-40 L15,-40 L15,-27 L23,-27 L25,-31 L17,-35 L17,-40"/>
</g>

<g fill="none" stroke="#000000" stroke-opacity="1" stroke-width="1" stroke-linecap="butt" stroke-linejoin="bevel" transform="matrix(6.4892,0,0,6.48906,2911.75,4827.06)"
font-family="Arial For CAE" font-size="25" font-weight="400" font-style="normal" 
>
<text fill="#000000" fill-opacity="1" stroke="none" xml:space="preserve" x="0" y="0" font-family="Arial For CAE" font-size="25" font-weight="400" font-style="normal" 
 >MSub</text>
</g>

<g fill="none" stroke="#0000cd" stroke-opacity="1" stroke-width="3" stroke-linecap="butt" stroke-linejoin="bevel" transform="matrix(5.59414,0,0,-5.59402,2685.19,5002.15)"
font-family="Arial For CAE" font-size="25" font-weight="400" font-style="normal" 
>
<path vector-effect="none" fill-rule="evenodd" d="M0,80 L160,80 L160,0 L0,0 L0,80"/>
</g>

<g fill="none" stroke="#000000" stroke-opacity="1" stroke-width="1" stroke-linecap="butt" stroke-linejoin="bevel" transform="matrix(4.47531,0,0,4.47521,134.259,5018.94)"
font-family="Arial For CAE" font-size="25" font-weight="400" font-style="normal" 
>
<text fill="#000000" fill-opacity="1" stroke="none" xml:space="preserve" x="0" y="0" font-family="Arial For CAE" font-size="25" font-weight="400" font-style="normal" 
 >VSWR</text>
</g>

<g fill="none" stroke="#0000cd" stroke-opacity="1" stroke-width="3" stroke-linecap="butt" stroke-linejoin="bevel" transform="matrix(5.59414,0,0,-5.59402,0,5114.03)"
font-family="Arial For CAE" font-size="25" font-weight="400" font-style="normal" 
>
<polyline fill="none" vector-effect="none" points="29,79 51,57 " />
</g>

<g fill="none" stroke="#0000cd" stroke-opacity="1" stroke-width="5" stroke-linecap="butt" stroke-linejoin="bevel" transform="matrix(5.59414,0,0,-5.59402,0,5114.03)"
font-family="Arial For CAE" font-size="25" font-weight="400" font-style="normal" 
>
<circle cx="54" cy="54" r="4"/>
</g>

<g fill="none" stroke="#0000cd" stroke-opacity="1" stroke-width="3" stroke-linecap="butt" stroke-linejoin="bevel" transform="matrix(5.59414,0,0,-5.59402,0,5114.03)"
font-family="Arial For CAE" font-size="25" font-weight="400" font-style="normal" 
>
<path vector-effect="none" fill-rule="evenodd" d="M8,98 L100,98 L100,44 L8,44 L8,98"/>
<path vector-effect="none" fill-rule="evenodd" d="M0,104 L108,104 L108,38 L0,38 L0,104"/>
<path vector-effect="none" fill-rule="evenodd" d="M0,37 L108,37 L108,8 L0,8 L0,37"/>
</g>

<g fill="#0000cd" fill-opacity="1" stroke="none" transform="matrix(5.59414,0,0,-5.59402,0,5114.03)"
font-family="Arial For CAE" font-size="25" font-weight="400" font-style="normal" 
>
<path vector-effect="none" fill-rule="nonzero" d="M25,83 L34,80 L28,74 L25,83"/>
</g>

<g fill="#0000cd" fill-opacity="1" stroke="#0000cd" stroke-opacity="1" stroke-width="1" stroke-linecap="butt" stroke-linejoin="bevel" transform="matrix(5.59414,0,0,-5.59402,0,5114.03)"
font-family="Arial For CAE" font-size="25" font-weight="400" font-style="normal" 
>
<polyline fill="none" vector-effect="none" points="88,97 88,94 " />
<polyline fill="none" vector-effect="none" points="80,97 80,94 " />
<polyline fill="none" vector-effect="none" points="73,97 73,94 " />
<polyline fill="none" vector-effect="none" points="65,97 65,94 " />
<polyline fill="none" vector-effect="none" points="58,96 58,93 " />
<polyline fill="none" vector-effect="none" points="50,96 50,93 " />
<polyline fill="none" vector-effect="none" points="42,96 42,93 " />
<polyline fill="none" vector-effect="none" points="35,97 35,94 " />
<polyline fill="none" vector-effect="none" points="27,96 27,93 " />
<polyline fill="none" vector-effect="none" points="19,96 19,93 " />
</g>

<g fill="#0000cd" fill-opacity="1" stroke="#0000cd" stroke-opacity="1" stroke-width="3" stroke-linecap="butt" stroke-linejoin="bevel" transform="matrix(5.59414,0,0,-5.59402,0,5114.03)"
font-family="Arial For CAE" font-size="25" font-weight="400" font-style="normal" 
>
<polyline fill="none" vector-effect="none" points="15,97 15,92 " />
<polyline fill="none" vector-effect="none" points="61,97 61,92 " />
<polyline fill="none" vector-effect="none" points="69,97 69,92 " />
<polyline fill="none" vector-effect="none" points="77,97 77,92 " />
<polyline fill="none" vector-effect="none" points="85,97 85,92 " />
<polyline fill="none" vector-effect="none" points="92,97 92,92 " />
<polyline fill="none" vector-effect="none" points="23,96 23,92 " />
<polyline fill="none" vector-effect="none" points="31,97 31,92 " />
<polyline fill="none" vector-effect="none" points="39,96 39,92 " />
<polyline fill="none" vector-effect="none" points="47,96 47,92 " />
<polyline fill="none" vector-effect="none" points="54,96 54,92 " />
</g>

<g fill="#0000cd" fill-opacity="1" stroke="none" transform="matrix(5.59414,0,0,-5.59402,0,5114.03)"
font-family="Arial For CAE" font-size="25" font-weight="400" font-style="normal" 
>
<path vector-effect="none" fill-rule="nonzero" d="M108,96 L116,96 L116,0 L8,0 L8,8 L108,8 L108,96"/>
</g>

<g fill="none" stroke="#000000" stroke-opacity="1" stroke-width="1" stroke-linecap="butt" stroke-linejoin="bevel" transform="matrix(4.47531,0,0,4.47521,78.3179,5690.22)"
font-family="Arial For CAE" font-size="25" font-weight="400" font-style="normal" 
>
<text fill="#000000" fill-opacity="1" stroke="none" xml:space="preserve" x="0" y="0" font-family="Arial For CAE" font-size="25" font-weight="400" font-style="normal" 
 >StabFact</text>
</g>

<g fill="none" stroke="#0000cd" stroke-opacity="1" stroke-width="1" stroke-linecap="butt" stroke-linejoin="bevel" transform="matrix(5.59414,0,0,-5.59402,0,5785.32)"
font-family="Arial For CAE" font-size="25" font-weight="400" font-style="normal" 
>
<circle cx="27" cy="67" r="6"/>
</g>

<g fill="none" stroke="#0000cd" stroke-opacity="1" stroke-width="3" stroke-linecap="butt" stroke-linejoin="bevel" transform="matrix(5.59414,0,0,-5.59402,0,5785.32)"
font-family="Arial For CAE" font-size="25" font-weight="400" font-style="normal" 
>
<path vector-effect="none" fill-rule="evenodd" d="M0,104 L108,104 L108,37 L0,37 L0,104"/>
</g>

<g fill="none" stroke="#0000cd" stroke-opacity="1" stroke-width="1" stroke-linecap="butt" stroke-linejoin="bevel" transform="matrix(5.59414,0,0,-5.59402,0,5785.32)"
font-family="Arial For CAE" font-size="25" font-weight="400" font-style="normal" 
>
<path vector-effect="none" fill-rule="nonzero" d="M10,86 L10,48 L98,48 L98,86 L96,86 L96,85 L95,85 L93,83 L92,83 L92,81 L91,81 L91,80 L90,79 L90,77 L87,69 L87,66 L86,66 L86,64 L85,64 L83,62 L82,62 L81,61 L77,61 L77,62 L75,62 L75,63 L74,63 L73,64 L72,64 L72,65 L71,66 L71,67 L69,69 L68,71 L67,74 L66,76 L63,79 L61,80 L60,81 L59,81 L57,82 L52,82 L51,81 L48,81 L46,79 L45,79 L35,65 L35,64 L34,64 L32,62 L30,61 L24,61 L23,62 L22,62 L18,66 L18,67 L10,86"/>
<polyline fill="none" vector-effect="none" points="96,85 96,48 " />
<polyline fill="none" vector-effect="none" points="93,83 93,48 " />
<polyline fill="none" vector-effect="none" points="90,78 90,48 " />
<polyline fill="none" vector-effect="none" points="87,68 87,48 " />
<polyline fill="none" vector-effect="none" points="84,63 84,48 " />
<polyline fill="none" vector-effect="none" points="82,61 82,48 " />
<polyline fill="none" vector-effect="none" points="79,61 79,48 " />
<polyline fill="none" vector-effect="none" points="76,62 76,48 " />
<polyline fill="none" vector-effect="none" points="73,64 73,48 " />
<polyline fill="none" vector-effect="none" points="70,67 70,48 " />
<polyline fill="none" vector-effect="none" points="67,73 67,48 " />
<polyline fill="none" vector-effect="none" points="64,77 64,48 " />
<polyline fill="none" vector-effect="none" points="61,80 61,48 " />
<polyline fill="none" vector-effect="none" points="59,81 59,48 " />
<polyline fill="none" vector-effect="none" points="56,82 56,48 " />
<polyline fill="none" vector-effect="none" points="53,82 53,48 " />
<polyline fill="none" vector-effect="none" points="50,81 50,48 " />
<polyline fill="none" vector-effect="none" points="47,80 47,48 " />
<polyline fill="none" vector-effect="none" points="44,77 44,48 " />
<polyline fill="none" vector-effect="none" points="41,73 41,48 " />
<polyline fill="none" vector-effect="none" points="38,69 38,48 " />
<polyline fill="none" vector-effect="none" points="36,65 36,48 " />
<polyline fill="none" vector-effect="none" points="27,60 27,48 " />
<polyline fill="none" vector-effect="none" points="33,63 33,48 " />
<polyline fill="none" vector-effect="none" points="30,61 30,48 " />
<polyline fill="none" vector-effect="none" points="24,61 24,48 " />
<polyline fill="none" vector-effect="none" points="21,63 21,48 " />
<polyline fill="none" vector-effect="none" points="18,66 18,48 " />
<polyline fill="none" vector-effect="none" points="15,73 15,48 " />
<polyline fill="none" vector-effect="none" points="12,79 12,48 " />
</g>

<g fill="none" stroke="#0000cd" stroke-opacity="1" stroke-width="3" stroke-linecap="butt" stroke-linejoin="bevel" transform="matrix(5.59414,0,0,-5.59402,0,5785.32)"
font-family="Arial For CAE" font-size="25" font-weight="400" font-style="normal" 
>
<path vector-effect="none" fill-rule="evenodd" d="M0,37 L108,37 L108,8 L0,8 L0,37"/>
</g>

<g fill="#0000cd" fill-opacity="1" stroke="none" transform="matrix(5.59414,0,0,-5.59402,0,5785.32)"
font-family="Arial For CAE" font-size="25" font-weight="400" font-style="normal" 
>
<path vector-effect="none" fill-rule="nonzero" d="M32,70 L31,69 L31,68 L30,66 L30,65 L28,63 L27,63 L25,62 L23,62 L24,61 L29,61 L30,62 L32,63 L32,64 L33,65 L33,68 L32,69 L32,70"/>
</g>

<g fill="#0000cd" fill-opacity="1" stroke="none" transform="matrix(5.59414,0,0,-5.59402,0,5785.32)"
font-family="Arial For CAE" font-size="25" font-weight="400" font-style="normal" 
>
<path vector-effect="none" fill-rule="nonzero" d="M108,96 L116,96 L116,0 L8,0 L8,8 L108,8 L108,96"/>
</g>

<g fill="#ee6a50" fill-opacity="0.427451" stroke="none" transform="matrix(5.59414,0,0,-5.59402,2461.42,6568.48)"
font-family="Arial For CAE" font-size="25" font-weight="400" font-style="normal" 
>
<path vector-effect="none" fill-rule="nonzero" d="M86,-23 L131,-23 L131,23 L86,23 L86,-23"/>
</g>

<g fill="#ee6a50" fill-opacity="0.427451" stroke="none" transform="matrix(5.59414,0,0,-5.59402,2461.42,6568.48)"
font-family="Arial For CAE" font-size="25" font-weight="400" font-style="normal" 
>
<path vector-effect="none" fill-rule="nonzero" d="M41,23 L41,-23 L86,-23 L86,23 L41,23"/>
</g>

<g fill="#ee6a50" fill-opacity="0.427451" stroke="none" transform="matrix(5.59414,0,0,-5.59402,2461.42,6568.48)"
font-family="Arial For CAE" font-size="25" font-weight="400" font-style="normal" 
>
<path vector-effect="none" fill-rule="nonzero" d="M0,-23 L41,-23 L41,23 L0,23 L0,-23"/>
</g>

<g fill="#ee6a50" fill-opacity="0.427451" stroke="none" transform="matrix(5.59414,0,0,-5.59402,2461.42,6568.48)"
font-family="Arial For CAE" font-size="25" font-weight="400" font-style="normal" 
>
<path vector-effect="none" fill-rule="nonzero" d="M131,-6 L160,-6 L160,6 L131,6 L131,-6"/>
</g>

<g fill="#ee6a50" fill-opacity="0.427451" stroke="none" transform="matrix(5.59414,0,0,-5.59402,2461.42,6568.48)"
font-family="Arial For CAE" font-size="25" font-weight="400" font-style="normal" 
>
<path vector-effect="none" fill-rule="nonzero" d="M41,-23 L41,-88 L86,-88 L86,-23 L41,-23"/>
</g>

<g fill="#4169e1" fill-opacity="1" stroke="#4169e1" stroke-opacity="1" stroke-width="1.78808" stroke-linecap="square" stroke-linejoin="bevel" transform="matrix(6.04167,0,0,6.04154,827.932,6515.89)"
font-family="Arial For CAE" font-size="25" font-weight="400" font-style="normal" 
>
<text fill="#4169e1" fill-opacity="1" stroke="none" xml:space="preserve" x="0" y="0" font-family="Arial For CAE" font-size="25" font-weight="400" font-style="normal" 
 >1</text>
</g>

<g fill="#4169e1" fill-opacity="1" stroke="#4169e1" stroke-opacity="1" stroke-width="1.78808" stroke-linecap="square" stroke-linejoin="bevel" transform="matrix(6.04167,0,0,6.04154,6533.95,6515.89)"
font-family="Arial For CAE" font-size="25" font-weight="400" font-style="normal" 
>
<text fill="#4169e1" fill-opacity="1" stroke="none" xml:space="preserve" x="0" y="0" font-family="Arial For CAE" font-size="25" font-weight="400" font-style="normal" 
 >2</text>
</g>

<g fill="#4169e1" fill-opacity="1" stroke="#4169e1" stroke-opacity="1" stroke-width="1.78808" stroke-linecap="square" stroke-linejoin="bevel" transform="matrix(6.04167,0,0,6.04154,5638.89,6515.89)"
font-family="Arial For CAE" font-size="25" font-weight="400" font-style="normal" 
>
<text fill="#4169e1" fill-opacity="1" stroke="none" xml:space="preserve" x="0" y="0" font-family="Arial For CAE" font-size="25" font-weight="400" font-style="normal" 
 >1</text>
</g>

<g fill="#4169e1" fill-opacity="1" stroke="#4169e1" stroke-opacity="1" stroke-width="1.78808" stroke-linecap="square" stroke-linejoin="bevel" transform="matrix(6.04167,0,0,6.04154,6981.48,6515.89)"
font-family="Arial For CAE" font-size="25" font-weight="400" font-style="normal" 
>
<text fill="#4169e1" fill-opacity="1" stroke="none" xml:space="preserve" x="0" y="0" font-family="Arial For CAE" font-size="25" font-weight="400" font-style="normal" 
 >1</text>
</g>

<g fill="none" stroke="#1e90ff" stroke-opacity="1" stroke-width="1" stroke-linecap="butt" stroke-linejoin="bevel" transform="matrix(6.04167,0,0,6.04154,783.179,5363.53)"
font-family="Arial For CAE" font-size="25" font-weight="400" font-style="normal" 
>
<text fill="#1e90ff" fill-opacity="1" stroke="none" xml:space="preserve" x="0" y="0" font-family="Arial For CAE" font-size="25" font-weight="400" font-style="normal" 
 >StabFact</text>
</g>

<g fill="none" stroke="#1e90ff" stroke-opacity="1" stroke-width="1" stroke-linecap="butt" stroke-linejoin="bevel" transform="matrix(6.04167,0,0,6.04154,749.614,4518.83)"
font-family="Arial For CAE" font-size="25" font-weight="400" font-style="normal" 
>
<text fill="#1e90ff" fill-opacity="1" stroke="none" xml:space="preserve" x="0" y="0" font-family="Arial For CAE" font-size="25" font-weight="400" font-style="normal" 
 >VSWR</text>
</g>

<g fill="none" stroke="#1e90ff" stroke-opacity="1" stroke-width="1" stroke-linecap="butt" stroke-linejoin="bevel" transform="matrix(6.04167,0,0,6.04154,3658.57,4681.06)"
font-family="Arial For CAE" font-size="25" font-weight="400" font-style="normal" 
>
<text fill="#1e90ff" fill-opacity="1" stroke="none" xml:space="preserve" x="0" y="0" font-family="Arial For CAE" font-size="25" font-weight="400" font-style="normal" 
 >MSUB</text>
</g>

<g fill="none" stroke="#1e90ff" stroke-opacity="1" stroke-width="1" stroke-linecap="butt" stroke-linejoin="bevel" transform="matrix(6.04167,0,0,6.04154,6002.51,5279.62)"
font-family="Arial For CAE" font-size="25" font-weight="400" font-style="normal" 
>
<text fill="#1e90ff" fill-opacity="1" stroke="none" xml:space="preserve" x="0" y="0" font-family="Arial For CAE" font-size="25" font-weight="400" font-style="normal" 
 >S_Param</text>
</g>

<g fill="none" stroke="#1e90ff" stroke-opacity="1" stroke-width="1" stroke-linecap="butt" stroke-linejoin="bevel" transform="matrix(6.04167,0,0,6.04154,3546.68,7086.48)"
font-family="Arial For CAE" font-size="25" font-weight="400" font-style="normal" 
>
<text fill="#1e90ff" fill-opacity="1" stroke="none" xml:space="preserve" x="0" y="0" font-family="Arial For CAE" font-size="25" font-weight="400" font-style="normal" 
 >S1P</text>
</g>

<g fill="none" stroke="#1e90ff" stroke-opacity="1" stroke-width="1" stroke-linecap="butt" stroke-linejoin="bevel" transform="matrix(6.04167,0,0,6.04154,184.607,6929.85)"
font-family="Arial For CAE" font-size="25" font-weight="400" font-style="normal" 
>
<text fill="#1e90ff" fill-opacity="1" stroke="none" xml:space="preserve" x="0" y="0" font-family="Arial For CAE" font-size="25" font-weight="400" font-style="normal" 
 >TermG</text>
</g>

<g fill="none" stroke="#1e90ff" stroke-opacity="1" stroke-width="1" stroke-linecap="butt" stroke-linejoin="bevel" transform="matrix(6.04167,0,0,6.04154,2276.81,7265.49)"
font-family="Arial For CAE" font-size="25" font-weight="400" font-style="normal" 
>
<text fill="#1e90ff" fill-opacity="1" stroke="none" xml:space="preserve" x="0" y="0" font-family="Arial For CAE" font-size="25" font-weight="400" font-style="normal" 
 >LTC_Adap</text>
</g>

<g fill="none" stroke="#0000ff" stroke-opacity="1" stroke-width="1" stroke-linecap="butt" stroke-linejoin="bevel" transform="matrix(6.04167,0,0,6.04154,783.179,5548.13)"
font-family="Arial For CAE" font-size="25" font-weight="400" font-style="normal" 
>
<text fill="#0000ff" fill-opacity="1" stroke="none" xml:space="preserve" x="0" y="0" font-family="Arial For CAE" font-size="25" font-weight="400" font-style="normal" 
 >StabFact1</text>
</g>

<g fill="none" stroke="#0000ff" stroke-opacity="1" stroke-width="1" stroke-linecap="butt" stroke-linejoin="bevel" transform="matrix(6.04167,0,0,6.04154,749.614,4703.43)"
font-family="Arial For CAE" font-size="25" font-weight="400" font-style="normal" 
>
<text fill="#0000ff" fill-opacity="1" stroke="none" xml:space="preserve" x="0" y="0" font-family="Arial For CAE" font-size="25" font-weight="400" font-style="normal" 
 >VSWR1</text>
</g>

<g fill="none" stroke="#0000ff" stroke-opacity="1" stroke-width="1" stroke-linecap="butt" stroke-linejoin="bevel" transform="matrix(6.04167,0,0,6.04154,3658.57,4865.66)"
font-family="Arial For CAE" font-size="25" font-weight="400" font-style="normal" 
>
<text fill="#0000ff" fill-opacity="1" stroke="none" xml:space="preserve" x="0" y="0" font-family="Arial For CAE" font-size="25" font-weight="400" font-style="normal" 
 >MSub1</text>
</g>

<g fill="none" stroke="#0000ff" stroke-opacity="1" stroke-width="1" stroke-linecap="butt" stroke-linejoin="bevel" transform="matrix(6.04167,0,0,6.04154,6002.51,5464.22)"
font-family="Arial For CAE" font-size="25" font-weight="400" font-style="normal" 
>
<text fill="#0000ff" fill-opacity="1" stroke="none" xml:space="preserve" x="0" y="0" font-family="Arial For CAE" font-size="25" font-weight="400" font-style="normal" 
 >SP1</text>
</g>

<g fill="none" stroke="#0000ff" stroke-opacity="1" stroke-width="1" stroke-linecap="butt" stroke-linejoin="bevel" transform="matrix(6.04167,0,0,6.04154,3546.68,7271.09)"
font-family="Arial For CAE" font-size="25" font-weight="400" font-style="normal" 
>
<text fill="#0000ff" fill-opacity="1" stroke="none" xml:space="preserve" x="0" y="0" font-family="Arial For CAE" font-size="25" font-weight="400" font-style="normal" 
 >SNP1</text>
</g>

<g fill="none" stroke="#0000ff" stroke-opacity="1" stroke-width="1" stroke-linecap="butt" stroke-linejoin="bevel" transform="matrix(6.04167,0,0,6.04154,184.607,7114.45)"
font-family="Arial For CAE" font-size="25" font-weight="400" font-style="normal" 
>
<text fill="#0000ff" fill-opacity="1" stroke="none" xml:space="preserve" x="0" y="0" font-family="Arial For CAE" font-size="25" font-weight="400" font-style="normal" 
 >TermG1</text>
</g>

<g fill="none" stroke="#0000ff" stroke-opacity="1" stroke-width="1" stroke-linecap="butt" stroke-linejoin="bevel" transform="matrix(6.04167,0,0,6.04154,2276.81,7450.1)"
font-family="Arial For CAE" font-size="25" font-weight="400" font-style="normal" 
>
<text fill="#0000ff" fill-opacity="1" stroke="none" xml:space="preserve" x="0" y="0" font-family="Arial For CAE" font-size="25" font-weight="400" font-style="normal" 
 >X2</text>
</g>

<g fill="none" stroke="#000080" stroke-opacity="1" stroke-width="1" stroke-linecap="butt" stroke-linejoin="bevel" transform="matrix(6.04167,0,0,6.04154,783.179,5732.73)"
font-family="Arial For CAE" font-size="25" font-weight="400" font-style="normal" 
>
<text fill="#000080" fill-opacity="1" stroke="none" xml:space="preserve" x="0" y="0" font-family="Arial For CAE" font-size="25" font-weight="400" font-style="normal" 
 >StabFact1=stab_fact(S)</text>
</g>

<g fill="none" stroke="#000080" stroke-opacity="1" stroke-width="1" stroke-linecap="butt" stroke-linejoin="bevel" transform="matrix(6.04167,0,0,6.04154,749.614,4888.04)"
font-family="Arial For CAE" font-size="25" font-weight="400" font-style="normal" 
>
<text fill="#000080" fill-opacity="1" stroke="none" xml:space="preserve" x="0" y="0" font-family="Arial For CAE" font-size="25" font-weight="400" font-style="normal" 
 >VSWR1=vswr(S11)</text>
</g>

<g fill="none" stroke="#000080" stroke-opacity="1" stroke-width="1" stroke-linecap="butt" stroke-linejoin="bevel" transform="matrix(6.04167,0,0,6.04154,3658.57,5604.07)"
font-family="Arial For CAE" font-size="25" font-weight="400" font-style="normal" 
>
<text fill="#000080" fill-opacity="1" stroke="none" xml:space="preserve" x="0" y="0" font-family="Arial For CAE" font-size="25" font-weight="400" font-style="normal" 
 >TanD=0.002 </text>
</g>

<g fill="none" stroke="#000080" stroke-opacity="1" stroke-width="1" stroke-linecap="butt" stroke-linejoin="bevel" transform="matrix(6.04167,0,0,6.04154,3658.57,5419.47)"
font-family="Arial For CAE" font-size="25" font-weight="400" font-style="normal" 
>
<text fill="#000080" fill-opacity="1" stroke="none" xml:space="preserve" x="0" y="0" font-family="Arial For CAE" font-size="25" font-weight="400" font-style="normal" 
 >T=17 um</text>
</g>

<g fill="none" stroke="#000080" stroke-opacity="1" stroke-width="1" stroke-linecap="butt" stroke-linejoin="bevel" transform="matrix(6.04167,0,0,6.04154,3658.57,5234.86)"
font-family="Arial For CAE" font-size="25" font-weight="400" font-style="normal" 
>
<text fill="#000080" fill-opacity="1" stroke="none" xml:space="preserve" x="0" y="0" font-family="Arial For CAE" font-size="25" font-weight="400" font-style="normal" 
 >Er=3.55 </text>
</g>

<g fill="none" stroke="#000080" stroke-opacity="1" stroke-width="1" stroke-linecap="butt" stroke-linejoin="bevel" transform="matrix(6.04167,0,0,6.04154,3658.57,5050.26)"
font-family="Arial For CAE" font-size="25" font-weight="400" font-style="normal" 
>
<text fill="#000080" fill-opacity="1" stroke="none" xml:space="preserve" x="0" y="0" font-family="Arial For CAE" font-size="25" font-weight="400" font-style="normal" 
 >H=0.508 mm</text>
</g>

<g fill="none" stroke="#000080" stroke-opacity="1" stroke-width="1" stroke-linecap="butt" stroke-linejoin="bevel" transform="matrix(6.04167,0,0,6.04154,6002.51,6018.03)"
font-family="Arial For CAE" font-size="25" font-weight="400" font-style="normal" 
>
<text fill="#000080" fill-opacity="1" stroke="none" xml:space="preserve" x="0" y="0" font-family="Arial For CAE" font-size="25" font-weight="400" font-style="normal" 
 >Step=0.01 GHz</text>
</g>

<g fill="none" stroke="#000080" stroke-opacity="1" stroke-width="1" stroke-linecap="butt" stroke-linejoin="bevel" transform="matrix(6.04167,0,0,6.04154,6002.51,5833.42)"
font-family="Arial For CAE" font-size="25" font-weight="400" font-style="normal" 
>
<text fill="#000080" fill-opacity="1" stroke="none" xml:space="preserve" x="0" y="0" font-family="Arial For CAE" font-size="25" font-weight="400" font-style="normal" 
 >Stop=10.0 GHz</text>
</g>

<g fill="none" stroke="#000080" stroke-opacity="1" stroke-width="1" stroke-linecap="butt" stroke-linejoin="bevel" transform="matrix(6.04167,0,0,6.04154,6002.51,5648.82)"
font-family="Arial For CAE" font-size="25" font-weight="400" font-style="normal" 
>
<text fill="#000080" fill-opacity="1" stroke="none" xml:space="preserve" x="0" y="0" font-family="Arial For CAE" font-size="25" font-weight="400" font-style="normal" 
 >Start=7 GHz</text>
</g>

<g fill="none" stroke="#000080" stroke-opacity="1" stroke-width="1" stroke-linecap="butt" stroke-linejoin="bevel" transform="matrix(6.04167,0,0,6.04154,3546.68,7455.69)"
font-family="Arial For CAE" font-size="25" font-weight="400" font-style="normal" 
>
<text fill="#000080" fill-opacity="1" stroke="none" xml:space="preserve" x="0" y="0" font-family="Arial For CAE" font-size="25" font-weight="400" font-style="normal" 
 >File=&quot;Components\ltc5597_vcc_3p3v_25c\LTC5597_vcc_3p3v_en_3p3_25c.S1P&quot;</text>
</g>

<g fill="none" stroke="#000080" stroke-opacity="1" stroke-width="1" stroke-linecap="butt" stroke-linejoin="bevel" transform="matrix(6.04167,0,0,6.04154,184.607,7483.66)"
font-family="Arial For CAE" font-size="25" font-weight="400" font-style="normal" 
>
<text fill="#000080" fill-opacity="1" stroke="none" xml:space="preserve" x="0" y="0" font-family="Arial For CAE" font-size="25" font-weight="400" font-style="normal" 
 >Z=50 Ohm</text>
</g>

<g fill="none" stroke="#000080" stroke-opacity="1" stroke-width="1" stroke-linecap="butt" stroke-linejoin="bevel" transform="matrix(6.04167,0,0,6.04154,184.607,7299.06)"
font-family="Arial For CAE" font-size="25" font-weight="400" font-style="normal" 
>
<text fill="#000080" fill-opacity="1" stroke="none" xml:space="preserve" x="0" y="0" font-family="Arial For CAE" font-size="25" font-weight="400" font-style="normal" 
 >Num=1</text>
</g>

<g fill="none" stroke="#000080" stroke-opacity="1" stroke-width="1" stroke-linecap="butt" stroke-linejoin="bevel" transform="matrix(6.04167,0,0,6.04154,2276.81,7634.7)"
font-family="Arial For CAE" font-size="25" font-weight="400" font-style="normal" 
>
<text fill="#000080" fill-opacity="1" stroke="none" xml:space="preserve" x="0" y="0" font-family="Arial For CAE" font-size="25" font-weight="400" font-style="normal" 
 >W50=1.1 mm</text>
</g>

<g fill="none" stroke="#000080" stroke-opacity="1" stroke-width="1" stroke-linecap="butt" stroke-linejoin="bevel" transform="matrix(6.04167,0,0,6.04154,2276.81,7819.3)"
font-family="Arial For CAE" font-size="25" font-weight="400" font-style="normal" 
>
<text fill="#000080" fill-opacity="1" stroke="none" xml:space="preserve" x="0" y="0" font-family="Arial For CAE" font-size="25" font-weight="400" font-style="normal" 
 >WT=1.1 mm</text>
</g>

<g fill="none" stroke="#000080" stroke-opacity="1" stroke-width="1" stroke-linecap="butt" stroke-linejoin="bevel" transform="matrix(6.04167,0,0,6.04154,2276.81,8003.9)"
font-family="Arial For CAE" font-size="25" font-weight="400" font-style="normal" 
>
<text fill="#000080" fill-opacity="1" stroke="none" xml:space="preserve" x="0" y="0" font-family="Arial For CAE" font-size="25" font-weight="400" font-style="normal" 
 >WS=1.1 mm</text>
</g>

<g fill="none" stroke="#000080" stroke-opacity="1" stroke-width="1" stroke-linecap="butt" stroke-linejoin="bevel" transform="matrix(6.04167,0,0,6.04154,2276.81,8188.51)"
font-family="Arial For CAE" font-size="25" font-weight="400" font-style="normal" 
>
<text fill="#000080" fill-opacity="1" stroke="none" xml:space="preserve" x="0" y="0" font-family="Arial For CAE" font-size="25" font-weight="400" font-style="normal" 
 >LS=1.6 mm</text>
</g>

<g fill="none" stroke="#000080" stroke-opacity="1" stroke-width="1" stroke-linecap="butt" stroke-linejoin="bevel" transform="matrix(6.04167,0,0,6.04154,2276.81,8373.11)"
font-family="Arial For CAE" font-size="25" font-weight="400" font-style="normal" 
>
<text fill="#000080" fill-opacity="1" stroke="none" xml:space="preserve" x="0" y="0" font-family="Arial For CAE" font-size="25" font-weight="400" font-style="normal" 
 >LT=1.1 mm</text>
</g>

<g fill="none" stroke="#000080" stroke-opacity="1" stroke-width="1" stroke-linecap="butt" stroke-linejoin="bevel" transform="matrix(6.04167,0,0,6.04154,2276.81,8557.71)"
font-family="Arial For CAE" font-size="25" font-weight="400" font-style="normal" 
>
<text fill="#000080" fill-opacity="1" stroke="none" xml:space="preserve" x="0" y="0" font-family="Arial For CAE" font-size="25" font-weight="400" font-style="normal" 
 >Linline=0.7 mm</text>
</g>

<g fill="none" stroke="#000080" stroke-opacity="1" stroke-width="1" stroke-linecap="butt" stroke-linejoin="bevel" transform="matrix(6.04167,0,0,6.04154,2276.81,8742.31)"
font-family="Arial For CAE" font-size="25" font-weight="400" font-style="normal" 
>
<text fill="#000080" fill-opacity="1" stroke="none" xml:space="preserve" x="0" y="0" font-family="Arial For CAE" font-size="25" font-weight="400" font-style="normal" 
 >Winline=0.3 mm</text>
</g>

<g fill="#4169e1" fill-opacity="1" stroke="none" transform="matrix(5.59414,0,0,-5.59402,447.531,6568.48)"
font-family="Arial For CAE" font-size="25" font-weight="400" font-style="normal" 
>
<path vector-effect="none" fill-rule="evenodd" d="M56,4 L64,4 L64,-4 L56,-4 L56,4"/>
</g>

<g fill="#4169e1" fill-opacity="1" stroke="none" transform="matrix(5.59414,0,0,-5.59402,447.531,6568.48)"
font-family="Arial For CAE" font-size="25" font-weight="400" font-style="normal" 
>
<path vector-effect="none" fill-rule="evenodd" d="M356,4 L364,4 L364,-4 L356,-4 L356,4"/>
</g>

<g fill="#4169e1" fill-opacity="1" stroke="none" transform="matrix(5.59414,0,0,-5.59402,447.531,6568.48)"
font-family="Arial For CAE" font-size="25" font-weight="400" font-style="normal" 
>
<path vector-effect="none" fill-rule="evenodd" d="M516,4 L524,4 L524,-4 L516,-4 L516,4"/>
</g>

<g fill="#4169e1" fill-opacity="1" stroke="none" transform="matrix(5.59414,0,0,-5.59402,447.531,6568.48)"
font-family="Arial For CAE" font-size="25" font-weight="400" font-style="normal" 
>
<path vector-effect="none" fill-rule="evenodd" d="M916,4 L924,4 L924,-4 L916,-4 L916,4"/>
</g>

<g fill="#4169e1" fill-opacity="1" stroke="none" transform="matrix(5.59414,0,0,-5.59402,447.531,6568.48)"
font-family="Arial For CAE" font-size="25" font-weight="400" font-style="normal" 
>
<path vector-effect="none" fill-rule="evenodd" d="M1076,4 L1084,4 L1084,-4 L1076,-4 L1076,4"/>
</g>

<g fill="#4169e1" fill-opacity="1" stroke="none" transform="matrix(5.59414,0,0,-5.59402,447.531,6568.48)"
font-family="Arial For CAE" font-size="25" font-weight="400" font-style="normal" 
>
<path vector-effect="none" fill-rule="evenodd" d="M1156,4 L1164,4 L1164,-4 L1156,-4 L1156,4"/>
</g>

<g fill="none" stroke="#ff0000" stroke-opacity="1" stroke-width="1" stroke-linecap="square" stroke-linejoin="bevel" transform="matrix(5.59414,0,0,-5.59402,447.531,6568.48)"
font-family="Arial For CAE" font-size="25" font-weight="400" font-style="normal" 
>
</g>
</g>
</svg>
