G04*
G04 #@! TF.GenerationSoftware,Altium Limited,Altium Designer,21.4.1 (30)*
G04*
G04 Layer_Physical_Order=2*
G04 Layer_Color=16711680*
%FSAX44Y44*%
%MOMM*%
G71*
G04*
G04 #@! TF.SameCoordinates,C65EE9AA-DAF9-495F-8E32-67F2E65A80B1*
G04*
G04*
G04 #@! TF.FilePolarity,Positive*
G04*
G01*
G75*
%ADD11C,0.2500*%
%ADD13C,0.1000*%
%ADD14C,0.2000*%
%ADD16C,0.0500*%
%ADD68C,0.3000*%
%ADD69C,6.5000*%
%ADD70C,0.8000*%
%ADD71C,1.0500*%
%ADD72R,1.0500X1.0500*%
%ADD73C,2.5000*%
%ADD74C,4.4000*%
G36*
X00495297Y00699035D02*
X00498570Y00694403D01*
X00497058D01*
X00495311Y00696872D01*
Y00696886D01*
X00495283Y00696899D01*
X00495255Y00696941D01*
X00495214Y00696997D01*
X00495131Y00697135D01*
X00495006Y00697302D01*
X00494881Y00697496D01*
X00494756Y00697690D01*
X00494645Y00697870D01*
X00494548Y00698037D01*
X00494534Y00698009D01*
X00494493Y00697953D01*
X00494423Y00697842D01*
X00494326Y00697704D01*
X00494215Y00697551D01*
X00494076Y00697357D01*
X00493938Y00697163D01*
X00493771Y00696955D01*
X00491858Y00694403D01*
X00490471D01*
X00493799Y00698966D01*
X00490207Y00704000D01*
X00491774D01*
X00494201Y00700588D01*
X00494215Y00700574D01*
X00494243Y00700533D01*
X00494271Y00700477D01*
X00494326Y00700408D01*
X00494451Y00700214D01*
X00494590Y00700006D01*
X00494604Y00700020D01*
X00494645Y00700075D01*
X00494701Y00700158D01*
X00494770Y00700269D01*
X00494922Y00700491D01*
X00494992Y00700588D01*
X00495047Y00700672D01*
X00497474Y00704000D01*
X00499000D01*
X00495297Y00699035D01*
D02*
G37*
G36*
X00489958Y00694403D02*
X00488640D01*
X00487212Y00700699D01*
Y00700713D01*
X00487198Y00700741D01*
X00487184Y00700796D01*
X00487170Y00700866D01*
X00487156Y00700963D01*
X00487128Y00701060D01*
X00487101Y00701185D01*
X00487073Y00701323D01*
X00487004Y00701615D01*
X00486934Y00701947D01*
X00486865Y00702308D01*
X00486796Y00702669D01*
Y00702655D01*
X00486782Y00702599D01*
X00486754Y00702530D01*
X00486740Y00702419D01*
X00486712Y00702308D01*
X00486671Y00702169D01*
X00486601Y00701864D01*
X00486518Y00701559D01*
X00486491Y00701407D01*
X00486449Y00701268D01*
X00486421Y00701143D01*
X00486393Y00701032D01*
X00486366Y00700949D01*
X00486352Y00700893D01*
X00484535Y00694403D01*
X00482996D01*
X00481637Y00699271D01*
Y00699285D01*
X00481609Y00699354D01*
X00481581Y00699451D01*
X00481553Y00699576D01*
X00481512Y00699742D01*
X00481456Y00699923D01*
X00481401Y00700131D01*
X00481345Y00700367D01*
X00481276Y00700630D01*
X00481221Y00700893D01*
X00481096Y00701462D01*
X00480971Y00702058D01*
X00480874Y00702669D01*
Y00702655D01*
X00480860Y00702627D01*
Y00702572D01*
X00480832Y00702502D01*
X00480818Y00702419D01*
X00480791Y00702322D01*
X00480777Y00702197D01*
X00480735Y00702058D01*
X00480666Y00701753D01*
X00480583Y00701393D01*
X00480499Y00701004D01*
X00480388Y00700574D01*
X00478891Y00694403D01*
X00477601D01*
X00480236Y00704000D01*
X00481484D01*
X00483495Y00696691D01*
Y00696677D01*
X00483509Y00696650D01*
X00483523Y00696608D01*
X00483536Y00696539D01*
X00483578Y00696386D01*
X00483620Y00696206D01*
X00483675Y00696012D01*
X00483731Y00695832D01*
X00483772Y00695679D01*
X00483786Y00695610D01*
X00483800Y00695568D01*
Y00695582D01*
X00483814Y00695596D01*
X00483828Y00695679D01*
X00483856Y00695804D01*
X00483897Y00695956D01*
X00483939Y00696123D01*
X00483994Y00696317D01*
X00484036Y00696511D01*
X00484091Y00696691D01*
X00486116Y00704000D01*
X00487447D01*
X00489958Y00694403D01*
D02*
G37*
G36*
X00473634Y00696497D02*
X00473648Y00696511D01*
X00473718Y00696567D01*
X00473801Y00696650D01*
X00473940Y00696747D01*
X00474092Y00696872D01*
X00474286Y00697010D01*
X00474508Y00697163D01*
X00474758Y00697315D01*
X00474772D01*
X00474786Y00697329D01*
X00474869Y00697385D01*
X00475008Y00697454D01*
X00475174Y00697537D01*
X00475368Y00697634D01*
X00475576Y00697731D01*
X00475784Y00697829D01*
X00475992Y00697912D01*
Y00696775D01*
X00475978D01*
X00475951Y00696747D01*
X00475895Y00696733D01*
X00475826Y00696691D01*
X00475742Y00696650D01*
X00475645Y00696594D01*
X00475410Y00696456D01*
X00475132Y00696303D01*
X00474855Y00696109D01*
X00474564Y00695887D01*
X00474272Y00695651D01*
X00474259Y00695637D01*
X00474245Y00695623D01*
X00474203Y00695582D01*
X00474148Y00695540D01*
X00474023Y00695402D01*
X00473856Y00695235D01*
X00473690Y00695041D01*
X00473510Y00694819D01*
X00473357Y00694597D01*
X00473218Y00694361D01*
X00472456D01*
Y00704000D01*
X00473634D01*
Y00696497D01*
D02*
G37*
G36*
X01795000Y00925000D02*
Y00325000D01*
X01680000Y00205000D01*
X01603811D01*
X01601479Y00205464D01*
X01599282Y00206374D01*
X01597369Y00207652D01*
X01596464Y00208536D01*
X01596464Y00208536D01*
X01596464Y00208536D01*
X01593535Y00211465D01*
X01592658Y00212260D01*
X01590690Y00213575D01*
X01588504Y00214480D01*
X01586183Y00214942D01*
X01585000Y00215000D01*
X01583223Y00214956D01*
X01579686Y00214608D01*
X01576201Y00213915D01*
X01572800Y00212883D01*
X01569517Y00211523D01*
X01566383Y00209848D01*
X01563428Y00207873D01*
X01560681Y00205619D01*
X01559393Y00204393D01*
X01559393Y00204393D01*
Y00204393D01*
X01548535Y00193535D01*
X01547695Y00192695D01*
X01545718Y00191374D01*
X01543521Y00190464D01*
X01541189Y00190000D01*
X01503811D01*
X01501479Y00190464D01*
X01499282Y00191374D01*
X01497305Y00192695D01*
X01496465Y00193535D01*
X01485607Y00204393D01*
X01484319Y00205619D01*
X01481572Y00207873D01*
X01478617Y00209848D01*
X01475483Y00211523D01*
X01472200Y00212883D01*
X01468799Y00213915D01*
X01465314Y00214608D01*
X01461777Y00214956D01*
X01460000Y00215000D01*
X01458817Y00214942D01*
X01456496Y00214480D01*
X01454310Y00213575D01*
X01452391Y00212293D01*
X01452342Y00212260D01*
X01451464Y00211464D01*
X01451464Y00211464D01*
X01448536Y00208535D01*
X01447695Y00207695D01*
X01445718Y00206374D01*
X01443521Y00205464D01*
X01441189Y00205000D01*
X00675000D01*
X00555000Y00325000D01*
X00555000Y00625000D01*
X00556125Y00626241D01*
X00557984Y00629024D01*
X00559265Y00632116D01*
X00559918Y00635398D01*
X00560000Y00637071D01*
Y00640000D01*
X00559884Y00642366D01*
X00558960Y00647008D01*
X00557149Y00651380D01*
X00554520Y00655316D01*
X00552929Y00657071D01*
X00543535Y00666464D01*
X00542695Y00667305D01*
X00541374Y00669282D01*
X00540464Y00671479D01*
X00540000Y00673811D01*
Y00675000D01*
Y00715000D01*
Y00716779D01*
X00540349Y00720320D01*
X00541043Y00723810D01*
X00542076Y00727215D01*
X00543437Y00730502D01*
X00545115Y00733640D01*
X00547091Y00736598D01*
X00549349Y00739349D01*
X00550606Y00740607D01*
X00550607D01*
X00556464Y00746464D01*
X00557260Y00747342D01*
X00558575Y00749310D01*
X00559480Y00751496D01*
X00559942Y00753817D01*
X00560000Y00755000D01*
Y00767929D01*
X00559976Y00768419D01*
X00559785Y00769380D01*
X00559410Y00770286D01*
X00558865Y00771101D01*
X00558536Y00771464D01*
X00557695Y00772305D01*
X00556374Y00774282D01*
X00555464Y00776479D01*
X00555000Y00778811D01*
Y00780000D01*
Y00925000D01*
X00675000Y01045000D01*
X01675000D01*
X01795000Y00925000D01*
D02*
G37*
G36*
X01522965Y00145297D02*
X01527597Y00148570D01*
Y00147058D01*
X01525128Y00145311D01*
X01525114D01*
X01525101Y00145283D01*
X01525059Y00145255D01*
X01525004Y00145214D01*
X01524865Y00145131D01*
X01524698Y00145006D01*
X01524504Y00144881D01*
X01524310Y00144756D01*
X01524130Y00144645D01*
X01523963Y00144548D01*
X01523991Y00144534D01*
X01524047Y00144493D01*
X01524158Y00144423D01*
X01524296Y00144326D01*
X01524449Y00144215D01*
X01524643Y00144077D01*
X01524837Y00143938D01*
X01525045Y00143771D01*
X01527597Y00141858D01*
Y00140471D01*
X01523034Y00143799D01*
X01518000Y00140207D01*
Y00141774D01*
X01521412Y00144201D01*
X01521425Y00144215D01*
X01521467Y00144243D01*
X01521523Y00144271D01*
X01521592Y00144326D01*
X01521786Y00144451D01*
X01521994Y00144590D01*
X01521980Y00144604D01*
X01521925Y00144645D01*
X01521841Y00144701D01*
X01521731Y00144770D01*
X01521509Y00144923D01*
X01521412Y00144992D01*
X01521328Y00145047D01*
X01518000Y00147474D01*
Y00149000D01*
X01522965Y00145297D01*
D02*
G37*
G36*
X01527597Y00138640D02*
X01521301Y00137212D01*
X01521287D01*
X01521259Y00137198D01*
X01521204Y00137184D01*
X01521134Y00137170D01*
X01521037Y00137156D01*
X01520940Y00137128D01*
X01520815Y00137101D01*
X01520677Y00137073D01*
X01520385Y00137004D01*
X01520052Y00136934D01*
X01519692Y00136865D01*
X01519331Y00136796D01*
X01519345D01*
X01519401Y00136782D01*
X01519470Y00136754D01*
X01519581Y00136740D01*
X01519692Y00136713D01*
X01519831Y00136671D01*
X01520136Y00136601D01*
X01520441Y00136518D01*
X01520593Y00136491D01*
X01520732Y00136449D01*
X01520857Y00136421D01*
X01520968Y00136393D01*
X01521051Y00136366D01*
X01521107Y00136352D01*
X01527597Y00134535D01*
Y00132996D01*
X01522729Y00131637D01*
X01522715D01*
X01522646Y00131609D01*
X01522549Y00131581D01*
X01522424Y00131553D01*
X01522258Y00131512D01*
X01522077Y00131456D01*
X01521869Y00131401D01*
X01521633Y00131345D01*
X01521370Y00131276D01*
X01521107Y00131221D01*
X01520538Y00131096D01*
X01519942Y00130971D01*
X01519331Y00130874D01*
X01519345D01*
X01519373Y00130860D01*
X01519428D01*
X01519498Y00130832D01*
X01519581Y00130818D01*
X01519678Y00130791D01*
X01519803Y00130777D01*
X01519942Y00130735D01*
X01520247Y00130666D01*
X01520607Y00130583D01*
X01520996Y00130499D01*
X01521425Y00130388D01*
X01527597Y00128891D01*
Y00127601D01*
X01518000Y00130236D01*
Y00131484D01*
X01525309Y00133495D01*
X01525323D01*
X01525350Y00133509D01*
X01525392Y00133523D01*
X01525461Y00133537D01*
X01525614Y00133578D01*
X01525794Y00133620D01*
X01525988Y00133675D01*
X01526169Y00133731D01*
X01526321Y00133772D01*
X01526390Y00133786D01*
X01526432Y00133800D01*
X01526418D01*
X01526404Y00133814D01*
X01526321Y00133828D01*
X01526196Y00133856D01*
X01526044Y00133897D01*
X01525877Y00133939D01*
X01525683Y00133994D01*
X01525489Y00134036D01*
X01525309Y00134091D01*
X01518000Y00136116D01*
Y00137448D01*
X01527597Y00139958D01*
Y00138640D01*
D02*
G37*
G36*
X01518264Y00127046D02*
X01518388Y00127032D01*
X01518527Y00127005D01*
X01518666Y00126977D01*
X01518818Y00126921D01*
X01518832D01*
X01518846Y00126908D01*
X01518929Y00126880D01*
X01519054Y00126824D01*
X01519220Y00126741D01*
X01519415Y00126630D01*
X01519637Y00126491D01*
X01519858Y00126339D01*
X01520094Y00126145D01*
X01520108D01*
X01520122Y00126117D01*
X01520205Y00126048D01*
X01520330Y00125923D01*
X01520510Y00125743D01*
X01520718Y00125534D01*
X01520968Y00125271D01*
X01521245Y00124952D01*
X01521536Y00124605D01*
X01521550Y00124592D01*
X01521592Y00124536D01*
X01521661Y00124453D01*
X01521745Y00124356D01*
X01521855Y00124231D01*
X01521980Y00124078D01*
X01522119Y00123926D01*
X01522272Y00123745D01*
X01522604Y00123399D01*
X01522937Y00123052D01*
X01523104Y00122886D01*
X01523270Y00122733D01*
X01523423Y00122594D01*
X01523575Y00122484D01*
X01523589D01*
X01523603Y00122456D01*
X01523644Y00122428D01*
X01523700Y00122400D01*
X01523853Y00122303D01*
X01524033Y00122192D01*
X01524255Y00122095D01*
X01524490Y00121998D01*
X01524754Y00121943D01*
X01525004Y00121915D01*
X01525017D01*
X01525031D01*
X01525114Y00121929D01*
X01525253Y00121943D01*
X01525406Y00121984D01*
X01525600Y00122040D01*
X01525794Y00122137D01*
X01525988Y00122262D01*
X01526182Y00122428D01*
X01526210Y00122456D01*
X01526266Y00122525D01*
X01526335Y00122622D01*
X01526432Y00122775D01*
X01526515Y00122969D01*
X01526598Y00123191D01*
X01526654Y00123454D01*
X01526668Y00123745D01*
Y00123829D01*
X01526654Y00123884D01*
X01526640Y00124051D01*
X01526598Y00124245D01*
X01526543Y00124453D01*
X01526446Y00124689D01*
X01526321Y00124910D01*
X01526155Y00125119D01*
X01526127Y00125146D01*
X01526057Y00125202D01*
X01525947Y00125285D01*
X01525780Y00125368D01*
X01525586Y00125465D01*
X01525336Y00125548D01*
X01525059Y00125604D01*
X01524740Y00125632D01*
X01524865Y00126838D01*
X01524879D01*
X01524920Y00126824D01*
X01524990D01*
X01525087Y00126810D01*
X01525198Y00126783D01*
X01525323Y00126755D01*
X01525475Y00126713D01*
X01525628Y00126672D01*
X01525960Y00126561D01*
X01526293Y00126394D01*
X01526460Y00126297D01*
X01526626Y00126173D01*
X01526779Y00126048D01*
X01526917Y00125909D01*
X01526931Y00125895D01*
X01526945Y00125867D01*
X01526987Y00125826D01*
X01527028Y00125756D01*
X01527084Y00125673D01*
X01527139Y00125576D01*
X01527209Y00125465D01*
X01527278Y00125326D01*
X01527347Y00125174D01*
X01527417Y00125007D01*
X01527472Y00124827D01*
X01527528Y00124633D01*
X01527569Y00124425D01*
X01527611Y00124203D01*
X01527625Y00123967D01*
X01527639Y00123718D01*
Y00123579D01*
X01527625Y00123482D01*
X01527611Y00123371D01*
X01527597Y00123232D01*
X01527569Y00123080D01*
X01527541Y00122927D01*
X01527444Y00122567D01*
X01527306Y00122206D01*
X01527222Y00122026D01*
X01527125Y00121846D01*
X01527001Y00121679D01*
X01526862Y00121527D01*
X01526848Y00121513D01*
X01526834Y00121485D01*
X01526779Y00121457D01*
X01526723Y00121402D01*
X01526654Y00121332D01*
X01526557Y00121263D01*
X01526460Y00121194D01*
X01526335Y00121110D01*
X01526071Y00120972D01*
X01525739Y00120833D01*
X01525572Y00120778D01*
X01525378Y00120750D01*
X01525184Y00120722D01*
X01524976Y00120708D01*
X01524948D01*
X01524879D01*
X01524768Y00120722D01*
X01524615Y00120736D01*
X01524449Y00120764D01*
X01524255Y00120819D01*
X01524047Y00120875D01*
X01523839Y00120958D01*
X01523811Y00120972D01*
X01523741Y00121000D01*
X01523631Y00121055D01*
X01523478Y00121138D01*
X01523312Y00121249D01*
X01523104Y00121388D01*
X01522896Y00121554D01*
X01522660Y00121749D01*
X01522632Y00121776D01*
X01522549Y00121846D01*
X01522480Y00121915D01*
X01522410Y00121984D01*
X01522327Y00122067D01*
X01522216Y00122178D01*
X01522105Y00122289D01*
X01521980Y00122428D01*
X01521841Y00122567D01*
X01521689Y00122733D01*
X01521536Y00122913D01*
X01521356Y00123108D01*
X01521176Y00123329D01*
X01520982Y00123551D01*
X01520968Y00123565D01*
X01520940Y00123593D01*
X01520898Y00123648D01*
X01520843Y00123718D01*
X01520760Y00123801D01*
X01520677Y00123898D01*
X01520496Y00124120D01*
X01520288Y00124356D01*
X01520080Y00124578D01*
X01519900Y00124772D01*
X01519831Y00124855D01*
X01519761Y00124924D01*
X01519747Y00124938D01*
X01519706Y00124980D01*
X01519650Y00125035D01*
X01519567Y00125105D01*
X01519470Y00125174D01*
X01519373Y00125257D01*
X01519137Y00125424D01*
Y00120695D01*
X01518000D01*
Y00127060D01*
X01518014D01*
X01518069D01*
X01518152D01*
X01518264Y00127046D01*
D02*
G37*
%LPC*%
G36*
X00928500Y01039493D02*
Y01026000D01*
X00941993D01*
X00941627Y01028785D01*
X00940166Y01032313D01*
X00937841Y01035341D01*
X00934813Y01037666D01*
X00931285Y01039127D01*
X00928500Y01039493D01*
D02*
G37*
G36*
X00793500D02*
Y01026000D01*
X00806993D01*
X00806627Y01028785D01*
X00805166Y01032313D01*
X00802841Y01035341D01*
X00799813Y01037666D01*
X00796285Y01039127D01*
X00793500Y01039493D01*
D02*
G37*
G36*
X00926500D02*
X00923715Y01039127D01*
X00920187Y01037666D01*
X00917159Y01035341D01*
X00914834Y01032313D01*
X00913373Y01028785D01*
X00913007Y01026000D01*
X00926500D01*
Y01039493D01*
D02*
G37*
G36*
X00791500D02*
X00788715Y01039127D01*
X00785188Y01037666D01*
X00782159Y01035341D01*
X00779834Y01032313D01*
X00778373Y01028785D01*
X00778007Y01026000D01*
X00791500D01*
Y01039493D01*
D02*
G37*
G36*
X00941993Y01024000D02*
X00928500D01*
Y01010507D01*
X00931285Y01010873D01*
X00934813Y01012334D01*
X00937841Y01014659D01*
X00940166Y01017687D01*
X00941627Y01021215D01*
X00941993Y01024000D01*
D02*
G37*
G36*
X00806993D02*
X00793500D01*
Y01010507D01*
X00796285Y01010873D01*
X00799813Y01012334D01*
X00802841Y01014659D01*
X00805166Y01017687D01*
X00806627Y01021215D01*
X00806993Y01024000D01*
D02*
G37*
G36*
X00926500D02*
X00913007D01*
X00913373Y01021215D01*
X00914834Y01017687D01*
X00917159Y01014659D01*
X00920187Y01012334D01*
X00923715Y01010873D01*
X00926500Y01010507D01*
Y01024000D01*
D02*
G37*
G36*
X00791500D02*
X00778007D01*
X00778373Y01021215D01*
X00779834Y01017687D01*
X00782159Y01014659D01*
X00785188Y01012334D01*
X00788715Y01010873D01*
X00791500Y01010507D01*
Y01024000D01*
D02*
G37*
G36*
X01518150Y00981500D02*
X01504650D01*
Y00980868D01*
X01504997Y00980608D01*
Y00979221D01*
X01504650Y00979474D01*
Y00976627D01*
X01504692Y00976558D01*
X01504830Y00976281D01*
Y00976267D01*
X01504844Y00976239D01*
X01504858Y00976198D01*
X01504886Y00976142D01*
X01504914Y00976073D01*
X01504942Y00975976D01*
X01504997Y00975768D01*
X01505052Y00975504D01*
X01505108Y00975199D01*
X01505150Y00974880D01*
X01505163Y00974520D01*
Y00974339D01*
X01505150Y00974242D01*
Y00974145D01*
X01505122Y00973882D01*
X01505080Y00973590D01*
X01505011Y00973285D01*
X01504928Y00972952D01*
X01504817Y00972647D01*
Y00972634D01*
X01504803Y00972606D01*
X01504775Y00972564D01*
X01504747Y00972509D01*
X01504678Y00972370D01*
X01504650Y00972330D01*
Y00968000D01*
X01518150D01*
Y00981500D01*
D02*
G37*
G36*
X01485407Y00981532D02*
X01483671Y00981148D01*
X01482095Y00980327D01*
X01480785Y00979126D01*
X01479830Y00977627D01*
X01479295Y00975932D01*
X01479218Y00974157D01*
X01479602Y00972421D01*
X01480423Y00970845D01*
X01481624Y00969535D01*
X01483123Y00968580D01*
X01484818Y00968045D01*
X01486593Y00967968D01*
X01488329Y00968352D01*
X01489905Y00969173D01*
X01491215Y00970374D01*
X01492170Y00971873D01*
X01492705Y00973568D01*
X01492782Y00975343D01*
X01492398Y00977079D01*
X01491577Y00978655D01*
X01490376Y00979965D01*
X01488877Y00980920D01*
X01487182Y00981455D01*
X01485407Y00981532D01*
D02*
G37*
G36*
X00825000Y00989018D02*
Y00966000D01*
X00848018D01*
X00847653Y00969705D01*
X00846280Y00974229D01*
X00844052Y00978398D01*
X00841053Y00982053D01*
X00837398Y00985052D01*
X00833229Y00987280D01*
X00828705Y00988653D01*
X00825000Y00989018D01*
D02*
G37*
G36*
X00823000D02*
X00819295Y00988653D01*
X00814771Y00987280D01*
X00810602Y00985052D01*
X00806947Y00982053D01*
X00803948Y00978398D01*
X00801720Y00974229D01*
X00800347Y00969705D01*
X00799982Y00966000D01*
X00823000D01*
Y00989018D01*
D02*
G37*
G36*
X00896000Y00988614D02*
X00891393Y00988160D01*
X00886964Y00986816D01*
X00882881Y00984634D01*
X00879303Y00981697D01*
X00876366Y00978119D01*
X00874184Y00974037D01*
X00872840Y00969607D01*
X00872386Y00965000D01*
X00872840Y00960393D01*
X00874184Y00955963D01*
X00876366Y00951881D01*
X00879303Y00948303D01*
X00882881Y00945366D01*
X00886964Y00943184D01*
X00891393Y00941840D01*
X00896000Y00941386D01*
X00900607Y00941840D01*
X00905037Y00943184D01*
X00909119Y00945366D01*
X00912697Y00948303D01*
X00915634Y00951881D01*
X00917816Y00955963D01*
X00919160Y00960393D01*
X00919614Y00965000D01*
X00919160Y00969607D01*
X00917816Y00974037D01*
X00915634Y00978119D01*
X00912697Y00981697D01*
X00909119Y00984634D01*
X00905037Y00986816D01*
X00900607Y00988160D01*
X00896000Y00988614D01*
D02*
G37*
G36*
X00848018Y00964000D02*
X00825000D01*
Y00940982D01*
X00828705Y00941347D01*
X00833229Y00942720D01*
X00837398Y00944948D01*
X00841053Y00947947D01*
X00844052Y00951602D01*
X00846280Y00955771D01*
X00847653Y00960295D01*
X00848018Y00964000D01*
D02*
G37*
G36*
X00823000D02*
X00799982D01*
X00800347Y00960295D01*
X00801720Y00955771D01*
X00803948Y00951602D01*
X00806947Y00947947D01*
X00810602Y00944948D01*
X00814771Y00942720D01*
X00819295Y00941347D01*
X00823000Y00940982D01*
Y00964000D01*
D02*
G37*
G36*
X01542750Y00933358D02*
X01540604Y00932931D01*
X01538785Y00931715D01*
X01537569Y00929896D01*
X01537142Y00927750D01*
X01537475Y00926079D01*
X01506848Y00895452D01*
X01506295Y00894625D01*
X01506101Y00893650D01*
Y00848644D01*
X01504685Y00847698D01*
X01503469Y00845879D01*
X01503042Y00843733D01*
X01503469Y00841587D01*
X01504685Y00839767D01*
X01506504Y00838552D01*
X01508650Y00838125D01*
X01510796Y00838552D01*
X01512615Y00839767D01*
X01513831Y00841587D01*
X01514258Y00843733D01*
X01513831Y00845879D01*
X01512615Y00847698D01*
X01511199Y00848644D01*
Y00892594D01*
X01541079Y00922475D01*
X01542750Y00922142D01*
X01544896Y00922569D01*
X01546715Y00923785D01*
X01547931Y00925604D01*
X01548358Y00927750D01*
X01547931Y00929896D01*
X01546715Y00931715D01*
X01544896Y00932931D01*
X01542750Y00933358D01*
D02*
G37*
G36*
X01636750Y00849465D02*
X01634604Y00849038D01*
X01632785Y00847823D01*
X01631569Y00846004D01*
X01631142Y00843858D01*
X01631475Y00842187D01*
X01595087Y00805799D01*
X01212662D01*
X01211715Y00807215D01*
X01209896Y00808431D01*
X01207750Y00808858D01*
X01205604Y00808431D01*
X01203785Y00807215D01*
X01202569Y00805396D01*
X01202142Y00803250D01*
X01202569Y00801104D01*
X01203785Y00799285D01*
X01205604Y00798069D01*
X01207750Y00797642D01*
X01209896Y00798069D01*
X01211715Y00799285D01*
X01212662Y00800701D01*
X01596142D01*
X01597118Y00800895D01*
X01597945Y00801448D01*
X01635079Y00838582D01*
X01636750Y00838250D01*
X01638896Y00838677D01*
X01640715Y00839892D01*
X01641931Y00841712D01*
X01642358Y00843858D01*
X01641931Y00846004D01*
X01640715Y00847823D01*
X01638896Y00849038D01*
X01636750Y00849465D01*
D02*
G37*
G36*
X01514918Y00758141D02*
X01514920Y00758136D01*
X01515003Y00757969D01*
X01515128Y00757775D01*
X01515280Y00757553D01*
X01515475Y00757317D01*
X01515696Y00757109D01*
X01515960Y00756915D01*
X01515974D01*
X01516001Y00756901D01*
X01516043Y00756874D01*
X01516099Y00756846D01*
X01516168Y00756818D01*
X01516251Y00756777D01*
X01516305Y00756753D01*
X01514918Y00758141D01*
D02*
G37*
G36*
X00792527Y00824273D02*
X00787191Y00823853D01*
X00781988Y00822604D01*
X00777043Y00820556D01*
X00772480Y00817760D01*
X00768411Y00814284D01*
X00764935Y00810215D01*
X00762139Y00805652D01*
X00760091Y00800707D01*
X00758841Y00795503D01*
X00758422Y00790168D01*
X00758841Y00784833D01*
X00760091Y00779629D01*
X00762139Y00774685D01*
X00764935Y00770122D01*
X00768411Y00766052D01*
X00772480Y00762577D01*
X00777043Y00759780D01*
X00781988Y00757732D01*
X00787191Y00756483D01*
X00792527Y00756063D01*
X00797862Y00756483D01*
X00803066Y00757732D01*
X00808010Y00759780D01*
X00812573Y00762577D01*
X00816643Y00766052D01*
X00820118Y00770122D01*
X00822915Y00774685D01*
X00824963Y00779629D01*
X00826212Y00784833D01*
X00826632Y00790168D01*
X00826212Y00795503D01*
X00824963Y00800707D01*
X00822915Y00805652D01*
X00820118Y00810215D01*
X00816643Y00814284D01*
X00812573Y00817760D01*
X00808010Y00820556D01*
X00803066Y00822604D01*
X00797862Y00823853D01*
X00792527Y00824273D01*
D02*
G37*
G36*
X01511799Y00754585D02*
X01509822D01*
X01512836Y00751571D01*
X01512853Y00751576D01*
X01512881Y00751590D01*
X01512937Y00751617D01*
X01513020Y00751659D01*
X01513131Y00751714D01*
X01513255Y00751798D01*
X01513380Y00751895D01*
X01513505Y00752020D01*
X01513602Y00752158D01*
X01513616Y00752172D01*
X01513644Y00752228D01*
X01513685Y00752311D01*
X01513741Y00752422D01*
X01513783Y00752547D01*
X01513824Y00752685D01*
X01513852Y00752852D01*
X01513866Y00753018D01*
Y00753032D01*
Y00753046D01*
X01513852Y00753129D01*
X01513838Y00753254D01*
X01513810Y00753420D01*
X01513741Y00753587D01*
X01513658Y00753781D01*
X01513533Y00753961D01*
X01513366Y00754141D01*
X01513339Y00754155D01*
X01513269Y00754211D01*
X01513158Y00754280D01*
X01512978Y00754363D01*
X01512770Y00754446D01*
X01512493Y00754516D01*
X01512174Y00754571D01*
X01511799Y00754585D01*
D02*
G37*
G36*
X01547556Y00725503D02*
X01547533Y00725480D01*
X01547436Y00725370D01*
X01547325Y00725217D01*
X01547228Y00725023D01*
X01547131Y00724801D01*
X01547061Y00724551D01*
X01547034Y00724413D01*
Y00724191D01*
X01547048Y00724135D01*
X01547061Y00723983D01*
X01547117Y00723802D01*
X01547186Y00723581D01*
X01547311Y00723345D01*
X01547464Y00723109D01*
X01547575Y00722998D01*
X01547686Y00722887D01*
X01547699D01*
X01547713Y00722859D01*
X01547755Y00722832D01*
X01547797Y00722804D01*
X01547935Y00722707D01*
X01548129Y00722610D01*
X01548365Y00722499D01*
X01548656Y00722402D01*
X01548989Y00722346D01*
X01549350Y00722318D01*
X01549364D01*
X01549391D01*
X01549433D01*
X01549502Y00722332D01*
X01549586D01*
X01549669Y00722346D01*
X01549877Y00722388D01*
X01550113Y00722457D01*
X01550362Y00722540D01*
X01550462Y00722596D01*
X01547556Y00725503D01*
D02*
G37*
G36*
X01508650Y00794840D02*
X01506504Y00794414D01*
X01504685Y00793198D01*
X01503469Y00791379D01*
X01503042Y00789233D01*
X01503469Y00787087D01*
X01504685Y00785267D01*
X01505591Y00784662D01*
Y00760083D01*
X01505591Y00760083D01*
X01505824Y00758912D01*
X01506487Y00757920D01*
X01508754Y00755653D01*
X01511952D01*
X01512063Y00755639D01*
X01512188D01*
X01512479Y00755625D01*
X01512784Y00755584D01*
X01513117Y00755542D01*
X01513422Y00755473D01*
X01513574Y00755431D01*
X01513699Y00755390D01*
X01513713D01*
X01513727Y00755376D01*
X01513810Y00755334D01*
X01513935Y00755279D01*
X01514088Y00755182D01*
X01514254Y00755057D01*
X01514434Y00754890D01*
X01514601Y00754696D01*
X01514767Y00754474D01*
Y00754460D01*
X01514781Y00754446D01*
X01514836Y00754363D01*
X01514892Y00754225D01*
X01514975Y00754044D01*
X01515045Y00753836D01*
X01515114Y00753587D01*
X01515155Y00753323D01*
X01515169Y00753032D01*
Y00753018D01*
Y00752990D01*
Y00752935D01*
X01515155Y00752866D01*
Y00752768D01*
X01515142Y00752671D01*
X01515086Y00752436D01*
X01515003Y00752158D01*
X01514892Y00751867D01*
X01514725Y00751576D01*
X01514615Y00751437D01*
X01514504Y00751298D01*
X01514490Y00751284D01*
X01514476Y00751271D01*
X01514434Y00751229D01*
X01514379Y00751187D01*
X01514310Y00751132D01*
X01514226Y00751077D01*
X01514115Y00751007D01*
X01514004Y00750924D01*
X01513866Y00750855D01*
X01513713Y00750785D01*
X01513652Y00750755D01*
X01546345Y00718062D01*
X01546368Y00718130D01*
Y00718144D01*
X01546382Y00718158D01*
X01546424Y00718241D01*
X01546479Y00718366D01*
X01546576Y00718519D01*
X01546701Y00718685D01*
X01546867Y00718865D01*
X01547061Y00719032D01*
X01547283Y00719198D01*
X01547297D01*
X01547311Y00719212D01*
X01547394Y00719268D01*
X01547533Y00719323D01*
X01547713Y00719406D01*
X01547921Y00719475D01*
X01548171Y00719545D01*
X01548434Y00719586D01*
X01548726Y00719600D01*
X01548740D01*
X01548767D01*
X01548823D01*
X01548892Y00719586D01*
X01548989D01*
X01549086Y00719573D01*
X01549322Y00719517D01*
X01549599Y00719434D01*
X01549891Y00719323D01*
X01550182Y00719156D01*
X01550321Y00719046D01*
X01550459Y00718935D01*
X01550473Y00718921D01*
X01550487Y00718907D01*
X01550529Y00718865D01*
X01550570Y00718810D01*
X01550626Y00718740D01*
X01550681Y00718657D01*
X01550750Y00718546D01*
X01550834Y00718435D01*
X01550903Y00718297D01*
X01550972Y00718144D01*
X01551056Y00717978D01*
X01551125Y00717797D01*
X01551181Y00717589D01*
X01551250Y00717381D01*
X01551291Y00717146D01*
X01551333Y00716896D01*
X01551347Y00716924D01*
X01551375Y00716979D01*
X01551430Y00717062D01*
X01551486Y00717173D01*
X01551638Y00717423D01*
X01551735Y00717548D01*
X01551818Y00717659D01*
X01551846Y00717686D01*
X01551915Y00717756D01*
X01552026Y00717867D01*
X01552165Y00718006D01*
X01552359Y00718158D01*
X01552567Y00718338D01*
X01552817Y00718519D01*
X01553094Y00718713D01*
X01553861Y00719198D01*
X01551327Y00721732D01*
X01551236Y00721667D01*
X01551111Y00721597D01*
X01550972Y00721528D01*
X01550820Y00721445D01*
X01550654Y00721376D01*
X01550459Y00721306D01*
X01550265Y00721237D01*
X01550043Y00721181D01*
X01549807Y00721154D01*
X01549572Y00721126D01*
X01549308Y00721112D01*
X01549294D01*
X01549239D01*
X01549169D01*
X01549073Y00721126D01*
X01548948Y00721140D01*
X01548795Y00721154D01*
X01548642Y00721181D01*
X01548462Y00721223D01*
X01548102Y00721320D01*
X01547908Y00721389D01*
X01547699Y00721473D01*
X01547505Y00721570D01*
X01547325Y00721694D01*
X01547131Y00721819D01*
X01546965Y00721972D01*
X01546951Y00721986D01*
X01546923Y00722013D01*
X01546881Y00722055D01*
X01546826Y00722124D01*
X01546756Y00722208D01*
X01546673Y00722318D01*
X01546604Y00722430D01*
X01546507Y00722568D01*
X01546424Y00722707D01*
X01546354Y00722873D01*
X01546202Y00723248D01*
X01546146Y00723442D01*
X01546105Y00723664D01*
X01546077Y00723886D01*
X01546063Y00724121D01*
Y00724219D01*
X01546077Y00724288D01*
Y00724357D01*
X01546091Y00724454D01*
X01546132Y00724690D01*
X01546188Y00724954D01*
X01546285Y00725245D01*
X01546410Y00725536D01*
X01546576Y00725827D01*
Y00725841D01*
X01546604Y00725855D01*
X01546632Y00725897D01*
X01546673Y00725952D01*
X01546784Y00726091D01*
X01546868Y00726190D01*
X01521119Y00751940D01*
Y00746056D01*
X01519940D01*
Y00753119D01*
X01519702Y00753356D01*
X01519635Y00753309D01*
X01519482Y00753185D01*
X01519288Y00753046D01*
X01519066Y00752893D01*
X01518817Y00752741D01*
X01518803D01*
X01518789Y00752727D01*
X01518706Y00752671D01*
X01518567Y00752602D01*
X01518401Y00752519D01*
X01518206Y00752422D01*
X01517999Y00752325D01*
X01517790Y00752228D01*
X01517582Y00752144D01*
Y00753282D01*
X01517596D01*
X01517624Y00753309D01*
X01517679Y00753323D01*
X01517749Y00753365D01*
X01517832Y00753406D01*
X01517929Y00753462D01*
X01518165Y00753601D01*
X01518442Y00753753D01*
X01518720Y00753947D01*
X01518942Y00754117D01*
X01517669Y00755390D01*
X01517555D01*
X01517444Y00755404D01*
X01517319D01*
X01517166Y00755417D01*
X01517000Y00755445D01*
X01516806Y00755473D01*
X01516404Y00755542D01*
X01515988Y00755653D01*
X01515572Y00755806D01*
X01515377Y00755903D01*
X01515183Y00756014D01*
X01515169Y00756028D01*
X01515142Y00756041D01*
X01515086Y00756083D01*
X01515031Y00756139D01*
X01514948Y00756194D01*
X01514850Y00756277D01*
X01514740Y00756374D01*
X01514628Y00756485D01*
X01514518Y00756610D01*
X01514393Y00756735D01*
X01514143Y00757054D01*
X01513907Y00757428D01*
X01513699Y00757844D01*
Y00757858D01*
X01513672Y00757900D01*
X01513658Y00757969D01*
X01513616Y00758052D01*
X01513588Y00758163D01*
X01513547Y00758302D01*
X01513491Y00758455D01*
X01513450Y00758621D01*
X01513408Y00758801D01*
X01513353Y00759009D01*
X01513283Y00759439D01*
X01513240Y00759819D01*
X01511709Y00761350D01*
Y00784662D01*
X01512615Y00785267D01*
X01513831Y00787087D01*
X01514258Y00789233D01*
X01513831Y00791379D01*
X01512615Y00793198D01*
X01510796Y00794414D01*
X01508650Y00794840D01*
D02*
G37*
G36*
X01548740Y00718297D02*
X01548726D01*
X01548712D01*
X01548629Y00718283D01*
X01548504Y00718269D01*
X01548337Y00718241D01*
X01548171Y00718172D01*
X01547977Y00718089D01*
X01547797Y00717964D01*
X01547616Y00717797D01*
X01547602Y00717770D01*
X01547547Y00717700D01*
X01547478Y00717589D01*
X01547394Y00717409D01*
X01547311Y00717201D01*
X01547290Y00717117D01*
X01550348Y00714059D01*
Y00716064D01*
X01550334Y00716230D01*
X01550321Y00716424D01*
X01550307Y00716646D01*
X01550279Y00716868D01*
X01550237Y00717090D01*
X01550182Y00717284D01*
X01550168Y00717312D01*
X01550140Y00717367D01*
X01550099Y00717451D01*
X01550043Y00717562D01*
X01549960Y00717686D01*
X01549863Y00717811D01*
X01549738Y00717936D01*
X01549599Y00718033D01*
X01549586Y00718047D01*
X01549530Y00718075D01*
X01549447Y00718116D01*
X01549336Y00718172D01*
X01549211Y00718214D01*
X01549073Y00718255D01*
X01548906Y00718283D01*
X01548740Y00718297D01*
D02*
G37*
G36*
X01554828Y00718230D02*
X01553705Y00717520D01*
X01553691D01*
X01553663Y00717492D01*
X01553621Y00717465D01*
X01553566Y00717423D01*
X01553413Y00717326D01*
X01553219Y00717201D01*
X01553011Y00717049D01*
X01552789Y00716896D01*
X01552581Y00716743D01*
X01552387Y00716605D01*
X01552373Y00716591D01*
X01552318Y00716549D01*
X01552234Y00716480D01*
X01552137Y00716383D01*
X01551929Y00716175D01*
X01551832Y00716064D01*
X01551749Y00715953D01*
X01551735Y00715939D01*
X01551721Y00715911D01*
X01551694Y00715856D01*
X01551652Y00715773D01*
X01551610Y00715689D01*
X01551569Y00715592D01*
X01551499Y00715370D01*
Y00715357D01*
X01551486Y00715329D01*
Y00715273D01*
X01551472Y00715204D01*
X01551458Y00715107D01*
Y00714996D01*
X01551444Y00714844D01*
Y00713207D01*
X01555702D01*
Y00711931D01*
X01552476D01*
X01593324Y00671083D01*
X01594346D01*
Y00670061D01*
X01619105Y00645302D01*
X01618892Y00644233D01*
X01619319Y00642087D01*
X01620535Y00640267D01*
X01622354Y00639052D01*
X01624500Y00638625D01*
X01626646Y00639052D01*
X01628465Y00640267D01*
X01629681Y00642087D01*
X01630108Y00644233D01*
X01629681Y00646379D01*
X01628465Y00648198D01*
X01626646Y00649414D01*
X01624500Y00649840D01*
X01623431Y00649628D01*
X01570333Y00702726D01*
X01570184Y00702806D01*
X01570018Y00702931D01*
X01569865Y00703069D01*
X01569851Y00703083D01*
X01569824Y00703097D01*
X01569796Y00703152D01*
X01569740Y00703208D01*
X01569671Y00703277D01*
X01569602Y00703374D01*
X01569532Y00703471D01*
X01569449Y00703596D01*
X01569435Y00703624D01*
X01562975Y00710083D01*
X01562903Y00709948D01*
X01562820Y00709712D01*
X01562751Y00709435D01*
X01562723Y00709130D01*
Y00709116D01*
Y00709088D01*
Y00709046D01*
X01562737Y00708991D01*
X01562751Y00708839D01*
X01562792Y00708658D01*
X01562848Y00708436D01*
X01562945Y00708214D01*
X01563084Y00707992D01*
X01563264Y00707785D01*
X01563292Y00707757D01*
X01563361Y00707701D01*
X01563472Y00707618D01*
X01563625Y00707521D01*
X01563819Y00707424D01*
X01564055Y00707341D01*
X01564318Y00707285D01*
X01564609Y00707258D01*
X01564734D01*
X01564831Y00707271D01*
X01564956Y00707285D01*
X01565095Y00707313D01*
X01565261Y00707341D01*
X01565441Y00707382D01*
X01565303Y00706342D01*
X01565233D01*
X01565178Y00706356D01*
X01564998D01*
X01564845Y00706328D01*
X01564665Y00706301D01*
X01564457Y00706259D01*
X01564221Y00706190D01*
X01563999Y00706093D01*
X01563763Y00705968D01*
X01563749D01*
X01563736Y00705954D01*
X01563666Y00705898D01*
X01563569Y00705801D01*
X01563458Y00705676D01*
X01563347Y00705496D01*
X01563250Y00705288D01*
X01563181Y00705052D01*
X01563153Y00704914D01*
Y00704761D01*
Y00704747D01*
Y00704733D01*
Y00704650D01*
X01563181Y00704539D01*
X01563208Y00704387D01*
X01563264Y00704220D01*
X01563333Y00704040D01*
X01563444Y00703860D01*
X01563597Y00703693D01*
X01563611Y00703679D01*
X01563680Y00703624D01*
X01563777Y00703555D01*
X01563902Y00703471D01*
X01564068Y00703402D01*
X01564263Y00703333D01*
X01564484Y00703277D01*
X01564734Y00703263D01*
X01564845D01*
X01564970Y00703291D01*
X01565136Y00703319D01*
X01565316Y00703374D01*
X01565497Y00703444D01*
X01565691Y00703555D01*
X01565871Y00703693D01*
X01565885Y00703707D01*
X01565941Y00703776D01*
X01566024Y00703874D01*
X01566121Y00704012D01*
X01566218Y00704193D01*
X01566315Y00704415D01*
X01566398Y00704678D01*
X01566454Y00704983D01*
X01567632Y00704775D01*
Y00704761D01*
X01567619Y00704720D01*
X01567605Y00704664D01*
X01567591Y00704581D01*
X01567563Y00704484D01*
X01567522Y00704373D01*
X01567438Y00704109D01*
X01567300Y00703804D01*
X01567133Y00703499D01*
X01566925Y00703208D01*
X01566662Y00702944D01*
X01566648Y00702931D01*
X01566620Y00702917D01*
X01566579Y00702889D01*
X01566523Y00702847D01*
X01566454Y00702792D01*
X01566357Y00702736D01*
X01566259Y00702681D01*
X01566135Y00702612D01*
X01565857Y00702501D01*
X01565538Y00702390D01*
X01565164Y00702320D01*
X01564970Y00702293D01*
X01564623D01*
X01564471Y00702307D01*
X01564290Y00702334D01*
X01564068Y00702376D01*
X01563819Y00702445D01*
X01563569Y00702528D01*
X01563319Y00702639D01*
X01563306D01*
X01563292Y00702653D01*
X01563208Y00702695D01*
X01563084Y00702778D01*
X01562945Y00702875D01*
X01562779Y00703014D01*
X01562612Y00703166D01*
X01562446Y00703347D01*
X01562307Y00703555D01*
X01562293Y00703582D01*
X01562252Y00703652D01*
X01562196Y00703776D01*
X01562127Y00703929D01*
X01562057Y00704109D01*
X01562002Y00704317D01*
X01561960Y00704553D01*
X01561947Y00704789D01*
Y00704817D01*
Y00704900D01*
X01561960Y00705011D01*
X01561988Y00705163D01*
X01562030Y00705344D01*
X01562099Y00705538D01*
X01562182Y00705732D01*
X01562293Y00705926D01*
X01562307Y00705954D01*
X01562349Y00706009D01*
X01562432Y00706106D01*
X01562543Y00706217D01*
X01562681Y00706342D01*
X01562848Y00706481D01*
X01563042Y00706606D01*
X01563278Y00706730D01*
X01563264D01*
X01563236Y00706744D01*
X01563195Y00706758D01*
X01563139Y00706772D01*
X01562987Y00706828D01*
X01562792Y00706911D01*
X01562570Y00707022D01*
X01562349Y00707160D01*
X01562141Y00707341D01*
X01561947Y00707549D01*
X01561933Y00707577D01*
X01561877Y00707660D01*
X01561794Y00707798D01*
X01561711Y00707979D01*
X01561628Y00708201D01*
X01561544Y00708464D01*
X01561489Y00708769D01*
X01561475Y00709102D01*
Y00709116D01*
Y00709157D01*
Y00709227D01*
X01561489Y00709310D01*
X01561503Y00709421D01*
X01561530Y00709546D01*
X01561558Y00709685D01*
X01561586Y00709837D01*
X01561697Y00710170D01*
X01561780Y00710350D01*
X01561863Y00710517D01*
X01561974Y00710697D01*
X01562099Y00710877D01*
X01562135Y00710924D01*
X01554828Y00718230D01*
D02*
G37*
G36*
X01614123Y00628687D02*
X01613517Y00628435D01*
X01612323Y00627704D01*
X01614123D01*
Y00628687D01*
D02*
G37*
G36*
X01629000Y00632153D02*
X01623665Y00631733D01*
X01618461Y00630483D01*
X01615399Y00629215D01*
Y00626636D01*
X01610947D01*
X01610836Y00626650D01*
X01610711D01*
X01610610Y00626654D01*
X01608954Y00625639D01*
X01604884Y00622163D01*
X01601408Y00618094D01*
X01598612Y00613531D01*
X01596564Y00608587D01*
X01595315Y00603383D01*
X01594895Y00598047D01*
X01595315Y00592712D01*
X01596564Y00587508D01*
X01598612Y00582564D01*
X01601408Y00578001D01*
X01604884Y00573932D01*
X01608954Y00570456D01*
X01613517Y00567660D01*
X01618461Y00565612D01*
X01623665Y00564362D01*
X01629000Y00563942D01*
X01634335Y00564362D01*
X01639539Y00565612D01*
X01644483Y00567660D01*
X01649046Y00570456D01*
X01653116Y00573932D01*
X01656592Y00578001D01*
X01659388Y00582564D01*
X01661436Y00587508D01*
X01662685Y00592712D01*
X01663105Y00598047D01*
X01662685Y00603383D01*
X01661436Y00608587D01*
X01659388Y00613531D01*
X01656592Y00618094D01*
X01653116Y00622163D01*
X01649046Y00625639D01*
X01644483Y00628435D01*
X01639539Y00630483D01*
X01634335Y00631733D01*
X01629000Y00632153D01*
D02*
G37*
G36*
X01176595Y00691015D02*
X01171260Y00690595D01*
X01166056Y00689346D01*
X01161112Y00687298D01*
X01156549Y00684501D01*
X01152479Y00681026D01*
X01149004Y00676956D01*
X01146207Y00672393D01*
X01144159Y00667449D01*
X01142910Y00662245D01*
X01142490Y00656910D01*
X01142910Y00651575D01*
X01144159Y00646371D01*
X01146207Y00641426D01*
X01149004Y00636863D01*
X01152479Y00632794D01*
X01156549Y00629318D01*
X01161112Y00626522D01*
X01166056Y00624474D01*
X01171260Y00623225D01*
X01176595Y00622805D01*
X01181930Y00623225D01*
X01187134Y00624474D01*
X01192079Y00626522D01*
X01196642Y00629318D01*
X01200711Y00632794D01*
X01204187Y00636863D01*
X01206983Y00641426D01*
X01209031Y00646371D01*
X01210280Y00651575D01*
X01210700Y00656910D01*
X01210280Y00662245D01*
X01209031Y00667449D01*
X01206983Y00672393D01*
X01204187Y00676956D01*
X01200711Y00681026D01*
X01196642Y00684501D01*
X01192079Y00687298D01*
X01187134Y00689346D01*
X01181930Y00690595D01*
X01176595Y00691015D01*
D02*
G37*
G36*
X01457572Y00669760D02*
X01452236Y00669340D01*
X01447033Y00668091D01*
X01442088Y00666043D01*
X01437525Y00663247D01*
X01433456Y00659771D01*
X01429980Y00655702D01*
X01427184Y00651138D01*
X01425136Y00646194D01*
X01423887Y00640990D01*
X01423467Y00635655D01*
X01423887Y00630320D01*
X01425136Y00625116D01*
X01427184Y00620172D01*
X01429980Y00615608D01*
X01433456Y00611539D01*
X01437525Y00608063D01*
X01442088Y00605267D01*
X01447033Y00603219D01*
X01452236Y00601970D01*
X01457572Y00601550D01*
X01462907Y00601970D01*
X01468111Y00603219D01*
X01473055Y00605267D01*
X01477618Y00608063D01*
X01481688Y00611539D01*
X01485163Y00615608D01*
X01487960Y00620172D01*
X01490008Y00625116D01*
X01491257Y00630320D01*
X01491677Y00635655D01*
X01491257Y00640990D01*
X01490008Y00646194D01*
X01487960Y00651138D01*
X01485163Y00655702D01*
X01481688Y00659771D01*
X01477618Y00663247D01*
X01473055Y00666043D01*
X01468111Y00668091D01*
X01462907Y00669340D01*
X01457572Y00669760D01*
D02*
G37*
G36*
X00758680Y00657533D02*
X00753345Y00657113D01*
X00748141Y00655864D01*
X00743196Y00653816D01*
X00738633Y00651019D01*
X00734564Y00647544D01*
X00731088Y00643474D01*
X00728292Y00638911D01*
X00726244Y00633967D01*
X00724995Y00628763D01*
X00724575Y00623428D01*
X00724995Y00618092D01*
X00726244Y00612889D01*
X00728292Y00607944D01*
X00731088Y00603381D01*
X00734564Y00599312D01*
X00738633Y00595836D01*
X00743196Y00593040D01*
X00748141Y00590992D01*
X00753345Y00589743D01*
X00758680Y00589323D01*
X00764015Y00589743D01*
X00769219Y00590992D01*
X00774163Y00593040D01*
X00778726Y00595836D01*
X00782796Y00599312D01*
X00786272Y00603381D01*
X00789068Y00607944D01*
X00791116Y00612889D01*
X00792365Y00618092D01*
X00792785Y00623428D01*
X00792365Y00628763D01*
X00791116Y00633967D01*
X00789068Y00638911D01*
X00786272Y00643474D01*
X00782796Y00647544D01*
X00778726Y00651019D01*
X00774163Y00653816D01*
X00769219Y00655864D01*
X00764015Y00657113D01*
X00758680Y00657533D01*
D02*
G37*
G36*
X01031079Y00565288D02*
X01025744Y00564868D01*
X01020540Y00563619D01*
X01015596Y00561571D01*
X01011032Y00558774D01*
X01006963Y00555299D01*
X01003487Y00551229D01*
X01000691Y00546666D01*
X00998643Y00541722D01*
X00997394Y00536518D01*
X00996974Y00531183D01*
X00997394Y00525848D01*
X00998643Y00520644D01*
X01000691Y00515700D01*
X01003487Y00511136D01*
X01006963Y00507067D01*
X01011032Y00503591D01*
X01015596Y00500795D01*
X01020540Y00498747D01*
X01025744Y00497498D01*
X01031079Y00497078D01*
X01036414Y00497498D01*
X01041618Y00498747D01*
X01046562Y00500795D01*
X01051125Y00503591D01*
X01055195Y00507067D01*
X01058671Y00511136D01*
X01061467Y00515700D01*
X01063515Y00520644D01*
X01064764Y00525848D01*
X01065184Y00531183D01*
X01064764Y00536518D01*
X01063515Y00541722D01*
X01061467Y00546666D01*
X01058671Y00551229D01*
X01055195Y00555299D01*
X01051125Y00558774D01*
X01046562Y00561571D01*
X01041618Y00563619D01*
X01036414Y00564868D01*
X01031079Y00565288D01*
D02*
G37*
G36*
X01290154Y00489465D02*
X01284819Y00489045D01*
X01279615Y00487796D01*
X01274671Y00485747D01*
X01270107Y00482951D01*
X01266038Y00479476D01*
X01262562Y00475406D01*
X01259766Y00470843D01*
X01257718Y00465899D01*
X01256469Y00460695D01*
X01256049Y00455360D01*
X01256469Y00450024D01*
X01257718Y00444821D01*
X01259766Y00439876D01*
X01262562Y00435313D01*
X01266038Y00431244D01*
X01270107Y00427768D01*
X01274671Y00424972D01*
X01279615Y00422924D01*
X01284819Y00421674D01*
X01290154Y00421255D01*
X01295489Y00421674D01*
X01300693Y00422924D01*
X01305637Y00424972D01*
X01310201Y00427768D01*
X01314270Y00431244D01*
X01317746Y00435313D01*
X01320542Y00439876D01*
X01322590Y00444821D01*
X01323839Y00450024D01*
X01324259Y00455360D01*
X01323839Y00460695D01*
X01322590Y00465899D01*
X01320542Y00470843D01*
X01317746Y00475406D01*
X01314270Y00479476D01*
X01310201Y00482951D01*
X01305637Y00485747D01*
X01300693Y00487796D01*
X01295489Y00489045D01*
X01290154Y00489465D01*
D02*
G37*
G36*
X01609825Y00476703D02*
X01604490Y00476283D01*
X01599286Y00475034D01*
X01594341Y00472986D01*
X01589778Y00470190D01*
X01585709Y00466714D01*
X01582233Y00462645D01*
X01579437Y00458082D01*
X01577389Y00453137D01*
X01576140Y00447933D01*
X01575720Y00442598D01*
X01576140Y00437263D01*
X01577389Y00432059D01*
X01579437Y00427115D01*
X01582233Y00422552D01*
X01585709Y00418482D01*
X01589778Y00415006D01*
X01594341Y00412210D01*
X01599286Y00410162D01*
X01604490Y00408913D01*
X01609825Y00408493D01*
X01615160Y00408913D01*
X01620364Y00410162D01*
X01625308Y00412210D01*
X01629871Y00415006D01*
X01633941Y00418482D01*
X01637417Y00422552D01*
X01640213Y00427115D01*
X01642261Y00432059D01*
X01643510Y00437263D01*
X01643930Y00442598D01*
X01643510Y00447933D01*
X01642261Y00453137D01*
X01640213Y00458082D01*
X01637417Y00462645D01*
X01633941Y00466714D01*
X01629871Y00470190D01*
X01625308Y00472986D01*
X01620364Y00475034D01*
X01615160Y00476283D01*
X01609825Y00476703D01*
D02*
G37*
G36*
X01428897Y00389344D02*
X01423562Y00388924D01*
X01418358Y00387675D01*
X01413414Y00385627D01*
X01408851Y00382831D01*
X01404781Y00379355D01*
X01401306Y00375286D01*
X01398510Y00370723D01*
X01396461Y00365778D01*
X01395212Y00360574D01*
X01394792Y00355239D01*
X01395212Y00349904D01*
X01396461Y00344700D01*
X01398510Y00339756D01*
X01401306Y00335193D01*
X01404781Y00331123D01*
X01408851Y00327648D01*
X01413414Y00324851D01*
X01418358Y00322803D01*
X01423562Y00321554D01*
X01428897Y00321134D01*
X01434233Y00321554D01*
X01439436Y00322803D01*
X01444381Y00324851D01*
X01448944Y00327648D01*
X01453013Y00331123D01*
X01456489Y00335193D01*
X01459285Y00339756D01*
X01461333Y00344700D01*
X01462583Y00349904D01*
X01463002Y00355239D01*
X01462583Y00360574D01*
X01461333Y00365778D01*
X01459285Y00370723D01*
X01456489Y00375286D01*
X01453013Y00379355D01*
X01448944Y00382831D01*
X01444381Y00385627D01*
X01439436Y00387675D01*
X01434233Y00388924D01*
X01428897Y00389344D01*
D02*
G37*
G36*
X00655000Y00339105D02*
X00649665Y00338685D01*
X00644461Y00337436D01*
X00639517Y00335388D01*
X00634953Y00332592D01*
X00630884Y00329116D01*
X00627408Y00325047D01*
X00624612Y00320483D01*
X00622564Y00315539D01*
X00621315Y00310335D01*
X00620895Y00305000D01*
X00621315Y00299665D01*
X00622564Y00294461D01*
X00624612Y00289517D01*
X00627408Y00284953D01*
X00630884Y00280884D01*
X00634953Y00277408D01*
X00639517Y00274612D01*
X00644461Y00272564D01*
X00649665Y00271315D01*
X00655000Y00270895D01*
X00660335Y00271315D01*
X00665539Y00272564D01*
X00670483Y00274612D01*
X00675046Y00277408D01*
X00679116Y00280884D01*
X00682592Y00284953D01*
X00685388Y00289517D01*
X00687436Y00294461D01*
X00688685Y00299665D01*
X00689105Y00305000D01*
X00688685Y00310335D01*
X00687436Y00315539D01*
X00685388Y00320483D01*
X00682592Y00325047D01*
X00679116Y00329116D01*
X00675046Y00332592D01*
X00670483Y00335388D01*
X00665539Y00337436D01*
X00660335Y00338685D01*
X00655000Y00339105D01*
D02*
G37*
%LPD*%
D11*
X00920000Y00946500D02*
G03*
X00937500Y00988749I-00042249J00042249D01*
G01*
X00782500Y00988749D02*
G03*
X00800000Y00946500I00059749J00000000D01*
G01*
X01550700Y00826483D02*
G03*
X01550700Y00826483I-00005000J00000000D01*
G01*
X01539517Y00658983D02*
G03*
X01539517Y00658983I-00001768J00000000D01*
G01*
X01375000Y00544483D02*
G03*
X01375000Y00544483I-00003000J00000000D01*
G01*
X00734000Y00705483D02*
G03*
X00734000Y00705483I-00003000J00000000D01*
G01*
X01175750Y00872233D02*
G03*
X01175750Y00872233I-00003000J00000000D01*
G01*
X00995500D02*
G03*
X00995500Y00872233I-00003000J00000000D01*
G01*
X01090500D02*
G03*
X01090500Y00872233I-00003000J00000000D01*
G01*
X01515500Y00190000D02*
Y00220000D01*
X01528500D01*
Y00190000D02*
Y00220000D01*
X01495000Y00065000D02*
Y00154000D01*
Y00065000D02*
X01549000D01*
Y00154000D01*
X01501500Y00170000D02*
Y00190000D01*
X01542500D01*
Y00170000D02*
Y00190000D01*
X01442000Y00154000D02*
Y00170000D01*
X01602000D01*
Y00154000D02*
Y00170000D01*
X01442000Y00154000D02*
X01602000D01*
X00540000Y00706500D02*
X00570000D01*
Y00693500D02*
Y00706500D01*
X00540000Y00693500D02*
X00570000D01*
X00415000Y00727000D02*
X00504000D01*
X00415000Y00673000D02*
Y00727000D01*
Y00673000D02*
X00504000D01*
X00520000Y00720500D02*
X00540000D01*
Y00679500D02*
Y00720500D01*
X00520000Y00679500D02*
X00540000D01*
X00504000Y00780000D02*
X00520000D01*
Y00620000D02*
Y00780000D01*
X00504000Y00620000D02*
X00520000D01*
X00504000D02*
Y00780000D01*
X01473700Y00959750D02*
Y00989750D01*
Y00959750D02*
X01523700D01*
Y00979750D01*
X01513700Y00989750D02*
X01523700Y00979750D01*
X01473700Y00989750D02*
X01513700D01*
X00895000Y00946500D02*
X00920000D01*
X00800000D02*
X00895000D01*
X00782500Y00988749D02*
Y01065000D01*
X00782934D02*
X00937703D01*
X00937500Y00988749D02*
Y01065000D01*
X01595500Y00944500D02*
Y01005500D01*
X01534500Y00944500D02*
Y01005500D01*
X01595500D01*
X01534500Y00944500D02*
X01595500D01*
X01478925Y00758358D02*
Y00763358D01*
X01468925Y00758358D02*
X01478925D01*
X01468925D02*
Y00763358D01*
X01478925D01*
X01597850Y00841133D02*
Y00846133D01*
X01607850D01*
Y00841133D02*
Y00846133D01*
X01597850Y00841133D02*
X01607850D01*
X01524500Y00735556D02*
Y00740556D01*
X01534500D01*
Y00735556D02*
Y00740556D01*
X01524500Y00735556D02*
X01534500D01*
X01531600Y00717656D02*
X01536600D01*
X01531600D02*
Y00727656D01*
X01536600D01*
Y00717656D02*
Y00727656D01*
X01561202Y00728931D02*
X01566202D01*
X01561202D02*
Y00738931D01*
X01566202D01*
Y00728931D02*
Y00738931D01*
X01574249Y00654083D02*
X01579249D01*
Y00644083D02*
Y00654083D01*
X01574249Y00644083D02*
X01579249D01*
X01574249D02*
Y00654083D01*
X01598399Y00641733D02*
Y00646733D01*
X01588399Y00641733D02*
X01598399D01*
X01588399D02*
Y00646733D01*
X01598399D01*
X01606249Y00653833D02*
X01611249D01*
Y00643833D02*
Y00653833D01*
X01606249Y00643833D02*
X01611249D01*
X01606249D02*
Y00653833D01*
X01365150Y00659733D02*
Y00664733D01*
X01355150Y00659733D02*
X01365150D01*
X01355150D02*
Y00664733D01*
X01365150D01*
X01362500Y00691183D02*
X01367500D01*
Y00681183D02*
Y00691183D01*
X01362500Y00681183D02*
X01367500D01*
X01362500D02*
Y00691183D01*
X00723500Y00812233D02*
Y00817233D01*
X00713500Y00812233D02*
X00723500D01*
X00713500D02*
Y00817233D01*
X00723500D01*
X00722500Y00845683D02*
X00727500D01*
Y00835683D02*
Y00845683D01*
X00722500Y00835683D02*
X00727500D01*
X00722500D02*
Y00845683D01*
X01612001Y00550250D02*
X01628001D01*
X01612001Y00542250D02*
Y00550250D01*
Y00542250D02*
X01628001D01*
Y00550250D01*
X01502700Y00836483D02*
X01552700D01*
X01502700Y00796483D02*
X01552700D01*
Y00836483D01*
X01502700Y00796483D02*
Y00836483D01*
X01521749Y00664233D02*
X01542749D01*
X01521749Y00643233D02*
X01542749D01*
Y00664233D01*
X01521749Y00643233D02*
Y00664233D01*
X01342000Y00551483D02*
X01378000D01*
X01342000Y00525483D02*
X01378000D01*
Y00551483D01*
X01342000Y00525483D02*
Y00551483D01*
X00701000Y00712483D02*
X00737000D01*
X00701000Y00686483D02*
X00737000D01*
Y00712483D01*
X00701000Y00686483D02*
Y00712483D01*
X01163250Y00862733D02*
Y00901733D01*
X01212250D01*
Y00862733D02*
Y00901733D01*
X01163250Y00862733D02*
X01212250D01*
X00983000D02*
Y00901733D01*
X01032000D01*
Y00862733D02*
Y00901733D01*
X00983000Y00862733D02*
X01032000D01*
X01078000D02*
Y00901733D01*
X01127000D01*
Y00862733D02*
Y00901733D01*
X01078000Y00862733D02*
X01127000D01*
X01456625Y00751008D02*
X01461625D01*
X01456625D02*
Y00761008D01*
X01461625D01*
Y00751008D02*
Y00761008D01*
X01486375Y00750758D02*
X01491375D01*
X01486375D02*
Y00760758D01*
X01491375D01*
Y00750758D02*
Y00760758D01*
X01585500Y00833883D02*
X01590500D01*
X01585500D02*
Y00843883D01*
X01590500D01*
Y00833883D02*
Y00843883D01*
X01617500Y00833883D02*
X01622500D01*
X01617500D02*
Y00843883D01*
X01622500D01*
Y00833883D02*
Y00843883D01*
X01524200Y00747056D02*
Y00752056D01*
X01534200D01*
Y00747056D02*
Y00752056D01*
X01524200Y00747056D02*
X01534200D01*
X01553852Y00746431D02*
Y00751431D01*
X01563852D01*
Y00746431D02*
Y00751431D01*
X01553852Y00746431D02*
X01563852D01*
X01524500Y00704806D02*
Y00709806D01*
X01534500D01*
Y00704806D02*
Y00709806D01*
X01524500Y00704806D02*
X01534500D01*
X01573802Y00715431D02*
Y00720431D01*
X01563802Y00715431D02*
X01573802D01*
X01563802D02*
Y00720431D01*
X01573802D01*
X01560249Y00654333D02*
X01565249D01*
Y00644333D02*
Y00654333D01*
X01560249Y00644333D02*
X01565249D01*
X01560249D02*
Y00654333D01*
X01333600Y00640533D02*
X01354600D01*
X01333600Y00626933D02*
Y00640533D01*
Y00626933D02*
X01354600D01*
Y00640533D01*
X01338000Y00608733D02*
X01354000D01*
X01338000Y00600733D02*
Y00608733D01*
Y00600733D02*
X01354000D01*
Y00608733D01*
X01355063Y00578733D02*
Y00583733D01*
X01345063Y00578733D02*
X01355063D01*
X01345063D02*
Y00583733D01*
X01355063D01*
X01365400Y00640533D02*
X01386400D01*
X01365400Y00626933D02*
Y00640533D01*
Y00626933D02*
X01386400D01*
Y00640533D01*
X01366000Y00608733D02*
X01382000D01*
X01366000Y00600733D02*
Y00608733D01*
Y00600733D02*
X01382000D01*
Y00608733D01*
X01374938Y00578733D02*
Y00583733D01*
X01364938Y00578733D02*
X01374938D01*
X01364938D02*
Y00583733D01*
X01374938D01*
X00691850Y00796533D02*
X00712850D01*
X00691850Y00782933D02*
Y00796533D01*
Y00782933D02*
X00712850D01*
Y00796533D01*
X00696450Y00763733D02*
X00712450D01*
X00696450Y00755733D02*
Y00763733D01*
Y00755733D02*
X00712450D01*
Y00763733D01*
X00713900Y00732233D02*
Y00737233D01*
X00703900Y00732233D02*
X00713900D01*
X00703900D02*
Y00737233D01*
X00713900D01*
X00723650Y00796533D02*
X00744650D01*
X00723650Y00782933D02*
Y00796533D01*
Y00782933D02*
X00744650D01*
Y00796533D01*
X00724300Y00763733D02*
X00740300D01*
X00724300Y00755733D02*
Y00763733D01*
Y00755733D02*
X00740300D01*
Y00763733D01*
X00733850Y00732233D02*
Y00737233D01*
X00723850Y00732233D02*
X00733850D01*
X00723850D02*
Y00737233D01*
X00733850D01*
X01176250Y00799483D02*
X01192250D01*
Y00807483D01*
X01176250D02*
X01192250D01*
X01176250Y00799483D02*
Y00807483D01*
X01002800Y00806200D02*
Y00822200D01*
X00994800D02*
X01002800D01*
X00994800Y00806200D02*
Y00822200D01*
Y00806200D02*
X01002800D01*
X01090750Y00802750D02*
X01106750D01*
Y00810750D01*
X01090750D02*
X01106750D01*
X01090750Y00802750D02*
Y00810750D01*
X01191250Y00817733D02*
X01207250D01*
Y00825733D01*
X01191250D02*
X01207250D01*
X01191250Y00817733D02*
Y00825733D01*
X01011000Y00817733D02*
X01027000D01*
Y00825733D01*
X01011000D02*
X01027000D01*
X01011000Y00817733D02*
Y00825733D01*
X01106000Y00817733D02*
X01122000D01*
Y00825733D01*
X01106000D02*
X01122000D01*
X01106000Y00817733D02*
Y00825733D01*
X01202775Y00947258D02*
Y00963258D01*
Y00947258D02*
X01210775D01*
Y00963258D01*
X01202775D02*
X01210775D01*
X01022750Y00947283D02*
Y00963283D01*
Y00947283D02*
X01030750D01*
Y00963283D01*
X01022750D02*
X01030750D01*
X01118050Y00947283D02*
Y00963283D01*
Y00947283D02*
X01126050D01*
Y00963283D01*
X01118050D02*
X01126050D01*
X01442000Y00154000D02*
X01602000D01*
Y00170000D01*
X01442000D02*
X01602000D01*
X01442000Y00154000D02*
Y00170000D01*
X01542500D02*
Y00190000D01*
X01501500D02*
X01542500D01*
X01501500Y00170000D02*
Y00190000D01*
X01549000Y00065000D02*
Y00154000D01*
X01495000Y00065000D02*
X01549000D01*
X01495000D02*
Y00154000D01*
X00504000Y00620000D02*
Y00780000D01*
Y00620000D02*
X00520000D01*
Y00780000D01*
X00504000D02*
X00520000D01*
Y00679500D02*
X00540000D01*
Y00720500D01*
X00520000D02*
X00540000D01*
X00415000Y00673000D02*
X00504000D01*
X00415000D02*
Y00727000D01*
X00504000D01*
D13*
X01549250Y00954250D02*
G03*
X01549250Y00954250I-00005000J00000000D01*
G01*
X00780000Y01128500D02*
X00940000D01*
Y00941500D02*
Y01128500D01*
X00780000Y00941500D02*
X00940000D01*
X00780000D02*
Y01128500D01*
X00860000Y01123500D02*
Y01133500D01*
X01560000Y00975000D02*
X01570000D01*
X01565000Y00970000D02*
Y00980000D01*
X01527700Y00811483D02*
Y00821483D01*
X01522700Y00816483D02*
X01532700D01*
X01360000Y00533483D02*
Y00543483D01*
X01355000Y00538483D02*
X01365000D01*
X00719000Y00694483D02*
Y00704483D01*
X00714000Y00699483D02*
X00724000D01*
X01440000Y00205000D02*
G03*
X01448536Y00208536I00000000J00012071D01*
G01*
X01460000Y00215000D02*
G03*
X01451464Y00211464I00000000J-00012071D01*
G01*
X01485607Y00204393D02*
G03*
X01460000Y00215000I-00025607J-00025607D01*
G01*
X01496465Y00193535D02*
G03*
X01505000Y00190000I00008536J00008536D01*
G01*
X01540000D02*
G03*
X01548535Y00193535I00000000J00012071D01*
G01*
X01585000Y00215000D02*
G03*
X01559393Y00204393I00000000J-00036213D01*
G01*
X01593535Y00211465D02*
G03*
X01585000Y00215000I-00008536J-00008536D01*
G01*
X01596464Y00208536D02*
G03*
X01605000Y00205000I00008536J00008536D01*
G01*
X00555000Y00780000D02*
G03*
X00558536Y00771464I00012071J00000000D01*
G01*
X00560000Y00767929D02*
G03*
X00558536Y00771464I-00005000J00000000D01*
G01*
X00556464Y00746464D02*
G03*
X00560000Y00755000I-00008536J00008536D01*
G01*
X00550607Y00740607D02*
G03*
X00540000Y00715000I00025607J-00025607D01*
G01*
Y00675000D02*
G03*
X00543535Y00666464I00012071J00000000D01*
G01*
X00560000Y00640000D02*
G03*
X00552929Y00657071I-00024142J00000000D01*
G01*
X00555000Y00625000D02*
G03*
X00560000Y00637071I-00012071J00012071D01*
G01*
X00555000Y00325000D02*
Y00625000D01*
Y00325000D02*
X00675000Y00205000D01*
X01440000D01*
X01448536Y00208536D02*
X01451464Y00211464D01*
X01485607Y00204393D02*
X01496465Y00193535D01*
X01505000Y00190000D02*
X01540000D01*
X01548535Y00193535D02*
X01559393Y00204393D01*
X01593535Y00211465D02*
X01596464Y00208536D01*
X01605000Y00205000D02*
X01680000D01*
X01795000Y00325000D01*
Y00925000D01*
X01675000Y01045000D02*
X01795000Y00925000D01*
X00675000Y01045000D02*
X01675000D01*
X00555000Y00925000D02*
X00675000Y01045000D01*
X00555000Y00780000D02*
Y00925000D01*
X00560000Y00755000D02*
Y00767929D01*
X00550607Y00740607D02*
X00556464Y00746464D01*
X00540000Y00675000D02*
Y00715000D01*
X00543535Y00666464D02*
X00552929Y00657071D01*
X00560000Y00637071D02*
Y00640000D01*
D14*
X01596142Y00803250D02*
X01636750Y00843858D01*
X01207750Y00803250D02*
X01596142D01*
X01508650Y00843733D02*
Y00893650D01*
X01542750Y00927750D01*
D16*
X00657500Y00305000D02*
G03*
X00657500Y00305000I-00002500J00000000D01*
G01*
X00690000D02*
G03*
X00690000Y00305000I-00035000J00000000D01*
G01*
X01594000Y00190000D02*
G03*
X01572000Y00190000I-00011000J00000000D01*
G01*
X01472000D02*
G03*
X01450000Y00190000I-00011000J00000000D01*
G01*
X00540000Y00628000D02*
G03*
X00540000Y00650000I00000000J00011000D01*
G01*
Y00750000D02*
G03*
X00540000Y00772000I00000000J00011000D01*
G01*
X01513900Y00974750D02*
G03*
X01513900Y00974750I-00002500J00000000D01*
G01*
X00862500Y00965000D02*
G03*
X00862500Y00965000I-00002500J00000000D01*
G01*
X01475575Y00760858D02*
G03*
X01475575Y00760858I-00001650J00000000D01*
G01*
X01604500Y00843633D02*
G03*
X01604500Y00843633I-00001650J00000000D01*
G01*
X01531150Y00738056D02*
G03*
X01531150Y00738056I-00001650J00000000D01*
G01*
X01535750Y00722656D02*
G03*
X01535750Y00722656I-00001650J00000000D01*
G01*
X01565352Y00733931D02*
G03*
X01565352Y00733931I-00001650J00000000D01*
G01*
X01578399Y00649083D02*
G03*
X01578399Y00649083I-00001650J00000000D01*
G01*
X01595049Y00644233D02*
G03*
X01595049Y00644233I-00001650J00000000D01*
G01*
X01610399Y00648833D02*
G03*
X01610399Y00648833I-00001650J00000000D01*
G01*
X01361800Y00662233D02*
G03*
X01361800Y00662233I-00001650J00000000D01*
G01*
X01366650Y00686183D02*
G03*
X01366650Y00686183I-00001650J00000000D01*
G01*
X00720150Y00814733D02*
G03*
X00720150Y00814733I-00001650J00000000D01*
G01*
X00726650Y00840683D02*
G03*
X00726650Y00840683I-00001650J00000000D01*
G01*
X01622501Y00546250D02*
G03*
X01622501Y00546250I-00002500J00000000D01*
G01*
X01492572Y00635655D02*
G03*
X01492572Y00635655I-00035000J00000000D01*
G01*
X01460072D02*
G03*
X01460072Y00635655I-00002500J00000000D01*
G01*
X01664000Y00598047D02*
G03*
X01664000Y00598047I-00035000J00000000D01*
G01*
X01631500D02*
G03*
X01631500Y00598047I-00002500J00000000D01*
G01*
X01644825Y00442598D02*
G03*
X01644825Y00442598I-00035000J00000000D01*
G01*
X01612325D02*
G03*
X01612325Y00442598I-00002500J00000000D01*
G01*
X01463897Y00355239D02*
G03*
X01463897Y00355239I-00035000J00000000D01*
G01*
X01431397D02*
G03*
X01431397Y00355239I-00002500J00000000D01*
G01*
X01211595Y00656910D02*
G03*
X01211595Y00656910I-00035000J00000000D01*
G01*
X01179095D02*
G03*
X01179095Y00656910I-00002500J00000000D01*
G01*
X00827527Y00790168D02*
G03*
X00827527Y00790168I-00035000J00000000D01*
G01*
X00795027D02*
G03*
X00795027Y00790168I-00002500J00000000D01*
G01*
X00793680Y00623428D02*
G03*
X00793680Y00623428I-00035000J00000000D01*
G01*
X00761180D02*
G03*
X00761180Y00623428I-00002500J00000000D01*
G01*
X01066079Y00531183D02*
G03*
X01066079Y00531183I-00035000J00000000D01*
G01*
X01033579D02*
G03*
X01033579Y00531183I-00002500J00000000D01*
G01*
X01325154Y00455360D02*
G03*
X01325154Y00455360I-00035000J00000000D01*
G01*
X01292654D02*
G03*
X01292654Y00455360I-00002500J00000000D01*
G01*
X01535749Y00653733D02*
G03*
X01535749Y00653733I-00003500J00000000D01*
G01*
X01190250Y00882233D02*
G03*
X01190250Y00882233I-00002500J00000000D01*
G01*
X01010000D02*
G03*
X01010000Y00882233I-00002500J00000000D01*
G01*
X01105000D02*
G03*
X01105000Y00882233I-00002500J00000000D01*
G01*
X01460775Y00756008D02*
G03*
X01460775Y00756008I-00001650J00000000D01*
G01*
X01490525Y00755758D02*
G03*
X01490525Y00755758I-00001650J00000000D01*
G01*
X01589650Y00838883D02*
G03*
X01589650Y00838883I-00001650J00000000D01*
G01*
X01621650D02*
G03*
X01621650Y00838883I-00001650J00000000D01*
G01*
X01530850Y00749556D02*
G03*
X01530850Y00749556I-00001650J00000000D01*
G01*
X01560502Y00748931D02*
G03*
X01560502Y00748931I-00001650J00000000D01*
G01*
X01531150Y00707306D02*
G03*
X01531150Y00707306I-00001650J00000000D01*
G01*
X01570452Y00717931D02*
G03*
X01570452Y00717931I-00001650J00000000D01*
G01*
X01564399Y00649333D02*
G03*
X01564399Y00649333I-00001650J00000000D01*
G01*
X01346600Y00633733D02*
G03*
X01346600Y00633733I-00002500J00000000D01*
G01*
X01348500Y00604733D02*
G03*
X01348500Y00604733I-00002500J00000000D01*
G01*
X01351712Y00581233D02*
G03*
X01351712Y00581233I-00001650J00000000D01*
G01*
X01378400Y00633733D02*
G03*
X01378400Y00633733I-00002500J00000000D01*
G01*
X01376500Y00604733D02*
G03*
X01376500Y00604733I-00002500J00000000D01*
G01*
X01371588Y00581233D02*
G03*
X01371588Y00581233I-00001650J00000000D01*
G01*
X00704850Y00789733D02*
G03*
X00704850Y00789733I-00002500J00000000D01*
G01*
X00706950Y00759733D02*
G03*
X00706950Y00759733I-00002500J00000000D01*
G01*
X00710550Y00734733D02*
G03*
X00710550Y00734733I-00001650J00000000D01*
G01*
X00736650Y00789733D02*
G03*
X00736650Y00789733I-00002500J00000000D01*
G01*
X00734800Y00759733D02*
G03*
X00734800Y00759733I-00002500J00000000D01*
G01*
X00730500Y00734733D02*
G03*
X00730500Y00734733I-00001650J00000000D01*
G01*
X01186750Y00803483D02*
G03*
X01186750Y00803483I-00002500J00000000D01*
G01*
X01001300Y00814200D02*
G03*
X01001300Y00814200I-00002500J00000000D01*
G01*
X01101250Y00806750D02*
G03*
X01101250Y00806750I-00002500J00000000D01*
G01*
X01201750Y00821733D02*
G03*
X01201750Y00821733I-00002500J00000000D01*
G01*
X01021500D02*
G03*
X01021500Y00821733I-00002500J00000000D01*
G01*
X01116500D02*
G03*
X01116500Y00821733I-00002500J00000000D01*
G01*
X01209275Y00955258D02*
G03*
X01209275Y00955258I-00002500J00000000D01*
G01*
X01029250Y00955283D02*
G03*
X01029250Y00955283I-00002500J00000000D01*
G01*
X01124550D02*
G03*
X01124550Y00955283I-00002500J00000000D01*
G01*
X00651500Y00305000D02*
X00658500D01*
X00655000Y00301500D02*
Y00308500D01*
X01442000Y00190000D02*
X01602000D01*
X01583000Y00150000D02*
Y00195000D01*
X01461000Y00150000D02*
Y00195000D01*
X01547000Y00190000D02*
Y00195000D01*
X01533000D02*
X01547000D01*
X01533000D02*
Y00226000D01*
X01511000D02*
X01533000D01*
X01511000Y00195000D02*
Y00226000D01*
X01497000Y00195000D02*
X01511000D01*
X01497000Y00190000D02*
Y00195000D01*
X00540000Y00620000D02*
Y00780000D01*
X00500000Y00639000D02*
X00545000D01*
X00500000Y00761000D02*
X00545000D01*
X00540000Y00675000D02*
X00545000D01*
Y00689000D01*
X00576000D01*
Y00711000D01*
X00545000D02*
X00576000D01*
X00545000D02*
Y00725000D01*
X00540000D02*
X00545000D01*
X01507900Y00974750D02*
X01514900D01*
X01511400Y00971250D02*
Y00978250D01*
X01471200Y00957050D02*
Y00992450D01*
Y00957050D02*
X01526200D01*
Y00992450D01*
X01471200D02*
X01526200D01*
X00856500Y00965000D02*
X00863500D01*
X00860000Y00961500D02*
Y00968500D01*
X01598000Y00918250D02*
Y01031750D01*
X01532000Y00918250D02*
Y01031750D01*
X01598000D01*
X01532000Y00918250D02*
X01598000D01*
X01471725Y00760858D02*
X01476125D01*
X01473925Y00758658D02*
Y00763058D01*
X01482925Y00756358D02*
Y00765358D01*
X01464925Y00756358D02*
X01482925D01*
X01464925D02*
Y00765358D01*
X01482925D01*
X01600650Y00843633D02*
X01605050D01*
X01602850Y00841433D02*
Y00845833D01*
X01593850Y00839133D02*
Y00848133D01*
X01611850D01*
Y00839133D02*
Y00848133D01*
X01593850Y00839133D02*
X01611850D01*
X01527300Y00738056D02*
X01531700D01*
X01529500Y00735856D02*
Y00740256D01*
X01520500Y00733556D02*
Y00742556D01*
X01538500D01*
Y00733556D02*
Y00742556D01*
X01520500Y00733556D02*
X01538500D01*
X01534100Y00720456D02*
Y00724856D01*
X01531900Y00722656D02*
X01536300D01*
X01529600Y00713656D02*
X01538600D01*
X01529600D02*
Y00731656D01*
X01538600D01*
Y00713656D02*
Y00731656D01*
X01563702Y00731731D02*
Y00736131D01*
X01561502Y00733931D02*
X01565902D01*
X01559202Y00724931D02*
X01568202D01*
X01559202D02*
Y00742931D01*
X01568202D01*
Y00724931D02*
Y00742931D01*
X01576749Y00646883D02*
Y00651283D01*
X01574549Y00649083D02*
X01578949D01*
X01572249Y00658083D02*
X01581249D01*
Y00640083D02*
Y00658083D01*
X01572249Y00640083D02*
X01581249D01*
X01572249D02*
Y00658083D01*
X01591199Y00644233D02*
X01595599D01*
X01593399Y00642033D02*
Y00646433D01*
X01602399Y00639733D02*
Y00648733D01*
X01584399Y00639733D02*
X01602399D01*
X01584399D02*
Y00648733D01*
X01602399D01*
X01608749Y00646633D02*
Y00651033D01*
X01606549Y00648833D02*
X01610949D01*
X01604249Y00657833D02*
X01613249D01*
Y00639833D02*
Y00657833D01*
X01604249Y00639833D02*
X01613249D01*
X01604249D02*
Y00657833D01*
X01357950Y00662233D02*
X01362350D01*
X01360150Y00660033D02*
Y00664433D01*
X01369150Y00657733D02*
Y00666733D01*
X01351150Y00657733D02*
X01369150D01*
X01351150D02*
Y00666733D01*
X01369150D01*
X01365000Y00683983D02*
Y00688383D01*
X01362800Y00686183D02*
X01367200D01*
X01360500Y00695183D02*
X01369500D01*
Y00677183D02*
Y00695183D01*
X01360500Y00677183D02*
X01369500D01*
X01360500D02*
Y00695183D01*
X00716300Y00814733D02*
X00720700D01*
X00718500Y00812533D02*
Y00816933D01*
X00727500Y00810233D02*
Y00819233D01*
X00709500Y00810233D02*
X00727500D01*
X00709500D02*
Y00819233D01*
X00727500D01*
X00725000Y00838483D02*
Y00842883D01*
X00722800Y00840683D02*
X00727200D01*
X00720500Y00849683D02*
X00729500D01*
Y00831683D02*
Y00849683D01*
X00720500Y00831683D02*
X00729500D01*
X00720500D02*
Y00849683D01*
X01620001Y00542900D02*
Y00549600D01*
X01616651Y00546250D02*
X01623351D01*
X01606301Y00552950D02*
X01633701D01*
X01606301Y00539550D02*
Y00552950D01*
Y00539550D02*
X01633701D01*
Y00552950D01*
X01457572Y00632155D02*
Y00639155D01*
X01454072Y00635655D02*
X01461072D01*
X01629000Y00594548D02*
Y00601548D01*
X01625500Y00598047D02*
X01632500D01*
X01609825Y00439098D02*
Y00446098D01*
X01606325Y00442598D02*
X01613325D01*
X01428897Y00351739D02*
Y00358739D01*
X01425397Y00355239D02*
X01432397D01*
X01176595Y00653410D02*
Y00660410D01*
X01173095Y00656910D02*
X01180095D01*
X00792527Y00786668D02*
Y00793668D01*
X00789027Y00790168D02*
X00796027D01*
X00758680Y00619928D02*
Y00626928D01*
X00755180Y00623428D02*
X00762180D01*
X01031079Y00527683D02*
Y00534683D01*
X01027579Y00531183D02*
X01034579D01*
X01290154Y00451860D02*
Y00458860D01*
X01286654Y00455360D02*
X01293654D01*
X01500200Y00853233D02*
X01555200D01*
X01500200Y00779733D02*
X01555200D01*
Y00853233D01*
X01500200Y00779733D02*
Y00853233D01*
X01545249Y00639233D02*
Y00668233D01*
X01519249D02*
X01545249D01*
X01519249Y00639233D02*
X01545249D01*
X01519249D02*
Y00668233D01*
X01532249Y00648733D02*
Y00658733D01*
X01527249Y00653733D02*
X01537249D01*
X01336500Y00556983D02*
X01383500D01*
X01336500Y00519983D02*
X01383500D01*
Y00556983D01*
X01336500Y00519983D02*
Y00556983D01*
X00695500Y00717983D02*
X00742500D01*
X00695500Y00680983D02*
X00742500D01*
Y00717983D01*
X00695500Y00680983D02*
Y00717983D01*
X01160750Y00845633D02*
Y00918833D01*
X01214750D01*
Y00845633D02*
Y00918833D01*
X01160750Y00845633D02*
X01214750D01*
X01187750Y00878733D02*
Y00885733D01*
X01184250Y00882233D02*
X01191250D01*
X00980500Y00845633D02*
Y00918833D01*
X01034500D01*
Y00845633D02*
Y00918833D01*
X00980500Y00845633D02*
X01034500D01*
X01007500Y00878733D02*
Y00885733D01*
X01004000Y00882233D02*
X01011000D01*
X01075500Y00845633D02*
Y00918833D01*
X01129500D01*
Y00845633D02*
Y00918833D01*
X01075500Y00845633D02*
X01129500D01*
X01102500Y00878733D02*
Y00885733D01*
X01099000Y00882233D02*
X01106000D01*
X01454725Y00747008D02*
X01463525D01*
X01454725D02*
Y00765008D01*
X01463525D01*
Y00747008D02*
Y00765008D01*
X01459125Y00753808D02*
Y00758208D01*
X01456925Y00756008D02*
X01461325D01*
X01484475Y00746758D02*
X01493275D01*
X01484475D02*
Y00764758D01*
X01493275D01*
Y00746758D02*
Y00764758D01*
X01488875Y00753558D02*
Y00757958D01*
X01486675Y00755758D02*
X01491075D01*
X01583600Y00829883D02*
X01592400D01*
X01583600D02*
Y00847883D01*
X01592400D01*
Y00829883D02*
Y00847883D01*
X01588000Y00836683D02*
Y00841083D01*
X01585800Y00838883D02*
X01590200D01*
X01615600Y00829883D02*
X01624400D01*
X01615600D02*
Y00847883D01*
X01624400D01*
Y00829883D02*
Y00847883D01*
X01620000Y00836683D02*
Y00841083D01*
X01617800Y00838883D02*
X01622200D01*
X01520200Y00745156D02*
Y00753956D01*
X01538200D01*
Y00745156D02*
Y00753956D01*
X01520200Y00745156D02*
X01538200D01*
X01527000Y00749556D02*
X01531400D01*
X01529200Y00747356D02*
Y00751756D01*
X01549852Y00744531D02*
Y00753331D01*
X01567852D01*
Y00744531D02*
Y00753331D01*
X01549852Y00744531D02*
X01567852D01*
X01556652Y00748931D02*
X01561052D01*
X01558852Y00746731D02*
Y00751131D01*
X01520500Y00702906D02*
Y00711706D01*
X01538500D01*
Y00702906D02*
Y00711706D01*
X01520500Y00702906D02*
X01538500D01*
X01527300Y00707306D02*
X01531700D01*
X01529500Y00705106D02*
Y00709506D01*
X01577802Y00713531D02*
Y00722331D01*
X01559802Y00713531D02*
X01577802D01*
X01559802D02*
Y00722331D01*
X01577802D01*
X01566602Y00717931D02*
X01571002D01*
X01568802Y00715731D02*
Y00720131D01*
X01558349Y00658333D02*
X01567149D01*
Y00640333D02*
Y00658333D01*
X01558349Y00640333D02*
X01567149D01*
X01558349D02*
Y00658333D01*
X01562749Y00647133D02*
Y00651533D01*
X01560549Y00649333D02*
X01564949D01*
X01344100Y00630233D02*
Y00637233D01*
X01340600Y00633733D02*
X01347600D01*
X01328400Y00642633D02*
X01359800D01*
X01328400Y00624833D02*
Y00642633D01*
Y00624833D02*
X01359800D01*
Y00642633D01*
X01359750Y00597983D02*
Y00611483D01*
X01332250D02*
X01359750D01*
X01346000Y00601383D02*
Y00608083D01*
X01342650Y00604733D02*
X01349350D01*
X01332250Y00597983D02*
Y00611483D01*
Y00597983D02*
X01359750D01*
X01359062Y00576833D02*
Y00585633D01*
X01341062Y00576833D02*
X01359062D01*
X01341062D02*
Y00585633D01*
X01359062D01*
X01347863Y00581233D02*
X01352263D01*
X01350063Y00579033D02*
Y00583433D01*
X01375900Y00630233D02*
Y00637233D01*
X01372400Y00633733D02*
X01379400D01*
X01360200Y00642633D02*
X01391600D01*
X01360200Y00624833D02*
Y00642633D01*
Y00624833D02*
X01391600D01*
Y00642633D01*
X01387750Y00597983D02*
Y00611483D01*
X01360250D02*
X01387750D01*
X01374000Y00601383D02*
Y00608083D01*
X01370650Y00604733D02*
X01377350D01*
X01360250Y00597983D02*
Y00611483D01*
Y00597983D02*
X01387750D01*
X01378938Y00576833D02*
Y00585633D01*
X01360938Y00576833D02*
X01378938D01*
X01360938D02*
Y00585633D01*
X01378938D01*
X01367738Y00581233D02*
X01372138D01*
X01369938Y00579033D02*
Y00583433D01*
X00702350Y00786233D02*
Y00793233D01*
X00698850Y00789733D02*
X00705850D01*
X00686650Y00798633D02*
X00718050D01*
X00686650Y00780833D02*
Y00798633D01*
Y00780833D02*
X00718050D01*
Y00798633D01*
X00718200Y00752983D02*
Y00766483D01*
X00690700D02*
X00718200D01*
X00704450Y00756383D02*
Y00763083D01*
X00701100Y00759733D02*
X00707800D01*
X00690700Y00752983D02*
Y00766483D01*
Y00752983D02*
X00718200D01*
X00717900Y00730333D02*
Y00739133D01*
X00699900Y00730333D02*
X00717900D01*
X00699900D02*
Y00739133D01*
X00717900D01*
X00706700Y00734733D02*
X00711100D01*
X00708900Y00732533D02*
Y00736933D01*
X00734150Y00786233D02*
Y00793233D01*
X00730650Y00789733D02*
X00737650D01*
X00718450Y00798633D02*
X00749850D01*
X00718450Y00780833D02*
Y00798633D01*
Y00780833D02*
X00749850D01*
Y00798633D01*
X00746050Y00752983D02*
Y00766483D01*
X00718550D02*
X00746050D01*
X00732300Y00756383D02*
Y00763083D01*
X00728950Y00759733D02*
X00735650D01*
X00718550Y00752983D02*
Y00766483D01*
Y00752983D02*
X00746050D01*
X00737850Y00730333D02*
Y00739133D01*
X00719850Y00730333D02*
X00737850D01*
X00719850D02*
Y00739133D01*
X00737850D01*
X00726650Y00734733D02*
X00731050D01*
X00728850Y00732533D02*
Y00736933D01*
X01170500Y00796733D02*
Y00810233D01*
Y00796733D02*
X01198000D01*
X01184250Y00800133D02*
Y00806833D01*
X01180900Y00803483D02*
X01187600D01*
X01198000Y00796733D02*
Y00810233D01*
X01170500D02*
X01198000D01*
X00992050Y00800450D02*
X01005550D01*
Y00827950D01*
X00995450Y00814200D02*
X01002150D01*
X00998800Y00810850D02*
Y00817550D01*
X00992050Y00827950D02*
X01005550D01*
X00992050Y00800450D02*
Y00827950D01*
X01085000Y00800000D02*
Y00813500D01*
Y00800000D02*
X01112500D01*
X01098750Y00803400D02*
Y00810100D01*
X01095400Y00806750D02*
X01102100D01*
X01112500Y00800000D02*
Y00813500D01*
X01085000D02*
X01112500D01*
X01185500Y00814983D02*
Y00828483D01*
Y00814983D02*
X01213000D01*
X01199250Y00818383D02*
Y00825083D01*
X01195900Y00821733D02*
X01202600D01*
X01213000Y00814983D02*
Y00828483D01*
X01185500D02*
X01213000D01*
X01005250Y00814983D02*
Y00828483D01*
Y00814983D02*
X01032750D01*
X01019000Y00818383D02*
Y00825083D01*
X01015650Y00821733D02*
X01022350D01*
X01032750Y00814983D02*
Y00828483D01*
X01005250D02*
X01032750D01*
X01100250Y00814983D02*
Y00828483D01*
Y00814983D02*
X01127750D01*
X01114000Y00818383D02*
Y00825083D01*
X01110650Y00821733D02*
X01117350D01*
X01127750Y00814983D02*
Y00828483D01*
X01100250D02*
X01127750D01*
X01200025Y00969008D02*
X01213525D01*
X01200025Y00941508D02*
Y00969008D01*
X01203425Y00955258D02*
X01210125D01*
X01206775Y00951908D02*
Y00958608D01*
X01200025Y00941508D02*
X01213525D01*
Y00969008D01*
X01020000Y00969033D02*
X01033500D01*
X01020000Y00941533D02*
Y00969033D01*
X01023400Y00955283D02*
X01030100D01*
X01026750Y00951933D02*
Y00958633D01*
X01020000Y00941533D02*
X01033500D01*
Y00969033D01*
X01115300D02*
X01128800D01*
X01115300Y00941533D02*
Y00969033D01*
X01118700Y00955283D02*
X01125400D01*
X01122050Y00951933D02*
Y00958633D01*
X01115300Y00941533D02*
X01128800D01*
Y00969033D01*
X00657500Y00305000D02*
G03*
X00657500Y00305000I-00002500J00000000D01*
G01*
X00690000D02*
G03*
X00690000Y00305000I-00035000J00000000D01*
G01*
X01472000Y00190000D02*
G03*
X01450000Y00190000I-00011000J00000000D01*
G01*
X01594000D02*
G03*
X01572000Y00190000I-00011000J00000000D01*
G01*
X00540000Y00750000D02*
G03*
X00540000Y00772000I00000000J00011000D01*
G01*
Y00628000D02*
G03*
X00540000Y00650000I00000000J00011000D01*
G01*
X01492572Y00635655D02*
G03*
X01492572Y00635655I-00035000J00000000D01*
G01*
X01460072D02*
G03*
X01460072Y00635655I-00002500J00000000D01*
G01*
X01664000Y00598047D02*
G03*
X01664000Y00598047I-00035000J00000000D01*
G01*
X01631500D02*
G03*
X01631500Y00598047I-00002500J00000000D01*
G01*
X01644825Y00442598D02*
G03*
X01644825Y00442598I-00035000J00000000D01*
G01*
X01612325D02*
G03*
X01612325Y00442598I-00002500J00000000D01*
G01*
X01463897Y00355239D02*
G03*
X01463897Y00355239I-00035000J00000000D01*
G01*
X01431397D02*
G03*
X01431397Y00355239I-00002500J00000000D01*
G01*
X01211595Y00656910D02*
G03*
X01211595Y00656910I-00035000J00000000D01*
G01*
X01179095D02*
G03*
X01179095Y00656910I-00002500J00000000D01*
G01*
X00827527Y00790168D02*
G03*
X00827527Y00790168I-00035000J00000000D01*
G01*
X00795027D02*
G03*
X00795027Y00790168I-00002500J00000000D01*
G01*
X00793680Y00623428D02*
G03*
X00793680Y00623428I-00035000J00000000D01*
G01*
X00761180D02*
G03*
X00761180Y00623428I-00002500J00000000D01*
G01*
X01066079Y00531183D02*
G03*
X01066079Y00531183I-00035000J00000000D01*
G01*
X01033579D02*
G03*
X01033579Y00531183I-00002500J00000000D01*
G01*
X01325154Y00455360D02*
G03*
X01325154Y00455360I-00035000J00000000D01*
G01*
X01292654D02*
G03*
X01292654Y00455360I-00002500J00000000D01*
G01*
X00651500Y00305000D02*
X00658500D01*
X00655000Y00301500D02*
Y00308500D01*
X01497000Y00190000D02*
Y00195000D01*
X01511000D01*
Y00226000D01*
X01533000D01*
Y00195000D02*
Y00226000D01*
Y00195000D02*
X01547000D01*
Y00190000D02*
Y00195000D01*
X01461000Y00150000D02*
Y00195000D01*
X01583000Y00150000D02*
Y00195000D01*
X01442000Y00190000D02*
X01602000D01*
X00540000Y00725000D02*
X00545000D01*
Y00711000D02*
Y00725000D01*
Y00711000D02*
X00576000D01*
Y00689000D02*
Y00711000D01*
X00545000Y00689000D02*
X00576000D01*
X00545000Y00675000D02*
Y00689000D01*
X00540000Y00675000D02*
X00545000D01*
X00500000Y00761000D02*
X00545000D01*
X00500000Y00639000D02*
X00545000D01*
X00540000Y00620000D02*
Y00780000D01*
X01457572Y00632155D02*
Y00639155D01*
X01454072Y00635655D02*
X01461072D01*
X01629000Y00594548D02*
Y00601548D01*
X01625500Y00598047D02*
X01632500D01*
X01609825Y00439098D02*
Y00446098D01*
X01606325Y00442598D02*
X01613325D01*
X01428897Y00351739D02*
Y00358739D01*
X01425397Y00355239D02*
X01432397D01*
X01176595Y00653410D02*
Y00660410D01*
X01173095Y00656910D02*
X01180095D01*
X00792527Y00786668D02*
Y00793668D01*
X00789027Y00790168D02*
X00796027D01*
X00758680Y00619928D02*
Y00626928D01*
X00755180Y00623428D02*
X00762180D01*
X01031079Y00527683D02*
Y00534683D01*
X01027579Y00531183D02*
X01034579D01*
X01290154Y00451860D02*
Y00458860D01*
X01286654Y00455360D02*
X01293654D01*
D68*
X01508650Y00760083D02*
Y00789233D01*
Y00760083D02*
X01624500Y00644233D01*
D69*
X00655000Y00305000D02*
D03*
X01457572Y00635655D02*
D03*
X01629000Y00598047D02*
D03*
X01609825Y00442598D02*
D03*
X01428897Y00355239D02*
D03*
X01176595Y00656910D02*
D03*
X00792527Y00790168D02*
D03*
X00758680Y00623428D02*
D03*
X01031079Y00531183D02*
D03*
X01290154Y00455360D02*
D03*
D70*
X00680000Y00305000D02*
D03*
X00672678Y00322678D02*
D03*
X00655000Y00330000D02*
D03*
X00637322Y00322678D02*
D03*
X00630000Y00305000D02*
D03*
X00637322Y00287322D02*
D03*
X00655000Y00280000D02*
D03*
X00672678Y00287322D02*
D03*
X01439894Y00617977D02*
D03*
X01457572Y00610655D02*
D03*
X01475249Y00617977D02*
D03*
X01482572Y00635655D02*
D03*
X01475249Y00653333D02*
D03*
X01457572Y00660655D02*
D03*
X01439894Y00653333D02*
D03*
X01432572Y00635655D02*
D03*
X01646678Y00580370D02*
D03*
X01629000Y00573047D02*
D03*
X01611322Y00580370D02*
D03*
X01604000Y00598047D02*
D03*
X01611322Y00615725D02*
D03*
X01629000Y00623047D02*
D03*
X01646678Y00615725D02*
D03*
X01654000Y00598047D02*
D03*
X01627502Y00424920D02*
D03*
X01609825Y00417598D02*
D03*
X01592147Y00424920D02*
D03*
X01584825Y00442598D02*
D03*
X01592147Y00460276D02*
D03*
X01609825Y00467598D02*
D03*
X01627502Y00460276D02*
D03*
X01634825Y00442598D02*
D03*
X01446575Y00337561D02*
D03*
X01428897Y00330239D02*
D03*
X01411220Y00337561D02*
D03*
X01403897Y00355239D02*
D03*
X01411220Y00372917D02*
D03*
X01428897Y00380239D02*
D03*
X01446575Y00372917D02*
D03*
X01453897Y00355239D02*
D03*
X01194273Y00639232D02*
D03*
X01176595Y00631910D02*
D03*
X01158917Y00639232D02*
D03*
X01151595Y00656910D02*
D03*
X01158917Y00674587D02*
D03*
X01176595Y00681910D02*
D03*
X01194273Y00674587D02*
D03*
X01201595Y00656910D02*
D03*
X00810204Y00772490D02*
D03*
X00792527Y00765168D02*
D03*
X00774849Y00772490D02*
D03*
X00767527Y00790168D02*
D03*
X00774849Y00807846D02*
D03*
X00792527Y00815168D02*
D03*
X00810204Y00807846D02*
D03*
X00817527Y00790168D02*
D03*
X00776358Y00605750D02*
D03*
X00758680Y00598428D02*
D03*
X00741002Y00605750D02*
D03*
X00733680Y00623428D02*
D03*
X00741002Y00641105D02*
D03*
X00758680Y00648428D02*
D03*
X00776358Y00641105D02*
D03*
X00783680Y00623428D02*
D03*
X01048757Y00513505D02*
D03*
X01031079Y00506183D02*
D03*
X01013401Y00513505D02*
D03*
X01006079Y00531183D02*
D03*
X01013401Y00548861D02*
D03*
X01031079Y00556183D02*
D03*
X01048757Y00548861D02*
D03*
X01056079Y00531183D02*
D03*
X01307832Y00437682D02*
D03*
X01290154Y00430360D02*
D03*
X01272476Y00437682D02*
D03*
X01265154Y00455360D02*
D03*
X01272476Y00473037D02*
D03*
X01290154Y00480360D02*
D03*
X01307832Y00473037D02*
D03*
X01315154Y00455360D02*
D03*
X01780001Y00920001D02*
D03*
Y00880001D02*
D03*
Y00840001D02*
D03*
Y00800000D02*
D03*
Y00760000D02*
D03*
Y00720000D02*
D03*
Y00680000D02*
D03*
Y00640000D02*
D03*
Y00600000D02*
D03*
Y00560000D02*
D03*
Y00520000D02*
D03*
Y00480000D02*
D03*
Y00440000D02*
D03*
Y00400000D02*
D03*
Y00360000D02*
D03*
Y00320000D02*
D03*
X01770001Y00940001D02*
D03*
X01760001Y00920001D02*
D03*
X01770001Y00900001D02*
D03*
X01760001Y00880001D02*
D03*
X01770001Y00860001D02*
D03*
X01760001Y00840001D02*
D03*
X01770001Y00820000D02*
D03*
X01760001Y00800000D02*
D03*
X01770001Y00780000D02*
D03*
X01760001Y00760000D02*
D03*
X01770001Y00740000D02*
D03*
X01760001Y00720000D02*
D03*
X01770001Y00700000D02*
D03*
X01760001Y00680000D02*
D03*
X01770001Y00660000D02*
D03*
X01760001Y00640000D02*
D03*
X01770001Y00620000D02*
D03*
X01760001Y00600000D02*
D03*
X01770001Y00580000D02*
D03*
X01760001Y00560000D02*
D03*
X01770001Y00540000D02*
D03*
X01760001Y00520000D02*
D03*
X01770001Y00500000D02*
D03*
X01760001Y00480000D02*
D03*
X01770001Y00460000D02*
D03*
X01760001Y00440000D02*
D03*
X01770001Y00420000D02*
D03*
X01760001Y00400000D02*
D03*
X01770001Y00380000D02*
D03*
X01760001Y00360000D02*
D03*
X01770001Y00340000D02*
D03*
X01760001Y00320000D02*
D03*
X01740001Y00960001D02*
D03*
X01750001Y00940001D02*
D03*
X01740001Y00920001D02*
D03*
X01750001Y00900001D02*
D03*
X01740001Y00880001D02*
D03*
X01750001Y00860001D02*
D03*
X01740001Y00840001D02*
D03*
X01750001Y00820000D02*
D03*
X01740001Y00800000D02*
D03*
X01750001Y00780000D02*
D03*
X01740001Y00760000D02*
D03*
X01750001Y00740000D02*
D03*
X01740001Y00720000D02*
D03*
X01750001Y00700000D02*
D03*
X01740001Y00680000D02*
D03*
X01750001Y00660000D02*
D03*
X01740001Y00640000D02*
D03*
X01750001Y00620000D02*
D03*
X01740001Y00600000D02*
D03*
X01750001Y00580000D02*
D03*
X01740001Y00560000D02*
D03*
X01750001Y00540000D02*
D03*
X01740001Y00520000D02*
D03*
X01750001Y00500000D02*
D03*
X01740001Y00480000D02*
D03*
X01750001Y00460000D02*
D03*
X01740001Y00440000D02*
D03*
X01750001Y00420000D02*
D03*
X01740001Y00400000D02*
D03*
X01750001Y00380000D02*
D03*
X01740001Y00360000D02*
D03*
X01750001Y00340000D02*
D03*
X01740001Y00320000D02*
D03*
X01750001Y00300000D02*
D03*
X01740001Y00280000D02*
D03*
X01730001Y00980001D02*
D03*
X01720001Y00960001D02*
D03*
X01730001Y00940001D02*
D03*
X01720001Y00920001D02*
D03*
X01730001Y00900001D02*
D03*
X01720001Y00880001D02*
D03*
X01730001Y00860001D02*
D03*
X01720001Y00840001D02*
D03*
X01730001Y00820000D02*
D03*
X01720001Y00800000D02*
D03*
X01730001Y00780000D02*
D03*
X01720001Y00760000D02*
D03*
X01730001Y00740000D02*
D03*
X01720001Y00720000D02*
D03*
X01730001Y00700000D02*
D03*
X01720001Y00680000D02*
D03*
X01730001Y00660000D02*
D03*
X01720001Y00640000D02*
D03*
X01730001Y00620000D02*
D03*
X01720001Y00600000D02*
D03*
X01730001Y00580000D02*
D03*
X01720001Y00560000D02*
D03*
X01730001Y00540000D02*
D03*
X01720001Y00520000D02*
D03*
X01730001Y00500000D02*
D03*
X01720001Y00480000D02*
D03*
X01730001Y00460000D02*
D03*
X01720001Y00440000D02*
D03*
X01730001Y00420000D02*
D03*
X01720001Y00400000D02*
D03*
X01730001Y00380000D02*
D03*
X01720001Y00360000D02*
D03*
X01730001Y00340000D02*
D03*
X01720001Y00320000D02*
D03*
X01730001Y00300000D02*
D03*
X01720001Y00280000D02*
D03*
X01700001Y01000001D02*
D03*
X01710001Y00980001D02*
D03*
X01700001Y00960001D02*
D03*
X01710001Y00940001D02*
D03*
X01700001Y00920001D02*
D03*
X01710001Y00900001D02*
D03*
X01700001Y00880001D02*
D03*
X01710001Y00860001D02*
D03*
X01700001Y00840001D02*
D03*
X01710001Y00820000D02*
D03*
X01700001Y00800000D02*
D03*
X01710001Y00780000D02*
D03*
X01700001Y00760000D02*
D03*
X01710001Y00740000D02*
D03*
X01700001Y00720000D02*
D03*
X01710001Y00700000D02*
D03*
X01700001Y00680000D02*
D03*
X01710001Y00660000D02*
D03*
X01700001Y00640000D02*
D03*
X01710001Y00620000D02*
D03*
X01700001Y00600000D02*
D03*
X01710001Y00580000D02*
D03*
X01700001Y00560000D02*
D03*
X01710001Y00540000D02*
D03*
X01700001Y00520000D02*
D03*
X01710001Y00500000D02*
D03*
X01700001Y00480000D02*
D03*
X01710001Y00460000D02*
D03*
X01700001Y00440000D02*
D03*
X01710001Y00420000D02*
D03*
X01700001Y00400000D02*
D03*
X01710001Y00380000D02*
D03*
X01700001Y00360000D02*
D03*
X01710001Y00340000D02*
D03*
X01700001Y00320000D02*
D03*
X01710001Y00300000D02*
D03*
X01700001Y00280000D02*
D03*
X01710001Y00260000D02*
D03*
X01700001Y00240000D02*
D03*
X01690001Y01020001D02*
D03*
X01680001Y01000001D02*
D03*
X01690001Y00980001D02*
D03*
X01680001Y00960001D02*
D03*
X01690001Y00940001D02*
D03*
X01680001Y00920001D02*
D03*
X01690001Y00900001D02*
D03*
X01680001Y00880001D02*
D03*
X01690001Y00860001D02*
D03*
X01680001Y00840001D02*
D03*
X01690001Y00820000D02*
D03*
X01680001Y00800000D02*
D03*
X01690001Y00780000D02*
D03*
X01680001Y00760000D02*
D03*
X01690001Y00740000D02*
D03*
X01680001Y00720000D02*
D03*
X01690001Y00700000D02*
D03*
X01680001Y00680000D02*
D03*
X01690001Y00660000D02*
D03*
X01680001Y00640000D02*
D03*
X01690001Y00620000D02*
D03*
X01680001Y00600000D02*
D03*
X01690001Y00580000D02*
D03*
X01680001Y00560000D02*
D03*
X01690001Y00540000D02*
D03*
X01680001Y00520000D02*
D03*
X01690001Y00500000D02*
D03*
X01680001Y00480000D02*
D03*
X01690001Y00460000D02*
D03*
X01680001Y00440000D02*
D03*
X01690001Y00420000D02*
D03*
X01680001Y00400000D02*
D03*
X01690001Y00380000D02*
D03*
X01680001Y00360000D02*
D03*
X01690001Y00340000D02*
D03*
X01680001Y00320000D02*
D03*
X01690001Y00300000D02*
D03*
X01680001Y00280000D02*
D03*
X01690001Y00260000D02*
D03*
X01680001Y00240000D02*
D03*
X01670001Y01020001D02*
D03*
X01660001Y01000001D02*
D03*
X01670001Y00980001D02*
D03*
X01660001Y00960001D02*
D03*
X01670001Y00940001D02*
D03*
X01660001Y00920001D02*
D03*
X01670001Y00900001D02*
D03*
X01660001Y00880001D02*
D03*
X01670001Y00860001D02*
D03*
X01660001Y00840001D02*
D03*
X01670001Y00820000D02*
D03*
X01660001Y00800000D02*
D03*
X01670001Y00780000D02*
D03*
X01660001Y00760000D02*
D03*
X01670001Y00740000D02*
D03*
X01660001Y00720000D02*
D03*
X01670001Y00700000D02*
D03*
X01660001Y00680000D02*
D03*
X01670001Y00660000D02*
D03*
X01660001Y00640000D02*
D03*
X01670001Y00620000D02*
D03*
Y00580000D02*
D03*
X01660001Y00560000D02*
D03*
X01670001Y00540000D02*
D03*
X01660001Y00520000D02*
D03*
X01670001Y00500000D02*
D03*
X01660001Y00480000D02*
D03*
X01670001Y00460000D02*
D03*
X01660001Y00440000D02*
D03*
X01670001Y00420000D02*
D03*
X01660001Y00400000D02*
D03*
X01670001Y00380000D02*
D03*
X01660001Y00360000D02*
D03*
X01670001Y00340000D02*
D03*
X01660001Y00320000D02*
D03*
X01670001Y00300000D02*
D03*
X01660001Y00280000D02*
D03*
X01670001Y00260000D02*
D03*
X01660001Y00240000D02*
D03*
X01650001Y01020001D02*
D03*
X01640001Y01000001D02*
D03*
X01650001Y00980001D02*
D03*
X01640001Y00960001D02*
D03*
X01650001Y00940001D02*
D03*
X01640001Y00920001D02*
D03*
X01650001Y00900001D02*
D03*
X01640001Y00880001D02*
D03*
X01650001Y00860001D02*
D03*
Y00820000D02*
D03*
X01640001Y00800000D02*
D03*
X01650001Y00780000D02*
D03*
X01640001Y00760000D02*
D03*
X01650001Y00740000D02*
D03*
X01640001Y00720000D02*
D03*
X01650001Y00700000D02*
D03*
X01640001Y00680000D02*
D03*
X01650001Y00660000D02*
D03*
X01640001Y00640000D02*
D03*
X01650001Y00540000D02*
D03*
X01640001Y00520000D02*
D03*
X01650001Y00500000D02*
D03*
X01640001Y00480000D02*
D03*
X01650001Y00460000D02*
D03*
Y00420000D02*
D03*
X01640001Y00400000D02*
D03*
X01650001Y00380000D02*
D03*
X01640001Y00360000D02*
D03*
X01650001Y00340000D02*
D03*
X01640001Y00320000D02*
D03*
X01650001Y00300000D02*
D03*
X01640001Y00280000D02*
D03*
X01650001Y00260000D02*
D03*
X01640001Y00240000D02*
D03*
X01630001Y01020001D02*
D03*
X01620001Y01000001D02*
D03*
X01630001Y00980001D02*
D03*
X01620001Y00960001D02*
D03*
X01630001Y00940001D02*
D03*
X01620001Y00920001D02*
D03*
X01630001Y00900001D02*
D03*
X01620001Y00880001D02*
D03*
X01630001Y00860001D02*
D03*
Y00780000D02*
D03*
X01620001Y00760000D02*
D03*
X01630001Y00740000D02*
D03*
X01620001Y00720000D02*
D03*
X01630001Y00700000D02*
D03*
X01620001Y00680000D02*
D03*
X01630001Y00660000D02*
D03*
X01620001Y00520000D02*
D03*
X01630001Y00500000D02*
D03*
X01620001Y00400000D02*
D03*
X01630001Y00380000D02*
D03*
X01620001Y00360000D02*
D03*
X01630001Y00340000D02*
D03*
X01620001Y00320000D02*
D03*
X01630001Y00300000D02*
D03*
X01620001Y00280000D02*
D03*
X01630001Y00260000D02*
D03*
X01620001Y00240000D02*
D03*
X01610001Y01020001D02*
D03*
X01600001Y01000001D02*
D03*
X01610001Y00980001D02*
D03*
X01600001Y00960001D02*
D03*
X01610001Y00940001D02*
D03*
X01600001Y00920001D02*
D03*
X01610001Y00900001D02*
D03*
X01600001Y00880001D02*
D03*
X01610001Y00860001D02*
D03*
Y00780000D02*
D03*
X01600001Y00760000D02*
D03*
X01610001Y00740000D02*
D03*
X01600001Y00720000D02*
D03*
X01610001Y00700000D02*
D03*
X01600001Y00520000D02*
D03*
X01610001Y00500000D02*
D03*
X01600001Y00400000D02*
D03*
X01610001Y00380000D02*
D03*
X01600001Y00360000D02*
D03*
X01610001Y00340000D02*
D03*
X01600001Y00320000D02*
D03*
X01610001Y00300000D02*
D03*
X01600001Y00280000D02*
D03*
X01610001Y00260000D02*
D03*
X01600001Y00240000D02*
D03*
X01590001Y00820000D02*
D03*
Y00740000D02*
D03*
Y00700000D02*
D03*
Y00660000D02*
D03*
Y00620000D02*
D03*
X01580001Y00600000D02*
D03*
X01590001Y00500000D02*
D03*
X01580001Y00480000D02*
D03*
Y00400000D02*
D03*
X01590001Y00380000D02*
D03*
X01580001Y00360000D02*
D03*
X01590001Y00340000D02*
D03*
X01580001Y00320000D02*
D03*
X01590001Y00300000D02*
D03*
X01580001Y00280000D02*
D03*
X01590001Y00260000D02*
D03*
X01580001Y00240000D02*
D03*
X01560001Y01000001D02*
D03*
X01570001Y00980001D02*
D03*
X01560001Y00960001D02*
D03*
X01570001Y00940001D02*
D03*
X01560001Y00920001D02*
D03*
X01570001Y00900001D02*
D03*
X01560001Y00880001D02*
D03*
X01570001Y00860001D02*
D03*
Y00820000D02*
D03*
Y00780000D02*
D03*
X01560001Y00760000D02*
D03*
Y00680000D02*
D03*
X01570001Y00620000D02*
D03*
Y00500000D02*
D03*
Y00460000D02*
D03*
Y00420000D02*
D03*
Y00380000D02*
D03*
Y00340000D02*
D03*
Y00300000D02*
D03*
Y00260000D02*
D03*
X01560001Y00240000D02*
D03*
X01540001Y01000001D02*
D03*
X01550001Y00980001D02*
D03*
X01540001Y00960001D02*
D03*
X01550001Y00900001D02*
D03*
X01540001Y00880001D02*
D03*
X01550001Y00860001D02*
D03*
Y00820000D02*
D03*
Y00660000D02*
D03*
X01530001Y01020001D02*
D03*
X01520001Y01000001D02*
D03*
X01530001Y00820000D02*
D03*
X01520001Y00720000D02*
D03*
Y00680000D02*
D03*
X01510001Y01020001D02*
D03*
X01500001Y01000001D02*
D03*
Y00960001D02*
D03*
X01510001Y00940001D02*
D03*
Y00820000D02*
D03*
Y00740000D02*
D03*
X01500001Y00720000D02*
D03*
X01510001Y00700000D02*
D03*
X01500001Y00680000D02*
D03*
X01510001Y00660000D02*
D03*
X01500001Y00640000D02*
D03*
X01490001Y01020001D02*
D03*
X01480001Y01000001D02*
D03*
X01490001Y00940001D02*
D03*
Y00900001D02*
D03*
X01480001Y00880001D02*
D03*
X01490001Y00860001D02*
D03*
X01480001Y00840001D02*
D03*
X01490001Y00820000D02*
D03*
Y00780000D02*
D03*
Y00740000D02*
D03*
X01480001Y00720000D02*
D03*
X01490001Y00700000D02*
D03*
X01480001Y00680000D02*
D03*
X01490001Y00660000D02*
D03*
X01480001Y00600000D02*
D03*
Y00480000D02*
D03*
Y00440000D02*
D03*
Y00400000D02*
D03*
Y00360000D02*
D03*
Y00320000D02*
D03*
Y00280000D02*
D03*
Y00240000D02*
D03*
X01470001Y01020001D02*
D03*
X01460001Y01000001D02*
D03*
Y00960001D02*
D03*
Y00920001D02*
D03*
X01470001Y00900001D02*
D03*
X01460001Y00880001D02*
D03*
X01470001Y00860001D02*
D03*
X01460001Y00840001D02*
D03*
X01470001Y00820000D02*
D03*
Y00780000D02*
D03*
Y00740000D02*
D03*
X01460001Y00720000D02*
D03*
X01470001Y00700000D02*
D03*
X01460001Y00680000D02*
D03*
X01470001Y00580000D02*
D03*
Y00500000D02*
D03*
X01460001Y00480000D02*
D03*
X01470001Y00460000D02*
D03*
X01460001Y00440000D02*
D03*
X01470001Y00420000D02*
D03*
X01460001Y00400000D02*
D03*
X01470001Y00380000D02*
D03*
Y00340000D02*
D03*
X01460001Y00320000D02*
D03*
X01470001Y00300000D02*
D03*
X01460001Y00280000D02*
D03*
X01470001Y00260000D02*
D03*
X01460001Y00240000D02*
D03*
X01450001Y01020001D02*
D03*
X01440001Y01000001D02*
D03*
X01450001Y00980001D02*
D03*
X01440001Y00960001D02*
D03*
X01450001Y00940001D02*
D03*
X01440001Y00920001D02*
D03*
X01450001Y00900001D02*
D03*
X01440001Y00880001D02*
D03*
X01450001Y00860001D02*
D03*
X01440001Y00840001D02*
D03*
X01450001Y00820000D02*
D03*
Y00780000D02*
D03*
Y00740000D02*
D03*
X01440001Y00720000D02*
D03*
X01450001Y00700000D02*
D03*
X01440001Y00680000D02*
D03*
X01450001Y00580000D02*
D03*
Y00500000D02*
D03*
X01440001Y00480000D02*
D03*
X01450001Y00460000D02*
D03*
X01440001Y00440000D02*
D03*
X01450001Y00420000D02*
D03*
X01440001Y00400000D02*
D03*
X01450001Y00300000D02*
D03*
X01440001Y00280000D02*
D03*
X01450001Y00260000D02*
D03*
X01440001Y00240000D02*
D03*
X01430001Y01020001D02*
D03*
X01420001Y01000001D02*
D03*
X01430001Y00980001D02*
D03*
X01420001Y00960001D02*
D03*
X01430001Y00940001D02*
D03*
X01420001Y00920001D02*
D03*
X01430001Y00900001D02*
D03*
X01420001Y00880001D02*
D03*
X01430001Y00860001D02*
D03*
X01420001Y00840001D02*
D03*
X01430001Y00820000D02*
D03*
Y00780000D02*
D03*
Y00740000D02*
D03*
X01420001Y00720000D02*
D03*
X01430001Y00700000D02*
D03*
X01420001Y00680000D02*
D03*
Y00600000D02*
D03*
X01430001Y00580000D02*
D03*
Y00500000D02*
D03*
X01420001Y00480000D02*
D03*
X01430001Y00460000D02*
D03*
X01420001Y00440000D02*
D03*
X01430001Y00420000D02*
D03*
X01420001Y00400000D02*
D03*
X01430001Y00300000D02*
D03*
X01420001Y00280000D02*
D03*
X01430001Y00260000D02*
D03*
X01420001Y00240000D02*
D03*
X01410001Y01020001D02*
D03*
X01400001Y01000001D02*
D03*
X01410001Y00980001D02*
D03*
X01400001Y00960001D02*
D03*
X01410001Y00940001D02*
D03*
X01400001Y00920001D02*
D03*
X01410001Y00900001D02*
D03*
X01400001Y00880001D02*
D03*
X01410001Y00860001D02*
D03*
X01400001Y00840001D02*
D03*
X01410001Y00820000D02*
D03*
Y00780000D02*
D03*
Y00740000D02*
D03*
X01400001Y00720000D02*
D03*
X01410001Y00700000D02*
D03*
X01400001Y00680000D02*
D03*
X01410001Y00660000D02*
D03*
X01400001Y00640000D02*
D03*
X01410001Y00620000D02*
D03*
X01400001Y00600000D02*
D03*
X01410001Y00580000D02*
D03*
Y00500000D02*
D03*
X01400001Y00480000D02*
D03*
X01410001Y00460000D02*
D03*
X01400001Y00440000D02*
D03*
X01410001Y00420000D02*
D03*
X01400001Y00400000D02*
D03*
Y00320000D02*
D03*
X01410001Y00300000D02*
D03*
X01400001Y00280000D02*
D03*
X01410001Y00260000D02*
D03*
X01400001Y00240000D02*
D03*
X01390001Y01020001D02*
D03*
X01380001Y01000001D02*
D03*
X01390001Y00980001D02*
D03*
X01380001Y00960001D02*
D03*
X01390001Y00940001D02*
D03*
X01380001Y00920001D02*
D03*
X01390001Y00900001D02*
D03*
X01380001Y00880001D02*
D03*
X01390001Y00860001D02*
D03*
X01380001Y00840001D02*
D03*
X01390001Y00820000D02*
D03*
Y00780000D02*
D03*
Y00740000D02*
D03*
X01380001Y00720000D02*
D03*
X01390001Y00700000D02*
D03*
X01380001Y00680000D02*
D03*
X01390001Y00660000D02*
D03*
Y00580000D02*
D03*
X01380001Y00560000D02*
D03*
X01390001Y00500000D02*
D03*
X01380001Y00480000D02*
D03*
X01390001Y00460000D02*
D03*
X01380001Y00440000D02*
D03*
X01390001Y00420000D02*
D03*
X01380001Y00400000D02*
D03*
X01390001Y00380000D02*
D03*
X01380001Y00360000D02*
D03*
X01390001Y00340000D02*
D03*
X01380001Y00320000D02*
D03*
X01390001Y00300000D02*
D03*
X01380001Y00280000D02*
D03*
X01390001Y00260000D02*
D03*
X01380001Y00240000D02*
D03*
X01370001Y01020001D02*
D03*
X01360001Y01000001D02*
D03*
X01370001Y00980001D02*
D03*
X01360001Y00960001D02*
D03*
X01370001Y00940001D02*
D03*
X01360001Y00920001D02*
D03*
X01370001Y00900001D02*
D03*
X01360001Y00880001D02*
D03*
X01370001Y00860001D02*
D03*
X01360001Y00840001D02*
D03*
X01370001Y00820000D02*
D03*
Y00780000D02*
D03*
Y00740000D02*
D03*
X01360001Y00720000D02*
D03*
X01370001Y00500000D02*
D03*
X01360001Y00480000D02*
D03*
X01370001Y00460000D02*
D03*
X01360001Y00440000D02*
D03*
X01370001Y00420000D02*
D03*
X01360001Y00400000D02*
D03*
X01370001Y00380000D02*
D03*
X01360001Y00360000D02*
D03*
X01370001Y00340000D02*
D03*
X01360001Y00320000D02*
D03*
X01370001Y00300000D02*
D03*
X01360001Y00280000D02*
D03*
X01370001Y00260000D02*
D03*
X01360001Y00240000D02*
D03*
X01350001Y01020001D02*
D03*
X01340001Y01000001D02*
D03*
X01350001Y00980001D02*
D03*
X01340001Y00960001D02*
D03*
X01350001Y00940001D02*
D03*
X01340001Y00920001D02*
D03*
X01350001Y00900001D02*
D03*
X01340001Y00880001D02*
D03*
X01350001Y00860001D02*
D03*
X01340001Y00840001D02*
D03*
X01350001Y00820000D02*
D03*
Y00780000D02*
D03*
Y00740000D02*
D03*
X01340001Y00680000D02*
D03*
X01350001Y00500000D02*
D03*
X01340001Y00480000D02*
D03*
X01350001Y00460000D02*
D03*
X01340001Y00440000D02*
D03*
X01350001Y00420000D02*
D03*
X01340001Y00400000D02*
D03*
X01350001Y00380000D02*
D03*
X01340001Y00360000D02*
D03*
X01350001Y00340000D02*
D03*
X01340001Y00320000D02*
D03*
X01350001Y00300000D02*
D03*
X01340001Y00280000D02*
D03*
X01350001Y00260000D02*
D03*
X01340001Y00240000D02*
D03*
X01330001Y01020001D02*
D03*
X01320001Y01000001D02*
D03*
X01330001Y00980001D02*
D03*
X01320001Y00960001D02*
D03*
X01330001Y00940001D02*
D03*
X01320001Y00920001D02*
D03*
X01330001Y00900001D02*
D03*
X01320001Y00880001D02*
D03*
X01330001Y00860001D02*
D03*
X01320001Y00840001D02*
D03*
X01330001Y00820000D02*
D03*
Y00780000D02*
D03*
X01320001Y00720000D02*
D03*
X01330001Y00700000D02*
D03*
X01320001Y00680000D02*
D03*
X01330001Y00660000D02*
D03*
X01320001Y00640000D02*
D03*
X01330001Y00420000D02*
D03*
X01320001Y00400000D02*
D03*
X01330001Y00380000D02*
D03*
X01320001Y00360000D02*
D03*
X01330001Y00340000D02*
D03*
X01320001Y00320000D02*
D03*
X01330001Y00300000D02*
D03*
X01320001Y00280000D02*
D03*
X01330001Y00260000D02*
D03*
X01320001Y00240000D02*
D03*
X01310001Y01020001D02*
D03*
X01300001Y01000001D02*
D03*
X01310001Y00980001D02*
D03*
X01300001Y00960001D02*
D03*
X01310001Y00940001D02*
D03*
X01300001Y00920001D02*
D03*
X01310001Y00900001D02*
D03*
X01300001Y00880001D02*
D03*
X01310001Y00860001D02*
D03*
X01300001Y00840001D02*
D03*
X01310001Y00820000D02*
D03*
Y00780000D02*
D03*
X01300001Y00720000D02*
D03*
X01310001Y00700000D02*
D03*
X01300001Y00680000D02*
D03*
X01310001Y00660000D02*
D03*
X01300001Y00640000D02*
D03*
X01310001Y00620000D02*
D03*
Y00420000D02*
D03*
X01300001Y00400000D02*
D03*
X01310001Y00380000D02*
D03*
X01300001Y00360000D02*
D03*
X01310001Y00340000D02*
D03*
X01300001Y00320000D02*
D03*
X01310001Y00300000D02*
D03*
X01300001Y00280000D02*
D03*
X01310001Y00260000D02*
D03*
X01300001Y00240000D02*
D03*
X01290001Y01020001D02*
D03*
X01280001Y01000001D02*
D03*
X01290001Y00980001D02*
D03*
X01280001Y00960001D02*
D03*
X01290001Y00940001D02*
D03*
X01280001Y00920001D02*
D03*
X01290001Y00900001D02*
D03*
X01280001Y00880001D02*
D03*
X01290001Y00860001D02*
D03*
X01280001Y00840001D02*
D03*
X01290001Y00820000D02*
D03*
Y00780000D02*
D03*
Y00740000D02*
D03*
X01280001Y00720000D02*
D03*
X01290001Y00700000D02*
D03*
X01280001Y00680000D02*
D03*
X01290001Y00660000D02*
D03*
X01280001Y00640000D02*
D03*
X01290001Y00620000D02*
D03*
X01280001Y00400000D02*
D03*
X01290001Y00380000D02*
D03*
X01280001Y00360000D02*
D03*
X01290001Y00340000D02*
D03*
X01280001Y00320000D02*
D03*
X01290001Y00300000D02*
D03*
X01280001Y00280000D02*
D03*
X01290001Y00260000D02*
D03*
X01280001Y00240000D02*
D03*
X01270001Y01020001D02*
D03*
X01260001Y01000001D02*
D03*
X01270001Y00980001D02*
D03*
X01260001Y00960001D02*
D03*
X01270001Y00940001D02*
D03*
X01260001Y00920001D02*
D03*
X01270001Y00900001D02*
D03*
X01260001Y00880001D02*
D03*
X01270001Y00860001D02*
D03*
X01260001Y00840001D02*
D03*
X01270001Y00820000D02*
D03*
Y00780000D02*
D03*
Y00740000D02*
D03*
X01260001Y00720000D02*
D03*
X01270001Y00700000D02*
D03*
X01260001Y00680000D02*
D03*
X01270001Y00660000D02*
D03*
X01260001Y00640000D02*
D03*
X01270001Y00620000D02*
D03*
Y00420000D02*
D03*
X01260001Y00400000D02*
D03*
X01270001Y00380000D02*
D03*
X01260001Y00360000D02*
D03*
X01270001Y00340000D02*
D03*
X01260001Y00320000D02*
D03*
X01270001Y00300000D02*
D03*
X01260001Y00280000D02*
D03*
X01270001Y00260000D02*
D03*
X01260001Y00240000D02*
D03*
X01250001Y01020001D02*
D03*
X01240001Y01000001D02*
D03*
X01250001Y00980001D02*
D03*
X01240001Y00960001D02*
D03*
X01250001Y00940001D02*
D03*
X01240001Y00920001D02*
D03*
X01250001Y00900001D02*
D03*
X01240001Y00880001D02*
D03*
X01250001Y00860001D02*
D03*
X01240001Y00840001D02*
D03*
X01250001Y00820000D02*
D03*
Y00780000D02*
D03*
Y00740000D02*
D03*
X01240001Y00720000D02*
D03*
X01250001Y00700000D02*
D03*
X01240001Y00680000D02*
D03*
X01250001Y00660000D02*
D03*
X01240001Y00640000D02*
D03*
X01250001Y00620000D02*
D03*
X01240001Y00480000D02*
D03*
X01250001Y00460000D02*
D03*
X01240001Y00440000D02*
D03*
X01250001Y00420000D02*
D03*
X01240001Y00400000D02*
D03*
X01250001Y00380000D02*
D03*
X01240001Y00360000D02*
D03*
X01250001Y00340000D02*
D03*
X01240001Y00320000D02*
D03*
X01250001Y00300000D02*
D03*
X01240001Y00280000D02*
D03*
X01250001Y00260000D02*
D03*
X01240001Y00240000D02*
D03*
X01230001Y01020001D02*
D03*
X01220001Y01000001D02*
D03*
X01230001Y00980001D02*
D03*
X01220001Y00960001D02*
D03*
X01230001Y00940001D02*
D03*
X01220001Y00920001D02*
D03*
X01230001Y00900001D02*
D03*
X01220001Y00880001D02*
D03*
X01230001Y00860001D02*
D03*
X01220001Y00840001D02*
D03*
X01230001Y00820000D02*
D03*
Y00780000D02*
D03*
Y00740000D02*
D03*
X01220001Y00720000D02*
D03*
X01230001Y00700000D02*
D03*
X01220001Y00680000D02*
D03*
X01230001Y00660000D02*
D03*
X01220001Y00640000D02*
D03*
Y00480000D02*
D03*
X01230001Y00460000D02*
D03*
X01220001Y00440000D02*
D03*
X01230001Y00420000D02*
D03*
X01220001Y00400000D02*
D03*
X01230001Y00380000D02*
D03*
X01220001Y00360000D02*
D03*
X01230001Y00340000D02*
D03*
X01220001Y00320000D02*
D03*
X01230001Y00300000D02*
D03*
X01220001Y00280000D02*
D03*
X01230001Y00260000D02*
D03*
X01220001Y00240000D02*
D03*
X01210001Y01020001D02*
D03*
X01200001Y01000001D02*
D03*
X01210001Y00980001D02*
D03*
X01200001Y00880001D02*
D03*
X01210001Y00780000D02*
D03*
Y00740000D02*
D03*
X01200001Y00720000D02*
D03*
X01210001Y00700000D02*
D03*
X01200001Y00480000D02*
D03*
X01210001Y00460000D02*
D03*
X01200001Y00440000D02*
D03*
X01210001Y00420000D02*
D03*
X01200001Y00400000D02*
D03*
X01210001Y00380000D02*
D03*
X01200001Y00360000D02*
D03*
X01210001Y00340000D02*
D03*
X01200001Y00320000D02*
D03*
X01210001Y00300000D02*
D03*
X01200001Y00280000D02*
D03*
X01210001Y00260000D02*
D03*
X01200001Y00240000D02*
D03*
X01190001Y01020001D02*
D03*
X01180001Y01000001D02*
D03*
X01190001Y00980001D02*
D03*
X01180001Y00960001D02*
D03*
Y00880001D02*
D03*
X01190001Y00780000D02*
D03*
Y00740000D02*
D03*
X01180001Y00720000D02*
D03*
X01190001Y00700000D02*
D03*
X01180001Y00480000D02*
D03*
X01190001Y00460000D02*
D03*
X01180001Y00440000D02*
D03*
X01190001Y00420000D02*
D03*
X01180001Y00400000D02*
D03*
X01190001Y00380000D02*
D03*
X01180001Y00360000D02*
D03*
X01190001Y00340000D02*
D03*
X01180001Y00320000D02*
D03*
X01190001Y00300000D02*
D03*
X01180001Y00280000D02*
D03*
X01190001Y00260000D02*
D03*
X01180001Y00240000D02*
D03*
X01170001Y01020001D02*
D03*
X01160001Y01000001D02*
D03*
X01170001Y00980001D02*
D03*
X01160001Y00960001D02*
D03*
Y00880001D02*
D03*
Y00840001D02*
D03*
X01170001Y00820000D02*
D03*
X01160001Y00800000D02*
D03*
X01170001Y00780000D02*
D03*
Y00740000D02*
D03*
X01160001Y00720000D02*
D03*
X01170001Y00700000D02*
D03*
Y00500000D02*
D03*
X01160001Y00480000D02*
D03*
X01170001Y00460000D02*
D03*
X01160001Y00440000D02*
D03*
X01170001Y00420000D02*
D03*
X01160001Y00400000D02*
D03*
X01170001Y00380000D02*
D03*
X01160001Y00360000D02*
D03*
X01170001Y00340000D02*
D03*
X01160001Y00320000D02*
D03*
X01170001Y00300000D02*
D03*
X01160001Y00280000D02*
D03*
X01170001Y00260000D02*
D03*
X01160001Y00240000D02*
D03*
X01150001Y01020001D02*
D03*
X01140001Y01000001D02*
D03*
X01150001Y00980001D02*
D03*
X01140001Y00960001D02*
D03*
Y00920001D02*
D03*
X01150001Y00900001D02*
D03*
X01140001Y00880001D02*
D03*
X01150001Y00860001D02*
D03*
X01140001Y00840001D02*
D03*
X01150001Y00820000D02*
D03*
X01140001Y00800000D02*
D03*
X01150001Y00780000D02*
D03*
Y00740000D02*
D03*
X01140001Y00720000D02*
D03*
X01150001Y00700000D02*
D03*
X01140001Y00680000D02*
D03*
X01150001Y00500000D02*
D03*
X01140001Y00480000D02*
D03*
X01150001Y00460000D02*
D03*
X01140001Y00440000D02*
D03*
X01150001Y00420000D02*
D03*
X01140001Y00400000D02*
D03*
X01150001Y00380000D02*
D03*
X01140001Y00360000D02*
D03*
X01150001Y00340000D02*
D03*
X01140001Y00320000D02*
D03*
X01150001Y00300000D02*
D03*
X01140001Y00280000D02*
D03*
X01150001Y00260000D02*
D03*
X01140001Y00240000D02*
D03*
X01130001Y01020001D02*
D03*
X01120001Y01000001D02*
D03*
X01130001Y00980001D02*
D03*
X01120001Y00880001D02*
D03*
Y00800000D02*
D03*
X01130001Y00740000D02*
D03*
X01120001Y00720000D02*
D03*
X01130001Y00700000D02*
D03*
X01120001Y00680000D02*
D03*
Y00520000D02*
D03*
X01130001Y00500000D02*
D03*
X01120001Y00480000D02*
D03*
X01130001Y00460000D02*
D03*
X01120001Y00440000D02*
D03*
X01130001Y00420000D02*
D03*
X01120001Y00400000D02*
D03*
X01130001Y00380000D02*
D03*
X01120001Y00360000D02*
D03*
X01130001Y00340000D02*
D03*
X01120001Y00320000D02*
D03*
X01130001Y00300000D02*
D03*
X01120001Y00280000D02*
D03*
X01130001Y00260000D02*
D03*
X01120001Y00240000D02*
D03*
X01110001Y01020001D02*
D03*
X01100001Y01000001D02*
D03*
X01110001Y00980001D02*
D03*
X01100001Y00960001D02*
D03*
Y00880001D02*
D03*
X01110001Y00780000D02*
D03*
Y00740000D02*
D03*
X01100001Y00720000D02*
D03*
X01110001Y00700000D02*
D03*
X01100001Y00680000D02*
D03*
Y00520000D02*
D03*
X01110001Y00500000D02*
D03*
X01100001Y00480000D02*
D03*
X01110001Y00460000D02*
D03*
X01100001Y00440000D02*
D03*
X01110001Y00420000D02*
D03*
X01100001Y00400000D02*
D03*
X01110001Y00380000D02*
D03*
X01100001Y00360000D02*
D03*
X01110001Y00340000D02*
D03*
X01100001Y00320000D02*
D03*
X01110001Y00300000D02*
D03*
X01100001Y00280000D02*
D03*
X01110001Y00260000D02*
D03*
X01100001Y00240000D02*
D03*
X01090001Y01020001D02*
D03*
X01080001Y01000001D02*
D03*
X01090001Y00980001D02*
D03*
X01080001Y00960001D02*
D03*
Y00880001D02*
D03*
Y00840001D02*
D03*
X01090001Y00820000D02*
D03*
Y00780000D02*
D03*
Y00740000D02*
D03*
X01080001Y00720000D02*
D03*
X01090001Y00700000D02*
D03*
X01080001Y00680000D02*
D03*
Y00520000D02*
D03*
X01090001Y00500000D02*
D03*
X01080001Y00480000D02*
D03*
X01090001Y00460000D02*
D03*
X01080001Y00440000D02*
D03*
X01090001Y00420000D02*
D03*
X01080001Y00400000D02*
D03*
X01090001Y00380000D02*
D03*
X01080001Y00360000D02*
D03*
X01090001Y00340000D02*
D03*
X01080001Y00320000D02*
D03*
X01090001Y00300000D02*
D03*
X01080001Y00280000D02*
D03*
X01090001Y00260000D02*
D03*
X01080001Y00240000D02*
D03*
X01070001Y01020001D02*
D03*
X01060001Y01000001D02*
D03*
X01070001Y00980001D02*
D03*
X01060001Y00960001D02*
D03*
Y00920001D02*
D03*
X01070001Y00900001D02*
D03*
X01060001Y00880001D02*
D03*
X01070001Y00860001D02*
D03*
X01060001Y00840001D02*
D03*
X01070001Y00820000D02*
D03*
X01060001Y00800000D02*
D03*
X01070001Y00780000D02*
D03*
Y00740000D02*
D03*
X01060001Y00720000D02*
D03*
X01070001Y00700000D02*
D03*
Y00500000D02*
D03*
X01060001Y00480000D02*
D03*
X01070001Y00460000D02*
D03*
X01060001Y00440000D02*
D03*
X01070001Y00420000D02*
D03*
X01060001Y00400000D02*
D03*
X01070001Y00380000D02*
D03*
X01060001Y00360000D02*
D03*
X01070001Y00340000D02*
D03*
X01060001Y00320000D02*
D03*
X01070001Y00300000D02*
D03*
X01060001Y00280000D02*
D03*
X01070001Y00260000D02*
D03*
X01060001Y00240000D02*
D03*
X01050001Y01020001D02*
D03*
X01040001Y01000001D02*
D03*
X01050001Y00980001D02*
D03*
X01040001Y00960001D02*
D03*
Y00920001D02*
D03*
X01050001Y00900001D02*
D03*
X01040001Y00880001D02*
D03*
X01050001Y00860001D02*
D03*
X01040001Y00840001D02*
D03*
X01050001Y00820000D02*
D03*
X01040001Y00800000D02*
D03*
X01050001Y00780000D02*
D03*
Y00740000D02*
D03*
X01040001Y00720000D02*
D03*
X01050001Y00700000D02*
D03*
X01040001Y00480000D02*
D03*
X01050001Y00460000D02*
D03*
X01040001Y00440000D02*
D03*
X01050001Y00420000D02*
D03*
X01040001Y00400000D02*
D03*
X01050001Y00380000D02*
D03*
X01040001Y00360000D02*
D03*
X01050001Y00340000D02*
D03*
X01040001Y00320000D02*
D03*
X01050001Y00300000D02*
D03*
X01040001Y00280000D02*
D03*
X01050001Y00260000D02*
D03*
X01040001Y00240000D02*
D03*
X01030001Y01020001D02*
D03*
X01020001Y01000001D02*
D03*
X01030001Y00980001D02*
D03*
X01020001Y00880001D02*
D03*
X01030001Y00780000D02*
D03*
Y00740000D02*
D03*
X01020001Y00720000D02*
D03*
X01030001Y00700000D02*
D03*
X01020001Y00480000D02*
D03*
X01030001Y00460000D02*
D03*
X01020001Y00440000D02*
D03*
X01030001Y00420000D02*
D03*
X01020001Y00400000D02*
D03*
X01030001Y00380000D02*
D03*
X01020001Y00360000D02*
D03*
X01030001Y00340000D02*
D03*
X01020001Y00320000D02*
D03*
X01030001Y00300000D02*
D03*
X01020001Y00280000D02*
D03*
X01030001Y00260000D02*
D03*
X01020001Y00240000D02*
D03*
X01010001Y01020001D02*
D03*
X01000001Y01000001D02*
D03*
X01010001Y00980001D02*
D03*
X01000001Y00960001D02*
D03*
Y00880001D02*
D03*
Y00760000D02*
D03*
X01010001Y00740000D02*
D03*
X01000001Y00720000D02*
D03*
Y00560000D02*
D03*
Y00480000D02*
D03*
X01010001Y00460000D02*
D03*
X01000001Y00440000D02*
D03*
X01010001Y00420000D02*
D03*
X01000001Y00400000D02*
D03*
X01010001Y00380000D02*
D03*
X01000001Y00360000D02*
D03*
X01010001Y00340000D02*
D03*
X01000001Y00320000D02*
D03*
X01010001Y00300000D02*
D03*
X01000001Y00280000D02*
D03*
X01010001Y00260000D02*
D03*
X01000001Y00240000D02*
D03*
X00990001Y01020001D02*
D03*
X00980001Y01000001D02*
D03*
X00990001Y00980001D02*
D03*
X00980001Y00960001D02*
D03*
Y00880001D02*
D03*
Y00840001D02*
D03*
Y00800000D02*
D03*
Y00760000D02*
D03*
X00990001Y00740000D02*
D03*
X00980001Y00720000D02*
D03*
Y00560000D02*
D03*
X00990001Y00540000D02*
D03*
X00980001Y00520000D02*
D03*
X00990001Y00500000D02*
D03*
X00980001Y00480000D02*
D03*
X00990001Y00460000D02*
D03*
X00980001Y00440000D02*
D03*
X00990001Y00420000D02*
D03*
X00980001Y00400000D02*
D03*
X00990001Y00380000D02*
D03*
X00980001Y00360000D02*
D03*
X00990001Y00340000D02*
D03*
X00980001Y00320000D02*
D03*
X00990001Y00300000D02*
D03*
X00980001Y00280000D02*
D03*
X00990001Y00260000D02*
D03*
X00980001Y00240000D02*
D03*
X00970001Y01020001D02*
D03*
X00960001Y01000001D02*
D03*
X00970001Y00980001D02*
D03*
X00960001Y00960001D02*
D03*
Y00920001D02*
D03*
X00970001Y00900001D02*
D03*
X00960001Y00880001D02*
D03*
X00970001Y00860001D02*
D03*
X00960001Y00840001D02*
D03*
X00970001Y00820000D02*
D03*
X00960001Y00800000D02*
D03*
Y00760000D02*
D03*
X00970001Y00740000D02*
D03*
X00960001Y00560000D02*
D03*
X00970001Y00540000D02*
D03*
X00960001Y00520000D02*
D03*
X00970001Y00500000D02*
D03*
X00960001Y00480000D02*
D03*
X00970001Y00460000D02*
D03*
X00960001Y00440000D02*
D03*
X00970001Y00420000D02*
D03*
X00960001Y00400000D02*
D03*
X00970001Y00380000D02*
D03*
X00960001Y00360000D02*
D03*
X00970001Y00340000D02*
D03*
X00960001Y00320000D02*
D03*
X00970001Y00300000D02*
D03*
X00960001Y00280000D02*
D03*
X00970001Y00260000D02*
D03*
X00960001Y00240000D02*
D03*
X00950001Y01020001D02*
D03*
X00940001Y01000001D02*
D03*
X00950001Y00980001D02*
D03*
X00940001Y00960001D02*
D03*
Y00920001D02*
D03*
X00950001Y00900001D02*
D03*
X00940001Y00880001D02*
D03*
X00950001Y00860001D02*
D03*
X00940001Y00840001D02*
D03*
X00950001Y00820000D02*
D03*
X00940001Y00800000D02*
D03*
Y00760000D02*
D03*
X00950001Y00740000D02*
D03*
Y00580000D02*
D03*
X00940001Y00560000D02*
D03*
X00950001Y00540000D02*
D03*
X00940001Y00520000D02*
D03*
X00950001Y00500000D02*
D03*
X00940001Y00480000D02*
D03*
X00950001Y00460000D02*
D03*
X00940001Y00440000D02*
D03*
X00950001Y00420000D02*
D03*
X00940001Y00400000D02*
D03*
X00950001Y00380000D02*
D03*
X00940001Y00360000D02*
D03*
X00950001Y00340000D02*
D03*
X00940001Y00320000D02*
D03*
X00950001Y00300000D02*
D03*
X00940001Y00280000D02*
D03*
X00950001Y00260000D02*
D03*
X00940001Y00240000D02*
D03*
X00920001Y01000001D02*
D03*
X00930001Y00980001D02*
D03*
X00920001Y00920001D02*
D03*
X00930001Y00900001D02*
D03*
X00920001Y00880001D02*
D03*
X00930001Y00860001D02*
D03*
X00920001Y00840001D02*
D03*
X00930001Y00820000D02*
D03*
X00920001Y00760000D02*
D03*
X00930001Y00740000D02*
D03*
Y00580000D02*
D03*
X00920001Y00560000D02*
D03*
X00930001Y00540000D02*
D03*
X00920001Y00520000D02*
D03*
X00930001Y00500000D02*
D03*
X00920001Y00480000D02*
D03*
X00930001Y00460000D02*
D03*
X00920001Y00440000D02*
D03*
X00930001Y00420000D02*
D03*
X00920001Y00400000D02*
D03*
X00930001Y00380000D02*
D03*
X00920001Y00360000D02*
D03*
X00930001Y00340000D02*
D03*
X00920001Y00320000D02*
D03*
X00930001Y00300000D02*
D03*
X00920001Y00280000D02*
D03*
X00930001Y00260000D02*
D03*
X00920001Y00240000D02*
D03*
X00900001Y01000001D02*
D03*
Y00920001D02*
D03*
X00910001Y00900001D02*
D03*
X00900001Y00880001D02*
D03*
X00910001Y00860001D02*
D03*
X00900001Y00840001D02*
D03*
Y00800000D02*
D03*
X00910001Y00780000D02*
D03*
X00900001Y00760000D02*
D03*
X00910001Y00740000D02*
D03*
X00900001Y00600000D02*
D03*
X00910001Y00580000D02*
D03*
X00900001Y00560000D02*
D03*
X00910001Y00540000D02*
D03*
X00900001Y00520000D02*
D03*
X00910001Y00500000D02*
D03*
X00900001Y00480000D02*
D03*
X00910001Y00460000D02*
D03*
X00900001Y00440000D02*
D03*
X00910001Y00420000D02*
D03*
X00900001Y00400000D02*
D03*
X00910001Y00380000D02*
D03*
X00900001Y00360000D02*
D03*
X00910001Y00340000D02*
D03*
X00900001Y00320000D02*
D03*
X00910001Y00300000D02*
D03*
X00900001Y00280000D02*
D03*
X00910001Y00260000D02*
D03*
X00900001Y00240000D02*
D03*
X00890001Y01020001D02*
D03*
X00880001Y01000001D02*
D03*
Y00920001D02*
D03*
X00890001Y00900001D02*
D03*
X00880001Y00880001D02*
D03*
X00890001Y00860001D02*
D03*
X00880001Y00800000D02*
D03*
X00890001Y00780000D02*
D03*
X00880001Y00760000D02*
D03*
Y00600000D02*
D03*
X00890001Y00580000D02*
D03*
X00880001Y00560000D02*
D03*
X00890001Y00540000D02*
D03*
X00880001Y00520000D02*
D03*
X00890001Y00500000D02*
D03*
X00880001Y00480000D02*
D03*
X00890001Y00460000D02*
D03*
X00880001Y00440000D02*
D03*
X00890001Y00420000D02*
D03*
X00880001Y00400000D02*
D03*
X00890001Y00380000D02*
D03*
X00880001Y00360000D02*
D03*
X00890001Y00340000D02*
D03*
X00880001Y00320000D02*
D03*
X00890001Y00300000D02*
D03*
X00880001Y00280000D02*
D03*
X00890001Y00260000D02*
D03*
X00880001Y00240000D02*
D03*
X00870001Y01020001D02*
D03*
X00860001Y01000001D02*
D03*
X00870001Y00980001D02*
D03*
X00860001Y00960001D02*
D03*
X00870001Y00940001D02*
D03*
X00860001Y00920001D02*
D03*
X00870001Y00900001D02*
D03*
X00860001Y00880001D02*
D03*
X00870001Y00860001D02*
D03*
Y00820000D02*
D03*
X00860001Y00800000D02*
D03*
X00870001Y00780000D02*
D03*
X00860001Y00760000D02*
D03*
Y00600000D02*
D03*
X00870001Y00580000D02*
D03*
X00860001Y00560000D02*
D03*
X00870001Y00540000D02*
D03*
X00860001Y00520000D02*
D03*
X00870001Y00500000D02*
D03*
X00860001Y00480000D02*
D03*
X00870001Y00460000D02*
D03*
X00860001Y00440000D02*
D03*
X00870001Y00420000D02*
D03*
X00860001Y00400000D02*
D03*
X00870001Y00380000D02*
D03*
X00860001Y00360000D02*
D03*
X00870001Y00340000D02*
D03*
X00860001Y00320000D02*
D03*
X00870001Y00300000D02*
D03*
X00860001Y00280000D02*
D03*
X00870001Y00260000D02*
D03*
X00860001Y00240000D02*
D03*
X00850001Y01020001D02*
D03*
X00840001Y01000001D02*
D03*
X00850001Y00940001D02*
D03*
X00840001Y00920001D02*
D03*
X00850001Y00900001D02*
D03*
X00840001Y00880001D02*
D03*
X00850001Y00860001D02*
D03*
Y00820000D02*
D03*
X00840001Y00800000D02*
D03*
X00850001Y00780000D02*
D03*
Y00620000D02*
D03*
X00840001Y00600000D02*
D03*
X00850001Y00580000D02*
D03*
X00840001Y00560000D02*
D03*
X00850001Y00540000D02*
D03*
X00840001Y00520000D02*
D03*
X00850001Y00500000D02*
D03*
X00840001Y00480000D02*
D03*
X00850001Y00460000D02*
D03*
X00840001Y00440000D02*
D03*
X00850001Y00420000D02*
D03*
X00840001Y00400000D02*
D03*
X00850001Y00380000D02*
D03*
X00840001Y00360000D02*
D03*
X00850001Y00340000D02*
D03*
X00840001Y00320000D02*
D03*
X00850001Y00300000D02*
D03*
X00840001Y00280000D02*
D03*
X00850001Y00260000D02*
D03*
X00840001Y00240000D02*
D03*
X00830000Y01020001D02*
D03*
X00820000Y01000001D02*
D03*
Y00920001D02*
D03*
X00830000Y00900001D02*
D03*
X00820000Y00880001D02*
D03*
X00830000Y00860001D02*
D03*
Y00820000D02*
D03*
Y00620000D02*
D03*
X00820000Y00600000D02*
D03*
X00830000Y00580000D02*
D03*
X00820000Y00560000D02*
D03*
X00830000Y00540000D02*
D03*
X00820000Y00520000D02*
D03*
X00830000Y00500000D02*
D03*
X00820000Y00480000D02*
D03*
X00830000Y00460000D02*
D03*
X00820000Y00440000D02*
D03*
X00830000Y00420000D02*
D03*
X00820000Y00400000D02*
D03*
X00830000Y00380000D02*
D03*
X00820000Y00360000D02*
D03*
X00830000Y00340000D02*
D03*
X00820000Y00320000D02*
D03*
X00830000Y00300000D02*
D03*
X00820000Y00280000D02*
D03*
X00830000Y00260000D02*
D03*
X00820000Y00240000D02*
D03*
X00800000Y01000001D02*
D03*
Y00920001D02*
D03*
X00810000Y00900001D02*
D03*
X00800000Y00880001D02*
D03*
X00810000Y00860001D02*
D03*
Y00620000D02*
D03*
X00800000Y00600000D02*
D03*
X00810000Y00580000D02*
D03*
X00800000Y00560000D02*
D03*
X00810000Y00540000D02*
D03*
X00800000Y00520000D02*
D03*
X00810000Y00500000D02*
D03*
X00800000Y00480000D02*
D03*
X00810000Y00460000D02*
D03*
X00800000Y00440000D02*
D03*
X00810000Y00420000D02*
D03*
X00800000Y00400000D02*
D03*
X00810000Y00380000D02*
D03*
X00800000Y00360000D02*
D03*
X00810000Y00340000D02*
D03*
X00800000Y00320000D02*
D03*
X00810000Y00300000D02*
D03*
X00800000Y00280000D02*
D03*
X00810000Y00260000D02*
D03*
X00800000Y00240000D02*
D03*
X00780000Y01000001D02*
D03*
X00790000Y00980001D02*
D03*
X00780000Y00960001D02*
D03*
X00790000Y00940001D02*
D03*
X00780000Y00920001D02*
D03*
X00790000Y00900001D02*
D03*
X00780000Y00880001D02*
D03*
X00790000Y00860001D02*
D03*
Y00580000D02*
D03*
X00780000Y00560000D02*
D03*
X00790000Y00540000D02*
D03*
X00780000Y00520000D02*
D03*
X00790000Y00500000D02*
D03*
X00780000Y00480000D02*
D03*
X00790000Y00460000D02*
D03*
X00780000Y00440000D02*
D03*
X00790000Y00420000D02*
D03*
X00780000Y00400000D02*
D03*
X00790000Y00380000D02*
D03*
X00780000Y00360000D02*
D03*
X00790000Y00340000D02*
D03*
X00780000Y00320000D02*
D03*
X00790000Y00300000D02*
D03*
X00780000Y00280000D02*
D03*
X00790000Y00260000D02*
D03*
X00780000Y00240000D02*
D03*
X00770000Y01020001D02*
D03*
X00760000Y01000001D02*
D03*
X00770000Y00980001D02*
D03*
X00760000Y00960001D02*
D03*
X00770000Y00940001D02*
D03*
X00760000Y00920001D02*
D03*
X00770000Y00900001D02*
D03*
X00760000Y00880001D02*
D03*
X00770000Y00860001D02*
D03*
Y00580000D02*
D03*
X00760000Y00560000D02*
D03*
X00770000Y00540000D02*
D03*
X00760000Y00520000D02*
D03*
X00770000Y00500000D02*
D03*
X00760000Y00480000D02*
D03*
X00770000Y00460000D02*
D03*
X00760000Y00440000D02*
D03*
X00770000Y00420000D02*
D03*
X00760000Y00400000D02*
D03*
X00770000Y00380000D02*
D03*
X00760000Y00360000D02*
D03*
X00770000Y00340000D02*
D03*
X00760000Y00320000D02*
D03*
X00770000Y00300000D02*
D03*
X00760000Y00280000D02*
D03*
X00770000Y00260000D02*
D03*
X00760000Y00240000D02*
D03*
X00750000Y01020001D02*
D03*
X00740000Y01000001D02*
D03*
X00750000Y00980001D02*
D03*
X00740000Y00960001D02*
D03*
X00750000Y00940001D02*
D03*
X00740000Y00920001D02*
D03*
X00750000Y00900001D02*
D03*
X00740000Y00880001D02*
D03*
X00750000Y00860001D02*
D03*
Y00820000D02*
D03*
Y00580000D02*
D03*
X00740000Y00560000D02*
D03*
X00750000Y00540000D02*
D03*
X00740000Y00520000D02*
D03*
X00750000Y00500000D02*
D03*
X00740000Y00480000D02*
D03*
X00750000Y00460000D02*
D03*
X00740000Y00440000D02*
D03*
X00750000Y00420000D02*
D03*
X00740000Y00400000D02*
D03*
X00750000Y00380000D02*
D03*
X00740000Y00360000D02*
D03*
X00750000Y00340000D02*
D03*
X00740000Y00320000D02*
D03*
X00750000Y00300000D02*
D03*
X00740000Y00280000D02*
D03*
X00750000Y00260000D02*
D03*
X00740000Y00240000D02*
D03*
X00730000Y01020001D02*
D03*
X00720000Y01000001D02*
D03*
X00730000Y00980001D02*
D03*
X00720000Y00960001D02*
D03*
X00730000Y00940001D02*
D03*
X00720000Y00920001D02*
D03*
X00730000Y00900001D02*
D03*
X00720000Y00880001D02*
D03*
X00730000Y00860001D02*
D03*
Y00660000D02*
D03*
X00720000Y00640000D02*
D03*
Y00600000D02*
D03*
X00730000Y00580000D02*
D03*
X00720000Y00560000D02*
D03*
X00730000Y00540000D02*
D03*
X00720000Y00520000D02*
D03*
X00730000Y00500000D02*
D03*
X00720000Y00480000D02*
D03*
X00730000Y00460000D02*
D03*
X00720000Y00440000D02*
D03*
X00730000Y00420000D02*
D03*
X00720000Y00400000D02*
D03*
X00730000Y00380000D02*
D03*
X00720000Y00360000D02*
D03*
X00730000Y00340000D02*
D03*
X00720000Y00320000D02*
D03*
X00730000Y00300000D02*
D03*
X00720000Y00280000D02*
D03*
X00730000Y00260000D02*
D03*
X00720000Y00240000D02*
D03*
X00710000Y01020001D02*
D03*
X00700000Y01000001D02*
D03*
X00710000Y00980001D02*
D03*
X00700000Y00960001D02*
D03*
X00710000Y00940001D02*
D03*
X00700000Y00920001D02*
D03*
X00710000Y00900001D02*
D03*
X00700000Y00880001D02*
D03*
X00710000Y00860001D02*
D03*
X00700000Y00840001D02*
D03*
Y00720000D02*
D03*
Y00680000D02*
D03*
X00710000Y00660000D02*
D03*
X00700000Y00640000D02*
D03*
X00710000Y00620000D02*
D03*
X00700000Y00600000D02*
D03*
X00710000Y00580000D02*
D03*
X00700000Y00560000D02*
D03*
X00710000Y00540000D02*
D03*
X00700000Y00520000D02*
D03*
X00710000Y00500000D02*
D03*
X00700000Y00480000D02*
D03*
X00710000Y00460000D02*
D03*
X00700000Y00440000D02*
D03*
X00710000Y00420000D02*
D03*
X00700000Y00400000D02*
D03*
X00710000Y00380000D02*
D03*
X00700000Y00360000D02*
D03*
X00710000Y00340000D02*
D03*
X00700000Y00320000D02*
D03*
X00710000Y00300000D02*
D03*
X00700000Y00280000D02*
D03*
X00710000Y00260000D02*
D03*
X00700000Y00240000D02*
D03*
X00690000Y01020001D02*
D03*
X00680000Y01000001D02*
D03*
X00690000Y00980001D02*
D03*
X00680000Y00960001D02*
D03*
X00690000Y00940001D02*
D03*
X00680000Y00920001D02*
D03*
X00690000Y00900001D02*
D03*
X00680000Y00880001D02*
D03*
X00690000Y00860001D02*
D03*
X00680000Y00840001D02*
D03*
X00690000Y00820000D02*
D03*
X00680000Y00800000D02*
D03*
Y00760000D02*
D03*
X00690000Y00740000D02*
D03*
Y00660000D02*
D03*
X00680000Y00640000D02*
D03*
X00690000Y00620000D02*
D03*
X00680000Y00600000D02*
D03*
X00690000Y00580000D02*
D03*
X00680000Y00560000D02*
D03*
X00690000Y00540000D02*
D03*
X00680000Y00520000D02*
D03*
X00690000Y00500000D02*
D03*
X00680000Y00480000D02*
D03*
X00690000Y00460000D02*
D03*
X00680000Y00440000D02*
D03*
X00690000Y00420000D02*
D03*
X00680000Y00400000D02*
D03*
X00690000Y00380000D02*
D03*
X00680000Y00360000D02*
D03*
X00690000Y00340000D02*
D03*
Y00260000D02*
D03*
X00680000Y00240000D02*
D03*
X00670000Y01020001D02*
D03*
X00660000Y01000001D02*
D03*
X00670000Y00980001D02*
D03*
X00660000Y00960001D02*
D03*
X00670000Y00940001D02*
D03*
X00660000Y00920001D02*
D03*
X00670000Y00900001D02*
D03*
X00660000Y00880001D02*
D03*
X00670000Y00860001D02*
D03*
X00660000Y00840001D02*
D03*
X00670000Y00820000D02*
D03*
X00660000Y00800000D02*
D03*
X00670000Y00780000D02*
D03*
X00660000Y00760000D02*
D03*
X00670000Y00740000D02*
D03*
Y00660000D02*
D03*
X00660000Y00640000D02*
D03*
X00670000Y00620000D02*
D03*
X00660000Y00600000D02*
D03*
X00670000Y00580000D02*
D03*
X00660000Y00560000D02*
D03*
X00670000Y00540000D02*
D03*
X00660000Y00520000D02*
D03*
X00670000Y00500000D02*
D03*
X00660000Y00480000D02*
D03*
X00670000Y00460000D02*
D03*
X00660000Y00440000D02*
D03*
X00670000Y00420000D02*
D03*
X00660000Y00400000D02*
D03*
X00670000Y00380000D02*
D03*
X00660000Y00360000D02*
D03*
X00670000Y00260000D02*
D03*
X00660000Y00240000D02*
D03*
X00640000Y01000001D02*
D03*
X00650000Y00980001D02*
D03*
X00640000Y00960001D02*
D03*
X00650000Y00940001D02*
D03*
X00640000Y00920001D02*
D03*
X00650000Y00900001D02*
D03*
X00640000Y00880001D02*
D03*
X00650000Y00860001D02*
D03*
X00640000Y00840001D02*
D03*
X00650000Y00820000D02*
D03*
X00640000Y00800000D02*
D03*
X00650000Y00780000D02*
D03*
X00640000Y00760000D02*
D03*
X00650000Y00740000D02*
D03*
Y00660000D02*
D03*
X00640000Y00640000D02*
D03*
X00650000Y00620000D02*
D03*
X00640000Y00600000D02*
D03*
X00650000Y00580000D02*
D03*
X00640000Y00560000D02*
D03*
X00650000Y00540000D02*
D03*
X00640000Y00520000D02*
D03*
X00650000Y00500000D02*
D03*
X00640000Y00480000D02*
D03*
X00650000Y00460000D02*
D03*
X00640000Y00440000D02*
D03*
X00650000Y00420000D02*
D03*
X00640000Y00400000D02*
D03*
X00650000Y00380000D02*
D03*
X00640000Y00360000D02*
D03*
X00650000Y00260000D02*
D03*
X00630000Y00980001D02*
D03*
X00620000Y00960001D02*
D03*
X00630000Y00940001D02*
D03*
X00620000Y00920001D02*
D03*
X00630000Y00900001D02*
D03*
X00620000Y00880001D02*
D03*
X00630000Y00860001D02*
D03*
X00620000Y00840001D02*
D03*
X00630000Y00820000D02*
D03*
X00620000Y00800000D02*
D03*
X00630000Y00780000D02*
D03*
X00620000Y00760000D02*
D03*
X00630000Y00740000D02*
D03*
Y00660000D02*
D03*
X00620000Y00640000D02*
D03*
X00630000Y00620000D02*
D03*
X00620000Y00600000D02*
D03*
X00630000Y00580000D02*
D03*
X00620000Y00560000D02*
D03*
X00630000Y00540000D02*
D03*
X00620000Y00520000D02*
D03*
X00630000Y00500000D02*
D03*
X00620000Y00480000D02*
D03*
X00630000Y00460000D02*
D03*
X00620000Y00440000D02*
D03*
X00630000Y00420000D02*
D03*
X00620000Y00400000D02*
D03*
X00630000Y00380000D02*
D03*
X00620000Y00360000D02*
D03*
X00630000Y00340000D02*
D03*
X00620000Y00280000D02*
D03*
X00630000Y00260000D02*
D03*
X00600000Y00960001D02*
D03*
X00610000Y00940001D02*
D03*
X00600000Y00920001D02*
D03*
X00610000Y00900001D02*
D03*
X00600000Y00880001D02*
D03*
X00610000Y00860001D02*
D03*
X00600000Y00840001D02*
D03*
X00610000Y00820000D02*
D03*
X00600000Y00800000D02*
D03*
X00610000Y00780000D02*
D03*
X00600000Y00760000D02*
D03*
X00610000Y00740000D02*
D03*
Y00660000D02*
D03*
X00600000Y00640000D02*
D03*
X00610000Y00620000D02*
D03*
X00600000Y00600000D02*
D03*
X00610000Y00580000D02*
D03*
X00600000Y00560000D02*
D03*
X00610000Y00540000D02*
D03*
X00600000Y00520000D02*
D03*
X00610000Y00500000D02*
D03*
X00600000Y00480000D02*
D03*
X00610000Y00460000D02*
D03*
X00600000Y00440000D02*
D03*
X00610000Y00420000D02*
D03*
X00600000Y00400000D02*
D03*
X00610000Y00380000D02*
D03*
X00600000Y00360000D02*
D03*
X00610000Y00340000D02*
D03*
X00600000Y00320000D02*
D03*
X00610000Y00300000D02*
D03*
X00590000Y00940001D02*
D03*
X00580000Y00920001D02*
D03*
X00590000Y00900001D02*
D03*
X00580000Y00880001D02*
D03*
X00590000Y00860001D02*
D03*
X00580000Y00840001D02*
D03*
X00590000Y00820000D02*
D03*
X00580000Y00800000D02*
D03*
X00590000Y00780000D02*
D03*
X00580000Y00760000D02*
D03*
X00590000Y00740000D02*
D03*
Y00660000D02*
D03*
X00580000Y00640000D02*
D03*
X00590000Y00620000D02*
D03*
X00580000Y00600000D02*
D03*
X00590000Y00580000D02*
D03*
X00580000Y00560000D02*
D03*
X00590000Y00540000D02*
D03*
X00580000Y00520000D02*
D03*
X00590000Y00500000D02*
D03*
X00580000Y00480000D02*
D03*
X00590000Y00460000D02*
D03*
X00580000Y00440000D02*
D03*
X00590000Y00420000D02*
D03*
X00580000Y00400000D02*
D03*
X00590000Y00380000D02*
D03*
X00580000Y00360000D02*
D03*
X00590000Y00340000D02*
D03*
X00580000Y00320000D02*
D03*
X00590000Y00300000D02*
D03*
X01542750Y00927750D02*
D03*
X01636750Y00843858D02*
D03*
X01508650Y00789233D02*
D03*
X01624500Y00644233D02*
D03*
X01508650Y00843733D02*
D03*
X01207750Y00803250D02*
D03*
D71*
X01486000Y00974750D02*
D03*
D72*
X01511400D02*
D03*
D73*
X00792500Y01025000D02*
D03*
X00927500D02*
D03*
D74*
X00824000Y00965000D02*
D03*
X00896000D02*
D03*
M02*
