  0
SECTION
  2
HEADER
  9
$ACADVER
  1
AC1014
  9
$HANDSEED
  5
FFFF
  9
$MEASUREMENT
 70
     1
  0
ENDSEC
  0
SECTION
  2
TABLES
  0
TABLE
  2
VPORT
  5
8
330
0
100
AcDbSymbolTable
 70
     4
  0
VPORT
  5
2E
330
8
100
AcDbSymbolTableRecord
100
AcDbViewportTableRecord
  2
*ACTIVE
 70
     0
 10
0.0
 20
0.0
 11
1.0
 21
1.0
 12
210.0
 22
148.5
 13
0.0
 23
0.0
 14
10.0
 24
10.0
 15
10.0
 25
10.0
 16
0.0
 26
0.0
 36
1.0
 17
0.0
 27
0.0
 37
0.0
 40
341.0
 41
1.24
 42
50.0
 43
0.0
 44
0.0
 50
0.0
 51
0.0
 71
     0
 72
   100
 73
     1
 74
     3
 75
     0
 76
     0
 77
     0
 78
     0
  0
ENDTAB
  0
TABLE
  2
LTYPE
  5
5
330
0
100
AcDbSymbolTable
 70
     1
  0
LTYPE
  5
14
330
5
100
AcDbSymbolTableRecord
100
AcDbLinetypeTableRecord
  2
BYBLOCK
 70
     0
  3

 72
    65
 73
     0
 40
0.0
  0
LTYPE
  5
15
330
5
100
AcDbSymbolTableRecord
100
AcDbLinetypeTableRecord
  2
BYLAYER
 70
     0
  3

 72
    65
 73
     0
 40
0.0
  0
LTYPE
  5
16
330
5
100
AcDbSymbolTableRecord
100
AcDbLinetypeTableRecord
  2
CONTINUOUS
 70
     0
  3
Solid line
 72
    65
 73
     0
 40
0.0
  0
ENDTAB
  0
TABLE
  2
LAYER
  5
2
100
AcDbSymbolTable
 70
2
  0
LAYER
  5
50
100
AcDbSymbolTableRecord
100
AcDbLayerTableRecord
  2
0
 70
0
  6
CONTINUOUS
  0
LAYER
  5
51
100
AcDbSymbolTableRecord
100
AcDbLayerTableRecord
  2
Layer_1
 70
0
  6
CONTINUOUS
  0
ENDTAB
  0
TABLE
  2
STYLE
  5
3
330
0
100
AcDbSymbolTable
 70
     1
  0
STYLE
  5
11
330
3
100
AcDbSymbolTableRecord
100
AcDbTextStyleTableRecord
  2
STANDARD
 70
     0
 40
0.0
 41
1.0
 50
0.0
 71
     0
 42
2.5
  3
txt
  4

  0
ENDTAB
  0
TABLE
  2
VIEW
  5
6
330
0
100
AcDbSymbolTable
 70
     0
  0
ENDTAB
  0
TABLE
  2
UCS
  5
7
330
0
100
AcDbSymbolTable
 70
     0
  0
ENDTAB
  0
TABLE
  2
APPID
  5
9
330
0
100
AcDbSymbolTable
 70
     2
  0
APPID
  5
12
330
9
100
AcDbSymbolTableRecord
100
AcDbRegAppTableRecord
  2
ACAD
 70
     0
  0
ENDTAB
  0
TABLE
  2
DIMSTYLE
  5
A
330
0
100
AcDbSymbolTable
 70
     1
  0
DIMSTYLE
105
27
330
A
100
AcDbSymbolTableRecord
100
AcDbDimStyleTableRecord
  2
ISO-25
 70
     0
  3

  4

  5

  6

  7

 40
1.0
 41
2.5
 42
0.625
 43
3.75
 44
1.25
 45
0.0
 46
0.0
 47
0.0
 48
0.0
140
2.5
141
2.5
142
0.0
143
0.03937007874016
144
1.0
145
0.0
146
1.0
147
0.625
 71
     0
 72
     0
 73
     0
 74
     0
 75
     0
 76
     0
 77
     1
 78
     8
170
     0
171
     3
172
     1
173
     0
174
     0
175
     0
176
     0
177
     0
178
     0
270
     2
271
     2
272
     2
273
     2
274
     3
340
11
275
     0
280
     0
281
     0
282
     0
283
     0
284
     8
285
     0
286
     0
287
     3
288
     0
  0
ENDTAB
  0
TABLE
  2
BLOCK_RECORD
  5
1
330
0
100
AcDbSymbolTable
 70
     1
  0
BLOCK_RECORD
  5
1F
330
1
100
AcDbSymbolTableRecord
100
AcDbBlockTableRecord
  2
*MODEL_SPACE
  0
BLOCK_RECORD
  5
1B
330
1
100
AcDbSymbolTableRecord
100
AcDbBlockTableRecord
  2
*PAPER_SPACE
  0
ENDTAB
  0
ENDSEC
  0
SECTION
  2
BLOCKS
  0
BLOCK
  5
20
330
1F
100
AcDbEntity
  8
0
100
AcDbBlockBegin
  2
*MODEL_SPACE
 70
     0
 10
0.0
 20
0.0
 30
0.0
  3
*MODEL_SPACE
  1

  0
ENDBLK
  5
21
330
1F
100
AcDbEntity
  8
0
100
AcDbBlockEnd
  0
BLOCK
  5
1C
330
1B
100
AcDbEntity
 67
     1
  8
0
100
AcDbBlockBegin
  2
*PAPER_SPACE
  1

  0
ENDBLK
  5
1D
330
1B
100
AcDbEntity
 67
     1
  8
0
100
AcDbBlockEnd
  0
ENDSEC
  0
SECTION
  2
ENTITIES
  0
SPLINE
  5
100
100
AcDbEntity
  8
Layer_1
 62
7
100
AcDbSpline
 70
8
 71
3
 72
8
 73
4
 74
0
 40
0
 40
0
 40
0
 40
0
 40
1
 40
1
 40
1
 40
1
 10
19.401958
 20
4.014246
 30
0.0
 10
18.871958
 20
2.634244
 30
0.0
 10
17.700957
 20
1.503244
 30
0.0
 10
16.059956
 20
1.503244
 30
0.0
  0
SPLINE
  5
101
100
AcDbEntity
  8
Layer_1
 62
7
100
AcDbSpline
 70
8
 71
3
 72
8
 73
4
 74
0
 40
0
 40
0
 40
0
 40
0
 40
1
 40
1
 40
1
 40
1
 10
16.059956
 20
1.503244
 30
0.0
 10
14.420955
 20
1.503244
 30
0.0
 10
13.121954
 20
2.867245
 30
0.0
 10
12.718953
 20
4.014246
 30
0.0
  0
LWPOLYLINE
  5
102
100
AcDbEntity
  8
Layer_1
 62
7
100
AcDbPolyline
 90
4
 70
0
 10
26.663964
 20
0.275243
 30
0.0
 10
25.182963
 20
18.826256
 30
0.0
 10
25.121962
 20
18.826256
 30
0.0
 10
19.401958
 20
4.014246
 30
0.0
  0
SPLINE
  5
103
100
AcDbEntity
  8
Layer_1
 62
7
100
AcDbSpline
 70
8
 71
3
 72
8
 73
4
 74
0
 40
0
 40
0
 40
0
 40
0
 40
1
 40
1
 40
1
 40
1
 10
2.786946
 20
26.429262
 30
0.0
 10
2.969946
 20
27.873263
 30
0.0
 10
4.153947
 20
29.517264
 30
0.0
 10
5.763948
 20
29.517264
 30
0.0
  0
SPLINE
  5
104
100
AcDbEntity
  8
Layer_1
 62
7
100
AcDbSpline
 70
8
 71
3
 72
8
 73
4
 74
0
 40
0
 40
0
 40
0
 40
0
 40
1
 40
1
 40
1
 40
1
 10
5.763948
 20
29.517264
 30
0.0
 10
8.231950
 20
29.517264
 30
0.0
 10
9.219951
 20
28.073263
 30
0.0
 10
9.711951
 20
26.629262
 30
0.0
  0
LWPOLYLINE
  5
105
100
AcDbEntity
  8
Layer_1
 62
7
100
AcDbPolyline
 90
6
 70
0
 10
12.718953
 20
4.014246
 30
0.0
 10
7.124949
 20
18.640256
 30
0.0
 10
7.064949
 20
18.640256
 30
0.0
 10
5.456948
 20
0.275243
 30
0.0
 10
-0.000056
 20
0.279243
 30
0.0
 10
2.786946
 20
26.429262
 30
0.0
  0
SPLINE
  5
106
100
AcDbEntity
  8
Layer_1
 62
7
100
AcDbSpline
 70
8
 71
3
 72
8
 73
4
 74
0
 40
0
 40
0
 40
0
 40
0
 40
1
 40
1
 40
1
 40
1
 10
22.407960
 20
26.629262
 30
0.0
 10
22.963961
 20
28.073263
 30
0.0
 10
23.920962
 20
29.517264
 30
0.0
 10
26.357963
 20
29.517264
 30
0.0
  0
SPLINE
  5
107
100
AcDbEntity
  8
Layer_1
 62
7
100
AcDbSpline
 70
8
 71
3
 72
8
 73
4
 74
0
 40
0
 40
0
 40
0
 40
0
 40
1
 40
1
 40
1
 40
1
 10
26.357963
 20
29.517264
 30
0.0
 10
27.967965
 20
29.517264
 30
0.0
 10
29.151965
 20
27.873263
 30
0.0
 10
29.333966
 20
26.092262
 30
0.0
  0
LWPOLYLINE
  5
108
100
AcDbEntity
  8
Layer_1
 62
7
100
AcDbPolyline
 90
4
 70
0
 10
9.711951
 20
26.629262
 30
0.0
 10
16.029956
 20
10.751250
 30
0.0
 10
16.090956
 20
10.751250
 30
0.0
 10
22.407960
 20
26.629262
 30
0.0
  0
LWPOLYLINE
  5
109
100
AcDbEntity
  8
Layer_1
 62
7
100
AcDbPolyline
 90
3
 70
0
 10
29.333966
 20
26.092262
 30
0.0
 10
32.095968
 20
0.279243
 30
0.0
 10
26.663964
 20
0.275243
 30
0.0
  0
LWPOLYLINE
  5
10a
100
AcDbEntity
  8
Layer_1
 62
7
100
AcDbPolyline
 90
4
 70
1
 10
34.982670
 20
22.392859
 30
0.0
 10
40.068674
 20
22.392859
 30
0.0
 10
40.068674
 20
0.277843
 30
0.0
 10
34.982670
 20
0.277843
 30
0.0
  0
SPLINE
  5
10b
100
AcDbEntity
  8
Layer_1
 62
7
100
AcDbSpline
 70
8
 71
3
 72
8
 73
4
 74
0
 40
0
 40
0
 40
0
 40
0
 40
1
 40
1
 40
1
 40
1
 10
42.884676
 20
14.634553
 30
0.0
 10
42.884676
 20
21.110558
 30
0.0
 10
45.363677
 20
22.637559
 30
0.0
 10
49.528681
 20
22.637559
 30
0.0
  0
LWPOLYLINE
  5
10c
100
AcDbEntity
  8
Layer_1
 62
7
100
AcDbPolyline
 90
4
 70
1
 10
155.283759
 20
22.392859
 30
0.0
 10
160.369762
 20
22.392859
 30
0.0
 10
160.369762
 20
0.277843
 30
0.0
 10
155.283759
 20
0.277843
 30
0.0
  0
SPLINE
  5
10d
100
AcDbEntity
  8
Layer_1
 62
7
100
AcDbSpline
 70
8
 71
3
 72
8
 73
4
 74
0
 40
0
 40
0
 40
0
 40
0
 40
1
 40
1
 40
1
 40
1
 10
54.963685
 20
22.637559
 30
0.0
 10
61.544689
 20
22.637559
 30
0.0
 10
62.399690
 20
23.065560
 30
0.0
 10
62.356690
 20
16.803555
 30
0.0
  0
LWPOLYLINE
  5
10e
100
AcDbEntity
  8
Layer_1
 62
7
100
AcDbPolyline
 90
2
 70
0
 10
49.528681
 20
22.637559
 30
0.0
 10
54.963685
 20
22.637559
 30
0.0
  0
SPLINE
  5
10f
100
AcDbEntity
  8
Layer_1
 62
7
100
AcDbSpline
 70
8
 71
3
 72
8
 73
4
 74
0
 40
0
 40
0
 40
0
 40
0
 40
1
 40
1
 40
1
 40
1
 10
50.437681
 20
16.823555
 30
0.0
 10
48.000679
 20
16.823555
 30
0.0
 10
47.633679
 20
15.276554
 30
0.0
 10
47.633679
 20
12.526552
 30
0.0
  0
LWPOLYLINE
  5
110
100
AcDbEntity
  8
Layer_1
 62
7
100
AcDbPolyline
 90
2
 70
0
 10
62.356690
 20
16.803555
 30
0.0
 10
50.437681
 20
16.823555
 30
0.0
  0
SPLINE
  5
111
100
AcDbEntity
  8
Layer_1
 62
7
100
AcDbSpline
 70
8
 71
3
 72
8
 73
4
 74
0
 40
0
 40
0
 40
0
 40
0
 40
1
 40
1
 40
1
 40
1
 10
47.633679
 20
10.144550
 30
0.0
 10
47.633679
 20
6.937548
 30
0.0
 10
48.091679
 20
5.715547
 30
0.0
 10
50.278681
 20
5.715547
 30
0.0
  0
LWPOLYLINE
  5
112
100
AcDbEntity
  8
Layer_1
 62
7
100
AcDbPolyline
 90
2
 70
0
 10
47.633679
 20
12.526552
 30
0.0
 10
47.633679
 20
10.144550
 30
0.0
  0
SPLINE
  5
113
100
AcDbEntity
  8
Layer_1
 62
7
100
AcDbSpline
 70
8
 71
3
 72
8
 73
4
 74
0
 40
0
 40
0
 40
0
 40
0
 40
1
 40
1
 40
1
 40
1
 10
62.543690
 20
5.725547
 30
0.0
 10
62.543690
 20
1.999544
 30
0.0
 10
62.494690
 20
0.033543
 30
0.0
 10
57.851687
 20
0.033543
 30
0.0
  0
LWPOLYLINE
  5
114
100
AcDbEntity
  8
Layer_1
 62
7
100
AcDbPolyline
 90
2
 70
0
 10
50.278681
 20
5.715547
 30
0.0
 10
62.543690
 20
5.725547
 30
0.0
  0
SPLINE
  5
115
100
AcDbEntity
  8
Layer_1
 62
7
100
AcDbSpline
 70
8
 71
3
 72
8
 73
4
 74
0
 40
0
 40
0
 40
0
 40
0
 40
1
 40
1
 40
1
 40
1
 10
49.528681
 20
0.033543
 30
0.0
 10
45.363677
 20
0.033543
 30
0.0
 10
42.884676
 20
1.561544
 30
0.0
 10
42.884676
 20
8.037548
 30
0.0
  0
LWPOLYLINE
  5
116
100
AcDbEntity
  8
Layer_1
 62
7
100
AcDbPolyline
 90
2
 70
0
 10
57.851687
 20
0.033543
 30
0.0
 10
49.528681
 20
0.033543
 30
0.0
  0
LWPOLYLINE
  5
117
100
AcDbEntity
  8
Layer_1
 62
7
100
AcDbPolyline
 90
2
 70
0
 10
42.884676
 20
8.037548
 30
0.0
 10
42.884676
 20
14.634553
 30
0.0
  0
SPLINE
  5
118
100
AcDbEntity
  8
Layer_1
 62
7
100
AcDbSpline
 70
8
 71
3
 72
8
 73
4
 74
0
 40
0
 40
0
 40
0
 40
0
 40
1
 40
1
 40
1
 40
1
 10
84.627506
 20
15.825854
 30
0.0
 10
84.627506
 20
19.796857
 30
0.0
 10
83.670506
 20
22.393859
 30
0.0
 10
80.109503
 20
22.393859
 30
0.0
  0
LWPOLYLINE
  5
119
100
AcDbEntity
  8
Layer_1
 62
7
100
AcDbPolyline
 90
2
 70
0
 10
84.627506
 20
14.420853
 30
0.0
 10
84.627506
 20
15.825854
 30
0.0
  0
SPLINE
  5
11a
100
AcDbEntity
  8
Layer_1
 62
7
100
AcDbSpline
 70
8
 71
3
 72
8
 73
4
 74
0
 40
0
 40
0
 40
0
 40
0
 40
1
 40
1
 40
1
 40
1
 10
78.047502
 20
6.021847
 30
0.0
 10
79.484503
 20
6.021847
 30
0.0
 10
79.941503
 20
5.256846
 30
0.0
 10
79.941503
 20
2.935845
 30
0.0
  0
LWPOLYLINE
  5
11b
100
AcDbEntity
  8
Layer_1
 62
7
100
AcDbPolyline
 90
6
 70
0
 10
80.109503
 20
22.393859
 30
0.0
 10
65.330492
 20
22.393859
 30
0.0
 10
65.330492
 20
0.278843
 30
0.0
 10
69.954496
 20
0.278843
 30
0.0
 10
69.954496
 20
6.021847
 30
0.0
 10
78.047502
 20
6.021847
 30
0.0
  0
SPLINE
  5
11c
100
AcDbEntity
  8
Layer_1
 62
7
100
AcDbSpline
 70
8
 71
3
 72
8
 73
4
 74
0
 40
0
 40
0
 40
0
 40
0
 40
1
 40
1
 40
1
 40
1
 10
84.566506
 20
4.034846
 30
0.0
 10
84.566506
 20
7.669848
 30
0.0
 10
83.420506
 20
8.555849
 30
0.0
 10
82.045505
 20
8.923849
 30
0.0
  0
LWPOLYLINE
  5
11d
100
AcDbEntity
  8
Layer_1
 62
7
100
AcDbPolyline
 90
4
 70
0
 10
79.941503
 20
2.935845
 30
0.0
 10
79.941503
 20
0.278843
 30
0.0
 10
84.566506
 20
0.278843
 30
0.0
 10
84.566506
 20
4.034846
 30
0.0
  0
SPLINE
  5
11e
100
AcDbEntity
  8
Layer_1
 62
7
100
AcDbSpline
 70
8
 71
3
 72
8
 73
4
 74
0
 40
0
 40
0
 40
0
 40
0
 40
1
 40
1
 40
1
 40
1
 10
82.045505
 20
8.983849
 30
0.0
 10
84.170506
 20
9.717850
 30
0.0
 10
84.627506
 20
11.458851
 30
0.0
 10
84.627506
 20
14.420853
 30
0.0
  0
SPLINE
  5
11f
100
AcDbEntity
  8
Layer_1
 62
7
100
AcDbSpline
 70
8
 71
3
 72
8
 73
4
 74
0
 40
0
 40
0
 40
0
 40
0
 40
1
 40
1
 40
1
 40
1
 10
80.129503
 20
13.839853
 30
0.0
 10
80.129503
 20
12.252852
 30
0.0
 10
79.671503
 20
11.518851
 30
0.0
 10
78.421502
 20
11.518851
 30
0.0
  0
LWPOLYLINE
  5
120
100
AcDbEntity
  8
Layer_1
 62
7
100
AcDbPolyline
 90
2
 70
0
 10
82.045505
 20
8.923849
 30
0.0
 10
82.045505
 20
8.983849
 30
0.0
  0
SPLINE
  5
121
100
AcDbEntity
  8
Layer_1
 62
7
100
AcDbSpline
 70
8
 71
3
 72
8
 73
4
 74
0
 40
0
 40
0
 40
0
 40
0
 40
1
 40
1
 40
1
 40
1
 10
78.005502
 20
16.895855
 30
0.0
 10
79.463503
 20
16.895855
 30
0.0
 10
80.129503
 20
16.527855
 30
0.0
 10
80.129503
 20
14.573853
 30
0.0
  0
LWPOLYLINE
  5
122
100
AcDbEntity
  8
Layer_1
 62
7
100
AcDbPolyline
 90
4
 70
0
 10
78.421502
 20
11.518851
 30
0.0
 10
69.954496
 20
11.518851
 30
0.0
 10
69.954496
 20
16.895855
 30
0.0
 10
78.005502
 20
16.895855
 30
0.0
  0
SPLINE
  5
123
100
AcDbEntity
  8
Layer_1
 62
7
100
AcDbSpline
 70
8
 71
3
 72
8
 73
4
 74
0
 40
0
 40
0
 40
0
 40
0
 40
1
 40
1
 40
1
 40
1
 10
87.416809
 20
14.634553
 30
0.0
 10
87.416809
 20
21.110558
 30
0.0
 10
89.894810
 20
22.637559
 30
0.0
 10
94.059813
 20
22.637559
 30
0.0
  0
LWPOLYLINE
  5
124
100
AcDbEntity
  8
Layer_1
 62
7
100
AcDbPolyline
 90
2
 70
0
 10
80.129503
 20
14.573853
 30
0.0
 10
80.129503
 20
13.839853
 30
0.0
  0
SPLINE
  5
125
100
AcDbEntity
  8
Layer_1
 62
7
100
AcDbSpline
 70
8
 71
3
 72
8
 73
4
 74
0
 40
0
 40
0
 40
0
 40
0
 40
1
 40
1
 40
1
 40
1
 10
101.473819
 20
22.637559
 30
0.0
 10
105.638822
 20
22.637559
 30
0.0
 10
108.116824
 20
21.110558
 30
0.0
 10
108.116824
 20
14.634553
 30
0.0
  0
LWPOLYLINE
  5
126
100
AcDbEntity
  8
Layer_1
 62
7
100
AcDbPolyline
 90
2
 70
0
 10
94.059813
 20
22.637559
 30
0.0
 10
101.473819
 20
22.637559
 30
0.0
  0
SPLINE
  5
127
100
AcDbEntity
  8
Layer_1
 62
7
100
AcDbSpline
 70
8
 71
3
 72
8
 73
4
 74
0
 40
0
 40
0
 40
0
 40
0
 40
1
 40
1
 40
1
 40
1
 10
108.116824
 20
8.037548
 30
0.0
 10
108.116824
 20
1.561544
 30
0.0
 10
105.638822
 20
0.033543
 30
0.0
 10
101.473819
 20
0.033543
 30
0.0
  0
LWPOLYLINE
  5
128
100
AcDbEntity
  8
Layer_1
 62
7
100
AcDbPolyline
 90
2
 70
0
 10
108.116824
 20
14.634553
 30
0.0
 10
108.116824
 20
8.037548
 30
0.0
  0
SPLINE
  5
129
100
AcDbEntity
  8
Layer_1
 62
7
100
AcDbSpline
 70
8
 71
3
 72
8
 73
4
 74
0
 40
0
 40
0
 40
0
 40
0
 40
1
 40
1
 40
1
 40
1
 10
94.059813
 20
0.033543
 30
0.0
 10
89.894810
 20
0.033543
 30
0.0
 10
87.416809
 20
1.561544
 30
0.0
 10
87.416809
 20
8.037548
 30
0.0
  0
LWPOLYLINE
  5
12a
100
AcDbEntity
  8
Layer_1
 62
7
100
AcDbPolyline
 90
2
 70
0
 10
101.473819
 20
0.033543
 30
0.0
 10
94.059813
 20
0.033543
 30
0.0
  0
SPLINE
  5
12b
100
AcDbEntity
  8
Layer_1
 62
7
100
AcDbSpline
 70
8
 71
3
 72
8
 73
4
 74
0
 40
0
 40
0
 40
0
 40
0
 40
1
 40
1
 40
1
 40
1
 10
92.164812
 20
10.144550
 30
0.0
 10
92.164812
 20
6.937548
 30
0.0
 10
92.623812
 20
5.715547
 30
0.0
 10
94.809814
 20
5.715547
 30
0.0
  0
LWPOLYLINE
  5
12c
100
AcDbEntity
  8
Layer_1
 62
7
100
AcDbPolyline
 90
2
 70
0
 10
87.416809
 20
8.037548
 30
0.0
 10
87.416809
 20
14.634553
 30
0.0
  0
SPLINE
  5
12d
100
AcDbEntity
  8
Layer_1
 62
7
100
AcDbSpline
 70
8
 71
3
 72
8
 73
4
 74
0
 40
0
 40
0
 40
0
 40
0
 40
1
 40
1
 40
1
 40
1
 10
100.724818
 20
5.715547
 30
0.0
 10
102.910820
 20
5.715547
 30
0.0
 10
103.368820
 20
6.937548
 30
0.0
 10
103.368820
 20
10.144550
 30
0.0
  0
LWPOLYLINE
  5
12e
100
AcDbEntity
  8
Layer_1
 62
7
100
AcDbPolyline
 90
2
 70
0
 10
94.809814
 20
5.715547
 30
0.0
 10
100.724818
 20
5.715547
 30
0.0
  0
SPLINE
  5
12f
100
AcDbEntity
  8
Layer_1
 62
7
100
AcDbSpline
 70
8
 71
3
 72
8
 73
4
 74
0
 40
0
 40
0
 40
0
 40
0
 40
1
 40
1
 40
1
 40
1
 10
103.368820
 20
12.526552
 30
0.0
 10
103.368820
 20
15.276554
 30
0.0
 10
102.910820
 20
16.956555
 30
0.0
 10
100.473818
 20
16.956555
 30
0.0
  0
LWPOLYLINE
  5
130
100
AcDbEntity
  8
Layer_1
 62
7
100
AcDbPolyline
 90
2
 70
0
 10
103.368820
 20
10.144550
 30
0.0
 10
103.368820
 20
12.526552
 30
0.0
  0
SPLINE
  5
131
100
AcDbEntity
  8
Layer_1
 62
7
100
AcDbSpline
 70
8
 71
3
 72
8
 73
4
 74
0
 40
0
 40
0
 40
0
 40
0
 40
1
 40
1
 40
1
 40
1
 10
95.059814
 20
16.956555
 30
0.0
 10
92.623812
 20
16.956555
 30
0.0
 10
92.164812
 20
15.276554
 30
0.0
 10
92.164812
 20
12.526552
 30
0.0
  0
LWPOLYLINE
  5
132
100
AcDbEntity
  8
Layer_1
 62
7
100
AcDbPolyline
 90
2
 70
0
 10
100.473818
 20
16.956555
 30
0.0
 10
95.059814
 20
16.956555
 30
0.0
  0
LWPOLYLINE
  5
133
100
AcDbEntity
  8
Layer_1
 62
7
100
AcDbPolyline
 90
2
 70
0
 10
92.164812
 20
12.526552
 30
0.0
 10
92.164812
 20
10.144550
 30
0.0
  0
LWPOLYLINE
  5
134
100
AcDbEntity
  8
Layer_1
 62
7
100
AcDbPolyline
 90
12
 70
1
 10
133.018442
 20
22.393359
 30
0.0
 10
137.640446
 20
22.393359
 30
0.0
 10
137.640446
 20
14.512353
 30
0.0
 10
147.388453
 20
14.512353
 30
0.0
 10
147.388453
 20
22.393359
 30
0.0
 10
152.011456
 20
22.393359
 30
0.0
 10
152.011456
 20
0.278343
 30
0.0
 10
147.388453
 20
0.278343
 30
0.0
 10
147.388453
 20
8.648349
 30
0.0
 10
137.640446
 20
8.648349
 30
0.0
 10
137.640446
 20
0.278343
 30
0.0
 10
133.018442
 20
0.278343
 30
0.0
  0
SPLINE
  5
135
100
AcDbEntity
  8
Layer_1
 62
7
100
AcDbSpline
 70
8
 71
3
 72
8
 73
4
 74
0
 40
0
 40
0
 40
0
 40
0
 40
1
 40
1
 40
1
 40
1
 10
178.876876
 20
5.837347
 30
0.0
 10
182.147879
 20
5.837347
 30
0.0
 10
183.125879
 20
9.626350
 30
0.0
 10
183.125879
 20
12.923352
 30
0.0
  0
LWPOLYLINE
  5
136
100
AcDbEntity
  8
Layer_1
 62
7
100
AcDbPolyline
 90
6
 70
0
 10
177.669875
 20
22.393359
 30
0.0
 10
163.378865
 20
22.393359
 30
0.0
 10
163.378865
 20
0.278343
 30
0.0
 10
168.001868
 20
0.278343
 30
0.0
 10
168.001868
 20
5.837347
 30
0.0
 10
178.876876
 20
5.837347
 30
0.0
  0
SPLINE
  5
137
100
AcDbEntity
  8
Layer_1
 62
7
100
AcDbSpline
 70
8
 71
3
 72
8
 73
4
 74
0
 40
0
 40
0
 40
0
 40
0
 40
1
 40
1
 40
1
 40
1
 10
183.125879
 20
14.818353
 30
0.0
 10
183.125879
 20
19.155357
 30
0.0
 10
182.063878
 20
22.393359
 30
0.0
 10
177.669875
 20
22.393359
 30
0.0
  0
SPLINE
  5
138
100
AcDbEntity
  8
Layer_1
 62
7
100
AcDbSpline
 70
8
 71
3
 72
8
 73
4
 74
0
 40
0
 40
0
 40
0
 40
0
 40
1
 40
1
 40
1
 40
1
 10
178.377876
 20
13.688353
 30
0.0
 10
178.377876
 20
12.374352
 30
0.0
 10
177.961875
 20
11.336351
 30
0.0
 10
176.877875
 20
11.336351
 30
0.0
  0
LWPOLYLINE
  5
139
100
AcDbEntity
  8
Layer_1
 62
7
100
AcDbPolyline
 90
2
 70
0
 10
183.125879
 20
12.923352
 30
0.0
 10
183.125879
 20
14.818353
 30
0.0
  0
SPLINE
  5
13a
100
AcDbEntity
  8
Layer_1
 62
7
100
AcDbSpline
 70
8
 71
3
 72
8
 73
4
 74
0
 40
0
 40
0
 40
0
 40
0
 40
1
 40
1
 40
1
 40
1
 10
176.482874
 20
16.895355
 30
0.0
 10
177.877875
 20
16.895355
 30
0.0
 10
178.377876
 20
16.040354
 30
0.0
 10
178.377876
 20
14.543353
 30
0.0
  0
LWPOLYLINE
  5
13b
100
AcDbEntity
  8
Layer_1
 62
7
100
AcDbPolyline
 90
4
 70
0
 10
176.877875
 20
11.336351
 30
0.0
 10
168.001868
 20
11.336351
 30
0.0
 10
168.001868
 20
16.895355
 30
0.0
 10
176.482874
 20
16.895355
 30
0.0
  0
SPLINE
  5
13c
100
AcDbEntity
  8
Layer_1
 62
7
100
AcDbSpline
 70
8
 71
3
 72
8
 73
4
 74
0
 40
0
 40
0
 40
0
 40
0
 40
1
 40
1
 40
1
 40
1
 10
110.627126
 20
14.600853
 30
0.0
 10
110.627126
 20
21.076858
 30
0.0
 10
113.105128
 20
22.603859
 30
0.0
 10
117.270131
 20
22.603859
 30
0.0
  0
LWPOLYLINE
  5
13d
100
AcDbEntity
  8
Layer_1
 62
7
100
AcDbPolyline
 90
2
 70
0
 10
178.377876
 20
14.543353
 30
0.0
 10
178.377876
 20
13.688353
 30
0.0
  0
SPLINE
  5
13e
100
AcDbEntity
  8
Layer_1
 62
7
100
AcDbSpline
 70
8
 71
3
 72
8
 73
4
 74
0
 40
0
 40
0
 40
0
 40
0
 40
1
 40
1
 40
1
 40
1
 10
122.706135
 20
22.603859
 30
0.0
 10
129.287139
 20
22.603859
 30
0.0
 10
130.113140
 20
23.032860
 30
0.0
 10
130.071140
 20
16.769855
 30
0.0
  0
LWPOLYLINE
  5
13f
100
AcDbEntity
  8
Layer_1
 62
7
100
AcDbPolyline
 90
2
 70
0
 10
117.270131
 20
22.603859
 30
0.0
 10
122.706135
 20
22.603859
 30
0.0
  0
SPLINE
  5
140
100
AcDbEntity
  8
Layer_1
 62
7
100
AcDbSpline
 70
8
 71
3
 72
8
 73
4
 74
0
 40
0
 40
0
 40
0
 40
0
 40
1
 40
1
 40
1
 40
1
 10
118.180131
 20
16.790855
 30
0.0
 10
115.742129
 20
16.790855
 30
0.0
 10
115.375129
 20
15.242854
 30
0.0
 10
115.375129
 20
12.493852
 30
0.0
  0
LWPOLYLINE
  5
141
100
AcDbEntity
  8
Layer_1
 62
7
100
AcDbPolyline
 90
2
 70
0
 10
130.071140
 20
16.769855
 30
0.0
 10
118.180131
 20
16.790855
 30
0.0
  0
SPLINE
  5
142
100
AcDbEntity
  8
Layer_1
 62
7
100
AcDbSpline
 70
8
 71
3
 72
8
 73
4
 74
0
 40
0
 40
0
 40
0
 40
0
 40
1
 40
1
 40
1
 40
1
 10
115.375129
 20
10.111850
 30
0.0
 10
115.375129
 20
6.903848
 30
0.0
 10
115.834130
 20
5.682847
 30
0.0
 10
118.020131
 20
5.682847
 30
0.0
  0
LWPOLYLINE
  5
143
100
AcDbEntity
  8
Layer_1
 62
7
100
AcDbPolyline
 90
2
 70
0
 10
115.375129
 20
12.493852
 30
0.0
 10
115.375129
 20
10.111850
 30
0.0
  0
SPLINE
  5
144
100
AcDbEntity
  8
Layer_1
 62
7
100
AcDbSpline
 70
8
 71
3
 72
8
 73
4
 74
0
 40
0
 40
0
 40
0
 40
0
 40
1
 40
1
 40
1
 40
1
 10
130.286140
 20
5.692847
 30
0.0
 10
130.286140
 20
1.965844
 30
0.0
 10
130.238140
 20
-0.000157
 30
0.0
 10
125.594137
 20
-0.000157
 30
0.0
  0
LWPOLYLINE
  5
145
100
AcDbEntity
  8
Layer_1
 62
7
100
AcDbPolyline
 90
2
 70
0
 10
118.020131
 20
5.682847
 30
0.0
 10
130.286140
 20
5.692847
 30
0.0
  0
SPLINE
  5
146
100
AcDbEntity
  8
Layer_1
 62
7
100
AcDbSpline
 70
8
 71
3
 72
8
 73
4
 74
0
 40
0
 40
0
 40
0
 40
0
 40
1
 40
1
 40
1
 40
1
 10
117.270131
 20
-0.000157
 30
0.0
 10
113.105128
 20
-0.000157
 30
0.0
 10
110.627126
 20
1.527844
 30
0.0
 10
110.627126
 20
8.004848
 30
0.0
  0
LWPOLYLINE
  5
147
100
AcDbEntity
  8
Layer_1
 62
7
100
AcDbPolyline
 90
2
 70
0
 10
125.594137
 20
-0.000157
 30
0.0
 10
117.270131
 20
-0.000157
 30
0.0
  0
SPLINE
  5
148
100
AcDbEntity
  8
Layer_1
 62
7
100
AcDbSpline
 70
8
 71
3
 72
8
 73
4
 74
0
 40
0
 40
0
 40
0
 40
0
 40
1
 40
1
 40
1
 40
1
 10
106.721073
 20
87.765047
 30
0.0
 10
102.765070
 20
89.632049
 30
0.0
 10
99.107067
 20
90.558049
 30
0.0
 10
94.399064
 20
90.641050
 30
0.0
  0
SPLINE
  5
149
100
AcDbEntity
  8
Layer_1
 62
7
100
AcDbSpline
 70
8
 71
3
 72
8
 73
4
 74
0
 40
0
 40
0
 40
0
 40
0
 40
1
 40
1
 40
1
 40
1
 10
94.399064
 20
90.641050
 30
0.0
 10
77.428051
 20
90.936050
 30
0.0
 10
63.441041
 20
78.105040
 30
0.0
 10
63.159041
 20
61.982028
 30
0.0
  0
SPLINE
  5
14a
100
AcDbEntity
  8
Layer_1
 62
7
100
AcDbSpline
 70
8
 71
3
 72
8
 73
4
 74
0
 40
0
 40
0
 40
0
 40
0
 40
1
 40
1
 40
1
 40
1
 10
63.159041
 20
61.982028
 30
0.0
 10
63.111041
 20
59.190026
 30
0.0
 10
63.476041
 20
56.483024
 30
0.0
 10
64.202041
 20
53.912022
 30
0.0
  0
LWPOLYLINE
  5
14b
100
AcDbEntity
  8
Layer_1
 62
7
100
AcDbPolyline
 90
2
 70
0
 10
110.627126
 20
8.004848
 30
0.0
 10
110.627126
 20
14.600853
 30
0.0
  0
SPLINE
  5
14c
100
AcDbEntity
  8
Layer_1
 62
7
100
AcDbSpline
 70
8
 71
3
 72
8
 73
4
 74
0
 40
0
 40
0
 40
0
 40
0
 40
1
 40
1
 40
1
 40
1
 10
78.915052
 20
56.914025
 30
0.0
 10
78.915052
 20
56.914025
 30
0.0
 10
80.700054
 20
54.890023
 30
0.0
 10
79.346053
 20
52.843022
 30
0.0
  0
SPLINE
  5
14d
100
AcDbEntity
  8
Layer_1
 62
7
100
AcDbSpline
 70
8
 71
3
 72
8
 73
4
 74
0
 40
0
 40
0
 40
0
 40
0
 40
1
 40
1
 40
1
 40
1
 10
79.346053
 20
52.843022
 30
0.0
 10
79.262052
 20
52.715021
 30
0.0
 10
71.287047
 20
41.699013
 30
0.0
 10
71.287047
 20
41.699013
 30
0.0
  0
SPLINE
  5
14e
100
AcDbEntity
  8
Layer_1
 62
7
100
AcDbSpline
 70
8
 71
3
 72
8
 73
4
 74
0
 40
0
 40
0
 40
0
 40
0
 40
1
 40
1
 40
1
 40
1
 10
71.287047
 20
41.699013
 30
0.0
 10
76.795051
 20
35.928009
 30
0.0
 10
84.544056
 20
32.405006
 30
0.0
 10
93.381063
 20
32.251006
 30
0.0
  0
SPLINE
  5
14f
100
AcDbEntity
  8
Layer_1
 62
7
100
AcDbSpline
 70
8
 71
3
 72
8
 73
4
 74
0
 40
0
 40
0
 40
0
 40
0
 40
1
 40
1
 40
1
 40
1
 10
93.381063
 20
32.251006
 30
0.0
 10
101.954069
 20
32.100006
 30
0.0
 10
109.607075
 20
35.227009
 30
0.0
 10
115.274079
 20
40.508012
 30
0.0
  0
LWPOLYLINE
  5
150
100
AcDbEntity
  8
Layer_1
 62
7
100
AcDbPolyline
 90
3
 70
0
 10
64.202041
 20
53.912022
 30
0.0
 10
72.975048
 20
66.211031
 30
0.0
 10
78.915052
 20
56.914025
 30
0.0
  0
SPLINE
  5
151
100
AcDbEntity
  8
Layer_1
 62
7
100
AcDbSpline
 70
8
 71
3
 72
8
 73
4
 74
0
 40
0
 40
0
 40
0
 40
0
 40
1
 40
1
 40
1
 40
1
 10
96.614065
 20
69.962034
 30
0.0
 10
96.614065
 20
69.962034
 30
0.0
 10
99.557067
 20
74.092037
 30
0.0
 10
101.858069
 20
77.365040
 30
0.0
  0
SPLINE
  5
152
100
AcDbEntity
  8
Layer_1
 62
7
100
AcDbSpline
 70
8
 71
3
 72
8
 73
4
 74
0
 40
0
 40
0
 40
0
 40
0
 40
1
 40
1
 40
1
 40
1
 10
101.858069
 20
77.365040
 30
0.0
 10
104.392071
 20
80.967042
 30
0.0
 10
106.673073
 20
78.452040
 30
0.0
 10
107.434073
 20
77.261040
 30
0.0
  0
SPLINE
  5
153
100
AcDbEntity
  8
Layer_1
 62
7
100
AcDbSpline
 70
8
 71
3
 72
8
 73
4
 74
0
 40
0
 40
0
 40
0
 40
0
 40
1
 40
1
 40
1
 40
1
 10
107.434073
 20
77.261040
 30
0.0
 10
112.905077
 20
68.683033
 30
0.0
 10
123.171085
 20
52.414021
 30
0.0
 10
123.171085
 20
52.414021
 30
0.0
  0
LWPOLYLINE
  5
154
100
AcDbEntity
  8
Layer_1
 62
7
100
AcDbPolyline
 90
2
 70
0
 10
115.274079
 20
40.508012
 30
0.0
 10
96.614065
 20
69.962034
 30
0.0
  0
SPLINE
  5
155
100
AcDbEntity
  8
Layer_1
 62
7
100
AcDbSpline
 70
8
 71
3
 72
8
 73
4
 74
0
 40
0
 40
0
 40
0
 40
0
 40
1
 40
1
 40
1
 40
1
 10
123.176085
 20
52.508021
 30
0.0
 10
124.228086
 20
54.927023
 30
0.0
 10
124.767086
 20
55.660024
 30
0.0
 10
124.880086
 20
59.144026
 30
0.0
  0
LWPOLYLINE
  5
156
100
AcDbEntity
  8
Layer_1
 62
7
100
AcDbPolyline
 90
2
 70
0
 10
123.171085
 20
52.414021
 30
0.0
 10
123.176085
 20
52.508021
 30
0.0
  0
SPLINE
  5
157
100
AcDbEntity
  8
Layer_1
 62
7
100
AcDbSpline
 70
8
 71
3
 72
8
 73
4
 74
0
 40
0
 40
0
 40
0
 40
0
 40
1
 40
1
 40
1
 40
1
 10
102.294070
 20
52.496021
 30
0.0
 10
102.294070
 20
52.496021
 30
0.0
 10
97.327066
 20
45.252016
 30
0.0
 10
96.818065
 20
44.561015
 30
0.0
  0
SPLINE
  5
158
100
AcDbEntity
  8
Layer_1
 62
7
100
AcDbSpline
 70
8
 71
3
 72
8
 73
4
 74
0
 40
0
 40
0
 40
0
 40
0
 40
1
 40
1
 40
1
 40
1
 10
96.818065
 20
44.561015
 30
0.0
 10
93.779063
 20
40.432012
 30
0.0
 10
91.544062
 20
45.199016
 30
0.0
 10
91.544062
 20
45.199016
 30
0.0
  0
LWPOLYLINE
  5
159
100
AcDbEntity
  8
Layer_1
 62
7
100
AcDbPolyline
 90
2
 70
0
 10
124.880086
 20
59.144026
 30
0.0
 10
106.721073
 20
87.765047
 30
0.0
  0
SPLINE
  5
15a
100
AcDbEntity
  8
Layer_1
 62
7
100
AcDbSpline
 70
8
 71
3
 72
8
 73
4
 74
0
 40
0
 40
0
 40
0
 40
0
 40
1
 40
1
 40
1
 40
1
 10
75.738050
 20
70.045034
 30
0.0
 10
75.738050
 20
70.045034
 30
0.0
 10
78.680052
 20
74.174037
 30
0.0
 10
80.983054
 20
77.447040
 30
0.0
  0
SPLINE
  5
15b
100
AcDbEntity
  8
Layer_1
 62
7
100
AcDbSpline
 70
8
 71
3
 72
8
 73
4
 74
0
 40
0
 40
0
 40
0
 40
0
 40
1
 40
1
 40
1
 40
1
 10
80.983054
 20
77.447040
 30
0.0
 10
83.516056
 20
81.050042
 30
0.0
 10
85.797057
 20
78.534041
 30
0.0
 10
86.558058
 20
77.343040
 30
0.0
  0
SPLINE
  5
15c
100
AcDbEntity
  8
Layer_1
 62
7
100
AcDbSpline
 70
8
 71
3
 72
8
 73
4
 74
0
 40
0
 40
0
 40
0
 40
0
 40
1
 40
1
 40
1
 40
1
 10
86.558058
 20
77.343040
 30
0.0
 10
92.029062
 20
68.766033
 30
0.0
 10
102.294070
 20
52.496021
 30
0.0
 10
102.294070
 20
52.496021
 30
0.0
  0
SPLINE
  5
15d
100
AcDbEntity
  8
Layer_1
 62
7
100
AcDbSpline
 70
8
 71
3
 72
8
 73
4
 74
0
 40
0
 40
0
 40
0
 40
0
 40
1
 40
1
 40
1
 40
1
 10
112.062377
 20
87.720047
 30
0.0
 10
112.062377
 20
89.081048
 30
0.0
 10
113.165378
 20
90.081049
 30
0.0
 10
114.467379
 20
90.081049
 30
0.0
  0
SPLINE
  5
15e
100
AcDbEntity
  8
Layer_1
 62
7
100
AcDbSpline
 70
8
 71
3
 72
8
 73
4
 74
0
 40
0
 40
0
 40
0
 40
0
 40
1
 40
1
 40
1
 40
1
 10
114.467379
 20
90.081049
 30
0.0
 10
115.758379
 20
90.081049
 30
0.0
 10
116.859380
 20
89.081048
 30
0.0
 10
116.859380
 20
87.720047
 30
0.0
  0
SPLINE
  5
15f
100
AcDbEntity
  8
Layer_1
 62
7
100
AcDbSpline
 70
8
 71
3
 72
8
 73
4
 74
0
 40
0
 40
0
 40
0
 40
0
 40
1
 40
1
 40
1
 40
1
 10
116.859380
 20
87.720047
 30
0.0
 10
116.859380
 20
86.350046
 30
0.0
 10
115.758379
 20
85.348046
 30
0.0
 10
114.467379
 20
85.348046
 30
0.0
  0
SPLINE
  5
160
100
AcDbEntity
  8
Layer_1
 62
7
100
AcDbSpline
 70
8
 71
3
 72
8
 73
4
 74
0
 40
0
 40
0
 40
0
 40
0
 40
1
 40
1
 40
1
 40
1
 10
114.467379
 20
85.348046
 30
0.0
 10
113.165378
 20
85.348046
 30
0.0
 10
112.062377
 20
86.350046
 30
0.0
 10
112.062377
 20
87.720047
 30
0.0
  0
SPLINE
  5
161
100
AcDbEntity
  8
Layer_1
 62
7
100
AcDbSpline
 70
8
 71
3
 72
8
 73
4
 74
0
 40
0
 40
0
 40
0
 40
0
 40
1
 40
1
 40
1
 40
1
 10
114.467379
 20
85.743046
 30
0.0
 10
115.538379
 20
85.743046
 30
0.0
 10
116.383380
 20
86.583047
 30
0.0
 10
116.383380
 20
87.720047
 30
0.0
  0
SPLINE
  5
162
100
AcDbEntity
  8
Layer_1
 62
7
100
AcDbSpline
 70
8
 71
3
 72
8
 73
4
 74
0
 40
0
 40
0
 40
0
 40
0
 40
1
 40
1
 40
1
 40
1
 10
116.383380
 20
87.720047
 30
0.0
 10
116.383380
 20
88.841048
 30
0.0
 10
115.538379
 20
89.687049
 30
0.0
 10
114.467379
 20
89.687049
 30
0.0
  0
SPLINE
  5
163
100
AcDbEntity
  8
Layer_1
 62
7
100
AcDbSpline
 70
8
 71
3
 72
8
 73
4
 74
0
 40
0
 40
0
 40
0
 40
0
 40
1
 40
1
 40
1
 40
1
 10
114.467379
 20
89.687049
 30
0.0
 10
113.384378
 20
89.687049
 30
0.0
 10
112.538377
 20
88.841048
 30
0.0
 10
112.538377
 20
87.720047
 30
0.0
  0
SPLINE
  5
164
100
AcDbEntity
  8
Layer_1
 62
7
100
AcDbSpline
 70
8
 71
3
 72
8
 73
4
 74
0
 40
0
 40
0
 40
0
 40
0
 40
1
 40
1
 40
1
 40
1
 10
112.538377
 20
87.720047
 30
0.0
 10
112.538377
 20
86.583047
 30
0.0
 10
113.384378
 20
85.743046
 30
0.0
 10
114.467379
 20
85.743046
 30
0.0
  0
LWPOLYLINE
  5
165
100
AcDbEntity
  8
Layer_1
 62
7
100
AcDbPolyline
 90
2
 70
0
 10
91.544062
 20
45.199016
 30
0.0
 10
75.738050
 20
70.045034
 30
0.0
  0
SPLINE
  5
166
100
AcDbEntity
  8
Layer_1
 62
7
100
AcDbSpline
 70
8
 71
3
 72
8
 73
4
 74
0
 40
0
 40
0
 40
0
 40
0
 40
1
 40
1
 40
1
 40
1
 10
114.592379
 20
89.081048
 30
0.0
 10
115.237379
 20
89.081048
 30
0.0
 10
115.558379
 20
88.841048
 30
0.0
 10
115.558379
 20
88.303048
 30
0.0
  0
SPLINE
  5
167
100
AcDbEntity
  8
Layer_1
 62
7
100
AcDbSpline
 70
8
 71
3
 72
8
 73
4
 74
0
 40
0
 40
0
 40
0
 40
0
 40
1
 40
1
 40
1
 40
1
 10
115.558379
 20
88.303048
 30
0.0
 10
115.558379
 20
87.814047
 30
0.0
 10
115.250379
 20
87.601047
 30
0.0
 10
114.850379
 20
87.551047
 30
0.0
  0
LWPOLYLINE
  5
168
100
AcDbEntity
  8
Layer_1
 62
7
100
AcDbPolyline
 90
4
 70
0
 10
113.967378
 20
86.350046
 30
0.0
 10
113.553378
 20
86.350046
 30
0.0
 10
113.553378
 20
89.081048
 30
0.0
 10
114.592379
 20
89.081048
 30
0.0
  0
SPLINE
  5
169
100
AcDbEntity
  8
Layer_1
 62
7
100
AcDbSpline
 70
8
 71
3
 72
8
 73
4
 74
0
 40
0
 40
0
 40
0
 40
0
 40
1
 40
1
 40
1
 40
1
 10
114.462379
 20
87.883047
 30
0.0
 10
114.812379
 20
87.883047
 30
0.0
 10
115.124379
 20
87.909047
 30
0.0
 10
115.124379
 20
88.329048
 30
0.0
  0
SPLINE
  5
16a
100
AcDbEntity
  8
Layer_1
 62
7
100
AcDbSpline
 70
8
 71
3
 72
8
 73
4
 74
0
 40
0
 40
0
 40
0
 40
0
 40
1
 40
1
 40
1
 40
1
 10
115.124379
 20
88.329048
 30
0.0
 10
115.124379
 20
88.665048
 30
0.0
 10
114.818379
 20
88.730048
 30
0.0
 10
114.529379
 20
88.730048
 30
0.0
  0
LWPOLYLINE
  5
16b
100
AcDbEntity
  8
Layer_1
 62
7
100
AcDbPolyline
 90
6
 70
0
 10
114.850379
 20
87.551047
 30
0.0
 10
115.626379
 20
86.350046
 30
0.0
 10
115.162379
 20
86.350046
 30
0.0
 10
114.442378
 20
87.534047
 30
0.0
 10
113.967378
 20
87.534047
 30
0.0
 10
113.967378
 20
86.350046
 30
0.0
  0
LWPOLYLINE
  5
16c
100
AcDbEntity
  8
Layer_1
 62
7
100
AcDbPolyline
 90
4
 70
0
 10
114.529379
 20
88.730048
 30
0.0
 10
113.967378
 20
88.730048
 30
0.0
 10
113.967378
 20
87.883047
 30
0.0
 10
114.462379
 20
87.883047
 30
0.0
  0
ENDSEC
  0
SECTION
  2
OBJECTS
  0
DICTIONARY
  5
C
330
0
100
AcDbDictionary
  3
ACAD_GROUP
350
D
  3
ACAD_MLINESTYLE
350
17
  0
DICTIONARY
  5
D
330
C
100
AcDbDictionary
  0
DICTIONARY
  5
1A
330
C
100
AcDbDictionary
  0
DICTIONARY
  5
17
330
C
100
AcDbDictionary
  3
STANDARD
350
18
  0
DICTIONARY
  5
19
330
C
100
AcDbDictionary
  0
ENDSEC
  0
EOF
