<?xml version="1.0" encoding="UTF-8" standalone="no"?>
<!-- Created with Inkscape (http://www.inkscape.org/) -->

<svg
   width="244.16772"
   height="122.8751"
   viewBox="0 0 64.602708 32.510702"
   version="1.1"
   id="svg257"
   inkscape:version="1.1 (c68e22c387, 2021-05-23)"
   sodipodi:docname="Microchip_logo.svg"
   xmlns:inkscape="http://www.inkscape.org/namespaces/inkscape"
   xmlns:sodipodi="http://sodipodi.sourceforge.net/DTD/sodipodi-0.dtd"
   xmlns="http://www.w3.org/2000/svg"
   xmlns:svg="http://www.w3.org/2000/svg"
   xmlns:rdf="http://www.w3.org/1999/02/22-rdf-syntax-ns#"
   xmlns:cc="http://creativecommons.org/ns#"
   xmlns:dc="http://purl.org/dc/elements/1.1/">
  <defs
     id="defs251">
    <marker
       style="overflow:visible"
       id="Arrow1Lstart"
       refX="0.0"
       refY="0.0"
       orient="auto"
       inkscape:stockid="Arrow1Lstart"
       inkscape:isstock="true">
      <path
         transform="scale(0.8) translate(12.5,0)"
         style="fill-rule:evenodd;fill:context-stroke;stroke:context-stroke;stroke-width:1.0pt"
         d="M 0.0,0.0 L 5.0,-5.0 L -12.5,0.0 L 5.0,5.0 L 0.0,0.0 z "
         id="path1411" />
    </marker>
    <clipPath
       id="clipPath44"
       clipPathUnits="userSpaceOnUse">
      <path
         inkscape:connector-curvature="0"
         id="path42"
         d="m 39.992,40.364 h 252.88 V 99.2 H 39.992 Z" />
    </clipPath>
  </defs>
  <sodipodi:namedview
     id="base"
     pagecolor="#ffffff"
     bordercolor="#666666"
     borderopacity="1.0"
     inkscape:pageopacity="0.0"
     inkscape:pageshadow="2"
     inkscape:zoom="4.7580252"
     inkscape:cx="121.2688"
     inkscape:cy="70.512447"
     inkscape:document-units="mm"
     inkscape:current-layer="g38"
     showgrid="false"
     fit-margin-top="0"
     fit-margin-left="0"
     fit-margin-right="0"
     fit-margin-bottom="0"
     units="px"
     inkscape:window-width="1920"
     inkscape:window-height="1001"
     inkscape:window-x="-9"
     inkscape:window-y="-9"
     inkscape:window-maximized="1"
     inkscape:pagecheckerboard="0" />
  <metadata
     id="metadata254">
    <rdf:RDF>
      <cc:Work
         rdf:about="">
        <dc:format>image/svg+xml</dc:format>
        <dc:type
           rdf:resource="http://purl.org/dc/dcmitype/StillImage" />
      </cc:Work>
    </rdf:RDF>
  </metadata>
  <g
     inkscape:label="Layer 1"
     inkscape:groupmode="layer"
     id="layer1"
     transform="translate(-49.806986,-152.31177)">
    <g
       id="g38"
       transform="matrix(0.35277777,0,0,-0.35277777,11.090931,205.6667)">
      <path
         d="m 136.4103,59.3614 -1.481,18.551 h -0.061 l -5.72,-14.812 c -0.53,-1.38 -1.701,-2.511 -3.342,-2.511 -1.639,0 -2.938,1.364 -3.341,2.511 l -5.594,14.626 h -0.06 l -1.608,-18.365 -5.457,0.004 2.787,26.15 c 0.183,1.444 1.367,3.088 2.977,3.088 2.468,0 3.456,-1.444 3.948,-2.888 l 6.318,-15.878 h 0.061 l 6.317,15.878 c 0.556,1.444 1.513,2.888 3.95,2.888 1.61,0 2.794,-1.644 2.976,-3.425 l 2.762,-25.813 z"
         style="fill:none;fill-opacity:1;fill-rule:nonzero;stroke:#000000;stroke-opacity:1"
         id="path48"
         inkscape:connector-curvature="0" />
      <path
         d="m 144.729,81.479 h 5.086 V 59.364 h -5.086 z"
         style="fill:none;fill-opacity:1;fill-rule:nonzero;stroke:#000000;stroke-opacity:1"
         id="path50"
         inkscape:connector-curvature="0" />
      <path
         d="m 265.03,81.479 h 5.086 V 59.364 h -5.086 z"
         style="fill:none;fill-opacity:1;fill-rule:nonzero;stroke:#000000;stroke-opacity:1"
         id="path52"
         inkscape:connector-curvature="0" />
      <path
         d="m 152.631,73.7207 c 0,6.476 2.479,8.003 6.644,8.003 h 5.435 c 6.581,0 7.436,0.428 7.393,-5.834 l -11.919,0.02 c -2.437,0 -2.804,-1.547 -2.804,-4.297 v -2.382 c 0,-3.207 0.458,-4.429 2.645,-4.429 l 12.265,0.01 c 0,-3.726 -0.049,-5.692 -4.692,-5.692 h -8.323 c -4.165,0 -6.644,1.528 -6.644,8.004 z"
         style="fill:none;fill-opacity:1;fill-rule:nonzero;stroke:#000000;stroke-opacity:1"
         id="path56"
         inkscape:connector-curvature="0" />
      <path
         d="m 194.3738,73.507 v 1.405 c 0,3.971 -0.957,6.568 -4.518,6.568 h -14.779 V 59.365 h 4.624 v 5.743 h 8.093 c 1.437,0 1.894,-0.765 1.894,-3.086 v -2.657 h 4.625 v 3.756 c 0,3.635 -1.146,4.521 -2.521,4.889 v 0.06 c 2.125,0.734 2.582,2.475 2.582,5.437 m -4.498,-0.581 c 0,-1.587 -0.458,-2.321 -1.708,-2.321 h -8.467 v 5.377 h 8.051 c 1.458,0 2.124,-0.368 2.124,-2.322 z"
         style="fill:none;fill-opacity:1;fill-rule:nonzero;stroke:#000000;stroke-opacity:1"
         id="path60"
         inkscape:connector-curvature="0" />
      <path
         d="m 197.1631,73.7207 c 0,6.476 2.478,8.003 6.643,8.003 h 7.414 c 4.165,0 6.643,-1.527 6.643,-8.003 v -6.597 c 0,-6.476 -2.478,-8.004 -6.643,-8.004 h -7.414 c -4.165,0 -6.643,1.528 -6.643,8.004 v 6.597 m 4.748,-4.49 c 0,-3.207 0.459,-4.429 2.645,-4.429 h 5.915 c 2.186,0 2.644,1.222 2.644,4.429 v 2.382 c 0,2.75 -0.458,4.43 -2.895,4.43 h -5.414 c -2.436,0 -2.895,-1.68 -2.895,-4.43 z"
         style="fill:none;fill-opacity:1;fill-rule:nonzero;stroke:#000000;stroke-opacity:1"
         id="path64"
         inkscape:connector-curvature="0" />
      <path
         d="m 242.7647,81.4795 h 4.622 v -7.881 h 9.748 v 7.881 h 4.623 v -22.115 h -4.623 v 8.37 h -9.748 v -8.37 h -4.622 z"
         style="fill:none;fill-opacity:1;fill-rule:nonzero;stroke:#000000;stroke-opacity:1"
         id="path68"
         inkscape:connector-curvature="0" />
      <path
         d="m 287.4161,81.4795 h -14.291 v -22.115 h 4.623 v 5.559 h 10.875 c 3.271,0 4.249,3.789 4.249,7.086 v 1.895 c 0,4.337 -1.062,7.575 -5.456,7.575 m 0.708,-8.705 c 0,-1.314 -0.416,-2.352 -1.5,-2.352 h -8.876 v 5.559 h 8.481 c 1.395,0 1.895,-0.855 1.895,-2.352 z"
         style="fill:none;fill-opacity:1;fill-rule:nonzero;stroke:#000000;stroke-opacity:1"
         id="path72"
         inkscape:connector-curvature="0" />
      <path
         d="m 220.3734,73.687 c 0,6.476 2.478,8.003 6.643,8.003 h 5.436 c 6.581,0 7.407,0.429 7.365,-5.834 l -11.891,0.021 c -2.438,0 -2.805,-1.548 -2.805,-4.297 v -2.382 c 0,-3.208 0.459,-4.429 2.645,-4.429 l 12.266,0.01 c 0,-3.727 -0.048,-5.693 -4.692,-5.693 h -8.324 c -4.165,0 -6.643,1.528 -6.643,8.005 z"
         style="fill:none;fill-opacity:1;fill-rule:nonzero;stroke:#000000;stroke-opacity:1"
         id="path76"
         inkscape:connector-curvature="0" />
      <path
         d="m 216.46735,146.85114 c -3.956,1.867 -7.614,2.793 -12.322,2.876 -16.971,0.295 -30.958,-12.536 -31.24,-28.659 -0.048,-2.792 0.317,-5.499 1.043,-8.07 l 8.773,12.299 5.94,-9.297 c 0,0 1.785,-2.024 0.431,-4.071 -0.084,-0.128 -8.059,-11.144 -8.059,-11.144 5.508,-5.771 13.257,-9.294 22.094,-9.448 8.573,-0.151 16.226,2.976 21.893,8.257 l -18.66,29.454 c 0,0 2.943,4.13 5.244,7.403 2.534,3.602 4.815,1.087 5.576,-0.104 5.471,-8.578 15.737,-24.847 15.737,-24.847 l 0.005,0.094 c 1.052,2.419 1.591,3.152 1.704,6.636 l -18.159,28.621 m -4.427,-35.269 c 0,0 -4.967,-7.244 -5.476,-7.935 -3.039,-4.129 -5.274,0.638 -5.274,0.638 l -15.806,24.846 c 0,0 2.942,4.129 5.245,7.402 2.533,3.603 4.814,1.087 5.575,-0.104 5.471,-8.577 15.736,-24.847 15.736,-24.847"
         style="fill:none;fill-opacity:1;fill-rule:nonzero;stroke:#000000;stroke-width:0.850394;stroke-linecap:round;stroke-linejoin:round;stroke-miterlimit:4;stroke-dasharray:none;stroke-opacity:1"
         id="path84"
         inkscape:connector-curvature="0" />
      <path
         d="m 221.80865,146.80614 c 0,1.361 1.103,2.361 2.405,2.361 1.291,0 2.392,-1 2.392,-2.361 0,-1.37 -1.101,-2.372 -2.392,-2.372 -1.302,0 -2.405,1.002 -2.405,2.372 m 2.405,-1.977 c 1.071,0 1.916,0.84 1.916,1.977 0,1.121 -0.845,1.967 -1.916,1.967 -1.083,0 -1.929,-0.846 -1.929,-1.967 0,-1.137 0.846,-1.977 1.929,-1.977 m -0.5,0.607 h -0.414 v 2.731 h 1.039 c 0.645,0 0.966,-0.24 0.966,-0.778 0,-0.489 -0.308,-0.702 -0.708,-0.752 l 0.776,-1.201 h -0.464 l -0.72,1.184 h -0.475 v -1.184 m 0.495,1.533 c 0.35,0 0.662,0.026 0.662,0.446 0,0.336 -0.306,0.401 -0.595,0.401 h -0.562 v -0.847 z"
         style="fill:#231f20;fill-opacity:1;fill-rule:nonzero;stroke:none"
         id="path88"
         inkscape:connector-curvature="0" />
    </g>
  </g>
</svg>
