M48
;Layer_Color=9474304
;FILE_FORMAT=4:4
METRIC
;TYPE=PLATED
T1F00S00C0.4000
T2F00S00C0.5000
T3F00S00C0.6500
T4F00S00C2.0000
T5F00S00C2.6000
T6F00S00C3.5000
%
T01
X00630000Y00260000
X00650000
X00670000
X00690000
X00710000
X00730000
X00750000
X00770000
X00790000
X00780000Y00280000
X00760000
X00740000
X00720000
X00700000
X00710000Y00300000
X00730000
X00750000
X00770000
X00790000
X00780000Y00320000
X00760000
X00740000
X00720000
X00700000
X00710000Y00340000
X00730000
X00750000
X00770000
X00790000
X00780000Y00360000
X00760000
X00740000
X00720000
X00700000
X00680000
X00660000
X00640000
X00620000
X00600000
X00580000
X00590000Y00380000
X00610000
X00630000
X00650000
X00670000
X00690000
X00710000
X00730000
X00750000
X00770000
X00790000
X00690000Y00340000
X00630000
X00610000
X00590000
X00600000Y00320000
X00580000
X00590000Y00300000
X00610000
X00620000Y00280000
X00660000Y00240000
X00680000
X00700000
X00720000
X00740000
X00760000
X00780000
X00800000
X00820000
X00840001
X00860001
X00880001
X00900001
X00920001
X00940001
X00960001
X00980001
X01000001
X01020001
X01040001
X01060001
X01080001
X01100001
X01120001
X01140001
X01160001
X01180001
X01190001Y00260000
X01170001
X01150001
X01130001
X01110001
X01090001
X01070001
X01050001
X01030001
X01010001
X00990001
X00970001
X00950001
X00930001
X00910001
X00890001
X00870001
X00850001
X00830000
X00810000
X00820000Y00280000
X00840001
X00860001
X00880001
X00900001
X00920001
X00940001
X00960001
X00980001
X01000001
X01020001
X01040001
X01060001
X01080001
X01100001
X01120001
X01140001
X01160001
X01180001
X01190001Y00300000
X01170001
X01150001
X01130001
X01110001
X01090001
X01070001
X01050001
X01030001
X01010001
X00990001
X00970001
X00950001
X00930001
X00910001
X00890001
X00870001
X00850001
X00830000
X00810000
X00820000Y00320000
X00840001
X00860001
X00880001
X00900001
X00920001
X00940001
X00960001
X00980001
X01000001
X01020001
X01040001
X01060001
X01080001
X01100001
X01120001
X01140001
X01160001
X01180001
X01190001Y00340000
X01170001
X01150001
X01130001
X01110001
X01090001
X01070001
X01050001
X01030001
X01010001
X00990001
X00970001
X00950001
X00930001
X00910001
X00890001
X00870001
X00850001
X00830000
X00810000
X00820000Y00360000
X00840001
X00860001
X00880001
X00900001
X00920001
X00940001
X00960001
X00980001
X01000001
X01020001
X01040001
X01060001
X01080001
X01100001
X01120001
X01140001
X01160001
X01180001
X01190001Y00380000
X01170001
X01150001
X01130001
X01110001
X01090001
X01070001
X01050001
X01030001
X01010001
X00990001
X00970001
X00950001
X00930001
X00910001
X00890001
X00870001
X00850001
X00830000
X00810000
X00800000Y00360000
Y00320000
Y00280000
X01200001
X01220001
X01240001
X01260001
X01280001
X01300001
X01320001
X01340001
X01360001
X01380001
X01400001
X01420001
X01440001
X01460001
X01480001
X01470001Y00300000
X01450001
X01430001
X01410001
X01390001
X01370001
X01350001
X01330001
X01310001
X01290001
X01270001
X01250001
X01230001
X01210001
X01220001Y00320000
X01240001
X01260001
X01280001
X01300001
X01320001
X01340001
X01360001
X01380001
X01400001
X01390001Y00340000
X01370001
X01350001
X01330001
X01310001
X01290001
X01270001
X01250001
X01230001
X01210001
X01220001Y00360000
X01240001
X01260001
X01280001
X01300001
X01320001
X01340001
X01360001
X01380001
X01390001Y00380000
X01370001
X01350001
X01330001
X01310001
X01290001
X01270001
X01250001
X01230001
X01210001
X01200001Y00360000
Y00320000
X01210001Y00260000
X01230001
X01250001
X01270001
X01290001
X01310001
X01330001
X01350001
X01370001
X01390001
X01410001
X01430001
X01450001
X01470001
X01480001Y00240000
X01460001
X01440001
X01420001
X01400001
X01380001
X01360001
X01340001
X01320001
X01300001
X01280001
X01260001
X01240001
X01220001
X01200001
X01460001Y00320000
X01480001
X01470001Y00340000
X01480001Y00360000
X01470001Y00380000
X01570001
X01580001Y00360000
X01570001Y00340000
X01580001Y00320000
X01570001Y00300000
X01580001Y00280000
X01570001Y00260000
X01580001Y00240000
X01560001
X01600001
X01620001
X01640001
X01660001
X01680001
X01700001
X01710001Y00260000
X01690001
X01670001
X01650001
X01630001
X01610001
X01590001
X01600001Y00280000
X01620001
X01640001
X01660001
X01680001
X01700001
X01720001
X01740001
X01750001Y00300000
X01730001
X01710001
X01690001
X01670001
X01650001
X01630001
X01610001
X01590001
X01600001Y00320000
X01620001
X01640001
X01660001
X01680001
X01700001
X01720001
X01740001
X01760001
X01780001
X01770001Y00340000
X01750001
X01730001
X01710001
X01690001
X01670001
X01650001
X01630001
X01610001
X01590001
X01600001Y00360000
X01620001
X01640001
X01660001
X01680001
X01700001
X01720001
X01740001
X01760001
X01780001
X01770001Y00380000
X01750001
X01730001
X01710001
X01690001
X01670001
X01650001
X01630001
X01610001
X01590001
X01600001Y00400000
X01620001
X01640001
X01660001
X01680001
X01700001
X01720001
X01740001
X01760001
X01780001
X01770001Y00420000
X01750001
X01730001
X01710001
X01690001
X01670001
X01650001
X01660001Y00440000
X01680001
X01700001
X01720001
X01740001
X01760001
X01780001
X01770001Y00460000
X01750001
X01730001
X01710001
X01690001
X01670001
X01650001
X01660001Y00480000
X01680001
X01700001
X01720001
X01740001
X01760001
X01780001
X01770001Y00500000
X01750001
X01730001
X01710001
X01690001
X01670001
X01650001
X01630001
X01610001
X01590001
X01600001Y00520000
X01620001
X01640001
X01660001
X01680001
X01700001
X01720001
X01740001
X01760001
X01780001
X01770001Y00540000
X01750001
X01730001
X01710001
X01690001
X01670001
X01650001
X01660001Y00560000
X01680001
X01700001
X01720001
X01740001
X01760001
X01780001
X01770001Y00580000
X01750001
X01730001
X01710001
X01690001
X01670001
X01680001Y00600000
X01700001
X01720001
X01740001
X01760001
X01780001
X01770001Y00620000
X01750001
X01730001
X01710001
X01690001
X01670001
X01680001Y00640000
X01700001
X01720001
X01740001
X01760001
X01780001
X01770001Y00660000
X01750001
X01730001
X01710001
X01690001
X01670001
X01650001
X01630001
X01624500Y00644233
X01640001Y00640000
X01660001
Y00680000
X01680001
X01700001
X01720001
X01740001
X01760001
X01780001
X01770001Y00700000
X01750001
X01730001
X01710001
X01690001
X01670001
X01650001
X01630001
X01610001
X01590001
X01600001Y00720000
X01620001
X01640001
X01660001
X01680001
X01700001
X01720001
X01740001
X01760001
X01780001
X01770001Y00740000
X01750001
X01730001
X01710001
X01690001
X01670001
X01650001
X01630001
X01610001
X01590001
X01600001Y00760000
X01620001
X01640001
X01660001
X01680001
X01700001
X01720001
X01740001
X01760001
X01780001
X01770001Y00780000
X01750001
X01730001
X01710001
X01690001
X01670001
X01650001
X01630001
X01610001
X01620001Y00680000
X01640001
X01590001Y00660000
Y00620000
X01640001Y00480000
X01580001
X01570001Y00500000
Y00460000
Y00420000
X01580001Y00400000
X01480001
X01460001
X01440001
X01420001
X01400001
X01380001
X01360001
X01340001
X01320001
X01300001
X01280001
X01260001
X01240001
X01220001
X01200001
X01210001Y00420000
X01230001
X01250001
X01270001
X01310001
X01330001
X01350001
X01370001
X01390001
X01410001
X01430001
X01450001
X01470001
X01480001Y00440000
X01460001
X01440001
X01420001
X01400001
X01380001
X01360001
X01340001
X01350001Y00460000
X01370001
X01390001
X01410001
X01430001
X01450001
X01470001
X01480001Y00480000
X01460001
X01440001
X01420001
X01400001
X01380001
X01360001
X01340001
X01350001Y00500000
X01370001
X01390001
X01410001
X01430001
X01450001
X01470001
Y00580000
X01450001
X01430001
X01410001
X01390001
X01400001Y00600000
X01420001
X01410001Y00620000
X01400001Y00640000
X01410001Y00660000
X01390001
X01400001Y00680000
X01420001
X01440001
X01460001
X01480001
X01500001
X01520001
X01510001Y00700000
X01490001
X01470001
X01450001
X01430001
X01410001
X01390001
X01400001Y00720000
X01420001
X01440001
X01460001
X01480001
X01500001
X01520001
X01510001Y00740000
X01490001
X01470001
X01450001
X01430001
X01410001
X01390001
X01370001
X01350001
X01360001Y00720000
X01380001
Y00680000
X01340001
X01320001
X01300001
X01280001
X01260001
X01240001
X01220001
X01230001Y00700000
X01250001
X01270001
X01290001
X01310001
X01330001
X01320001Y00720000
X01300001
X01280001
X01260001
X01240001
X01220001
X01200001
X01210001Y00740000
X01230001
X01250001
X01270001
X01290001
Y00780000
X01310001
X01330001
X01350001
X01370001
X01390001
X01410001
X01430001
X01450001
X01470001
X01490001
X01508650Y00789233
X01570001Y00780000
X01560001Y00760000
Y00680000
X01550001Y00660000
X01510001
X01490001
X01500001Y00640000
X01480001Y00600000
X01580001
X01570001Y00620000
X01380001Y00560000
X01310001Y00620000
X01290001
X01270001
X01250001
X01260001Y00640000
X01280001
X01300001
X01320001
X01330001Y00660000
X01310001
X01290001
X01270001
X01250001
X01230001
X01240001Y00640000
X01220001
X01210001Y00700000
Y00780000
X01230001
X01250001
X01270001
X01240001Y00480000
X01220001
X01200001
X01210001Y00460000
X01230001
X01250001
X01240001Y00440000
X01220001
X01200001
X01180001
X01160001
X01140001
X01120001
X01100001
X01080001
X01060001
X01040001
X01020001
X01000001
X00980001
X00960001
X00940001
X00920001
X00900001
X00880001
X00860001
X00840001
X00820000
X00800000
X00810000Y00460000
X00830000
X00850001
X00870001
X00890001
X00910001
X00930001
X00950001
X00970001
X00990001
X01010001
X01030001
X01050001
X01070001
X01090001
X01110001
X01130001
X01150001
X01170001
X01190001
X01180001Y00480000
X01160001
X01140001
X01120001
X01100001
X01080001
X01060001
X01040001
X01020001
X01000001
X00980001
X00960001
X00940001
X00920001
X00900001
X00880001
X00860001
X00840001
X00820000
X00800000
X00810000Y00500000
X00830000
X00850001
X00870001
X00890001
X00910001
X00930001
X00950001
X00970001
X00990001
X00980001Y00520000
X00960001
X00940001
X00920001
X00900001
X00880001
X00860001
X00840001
X00820000
X00800000
X00810000Y00540000
X00830000
X00850001
X00870001
X00890001
X00910001
X00930001
X00950001
X00970001
X00990001
X01000001Y00560000
X00980001
X00960001
X00940001
X00920001
X00900001
X00880001
X00860001
X00840001
X00820000
X00800000
X00810000Y00580000
X00830000
X00850001
X00870001
X00890001
X00910001
X00930001
X00950001
X00900001Y00600000
X00880001
X00860001
X00840001
X00820000
X00800000
X00810000Y00620000
X00830000
X00850001
X00860001Y00760000
X00880001
X00900001
X00920001
X00940001
X00960001
X00980001
X01000001
X01010001Y00740000
X01030001
X01050001
X01070001
X01090001
X01110001
X01130001
X01150001
X01170001
X01190001
X01180001Y00720000
X01160001
X01140001
X01120001
X01100001
X01080001
X01060001
X01040001
X01020001
X01000001
X00980001
X00990001Y00740000
X00970001
X00950001
X00930001
X00910001
Y00780000
X00890001
X00870001
X00850001
X01030001
X01050001
X01070001
X01090001
X01110001
X01150001
X01170001
X01190001
Y00700000
X01170001
X01150001
X01130001
X01110001
X01090001
X01070001
X01050001
X01030001
X01080001Y00680000
X01100001
X01120001
X01140001
X01120001Y00520000
X01100001
X01080001
X01090001Y00500000
X01110001
X01130001
X01150001
X01170001
Y00420000
X01190001
X01180001Y00400000
X01160001
X01140001
X01120001
X01100001
X01080001
X01060001
X01040001
X01020001
X01000001
X00980001
X00960001
X00940001
X00920001
X00900001
X00880001
X00860001
X00840001
X00820000
X00800000
X00810000Y00420000
X00830000
X00850001
X00870001
X00890001
X00910001
X00930001
X00950001
X00970001
X00990001
X01010001
X01030001
X01050001
X01070001
X01090001
X01110001
X01130001
X01150001
X01070001Y00500000
X00790000
X00770000
X00750000
X00730000
X00710000
X00690000
X00670000
X00650000
X00630000
X00610000
X00590000
X00600000Y00520000
X00620000
X00640000
X00660000
X00680000
X00700000
X00720000
X00740000
X00760000
X00780000
X00790000Y00540000
X00770000
X00750000
X00730000
X00710000
X00690000
X00670000
X00650000
X00630000
X00610000
X00590000
X00600000Y00560000
X00620000
X00640000
X00660000
X00680000
X00700000
X00720000
X00740000
X00760000
X00780000
X00790000Y00580000
X00770000
X00750000
X00730000
X00710000
X00690000
X00670000
X00650000
X00630000
X00610000
X00590000
X00600000Y00600000
X00620000
X00640000
X00660000
X00680000
X00700000
X00720000
X00710000Y00620000
X00690000
X00670000
X00650000
X00630000
X00610000
X00590000
X00600000Y00640000
X00620000
X00640000
X00660000
X00680000
X00700000
X00720000
X00730000Y00660000
X00710000
X00690000
X00670000
X00650000
X00630000
X00610000
X00590000
X00580000Y00640000
Y00600000
Y00560000
Y00520000
Y00480000
X00600000
X00620000
X00640000
X00660000
X00680000
X00700000
X00720000
X00740000
X00760000
X00780000
X00790000Y00460000
X00770000
X00750000
X00730000
X00710000
X00690000
X00670000
X00650000
X00630000
X00610000
X00590000
X00600000Y00440000
X00620000
X00640000
X00660000
X00680000
X00700000
X00720000
X00740000
X00760000
X00780000
X00790000Y00420000
X00770000
X00750000
X00730000
X00710000
X00690000
X00670000
X00650000
X00630000
X00610000
X00590000
X00600000Y00400000
X00620000
X00640000
X00660000
X00680000
X00700000
X00720000
X00740000
X00760000
X00780000
X00580000
Y00440000
X00590000Y00740000
X00610000
X00630000
X00650000
X00670000
X00690000
X00700000Y00720000
Y00680000
X00680000Y00760000
X00660000
X00640000
X00620000
X00600000
X00580000
X00590000Y00780000
X00610000
X00630000
X00650000
X00670000
X00680000Y00800000
X00660000
X00640000
X00620000
X00600000
X00580000
X00590000Y00820000
X00610000
X00630000
X00650000
X00670000
X00690000
X00700000Y00840001
X00680000
X00660000
X00640000
X00620000
X00600000
X00580000
X00590000Y00860001
X00610000
X00630000
X00650000
X00670000
X00690000
X00710000
X00730000
X00750000
X00770000
X00790000
X00780000Y00880001
X00760000
X00740000
X00720000
X00700000
X00680000
X00660000
X00640000
X00620000
X00600000
X00580000
X00590000Y00900001
X00610000
X00630000
X00650000
X00670000
X00690000
X00710000
X00730000
X00750000
X00770000
X00790000
X00780000Y00920001
X00760000
X00740000
X00720000
X00700000
X00680000
X00660000
X00640000
X00620000
X00600000
X00580000
X00590000Y00940001
X00610000
X00630000
X00650000
X00670000
X00690000
X00710000
X00730000
X00750000
X00770000
X00790000
X00780000Y00960001
X00760000
X00740000
X00720000
X00700000
X00680000
X00660000
X00640000
X00620000
X00600000
X00630000Y00980001
X00650000
X00670000
X00690000
X00710000
X00730000
X00750000
X00770000
X00790000
X00780000Y01000001
X00760000
X00740000
X00720000
X00700000
X00680000
X00660000
X00640000
X00670000Y01020001
X00690000
X00710000
X00730000
X00750000
X00770000
X00750000Y00820000
X00830000
X00850001
X00870001
X00880001Y00800000
X00900001
X00940001
X00960001
X00980001
X00970001Y00820000
X00950001
X00930001
X00940001Y00840001
X00960001
X00980001
X00970001Y00860001
X00950001
X00930001
X00910001
X00890001
X00870001
X00850001
X00830000
X00810000
X00820000Y00880001
X00840001
X00860001
X00880001
X00900001
X00920001
X00940001
X00960001
X00980001
X01000001
X01020001
X01040001
X01060001
X01080001
X01100001
X01120001
X01140001
X01160001
X01180001
X01150001Y00900001
X01140001Y00920001
Y00960001
X01160001
X01180001
X01190001Y00980001
X01170001
X01150001
X01130001
X01110001
X01090001
X01070001
X01050001
X01030001
X01010001
X00990001
X00970001
X00950001
X00930001
X00940001Y01000001
X00960001
X00980001
X01000001
X01020001
X01040001
X01060001
X01080001
X01100001
X01120001
X01140001
X01160001
X01180001
X01190001Y01020001
X01170001
X01150001
X01130001
X01110001
X01090001
X01070001
X01050001
X01030001
X01010001
X00990001
X00970001
X00950001
X00920001Y01000001
X00900001
X00880001
X00860001
X00840001
X00820000
X00800000
X00830000Y01020001
X00850001
X00870001
X00890001
X00870001Y00980001
X00860001Y00960001
X00870001Y00940001
X00850001
X00860001Y00920001
X00880001
X00900001
X00920001
X00940001
X00960001
X00970001Y00900001
X00950001
X00930001
X00910001
X00890001
X00870001
X00850001
X00830000
X00810000
X00820000Y00920001
X00840001
X00800000
Y00880001
X00840001Y00800000
X00860001
X00900001Y00840001
X00920001
X01040001
X01060001
X01080001
X01090001Y00820000
X01070001
X01050001
X01060001Y00800000
X01040001
X01050001Y00860001
X01070001
Y00900001
X01050001
X01060001Y00920001
X01040001
Y00960001
X01060001
X01080001
X01100001
X01000001
X00980001
X00960001
X00940001
X01150001Y00860001
X01160001Y00840001
X01140001
X01150001Y00820000
X01170001
X01160001Y00800000
X01140001
X01120001
X01207750Y00803250
X01230001Y00820000
X01250001
X01270001
X01290001
X01310001
X01330001
X01350001
X01370001
X01390001
X01410001
X01430001
X01450001
X01470001
X01490001
X01510001
X01530001
X01550001
X01570001
Y00860001
X01550001
X01560001Y00880001
X01540001
X01550001Y00900001
X01570001
X01560001Y00920001
X01542750Y00927750
X01540001Y00960001
X01560001
X01570001Y00980001
X01550001
X01560001Y01000001
X01540001
X01520001
X01500001
X01480001
X01460001
X01440001
X01420001
X01400001
X01380001
X01360001
X01340001
X01320001
X01300001
X01280001
X01260001
X01240001
X01220001
X01200001
X01210001Y01020001
X01230001
X01250001
X01270001
X01290001
X01310001
X01330001
X01350001
X01370001
X01390001
X01410001
X01430001
X01450001
X01470001
X01490001
X01510001
X01530001
X01500001Y00960001
X01510001Y00940001
X01490001
Y00900001
X01470001
X01450001
X01430001
X01410001
X01390001
X01370001
X01350001
X01330001
X01310001
X01290001
X01270001
X01250001
X01230001
X01240001Y00920001
X01260001
X01280001
X01300001
X01320001
X01340001
X01360001
X01380001
X01400001
X01420001
X01440001
X01460001
X01450001Y00940001
X01430001
X01410001
X01390001
X01370001
X01350001
X01330001
X01310001
X01290001
X01270001
X01250001
X01230001
X01240001Y00960001
X01260001
X01280001
X01300001
X01320001
X01340001
X01360001
X01380001
X01400001
X01420001
X01440001
X01460001
X01450001Y00980001
X01430001
X01410001
X01390001
X01370001
X01350001
X01330001
X01310001
X01290001
X01270001
X01250001
X01230001
X01210001
X01220001Y00960001
Y00920001
Y00880001
X01240001
X01260001
X01280001
X01300001
X01320001
X01340001
X01360001
X01380001
X01400001
X01420001
X01440001
X01460001
X01480001
X01490001Y00860001
X01470001
X01450001
X01430001
X01410001
X01390001
X01370001
X01350001
X01330001
X01310001
X01290001
X01270001
X01250001
X01230001
X01240001Y00840001
X01260001
X01280001
X01300001
X01320001
X01340001
X01360001
X01380001
X01400001
X01420001
X01440001
X01460001
X01480001
X01508650Y00843733
X01570001Y00940001
X01200001Y00880001
X01220001Y00840001
X01590001Y00820000
X01650001
X01670001
X01690001
X01710001
X01730001
X01750001
X01770001
X01780001Y00840001
X01760001
X01740001
X01720001
X01700001
X01680001
X01660001
X01636750Y00843858
X01630001Y00860001
X01650001
X01670001
X01690001
X01710001
X01730001
X01750001
X01770001
X01780001Y00880001
X01760001
X01740001
X01720001
X01700001
X01680001
X01660001
X01640001
X01620001
X01600001
X01610001Y00900001
X01630001
X01650001
X01670001
X01690001
X01710001
X01730001
X01750001
X01770001
X01780001Y00920001
X01760001
X01740001
X01720001
X01700001
X01680001
X01660001
X01640001
X01620001
X01600001
X01610001Y00940001
X01630001
X01650001
X01670001
X01690001
X01710001
X01730001
X01750001
X01770001
X01740001Y00960001
X01720001
X01700001
X01680001
X01660001
X01640001
X01620001
X01600001
X01610001Y00980001
X01630001
X01650001
X01670001
X01690001
X01710001
X01730001
X01700001Y01000001
X01680001
X01660001
X01640001
X01620001
X01600001
X01610001Y01020001
X01630001
X01650001
X01670001
X01690001
X01700001Y00800000
X01720001
X01740001
X01760001
X01780001
X01680001
X01660001
X01640001
X01610001Y00860001
T02
X00637322Y00287322
X00630000Y00305000
X00637322Y00322678
X00655000Y00330000
X00672678Y00322678
X00680000Y00305000
X00672678Y00287322
X00655000Y00280000
X01411220Y00337561
X01428897Y00330239
X01446575Y00337561
X01453897Y00355239
X01446575Y00372917
X01428897Y00380239
X01411220Y00372917
X01403897Y00355239
X01592147Y00424920
X01609825Y00417598
X01627502Y00424920
X01634825Y00442598
X01627502Y00460276
X01609825Y00467598
X01592147Y00460276
X01611322Y00580370
X01629000Y00573047
X01646678Y00580370
X01654000Y00598047
X01646678Y00615725
X01629000Y00623047
X01611322Y00615725
X01604000Y00598047
X01475249Y00617977
X01457572Y00610655
X01439894Y00617977
X01432572Y00635655
X01439894Y00653333
X01457572Y00660655
X01475249Y00653333
X01482572Y00635655
X01194273Y00639232
X01201595Y00656910
X01194273Y00674587
X01272476Y00473037
X01265154Y00455360
X01272476Y00437682
X01290154Y00430360
X01307832Y00437682
X01315154Y00455360
X01307832Y00473037
X01290154Y00480360
X01584825Y00442598
X01176595Y00631910
X01158917Y00639232
X01151595Y00656910
X01158917Y00674587
X01176595Y00681910
X01048757Y00548861
X01031079Y00556183
X01013401Y00548861
X01006079Y00531183
X01013401Y00513505
X01031079Y00506183
X01048757Y00513505
X01056079Y00531183
X00810204Y00772490
X00817527Y00790168
X00792527Y00765168
X00774849Y00772490
X00767527Y00790168
X00758680Y00648428
X00741002Y00641105
X00733680Y00623428
X00741002Y00605750
X00758680Y00598428
X00776358Y00605750
X00783680Y00623428
X00776358Y00641105
X00774849Y00807846
X00792527Y00815168
X00810204Y00807846
T03
X01486000Y00974750
X01511400
T04
X00792500Y01025000
X00927500
T05
X00824000Y00965000
X00896000
T06
X00655000Y00305000
X01428897Y00355239
X01609825Y00442598
X01629000Y00598047
X01457572Y00635655
X01290154Y00455360
X01176595Y00656910
X01031079Y00531183
X00758680Y00623428
X00792527Y00790168
M30
