<?xml version="1.0" encoding="UTF-8" standalone="no"?>
<!-- Generator: Adobe Illustrator 25.2.3, SVG Export Plug-In . SVG Version: 6.00 Build 0)  -->

<svg
   version="1.1"
   id="Слой_1"
   x="0px"
   y="0px"
   viewBox="0 0 1538 555"
   style="enable-background:new 0 0 1538 555;"
   xml:space="preserve"
   sodipodi:docname="MainStrSch.svg"
   inkscape:version="1.1 (c68e22c387, 2021-05-23)"
   xmlns:inkscape="http://www.inkscape.org/namespaces/inkscape"
   xmlns:sodipodi="http://sodipodi.sourceforge.net/DTD/sodipodi-0.dtd"
   xmlns="http://www.w3.org/2000/svg"
   xmlns:svg="http://www.w3.org/2000/svg"><defs
   id="defs43" /><sodipodi:namedview
   id="namedview41"
   pagecolor="#ffffff"
   bordercolor="#666666"
   borderopacity="1.0"
   inkscape:pageshadow="2"
   inkscape:pageopacity="0.0"
   inkscape:pagecheckerboard="0"
   showgrid="false"
   inkscape:zoom="1.1778983"
   inkscape:cx="1408.0163"
   inkscape:cy="327.27783"
   inkscape:window-width="1920"
   inkscape:window-height="1001"
   inkscape:window-x="1911"
   inkscape:window-y="-9"
   inkscape:window-maximized="1"
   inkscape:current-layer="g38" />
<style
   type="text/css"
   id="style2">
	.st0{font-family:'MyriadPro-Regular';}
	.st1{font-size:22px;}
	.st2{fill:none;}
	.st3{font-size:30px;}
	.st4{font-size:36px;}
</style>
<g
   transform="translate(0.000000,555.000000) scale(0.100000,-0.100000)"
   id="g38">
	<path
   d="M5399.7,4739.1c-3.9-3-6.9-156-6.9-340v-333h-752.7h-752.7l-566.3,332c-311.7,182-575.1,332-585,332   c-15.8,1-17.8-20-19.7-329l-2-330h-582h-581.1l-7.9,45c-18.7,109-96.7,208-203.2,258c-46.4,22-70,27-140.1,27   c-76,0-90.8-3-149.9-33c-102.6-51-177.6-151-192.4-257l-5.9-45H694.1H536.3l-120.4,120c-65.1,66-122.3,120-126.3,120   c-22.7,0,5.9-39,106.5-140l113.4-115l-115.4-117c-76.9-78-112.5-121-105.6-128c5.9-6,48.3,30,127.3,110l118.4,120h158.8h159.8   l6.9-47c12.8-90,67.1-174,146-228l51.3-35H955.5c-77.9,0-101.6-3-98.7-12c3.9-10,83.9-14,346.3-16c299.9-2,342.3,0,342.3,13   c0,12-17.8,15-100.6,15h-99.6l45.4,31c81.9,54,139.1,144,151.9,234l5.9,45h585h586v-335c0-246,3-335,11.8-335   c5.9,0,269.3,151,585,335l573.2,335h751.7h751.7v-335v-335l683.6,2l682.7,3l3,333l2,332h848.4h848.4v-334c0-184,3-337,7.9-339   c3.9-2,266.4,148,584,334l577.1,338l810.9,1h811.9l2-477l3-478l471.5-3l470.6-2v-520v-520l-445.9-2l-446.9-3v-685v-685l905.6-3   l904.6-2v690v690h-443.9h-443.9v520v520l190.4,2l189.4,3l3,478l2,477h590.9h590.9l11.8-47c26.6-109,76-182,156.9-235l44.4-28   h-105.6c-62.1,0-105.6-4-105.6-10c0-18,45.4-21,369-18c249.6,2,325.5,6,329.5,16c3,9-21.7,12-98.7,13c-98.7,0-100.6,1-76.9,17   c92.7,64,157.8,157,172.6,250l6.9,42h159.8h158.8l118.4-120c78.9-80,121.3-116,127.3-110c6.9,7-28.6,50-107.5,130l-118.4,120   l116.4,118c63.1,64,115.4,121,115.4,125c0,24-38.5-6-143-113l-118.4-120h-153.9h-154.9l-5.9,44c-9.9,64-59.2,158-106.5,201   c-21.7,21-65.1,49-95.7,64c-47.4,22-68.1,26-144,25c-108.5-1-159.8-21-236.8-95c-57.2-54-87.8-110-104.6-189l-10.9-50h-590.9H12614   v140v140h-680.7h-679.7l-3-137l-3-138l-807.9-3l-807.9-2l-574.1,335c-314.7,184-579.1,335-585,335c-8.9,0-11.8-83-11.8-335v-335   h-848.4h-848.4l-2,338l-3,337l-676.7,3C5710.5,4745.1,5402.7,4743.1,5399.7,4739.1z M6734.5,4056.1v-660h-656h-656v660v660h656h656   V4056.1z M3306.4,4371.1c298.9-174,543.6-318,544.5-319c2-1-231.8-139-517.9-306s-534.7-312-551.5-323l-32.6-19v647   c0,355,3,644,7.9,642C2760.8,4690.1,3008.5,4545.1,3306.4,4371.1z M9042.9,4376.1c296-172,541.6-316,545.5-320   c5.9-5-923.4-556-1090.1-647c-4.9-2-7.9,287-7.9,642s3,644,7.9,642C8502.3,4691.1,8746.9,4548.1,9042.9,4376.1z M1330.4,4346.1   c96.7-46,168.7-139,181.5-234l6.9-46h-318.6H881.6l6.9,43c18.7,119,117.4,227,236.8,258C1175.5,4380.1,1282.1,4369.1,1330.4,4346.1   z M14301,4335.1c33.5-18,71-46,84.8-62c35.5-43,69.1-115,77.9-164l6.9-43H14148h-321.6l6.9,38c16.8,89,75,177,149,223   C14077,4387.1,14200.3,4390.1,14301,4335.1z M12584.4,3711.1v-605h-651.1h-651.1v605v605h651.1h651.1V3711.1z M1515.9,4011.1   c0-41-35.5-123-74-170c-22.7-28-58.2-55-98.7-76c-55.2-28-74-32-143-32c-65.1,0-87.8,5-132.2,27c-71,36-145,117-166.7,186   c-31.6,99-60.2,90,298.9,90h315.7V4011.1z M14464.7,3999.1c-18.7-103-89.8-194-190.4-240c-47.4-22-64.1-25-139.1-21   c-71,3-94.7,9-138.1,33c-28.6,16-66.1,45-82.9,64c-33.5,39-71,118-80.9,169l-4.9,32h320.6h321.6L14464.7,3999.1z M13087.6,1346.1   v-660h-878h-878v660v660h878h878V1346.1z"
   id="path4" />
	<path
   d="M5792.4,4392.1c-67.1-21-133.2-65-133.2-88c0-13,26.6-9,38.5,6c6.9,8,30.6,23,53.3,34c87.8,42,164.7,38,249.6-13l45.4-27   l-40.4-42c-37.5-38-51.3-66-33.5-66c3.9,0,25.6,18,47.4,40l41.4,41l52.3-28c45.4-24,65.1-28,133.2-28c69.1,0,85.8,4,131.2,29   c60.2,34,77.9,53,65.1,66c-6.9,7-23.7,0-49.3-19c-20.7-15-53.3-33-72-40c-66.1-22-164.7-9-210.1,29l-22.7,19l42.4,44   c58.2,60,36.5,76-22.7,17l-41.4-41l-47.4,30c-44.4,29-120.4,52-165.7,50C5841.7,4405.1,5814.1,4399.1,5792.4,4392.1z"
   id="path6" />
	<path
   d="M5769.7,4117.1c-70-24-119.4-66-100.6-85c5.9-6,17.8-2,31.6,11c91.7,85,231.8,81,338.4-9c75-62,126.3-83,207.2-82   c76,1,142.1,26,181.5,68c33.5,36,7.9,41-38.5,7c-103.6-76-219-64-339.4,37C5967,4133.1,5869.3,4152.1,5769.7,4117.1z"
   id="path8" />
	<path
   d="M5777.6,3851.1c-53.3-17-124.3-73-110.5-87c6.9-7,22.7-1,45.4,17c43.4,33,97.7,54,145,55c45.4,0,125.3-25,156.9-50l24.7-19   l-47.4-49c-33.5-34-44.4-52-36.5-57s28.6,10,56.2,37l44.4,45l51.3-28c99.6-55,223.9-46,304.8,22c55.2,46,31.6,58-30.6,15   c-65.1-44-135.2-55-210.1-32c-29.6,9-62.1,23-72,31c-18.7,15-18.7,16,16.8,53c34.5,36,46.4,62,28.6,62c-3.9,0-24.7-18-45.4-39   l-37.5-39l-47.4,30C5937.4,3866.1,5861.4,3877.1,5777.6,3851.1z"
   id="path10" />
	<path
   d="M12071.5,4121.1v-55h-325.5c-283.1,0-325.5-2-325.5-15s42.4-15,325.5-15h325.5v-56c0-48,2-55,17.8-50   c183.5,60,359.1,125,347.2,130c-42.4,17-341.3,116-352.2,116C12075.4,4176.1,12071.5,4159.1,12071.5,4121.1z"
   id="path12" />
	<path
   d="M11427.3,3839.1c-3.9-3-6.9-10-6.9-15c0-4,174.6-9,387.7-10l386.7-3l3-137l3-138h-59.2h-58.2l60.2-185   c33.5-102,64.1-185,67.1-185c3,0,31.6,78,63.1,173c31.6,94,59.2,178,62.1,185c3,9-10.9,12-51.3,12h-54.3l-3,153l-3,152l-395.6,3   C11611.7,3845.1,11431.2,3843.1,11427.3,3839.1z"
   id="path14" />
	<text
   transform="matrix(9.865 0 0 -10 13826.4648 4533.291)"
   class="st0 st1"
   id="text16">выход</text>
	<rect
   x="13627.9"
   y="4707.9"
   class="st2"
   width="9.1"
   height="16.9"
   id="rect18" />
	<text
   transform="matrix(9.865 0 0 -10 11743.2227 4578.2227)"
   class="st0 st3"
   id="text20">НО1</text>
	
	<text
   transform="matrix(9.865 0 0 -10 11907.4414 273.8281)"
   class="st0 st4"
   id="text28">Дет1</text>
	<text
   transform="matrix(9.865 0 0 -10 8334.834 5076.3867)"
   class="st0 st4"
   id="text30">МШУ2</text>
	<text
   transform="matrix(9.865 0 0 -10 2601.4014 5068.4766)"
   class="st0 st4"
   id="text32">МШУ1</text>
	<text
   transform="matrix(9.865 0 0 -10 5832.9688 5076.3867)"
   class="st0 st4"
   id="text34">Ф1</text>
	<text
   transform="matrix(9.865 0 0 -10 1004.0332 4533.2959)"
   class="st0 st1"
   id="text36">вход</text>
<text
   xml:space="preserve"
   style="font-style:normal;font-weight:normal;font-size:320px;line-height:1.25;font-family:sans-serif;fill:#000000;fill-opacity:1;stroke:none;stroke-width:10"
   x="12208.452"
   y="-1449.4763"
   id="text2025"
   transform="scale(1,-1)"><tspan
     sodipodi:role="line"
     id="tspan2023"
     style="font-size:320px;text-align:center;text-anchor:middle;stroke-width:10"
     x="12208.452"
     y="-1449.4763">Детектор</tspan><tspan
     sodipodi:role="line"
     style="font-size:320px;text-align:center;text-anchor:middle;stroke-width:10"
     x="12208.452"
     y="-1049.4763"
     id="tspan2027">мощности</tspan></text></g>
</svg>
