<?xml version="1.0" encoding="UTF-8" standalone="no"?>
<!-- Generator: Adobe Illustrator 25.2.3, SVG Export Plug-In . SVG Version: 6.00 Build 0)  -->

<svg
   version="1.1"
   id="Слой_1"
   x="0px"
   y="0px"
   viewBox="0 0 986.25 558.31"
   style="enable-background:new 0 0 986.25 558.31;"
   xml:space="preserve"
   sodipodi:docname="TZ.svg"
   inkscape:version="1.1 (c68e22c387, 2021-05-23)"
   xmlns:inkscape="http://www.inkscape.org/namespaces/inkscape"
   xmlns:sodipodi="http://sodipodi.sourceforge.net/DTD/sodipodi-0.dtd"
   xmlns="http://www.w3.org/2000/svg"
   xmlns:svg="http://www.w3.org/2000/svg"><defs
   id="defs567" /><sodipodi:namedview
   id="namedview565"
   pagecolor="#ffffff"
   bordercolor="#666666"
   borderopacity="1.0"
   inkscape:pageshadow="2"
   inkscape:pageopacity="0.0"
   inkscape:pagecheckerboard="0"
   showgrid="false"
   inkscape:zoom="0.91843223"
   inkscape:cx="615.72317"
   inkscape:cy="294.52364"
   inkscape:window-width="1920"
   inkscape:window-height="1001"
   inkscape:window-x="1911"
   inkscape:window-y="-9"
   inkscape:window-maximized="1"
   inkscape:current-layer="g562" />
<style
   type="text/css"
   id="style2">
	.st0{fill:#BF0000;}
	.st1{fill:#040404;}
	.st2{fill:#060606;}
	.st3{fill:#020202;}
	.st4{fill:#1C1C1C;}
	.st5{fill:#030303;}
	.st6{fill:#070707;}
	.st7{fill:#353333;}
	.st8{fill:#191919;}
	.st9{fill:#1B1B1B;}
	.st10{fill:#0F0F0F;}
	.st11{fill:#0E0E0E;}
	.st12{fill:#0D0D0D;}
	.st13{fill:#050505;}
	.st14{fill:#0C0C0C;}
	.st15{fill:#101010;}
	.st16{fill:#0B0B0B;}
	.st17{fill:#1A1A1A;}
	.st18{fill:#181818;}
	.st19{fill:#0E0D0D;}
	.st20{fill:#0D0C0C;}
	.st21{fill:#202020;}
	.st22{fill:#111111;}
	.st23{fill:#161010;}
	.st24{fill:#100D0D;}
	.st25{fill:#151515;}
	.st26{fill:#161616;}
	.st27{fill:#262626;}
	.st28{fill:#1A1818;}
	.st29{fill:#2B2B2B;}
	.st30{fill:#413636;}
	.st31{fill:#261616;}
	.st32{fill:#FEFEFE;}
</style>
<g
   id="g562">
	<path
   class="st0"
   d="M587.4,91.15c7.91,6.54,9.84,15.94,11.78,25.2c3.87,18.49,4.98,37.33,6.79,56.08   c3.8,39.35,6.67,78.84,15.8,117.47c4.19,17.73,9.92,34.97,16.98,51.77c11.78,28.02,22.99,56.25,30.97,85.65   c1.33,4.9,3.14,9.7,5.97,14.01c0.71,0.62,1.38,1.25,1.14,2.33c7.58,13.9,20.07,20.68,34.95,23.72c13.41,2.75,26.5,1.28,39.21-3.81   c5.77-2.31,11.52-4.71,17.64-6.02c6.17-1.33,11.87-0.37,17.1,3.23c3.7,2.54,7.41,5.05,11.15,7.52c4.32,2.84,8.81,2.82,13.55,1   c6.47-2.49,12.14-6.4,17.75-10.26c9.46-6.51,18.73-7.22,28.56-1.09c7.52,4.69,15.66,5.3,24.12,3.06c3.23-0.86,6.5-1.58,9.75-2.37   c0.56-0.75,1.21-0.63,1.9-0.22c7.04-1.51,13.56,0.12,19.95,3.04c6.18,2.82,12.69,4.43,19.51,4.73c1.27,0.06,3.25-0.26,3.08,1.73   c-0.17,2.02-2.14,1.23-3.35,1.19c-6.04-0.2-12.12-1-17.42-3.81c-9.73-5.17-19.57-5.13-29.71-2.06   c-11.11,3.36-21.61,2.41-31.61-3.77c-6.98-4.31-13.91-3.73-20.75,0.7c-5.33,3.46-10.8,6.71-16.29,9.93   c-8.42,4.93-16.56,4.68-24.34-1.53c-1.95-1.55-4.12-2.82-6.09-4.35c-5.83-4.52-12.26-5.25-19.11-3.04   c-4.03,1.3-8.06,2.63-11.97,4.24c-7.3,3.03-14.82,5.16-22.67,6.09c-0.86,0.62-1.75,0.64-2.67,0.16   c-13.86,0.47-26.93-2.17-38.92-9.49c-7.58-4.63-12.69-11.42-17.3-18.74c-0.78-0.54-1.43-1.14-1-2.23   c-6.79-14.79-9.86-30.8-15.19-46.07c-8.09-23.18-18.51-45.44-26.97-68.47c-9.2-25.04-14.76-50.95-18.48-77.3   c-5.11-36.23-7.49-72.75-11.38-109.1c-0.66-6.18-1.18-12.4-2.84-18.44c-0.61-0.69-0.73-1.45-0.28-2.27   c-0.96-6.3-2.58-12.42-5.19-18.24c-0.96-2.14-2.05-4.27-4.04-5.74c-1.2,0.04-1.86-0.63-2.24-1.68c-3.93-2.42-7.35-0.51-10.29,1.74   c-4.94,3.78-9.51,8.04-14.27,12.05c-11.11,9.37-16.76,8.5-24.45-3.75c-2.38-3.79-4.5-7.76-7.03-11.45   c-6.18-9-11.25-10.44-21.42-6.39c-0.69,0.55-1.2,1.45-2.31,1.14c-4.83,1.44-8.85,4.49-13.26,6.75c-5.42,2.78-10.61,5.99-16.16,8.56   c-10.45,4.85-20.51,4.1-30.4-1.44c-3.8-2.13-7.52-4.42-11.39-6.41c-2.36-1.21-4.79-2.91-7.7-1.32c-0.62,0.72-1.15,1.59-2.32,1.29   c-5.46,3.63-7.42,9.54-9.49,15.21c-6.16,16.83-8.99,34.47-12,52.04c-6.36,37.15-10.2,74.67-16.55,111.82   c-4.74,27.71-12.3,54.7-20.63,81.5c-8.84,28.44-16.94,57.08-24.16,85.98c0.62,1.03,0.08,1.68-0.73,2.25   c-2.58,6.74-5.27,13.41-9.81,19.15c-7.83,9.88-18.67,14.05-30.59,16.1c-8.8,1.51-17.59,1.13-26.34-0.54   c-0.83,0.43-1.62,0.48-2.3-0.28c-12.75-4.16-25.68-4.17-38.76-1.87c-5.89,1.04-11.84,1.72-17.79,2.38   c-9.31,1.04-18.22-0.55-26.36-5.19c-16.83-9.6-34.91-10.04-53.41-7.69c-9.16,1.16-18.15,3.2-26.86,6.29   c-1.4,0.5-2.74,1.15-4.1,1.73c-0.68,0.54-1.29,1.27-2.32,0.87c-1.68,0.76-3.37,1.51-5.04,2.3c-1.07,0.51-2.35,1.72-3.2,0.18   c-0.97-1.76,0.86-2.27,2-2.86c2.09-1.08,4.23-2.04,6.35-3.06c0.58-0.79,1.26-1.35,2.32-1.18c14.4-4.73,29.08-7.91,44.3-8.39   c13.83-0.43,27.24,1.26,39.38,8.32c12.18,7.09,25.06,6.68,38.17,4.33c14.74-2.64,29.43-4.11,44.12,0.21   c0.34,0.1,0.74,0.02,1.12,0.02c0.99-0.65,1.61,0.16,2.32,0.58c14.32,3.32,28.26,2.16,41.68-3.89   c10.46-4.72,16.41-13.44,20.42-23.74c4.63-11.88,6.97-24.41,10.25-36.67c8.02-29.96,17.88-59.37,26.19-89.24   c8.04-28.89,12.79-58.39,16.91-88.04c4.92-35.43,9.14-70.98,17.1-105.93c0.41-1.82,0.87-3.63,1.3-5.44   c-0.43-0.86-0.35-1.63,0.43-2.27c1.65-4.64,3.26-9.29,4.97-13.9c2.28-6.13,5.78-11.42,10.99-15.49c0.83-0.35,1.62-0.9,2.6-0.5   c3.48-0.23,6.59,0.9,9.56,2.6c3.67,2.1,7.35,4.16,11.01,6.27c10.95,6.3,21.63,4.89,32.21-1.01c8.35-4.65,16.75-9.19,25.13-13.78   c1.47-2.5,4.2-1.56,6.32-2.3c3.68-0.45,7.36-0.52,11.05-0.03c1.4,0.61,3.41,0.21,3.9,2.33c6.48,6.05,9.87,14.24,14.82,21.35   c4.83,6.93,7.85,7.51,14.75,2.76c4.21-2.9,7.86-6.49,11.66-9.88c2.97-2.65,5.89-5.34,9.63-6.94c2.7-1.16,5.44-1.66,8.32-0.88   C586.24,89.55,586.73,90.59,587.4,91.15z"
   id="path4" />
	<path
   class="st1"
   d="M729.69,495.94c1.7-0.14,1.79-0.15,1.84,1.39c0.08,2.62,0.2,5.26-0.02,7.87c-0.23,2.8,0.45,4.09,3.6,3.8   c3.35-0.31,6.74-0.07,10.12-0.07c46.99,0,93.99-0.05,140.98,0.09c3.57,0.01,4.49-1.07,4.12-4.32c-0.24-2.1-0.11-4.25-0.02-6.37   c0.05-1.12-0.59-2.97,1.26-2.93c1.56,0.03,0.91,1.76,0.94,2.75c0.09,2.87,0.11,5.75,0,8.62c-0.06,1.61,0.47,2.19,2.12,2.18   c8.37-0.06,16.75-0.08,25.12,0.01c1.81,0.02,2.03-0.78,1.97-2.25c-0.08-1.98-0.02-3.96-0.02-6.28c9.56,3.18,18.84,6.26,29.07,9.66   c-10.13,3.38-19.4,6.47-28.65,9.56c-0.21-0.47-0.39-0.68-0.39-0.9c-0.2-7.58-0.2-7.58-7.91-7.58c-211.46,0-422.92,0-634.38,0   c-77.6,0-155.21-0.02-232.81,0.08c-3.18,0-3.86-0.86-3.86-3.93c0.08-156.7,0.07-313.4,0.07-470.1c0-5.97,0-5.97-5.99-6.06   c-0.72-0.01-1.45-0.1-2.49-0.17c3.17-9.51,6.28-18.81,9.61-28.81c3.33,9.96,6.43,19.25,9.62,28.78c-0.92,0.09-1.51,0.19-2.09,0.2   c-6.41,0.15-6.41,0.15-6.41,6.4c0,25.87,0.07,51.73-0.08,77.6c-0.02,3.44,0.52,4.99,4.33,4.49c2.83-0.37,5.74-0.11,8.61-0.05   c1.03,0.02,2.71-0.42,2.63,1.17c-0.08,1.46-1.73,1.04-2.79,1.05c-3.37,0.04-6.76,0.15-10.12-0.04c-2.22-0.13-2.89,0.72-2.59,2.75   c0.07,0.49,0.01,1,0.01,1.5c0,103.72,0.02,207.43-0.09,311.15c0,3.57,1.07,4.4,4.31,4.11c2.98-0.27,5.99-0.07,8.99-0.05   c0.97,0.01,2.36-0.17,2.31,1.17c-0.06,1.3-1.46,1.06-2.42,1.07c-3.62,0.02-7.25,0.11-10.87-0.03c-1.86-0.07-2.27,0.6-2.26,2.34   c0.06,20.24,0.07,40.49-0.01,60.73c-0.01,2.1,0.77,2.42,2.6,2.41c17.37-0.06,34.74-0.07,52.12,0.02c2.12,0.01,2.47-0.8,2.4-2.61   c-0.12-2.74-0.06-5.5-0.02-8.25c0.02-1.05-0.4-2.69,1.1-2.76c1.66-0.07,1.09,1.62,1.12,2.6c0.08,2.87,0.12,5.75-0.01,8.62   c-0.08,1.76,0.45,2.58,2.29,2.35c0.62-0.08,1.25-0.01,1.87-0.01c52.99,0,105.98-0.04,158.97,0.08c3.45,0.01,4.56-0.88,4.18-4.26   c-0.29-2.59-0.06-5.24-0.03-7.87c0.01-0.79,0.26-1.58,1.21-1.58c1.05,0.01,1,0.95,1.01,1.66c0.02,3.87-0.01,7.74-0.02,11.62   c1.19,1.06,2.64,0.52,3.94,0.52c47.47,0.03,94.93,0.03,142.4,0.03c53.32,0,106.65,0,159.97,0c48.33,0,96.66,0,144.99,0   c4.2,0,4.13-0.01,4.23-4.26C729.45,501.89,728.95,498.89,729.69,495.94z"
   id="path6" />
	<path
   class="st2"
   d="M76.54,134.06c-1.96,0.4-3.75,0.77-5.89,1.21c2.21-4.5,4.31-8.76,6.59-13.41c-2.14,0-3.86,0-5.57,0   c-0.8,0-1.64-0.19-1.7-1.08c-0.06-0.94,0.79-1.15,1.58-1.16c4.87-0.01,9.75-0.01,14.62,0c0.69,0,1.35,0.32,1.39,0.98   c0.06,0.89-0.67,1.24-1.49,1.24c-2.35,0.02-4.7,0.01-7.54,0.01c1.75,3.57,3.31,6.78,4.9,9.98c0.39,0.78,1.12,1.61,0.61,2.41   c-0.53,0.84-1.64,0.57-2.42,0.28c-2.25-0.86-2.93,0-2.69,2.17c0.08,0.74,0.01,1.5,0.01,2.25c0,94.84,0,189.68,0,284.52   c0,5.86,0,5.86,6.16,4.4c-2.22,4.51-4.26,8.65-6.62,13.42c2.79,0,5.19-0.01,7.59,0.01c0.81,0.01,1.55,0.35,1.47,1.25   c-0.06,0.65-0.71,0.97-1.4,0.98c-4.87,0.01-9.75,0.01-14.62,0c-0.79,0-1.63-0.23-1.56-1.17c0.06-0.9,0.9-1.07,1.7-1.07   c1.71,0,3.43,0,5.58,0c-2.28-4.61-4.36-8.83-6.6-13.35c2.04,0.38,3.87,0.72,5.88,1.1C76.54,330.65,76.54,232.47,76.54,134.06z"
   id="path8" />
	<path
   class="st3"
   d="M505.49,383.54c0.8-1.89-1.38-5.4,1.5-5.55c1.7-0.09,0.74,3.65,0.78,5.62c0.16,6.8,0.06,6.8,6.84,6.8   c17.99,0,35.98,0,53.97,0c5.08,0,5.08,0,2.82-5.65c5.1,1.13,8.91,4.36,13.8,5.97c0-1.97-0.02-3.68,0.01-5.39   c0.02-0.88,0.09-1.91,1.31-1.81c1.01,0.08,0.9,1.05,0.9,1.75c0.02,4.62,0.02,9.24,0,13.86c0,0.71,0.03,1.65-1,1.67   c-0.95,0.02-1.19-0.8-1.2-1.57c-0.04-2.11-0.01-4.23-0.01-6.97c-4.55,2.23-8.71,4.26-12.84,6.28c-0.23-0.25-0.52-0.45-0.5-0.57   c1.22-5.32,1.22-5.32-4.28-5.32c-18.74,0-37.48-0.02-56.22,0.04c-1.35,0-3.32-1.03-3.72,1.7c-0.18,1.24-1.67,1.01-1.8,0.1   c-0.37-2.66-2.27-1.8-3.67-1.81c-19.74-0.04-39.48-0.03-59.22-0.03c-4.41,0-4.4,0-3.41,4.34c0.1,0.45,0.19,0.9,0.38,1.81   c-4.58-2.24-8.77-4.29-13.42-6.56c0,2.69,0.04,4.92-0.02,7.14c-0.02,0.74-0.3,1.53-1.32,1.4c-0.83-0.1-0.85-0.86-0.85-1.43   c-0.03-4.75-0.03-9.49-0.01-14.24c0-0.72,0.03-1.66,1.07-1.62c0.93,0.03,1.12,0.89,1.14,1.65c0.04,1.73,0.01,3.46,0.01,5.78   c4.49-2.18,8.54-4.14,12.74-6.19c0.04,5.67,0.04,5.67,5.74,5.67c18.99,0,37.98-0.08,56.97,0.08c3.28,0.03,4.22-1,3.53-3.99   C504.63,385.52,504.64,384.53,505.49,383.54z"
   id="path10" />
	<path
   d="M596.72,119.55c0.09,0.76,0.19,1.51,0.28,2.27c-3.08,0.28-7.21-1.34-8.95,0.66c-1.59,1.83-0.66,5.85-1.55,8.89   c0-2.18,0.11-4.36-0.05-6.53c-0.08-1.02,0.99-2.88-1.08-2.92c-1.84-0.03-4.67-1.14-5.37,0.72c-0.81,2.13-2.12,1.1-3.15,1.55   l0.11,0.1c-0.08-1.59-0.4-2.6-2.52-2.52c-5.42,0.2-10.85,0.06-16.28,0.07c-1.14,0-2.3-0.4-2.55,1.61c-0.16,1.31-1.89,0.41-2.9,0.58   l0.11,0.11c0.15-1.6-0.23-2.42-2.19-2.36c-5.34,0.16-10.69,0.03-16.03,0.08c-0.73,0.01-1.93-0.53-2.04,0.85   c-0.2,2.52-2.01,1.02-3.09,1.33l0.11,0.11c0.15-1.61-0.23-2.41-2.19-2.36c-5.59,0.15-11.18,0.03-16.78,0.08   c-0.73,0.01-1.93-0.53-2.04,0.84c-0.2,2.52-2.01,1.02-3.09,1.33l0.11,0.11c0.15-1.6-0.23-2.41-2.2-2.36   c-5.84,0.15-11.68,0.03-17.53,0.08c-0.73,0.01-1.93-0.53-2.04,0.84c-0.2,2.52-2.01,1.02-3.09,1.33l0.11,0.11   c0.15-1.6-0.23-2.42-2.19-2.36c-5.59,0.15-11.19,0.03-16.78,0.08c-0.73,0.01-1.93-0.53-2.04,0.84c-0.2,2.52-2.01,1.02-3.09,1.33   l0.11,0.11c0.15-1.6-0.23-2.42-2.19-2.36c-5.34,0.16-10.69,0.03-16.03,0.08c-0.73,0.01-1.93-0.53-2.04,0.85   c-0.2,2.52-2.01,1.01-3.09,1.33c-0.15-0.08-0.31-0.16-0.46-0.24c-1.16-1.25-2.7-0.91-4.14-0.99c-1.86-0.1-2.74,0.78-2.64,2.64   c0.08,1.44-0.27,2.98,1,4.13c0.08,0.15,0.16,0.31,0.23,0.46c-0.28,1.03,1,2.8-0.98,2.96c-1.71,0.13-2-1.56-2.15-2.88   c-0.15-1.36-0.02-2.74-0.05-4.12c-0.04-2.08,0.8-4.78-3.01-4.26c-0.63,0.09-1.22-0.41-1.13-1.16c0.09-0.74,0.74-1.06,1.38-0.96   c2.45,0.38,3.03-0.79,2.8-2.98c-0.09-0.86-0.38-2.3,1.14-2.23c1.06,0.05,1.17,1.26,1.03,2.1c-0.46,2.84,0.96,3.13,3.37,3.12   c24.09-0.08,48.19-0.1,72.29,0.02c2.71,0.01,3.87-0.51,3.48-3.42c-0.26-1.96-0.04-3.99-0.04-5.98c0-0.83,0.32-1.64,1.12-1.69   c0.95-0.06,1.06,0.86,1.09,1.63c0.02,0.5,0.01,1,0.02,1.5c0.14,7.89,0.14,7.9,7.9,7.9c21.97,0.01,43.95-0.02,65.92,0.05   c2.45,0.01,4.2-0.11,3.59-3.28c-0.16-0.81-0.03-1.91,1.17-1.95c1.04-0.03,1.11,0.98,0.99,1.64c-0.65,3.56,1.37,3.83,4.08,3.57   C593.21,119.47,594.97,119.57,596.72,119.55z"
   id="path12" />
	<path
   d="M117,440.47c0.78,1.53,2.18,0.76,3.26,0.76c6.95-0.03,13.92,0.47,20.84-0.65l-0.11-0.11c0.78,1.53,2.18,0.76,3.26,0.76   c6.7-0.01,13.42,0.43,20.09-0.65l-0.11-0.11c0.78,1.53,2.18,0.76,3.26,0.76c6.95-0.03,13.92,0.47,20.84-0.65l-0.11-0.11   c0.79,1.54,2.21,0.78,3.3,0.76c6.89-0.14,13.82,0.69,20.66-0.8l-0.11-0.1c0.26,0.94,1.01,0.98,1.77,0.94   c7-0.36,14.05,0.8,21.01-0.73c0.47-0.1,0.99,0.02,1.48,0.04l-0.11-0.11c0.79,1.54,2.21,0.78,3.3,0.76   c6.64-0.12,13.32,0.65,19.91-0.8l-0.11-0.1c1.44,1.83,3.43,0.8,5.15,0.89c3.24,0.18,6.49,0.04,9.74,0.06c0.73,0,1.59-0.07,1.79,0.9   c0.14,0.7-0.25,1.19-0.98,1.29c-1.82,0.26-1.1,1.69-1.12,2.63c-0.08,3.62-0.02,7.24-0.04,10.86c-0.01,0.83,0.16,2.03-1.03,2.04   c-1.06,0.01-1.2-1.05-1.2-1.97c0-3.5-0.16-7,0.05-10.48c0.14-2.42-0.56-3.12-3.04-3.1c-12.24,0.14-24.47,0.06-36.71,0.06   c-41.21,0-82.41,0.05-123.62-0.09c-3.36-0.01-4.31,0.85-4,4.09c0.3,3.09,0.08,6.24,0.05,9.36c-0.01,0.83,0.2,2.06-0.96,2.1   c-1.37,0.04-1.27-1.25-1.27-2.23c-0.01-3.37-0.11-6.75,0.03-10.11c0.1-2.2-0.2-3.62-2.91-3.16c-0.92,0.16-2.36,0.24-2.31-1.12   c0.04-1.32,1.44-1.07,2.41-1.08c5.93-0.04,11.87,0.28,17.75-0.7L117,440.47z"
   id="path14" />
	<path
   d="M892.52,458.39c-0.64,0.07-1.27,0.15-1.91,0.22c-0.68-3.84-0.42-7.72-0.23-11.56c0.15-3.03-0.86-3.61-3.7-3.6   c-42.35,0.09-84.69,0.06-127.04,0.06c-8.24,0-16.49,0.15-24.73-0.08c-2.97-0.09-3.58,0.9-3.41,3.58c0.22,3.36,0.08,6.74,0.02,10.11   c-0.01,0.8,0.07,2-1.21,1.87c-0.83-0.09-0.97-1.03-0.98-1.81c-0.02-3.75-0.13-7.5,0.02-11.24c0.08-2-0.58-2.58-2.52-2.47   c-2.86,0.15-5.74,0.04-8.62,0.03c-0.77,0-1.69-0.06-1.78-0.96c-0.12-1.2,0.91-1.27,1.8-1.27c3.62-0.01,7.25-0.17,10.86,0.04   c3,0.17,5.85-0.56,8.76-0.89l-0.11-0.1c0.26,0.94,1.01,0.98,1.77,0.94c7-0.36,14.05,0.8,21-0.73c0.47-0.1,0.99,0.03,1.48,0.05   l-0.11-0.11c0.79,1.53,2.21,0.78,3.3,0.75c7.14-0.16,14.32,0.72,21.41-0.8l-0.11-0.1c0.26,0.94,1.01,0.98,1.77,0.94   c7-0.36,14.04,0.8,21-0.73c0.47-0.1,0.99,0.02,1.48,0.05l-0.11-0.11c0.78,1.53,2.18,0.76,3.26,0.76c6.7-0.01,13.42,0.43,20.09-0.65   l-0.11-0.11c0.78,1.53,2.18,0.76,3.26,0.76c6.95-0.03,13.92,0.46,20.84-0.65l-0.11-0.11c0.78,1.53,2.18,0.76,3.26,0.76   c6.95-0.03,13.92,0.46,20.84-0.65l-0.11-0.11c3.47,1.75,7.18,0.32,10.74,0.81c1.01,0.14,2.55-0.56,2.83,0.96   c0.27,1.48-1.23,1.1-2.1,1.36c-1.41,0.42-0.76,1.66-0.78,2.52C892.49,450.2,892.52,454.3,892.52,458.39z"
   id="path16" />
	<path
   class="st4"
   d="M729.69,495.94c0.04,3.62,0.01,7.24,0.15,10.86c0.08,2.16-0.88,2.93-2.91,2.77c-0.87-0.07-1.75-0.01-2.62-0.01   c-148.54,0-297.09,0-445.63-0.05c-1.6,0-3.53,0.91-4.83-0.93c1.36,0.1,2.72,0.28,4.09,0.28c47.57,0.01,95.15-0.02,142.72,0.1   c3.16,0.01,3.92-0.72,3.65-3.8c-0.35-3.96-0.1-7.98-0.06-11.98c0.01-0.81-0.22-2.03,0.92-2.15c1.41-0.15,1.41,1.13,1.42,2.1   c0.03,4.49,0.3,9.01-0.11,13.47c-0.22,2.37,0.7,2.29,2.31,2.29c6.24-0.03,12.49-0.01,18.73-0.01c44.7,0,89.4,0.01,134.1-0.04   c1.34,0,2.99,0.82,4.06-0.81c0.49-0.42,0.99-0.48,1.49-0.03c0.74,1.61,2.18,0.85,3.28,0.85c45.1,0.04,90.19,0,135.29,0.12   c3.12,0.01,3.64-1.03,3.59-3.78C729.25,502.11,728.67,498.97,729.69,495.94z"
   id="path18" />
	<path
   class="st3"
   d="M635.97,97.06c-6.05-1.21-6.05-1.21-6.05,4.47c0,6.04,0,6.04,6.06,4.66c-2.41,4.84-4.68,9.42-7.21,14.49   c-2.5-4.96-4.82-9.56-7.17-14.22c2.15-0.68,5.1,2.1,5.72,0.13c0.96-3.05,0.86-6.83-0.06-9.92c-0.5-1.69-3.44,0.57-5.68,0.25   c2.38-4.76,4.69-9.36,7.16-14.29C631.24,87.62,633.52,92.17,635.97,97.06z"
   id="path20" />
	<path
   class="st5"
   d="M510.95,81.53c-2.11,0.77-4.21,1.54-6.32,2.3c-27.69-0.05-55.38-0.08-83.06-0.19c-1.46-0.01-4.1,0.95-4.15-1   c-0.05-2.08,2.59-1.03,4.04-1.17c1.98-0.19,3.99-0.09,5.98-0.12c1.03-0.77,2.06-0.79,3.08,0.02c6.72-0.01,13.45-0.01,20.17-0.02   c1.03-0.77,2.06-0.79,3.08,0.02c6.97-0.01,13.95-0.01,20.92-0.02c1.03-0.77,2.06-0.79,3.08,0.02c7.22-0.01,14.45-0.01,21.67-0.02   c1.03-0.77,2.06-0.79,3.08,0.02C505.33,81.43,508.14,81.48,510.95,81.53z"
   id="path22" />
	<path
   class="st1"
   d="M525.9,83.83c-1.3-0.78-2.6-1.56-3.9-2.33c0.48-0.05,0.96-0.1,1.44-0.14c1.03-0.77,2.06-0.79,3.08,0.02   c6.72-0.01,13.45-0.01,20.17-0.02c1.03-0.77,2.06-0.79,3.08,0.02c6.97-0.01,13.94-0.01,20.92-0.02c1.03-0.77,2.06-0.79,3.08,0.02   c6.49,0.02,12.97,0.02,19.46,0.09c1.14,0.01,3.05-0.56,3.07,1.13c0.02,1.81-1.93,1.07-3.01,1.07   C570.82,83.75,548.36,83.79,525.9,83.83z"
   id="path24" />
	<path
   class="st1"
   d="M506.72,431.47c0.59,0.01,0.93,0.33,1.02,0.87c0.08,0.49,0.04,0.99,0.1,1.49c0.28,2.43-1.19,5.74,0.66,7.06   c1.67,1.19,4.8,0.31,7.28,0.39c1.04,0.03,2.69-0.42,2.66,1.14c-0.02,1.55-1.67,1.04-2.71,1.09c-1.24,0.06-2.5,0.12-3.73-0.01   c-2.83-0.28-4.99,0.01-4.19,3.77c0.15,0.71-0.02,1.64-1.01,1.64c-0.89,0-1.25-0.76-1.2-1.57c0.18-2.4,0.17-4.56-3.3-3.86   c-0.64,0.13-1.26-0.27-1.31-1c-0.05-0.72,0.47-1.25,1.15-1.14c4.5,0.74,3.39-2.46,3.45-4.84c0.03-1.24,0.01-2.49,0.05-3.73   C505.65,432.06,506.05,431.63,506.72,431.47z"
   id="path26" />
	<path
   class="st6"
   d="M599.3,442.47c-0.37,1.22-1.33,1.03-2.17,1.04c-2.36,0.02-4.74,0.16-7.08-0.03c-2.23-0.18-2.78,0.73-2.63,2.77   c0.16,2.1,0.07,4.22,0.01,6.34c-0.02,0.79,0.29,2.01-0.93,2.07c-1.44,0.07-1.28-1.23-1.31-2.18c-0.05-1.61,0.06-3.24-0.04-4.85   c-0.11-1.83,1.09-4.54-2.61-4.25c-0.23,0.02-0.74-0.73-0.7-1.07c0.04-0.36,0.62-0.96,0.92-0.93c1.93,0.16,2.7-0.61,2.46-2.55   c-0.1-0.78,0.28-1.57,1.18-1.57c1.01,0.01,1.12,0.96,1.01,1.66c-0.38,2.58,1.29,2.39,2.96,2.35c2.36-0.05,4.72-0.01,7.09-0.01   C598.37,441.26,599.21,441.36,599.3,442.47z"
   id="path28" />
	<path
   class="st6"
   d="M425.5,437.1c0.3,0.36,0.88,0.73,0.85,1.06c-0.34,4.28,2.78,2.95,4.95,3.08c1.49,0.09,2.99,0.03,4.48,0.02   c0.92-0.01,1.98,0.14,1.92,1.2c-0.06,1.04-1.16,1.08-2.07,1.07c-2.24-0.01-4.49,0.14-6.72-0.04c-2.07-0.17-2.53,0.68-2.42,2.55   c0.14,2.36,0.05,4.73-0.01,7.09c-0.02,0.73-0.21,1.6-1.19,1.57c-1.03-0.03-1-0.96-1.02-1.66c-0.05-1.99-0.09-3.99-0.01-5.98   c0.09-2.11,0.25-4.11-2.91-3.59c-0.65,0.11-1.28-0.38-1.28-1.07c-0.01-0.68,0.61-1.18,1.26-1.1c2.2,0.28,3.3-0.43,2.99-2.81   C424.25,437.86,424.65,437.34,425.5,437.1z"
   id="path30" />
	<path
   class="st7"
   d="M729.08,471.65c0.89-0.05,1.78-0.11,2.68-0.16c-0.01,3.61,0.03,7.22-0.07,10.82c-0.04,1.34,0.7,3.59-1.35,3.59   c-1.66,0-1.12-2.16-1.15-3.43C729.1,478.86,729.11,475.26,729.08,471.65z"
   id="path32" />
	<path
   class="st5"
   d="M321.07,443.51c-2.36,0-4.72-0.02-7.07,0.01c-0.86,0.01-1.63-0.38-1.62-1.14c0.01-0.77,0.81-1.11,1.66-1.11   c4.84,0.02,9.68,0,14.52,0.02c0.64,0,1.3,0.23,1.38,0.96c0.11,0.98-0.64,1.24-1.42,1.25C326.03,443.53,323.55,443.51,321.07,443.51   z"
   id="path34" />
	<path
   class="st5"
   d="M294.08,441.27c2.36,0,4.71-0.01,7.07,0.01c0.87,0.01,1.91-0.01,1.84,1.22c-0.05,0.95-0.94,1.01-1.69,1.01   c-4.71,0.01-9.42-0.01-14.14,0.01c-0.83,0-1.67-0.25-1.68-1.06c-0.01-1.09,0.98-1.21,1.9-1.2   C289.61,441.28,291.84,441.27,294.08,441.27z"
   id="path36" />
	<path
   class="st8"
   d="M587.46,311.67c0,2.37,0.02,4.73-0.02,7.1c-0.01,0.73-0.17,1.63-1.19,1.5c-0.63-0.08-1.06-0.71-1.06-1.37   c-0.02-4.98-0.01-9.96,0.03-14.93c0.01-0.64,0.39-1.28,1.08-1.32c1.04-0.06,1.13,0.85,1.14,1.56   C587.49,306.69,587.47,309.18,587.46,311.67z"
   id="path38" />
	<path
   class="st4"
   d="M426.58,230.75c0,2.24,0.01,4.48-0.01,6.71c-0.01,0.88-0.06,1.95-1.13,2.06c-1.26,0.12-1.19-1.06-1.2-1.87   c-0.04-4.6-0.04-9.2-0.01-13.8c0.01-0.84,0.02-2.01,1.21-1.89c1,0.1,1.14,1.16,1.14,2.07   C426.58,226.27,426.59,228.51,426.58,230.75z"
   id="path40" />
	<path
   class="st8"
   d="M587.47,230.82c0,2.36,0.03,4.72-0.02,7.08c-0.01,0.71-0.04,1.62-1.07,1.62c-0.95,0-1.2-0.83-1.21-1.58   c-0.04-4.72-0.03-9.45-0.02-14.17c0-0.91,0.21-1.86,1.36-1.78c0.97,0.07,0.94,1.03,0.95,1.75   C587.5,226.1,587.48,228.46,587.47,230.82z"
   id="path42" />
	<path
   class="st9"
   d="M426.57,257.86c0,2.24,0.03,4.49-0.02,6.73c-0.02,0.87-0.13,1.9-1.32,1.84c-0.98-0.04-0.99-1-0.99-1.71   c-0.03-4.73-0.03-9.47,0-14.2c0-0.72,0.07-1.69,1.04-1.68c1.12,0.01,1.27,1.02,1.28,1.91   C426.59,253.13,426.58,255.49,426.57,257.86z"
   id="path44" />
	<path
   class="st8"
   d="M585.16,257.56c0-2.37-0.01-4.73,0.01-7.1c0.01-0.8,0.35-1.59,1.19-1.64c0.98-0.05,1.09,0.89,1.09,1.62   c0.03,4.86,0.03,9.71-0.01,14.57c0,0.57-0.06,1.33-0.88,1.41c-0.99,0.1-1.33-0.67-1.35-1.4c-0.07-2.49-0.03-4.98-0.03-7.47   C585.17,257.56,585.17,257.56,585.16,257.56z"
   id="path46" />
	<path
   class="st10"
   d="M507.84,279.06c0,2.36,0.02,4.71-0.01,7.07c-0.01,0.59-0.05,1.32-0.87,1.4c-0.94,0.09-1.35-0.57-1.36-1.37   c-0.03-4.96-0.02-9.92-0.01-14.88c0-0.73,0.55-1.26,1.13-1.26c0.9,0,1.13,0.78,1.12,1.6C507.84,274.1,507.84,276.58,507.84,279.06z   "
   id="path48" />
	<path
   class="st9"
   d="M426.57,284.75c0,2.24,0.02,4.49-0.01,6.73c-0.01,0.88-0.15,1.9-1.3,1.87c-0.98-0.02-1-0.99-1.01-1.7   c-0.03-4.74-0.03-9.48,0-14.21c0-0.71,0.04-1.68,1.02-1.69c1.16-0.01,1.27,1.02,1.29,1.89   C426.6,280.01,426.57,282.38,426.57,284.75z"
   id="path50" />
	<path
   class="st11"
   d="M507.84,359.17c0,2.49,0.01,4.97-0.01,7.46c0,0.76-0.1,1.66-1.05,1.67c-0.83,0.01-1.21-0.75-1.21-1.57   c-0.01-4.85-0.01-9.7,0.01-14.55c0-0.79,0.37-1.55,1.28-1.46c0.97,0.1,0.95,1.01,0.96,1.74   C507.86,354.7,507.84,356.93,507.84,359.17z"
   id="path52" />
	<path
   class="st4"
   d="M426.56,338.43c0,2.36,0.01,4.72-0.01,7.08c-0.01,0.81-0.34,1.58-1.18,1.63c-0.96,0.05-1.12-0.84-1.13-1.6   c-0.02-4.84-0.03-9.69,0.01-14.53c0-0.57,0.08-1.31,0.89-1.41c0.99-0.12,1.34,0.65,1.36,1.38c0.07,2.48,0.03,4.97,0.03,7.45   C426.55,338.43,426.56,338.43,426.56,338.43z"
   id="path54" />
	<path
   class="st12"
   d="M507.84,332.95c0,2.24,0.02,4.48-0.01,6.71c-0.01,0.72,0.02,1.64-0.96,1.72c-0.92,0.07-1.27-0.69-1.27-1.48   c-0.03-4.85-0.02-9.7-0.01-14.55c0-0.82,0.39-1.58,1.22-1.56c0.92,0.02,1.03,0.92,1.04,1.69   C507.85,327.97,507.84,330.46,507.84,332.95z"
   id="path56" />
	<path
   class="st9"
   d="M426.58,311.44c0,2.24,0,4.48,0,6.72c0,0.91-0.14,1.98-1.14,2.08c-1.22,0.13-1.2-1.06-1.21-1.88   c-0.04-4.61-0.04-9.22,0-13.82c0.01-0.82-0.06-2.01,1.19-1.89c1.06,0.1,1.13,1.18,1.14,2.06   C426.6,306.96,426.58,309.2,426.58,311.44z"
   id="path58" />
	<path
   class="st1"
   d="M267.43,119.61c2.35,0,4.71-0.01,7.06,0c0.78,0,1.61,0.16,1.57,1.13c-0.04,0.93-0.85,1.1-1.63,1.1   c-4.83,0-9.66-0.01-14.49,0c-0.72,0-1.29-0.34-1.35-0.99c-0.08-0.9,0.56-1.25,1.42-1.25C262.48,119.62,264.96,119.61,267.43,119.61   z"
   id="path60" />
	<path
   class="st1"
   d="M294.08,121.85c-2.23,0-4.46-0.01-6.7,0.01c-0.92,0.01-1.9-0.12-1.9-1.2c0-0.82,0.85-1.06,1.68-1.06   c4.71,0.02,9.42,0,14.14,0.01c0.75,0,1.65,0.04,1.69,1c0.06,1.22-0.96,1.23-1.84,1.24C298.79,121.86,296.43,121.85,294.08,121.85z"
   id="path62" />
	<path
   class="st1"
   d="M320.9,121.85c-2.36,0-4.72,0.01-7.07-0.01c-0.83-0.01-1.49-0.4-1.39-1.28c0.07-0.65,0.7-0.95,1.4-0.95   c4.84,0,9.68-0.01,14.52,0c0.78,0,1.63,0.17,1.62,1.11c-0.01,0.91-0.84,1.12-1.63,1.12C325.86,121.86,323.38,121.85,320.9,121.85z"
   id="path64" />
	<path
   class="st13"
   d="M348.2,119.61c2.36,0,4.72-0.01,7.08,0c0.78,0,1.64,0.18,1.65,1.09c0.01,0.89-0.82,1.14-1.62,1.14   c-4.84,0.01-9.69,0.01-14.53-0.01c-0.81,0-1.51-0.37-1.43-1.26c0.06-0.65,0.7-0.97,1.4-0.97   C343.23,119.62,345.71,119.62,348.2,119.61z"
   id="path66" />
	<path
   class="st1"
   d="M617.4,121.85c-2.36,0-4.71-0.02-7.07,0.01c-0.85,0.01-1.66-0.32-1.64-1.1c0.02-1.09,1.03-1.16,1.95-1.16   c4.59,0.01,9.17,0,13.76,0.01c0.86,0,1.9-0.03,1.79,1.24c-0.09,0.94-0.96,0.99-1.72,0.99C622.11,121.86,619.75,121.85,617.4,121.85   z"
   id="path68" />
	<path
   class="st1"
   d="M644.12,121.85c-2.36,0-4.71,0-7.07-0.01c-0.84,0-1.5-0.41-1.41-1.27c0.06-0.64,0.68-0.96,1.39-0.96   c4.84,0.01,9.68,0,14.52,0c0.77,0,1.63,0.15,1.63,1.09c0,0.92-0.82,1.13-1.61,1.14C649.08,121.86,646.6,121.85,644.12,121.85z"
   id="path70" />
	<path
   class="st8"
   d="M587.46,473.1c0,2.36,0.04,4.73-0.02,7.09c-0.02,0.71-0.1,1.62-1.18,1.49c-0.7-0.08-1.05-0.72-1.05-1.35   c-0.03-4.97-0.03-9.95-0.01-14.92c0-0.68,0.49-1.3,1.09-1.33c0.97-0.06,1.15,0.81,1.16,1.57   C587.48,468.12,587.46,470.61,587.46,473.1z"
   id="path72" />
	<path
   class="st1"
   d="M159.57,121.86c-2.23,0-4.46,0.01-6.7-0.01c-0.86-0.01-1.95,0.09-2.03-1.07c-0.09-1.24,1.02-1.17,1.88-1.18   c4.59-0.01,9.18,0,13.76-0.01c0.91,0,1.95,0.09,1.85,1.21c-0.09,1.08-1.17,1.05-2.07,1.05   C164.03,121.85,161.8,121.86,159.57,121.86z"
   id="path74" />
	<path
   class="st1"
   d="M132.72,119.61c2.36,0,4.72,0.02,7.07-0.01c0.84-0.01,1.65,0.31,1.66,1.1c0.01,0.76-0.75,1.15-1.61,1.15   c-4.72-0.02-9.43,0-14.15-0.01c-0.88,0-1.89-0.05-1.78-1.28c0.09-0.95,1-0.95,1.74-0.95C128,119.6,130.36,119.61,132.72,119.61z"
   id="path76" />
	<path
   class="st13"
   d="M105.76,119.61c2.36,0,4.72,0.01,7.08,0c0.83-0.01,1.66,0.27,1.68,1.08c0.03,0.78-0.74,1.17-1.59,1.17   c-4.84-0.01-9.69,0-14.53-0.01c-0.79,0-1.57-0.3-1.46-1.24c0.11-0.93,0.98-0.98,1.74-0.98C101.04,119.6,103.4,119.61,105.76,119.61   z"
   id="path78" />
	<path
   class="st10"
   d="M507.85,413.5c0,2.23,0.01,4.47,0,6.7c0,0.88-0.01,1.93-1.2,1.87c-0.79-0.04-1.09-0.84-1.09-1.69   c0.02-4.72,0-9.43,0.01-14.15c0-0.78,0.21-1.61,1.1-1.67c1.34-0.09,1.14,1.06,1.16,1.86C507.88,408.78,507.85,411.14,507.85,413.5z   "
   id="path80" />
	<path
   class="st5"
   d="M644.14,443.51c-2.36,0-4.72,0-7.07,0c-0.83,0-1.52-0.37-1.44-1.24c0.05-0.61,0.66-0.99,1.38-0.99   c4.84,0.01,9.68-0.01,14.52,0c0.78,0,1.62,0.17,1.65,1.09c0.03,0.94-0.81,1.13-1.59,1.14   C649.11,443.52,646.62,443.51,644.14,443.51z"
   id="path82" />
	<path
   class="st5"
   d="M617.39,443.51c-2.36,0-4.71-0.02-7.07,0.01c-0.84,0.01-1.63-0.28-1.64-1.1c-0.01-0.79,0.72-1.16,1.59-1.15   c4.71,0.02,9.42,0,14.13,0.01c0.88,0,1.89,0.02,1.78,1.27c-0.08,0.95-0.98,0.96-1.73,0.97   C622.1,443.52,619.74,443.51,617.39,443.51z"
   id="path84" />
	<path
   class="st5"
   d="M482.77,443.52c-2.23,0-4.46,0.01-6.7-0.01c-0.85-0.01-1.96,0.13-2.03-1.05c-0.07-1.21,1.02-1.19,1.89-1.19   c4.59-0.01,9.18,0,13.76-0.01c0.92,0,1.94,0.12,1.84,1.23c-0.09,1.09-1.19,1.03-2.07,1.03C487.24,443.51,485,443.52,482.77,443.52z   "
   id="path86" />
	<path
   class="st8"
   d="M587.48,284.34c0,2.37,0.03,4.74-0.02,7.1c-0.02,0.82,0.07,1.98-1.16,1.94c-0.81-0.03-1.13-0.9-1.14-1.69   c-0.01-4.74-0.02-9.47,0-14.21c0-0.79,0.26-1.65,1.09-1.73c1.3-0.12,1.18,1.06,1.2,1.86C587.52,279.85,587.48,282.09,587.48,284.34   z"
   id="path88" />
	<path
   class="st11"
   d="M507.85,198.28c0,2.23,0.01,4.46,0,6.69c-0.01,0.86,0.04,1.92-1.21,1.83c-0.84-0.06-1.08-0.85-1.08-1.68   c0.01-4.71,0-9.42,0.01-14.13c0-0.79,0.23-1.61,1.12-1.65c1.33-0.07,1.13,1.07,1.14,1.87   C507.87,193.57,507.85,195.92,507.85,198.28z"
   id="path90" />
	<path
   class="st5"
   d="M455.8,443.51c-2.36,0-4.72,0.01-7.07,0c-0.77,0-1.62-0.14-1.65-1.08c-0.03-0.94,0.8-1.15,1.58-1.15   c4.72-0.01,9.43-0.01,14.15-0.01c0.91,0,1.89,0.14,1.81,1.25c-0.06,0.83-0.93,1-1.74,1C460.52,443.5,458.16,443.51,455.8,443.51z"
   id="path92" />
	<path
   class="st9"
   d="M426.54,472.8c0,2.49,0.04,4.98-0.03,7.46c-0.02,0.73-0.35,1.5-1.35,1.4c-0.82-0.09-0.9-0.84-0.9-1.41   c-0.04-4.85-0.04-9.7-0.01-14.56c0-0.74,0.15-1.66,1.11-1.62c0.84,0.04,1.18,0.83,1.19,1.63c0.02,2.36,0.01,4.73,0.01,7.09   C426.55,472.8,426.55,472.8,426.54,472.8z"
   id="path94" />
	<path
   class="st14"
   d="M372.35,83.7c-2.36,0-4.72,0.01-7.08,0c-0.88,0-1.94-0.03-1.86-1.21c0.05-0.78,0.88-1.07,1.71-1.07   c4.72,0.02,9.44,0.01,14.17,0.01c0.79,0,1.63,0.23,1.67,1.11c0.06,1.31-1.08,1.13-1.89,1.14C376.83,83.73,374.59,83.7,372.35,83.7z   "
   id="path96" />
	<path
   class="st14"
   d="M641.93,81.43c2.25,0,4.5-0.01,6.75,0c0.81,0,1.58,0.27,1.59,1.19c0.02,1.03-0.88,1.06-1.62,1.06   c-4.75,0.02-9.5,0.01-14.24,0c-0.78,0-1.66-0.13-1.62-1.1c0.04-0.86,0.81-1.17,1.64-1.17C636.93,81.43,639.43,81.43,641.93,81.43z"
   id="path98" />
	<path
   class="st10"
   d="M505.56,171.01c0-2.23-0.01-4.47,0.01-6.7c0.01-0.9,0.08-1.88,1.25-1.89c1.02-0.01,1.01,0.93,1.01,1.65   c0.02,4.72,0.01,9.44,0.01,14.15c0,0.78-0.09,1.68-1,1.71c-1.1,0.03-1.29-0.91-1.28-1.84   C505.57,175.73,505.56,173.37,505.56,171.01z"
   id="path100" />
	<path
   class="st11"
   d="M507.82,225.31c0,2.37,0.01,4.74-0.01,7.11c-0.01,0.66-0.25,1.29-1.02,1.27c-0.68-0.01-1.16-0.49-1.17-1.2   c-0.02-4.99-0.02-9.98-0.01-14.97c0-0.7,0.44-1.25,1.11-1.28c1.03-0.04,1.11,0.82,1.12,1.58c0.02,2.5,0.01,4.99,0.01,7.49   C507.84,225.31,507.83,225.31,507.82,225.31z"
   id="path102" />
	<path
   class="st1"
   d="M240.46,119.61c2.24,0,4.49-0.01,6.73,0c0.86,0.01,1.93-0.08,1.9,1.18c-0.03,0.93-0.89,1.06-1.68,1.06   c-4.74,0-9.48,0-14.22,0c-0.82,0-1.59-0.27-1.54-1.2c0.05-0.94,0.91-1.04,1.69-1.04C235.72,119.6,238.09,119.61,240.46,119.61z"
   id="path104" />
	<path
   class="st4"
   d="M424.23,203.55c0-2.23-0.03-4.46,0.01-6.69c0.01-0.71-0.03-1.65,0.95-1.74c1.17-0.1,1.38,0.85,1.38,1.76   c0.02,4.71,0.02,9.42-0.02,14.13c-0.01,0.74-0.25,1.57-1.2,1.58c-1.02,0.01-1.08-0.89-1.1-1.6   C424.2,208.51,424.23,206.03,424.23,203.55z"
   id="path106" />
	<path
   class="st15"
   d="M892.55,477.09c0,2.36,0.01,4.72,0,7.09c0,0.75-0.04,1.66-0.97,1.74c-0.85,0.08-1.28-0.63-1.28-1.46   c-0.02-4.85-0.02-9.7,0-14.54c0-0.79,0.31-1.57,1.22-1.56c1.02,0.01,1.01,0.93,1.02,1.65   C892.57,472.37,892.55,474.73,892.55,477.09z"
   id="path108" />
	<path
   class="st11"
   d="M505.56,493.77c0-2-0.01-4,0-5.99c0.01-0.98-0.19-2.32,1.1-2.42c1.51-0.12,1.16,1.31,1.17,2.22   c0.04,4.37,0.03,8.74,0,13.11c-0.01,0.8,0.28,2.01-0.98,2.04c-1.43,0.03-1.28-1.24-1.29-2.21   C505.55,498.26,505.56,496.02,505.56,493.77z"
   id="path110" />
	<path
   class="st3"
   d="M536.62,441.27c2.37,0,4.74,0,7.11,0c0.8,0,1.63,0.2,1.66,1.1c0.03,0.93-0.8,1.14-1.6,1.14   c-4.74,0-9.48,0-14.21,0c-0.78,0-1.63-0.14-1.65-1.09c-0.02-0.94,0.79-1.14,1.59-1.15C531.89,441.27,534.25,441.27,536.62,441.27z"
   id="path112" />
	<path
   class="st14"
   d="M614.49,83.7c-2.25,0-4.5,0.02-6.74-0.01c-0.84-0.01-1.95,0.14-1.86-1.18c0.06-0.89,0.89-1.09,1.69-1.09   c4.62,0,9.24,0,13.86,0c0.92,0,1.93,0.11,1.85,1.28c-0.08,1.24-1.24,0.97-2.05,0.98C618.99,83.73,616.74,83.71,614.49,83.7z"
   id="path114" />
	<path
   class="st11"
   d="M507.85,251.97c0,2.25,0.03,4.49-0.01,6.74c-0.01,0.82,0.19,1.96-1.14,1.9c-0.9-0.04-1.13-0.86-1.13-1.66   c-0.01-4.74-0.01-9.49,0-14.23c0-0.83,0.35-1.56,1.24-1.54c0.99,0.02,1.02,0.93,1.02,1.67   C507.86,247.22,507.85,249.59,507.85,251.97z"
   id="path116" />
	<path
   class="st3"
   d="M563.54,443.51c-2.24,0-4.49,0.01-6.73,0c-0.88,0-1.94,0.05-1.94-1.16c0-0.9,0.87-1.08,1.66-1.08   c4.74,0,9.48,0,14.21,0c0.8,0,1.61,0.21,1.56,1.17c-0.04,0.95-0.89,1.06-1.67,1.07C568.28,443.52,565.91,443.51,563.54,443.51z"
   id="path118" />
	<path
   class="st10"
   d="M507.85,305.85c0,2.24,0.03,4.47-0.01,6.71c-0.02,0.81,0.16,1.96-1.13,1.92c-0.87-0.03-1.13-0.87-1.13-1.66   c-0.01-4.72,0-9.44-0.02-14.16c0-0.83,0.28-1.66,1.06-1.73c1.2-0.1,1.21,0.97,1.22,1.84C507.86,301.13,507.85,303.49,507.85,305.85   z"
   id="path120" />
	<path
   class="st1"
   d="M186.71,121.84c-2.5,0-4.99,0.02-7.49,0c-0.8-0.01-1.52-0.3-1.42-1.27c0.07-0.76,0.73-0.94,1.38-0.94   c4.87-0.01,9.73-0.01,14.6,0c0.8,0,1.54,0.29,1.44,1.24c-0.08,0.69-0.71,0.97-1.39,0.97C191.45,121.84,189.08,121.84,186.71,121.84   z"
   id="path122" />
	<path
   class="st8"
   d="M585.15,338.47c0-2.36-0.03-4.72,0.01-7.08c0.02-0.87,0.15-1.87,1.36-1.77c1,0.08,0.93,1.03,0.94,1.73   c0.03,4.72,0.02,9.44,0,14.16c0,0.75-0.12,1.65-1.08,1.63c-0.84-0.02-1.21-0.77-1.21-1.59   C585.15,343.19,585.16,340.83,585.15,338.47z"
   id="path124" />
	<path
   class="st16"
   d="M399.3,81.43c2.24,0,4.48-0.01,6.71,0c0.9,0.01,1.9,0.09,1.89,1.25c-0.01,0.99-0.96,0.99-1.68,1   c-4.72,0.02-9.45,0.01-14.17,0.01c-0.79,0-1.7-0.13-1.71-1.01c-0.01-1.08,0.95-1.26,1.88-1.26   C394.57,81.43,396.94,81.43,399.3,81.43z"
   id="path126" />
	<path
   class="st1"
   d="M213.52,121.86c-2.24,0-4.49,0.01-6.73,0c-0.87,0-1.97,0.09-2.04-1.07c-0.08-1.24,1.03-1.17,1.9-1.17   c4.49-0.01,8.98-0.01,13.47,0c0.86,0,2.03-0.12,2.04,1.04c0.01,1.44-1.31,1.18-2.26,1.2C217.76,121.88,215.64,121.86,213.52,121.86   z"
   id="path128" />
	<path
   class="st11"
   d="M507.85,467.15c0,2.37,0.01,4.74-0.01,7.11c-0.01,0.75-0.08,1.64-1.1,1.59c-0.89-0.05-1.17-0.82-1.17-1.64   c0-4.74-0.01-9.48,0-14.22c0-0.82,0.3-1.57,1.2-1.58c1.01-0.01,1.05,0.88,1.06,1.63C507.86,462.41,507.85,464.78,507.85,467.15z"
   id="path130" />
	<path
   class="st17"
   d="M587.48,203.93c0,2.36,0.02,4.71-0.02,7.07c-0.01,0.71-0.05,1.62-1.09,1.59c-0.94-0.02-1.19-0.84-1.2-1.59   c-0.03-4.71-0.03-9.42-0.02-14.13c0-0.92,0.22-1.84,1.38-1.75c0.99,0.08,0.92,1.04,0.93,1.74   C587.51,199.22,587.48,201.58,587.48,203.93z"
   id="path132" />
	<path
   class="st3"
   d="M401.89,443.5c-2.36,0-4.72,0-7.08,0c-0.81,0-1.65-0.26-1.65-1.11c0-0.84,0.84-1.11,1.66-1.11   c4.84,0,9.68-0.01,14.52,0.01c0.79,0,1.52,0.35,1.41,1.27c-0.08,0.67-0.73,0.94-1.42,0.94C406.85,443.5,404.37,443.5,401.89,443.5z   "
   id="path134" />
	<path
   class="st8"
   d="M585.14,176.62c0-2.12-0.01-4.24,0-6.36c0-0.91,0.09-1.96,1.17-2.03c1.23-0.08,1.16,1.07,1.17,1.92   c0.02,4.49,0.03,8.98,0,13.47c-0.01,0.81,0.2,1.97-1.05,2.01c-1.16,0.04-1.26-1-1.27-1.89   C585.13,181.36,585.14,178.99,585.14,176.62z"
   id="path136" />
	<path
   class="st5"
   d="M375.12,119.61c2.36,0,4.72,0,7.08,0c0.79,0,1.65,0.2,1.67,1.08c0.02,0.86-0.8,1.15-1.61,1.15   c-4.72,0.01-9.44,0.01-14.15,0.01c-0.9,0-1.9-0.11-1.81-1.26c0.07-0.86,0.97-0.98,1.76-0.98   C370.4,119.62,372.76,119.61,375.12,119.61z"
   id="path138" />
	<path
   class="st3"
   d="M698.49,441.27c2.23,0,4.47-0.01,6.7,0c0.88,0,1.92,0.06,1.85,1.23c-0.05,0.89-0.96,1-1.73,1   c-4.72,0-9.43,0-14.15,0c-0.82,0-1.71-0.26-1.69-1.06c0.02-1.07,1.04-1.18,1.95-1.18C693.77,441.28,696.13,441.27,698.49,441.27z"
   id="path140" />
	<path
   class="st4"
   d="M426.58,365.31c0.01,2.25,0.02,4.5,0,6.74c-0.01,0.9-0.14,1.89-1.28,1.9c-0.97,0.01-1.06-0.93-1.06-1.66   c-0.02-4.75-0.02-9.49,0.01-14.24c0.01-0.72,0.14-1.64,1.17-1.54c0.91,0.08,1.13,0.92,1.14,1.68   C426.6,360.57,426.57,362.94,426.58,365.31z"
   id="path142" />
	<path
   class="st17"
   d="M587.48,365.46c0,2.25,0.02,4.5-0.01,6.74c-0.01,0.72,0.01,1.63-0.97,1.74c-0.93,0.1-1.32-0.65-1.32-1.43   c-0.03-4.87-0.03-9.74,0.02-14.6c0.01-0.76,0.4-1.48,1.38-1.36c0.83,0.1,0.86,0.84,0.87,1.42   C587.5,360.47,587.47,362.97,587.48,365.46z"
   id="path144" />
	<path
   class="st8"
   d="M587.48,419.16c0,2.25,0.03,4.49-0.01,6.74c-0.02,0.83,0.11,1.96-1.18,1.9c-0.88-0.04-1.13-0.9-1.14-1.68   c-0.02-4.74-0.02-9.48,0.01-14.23c0-0.78,0.35-1.56,1.26-1.52c0.99,0.04,1.03,0.94,1.04,1.67   C587.5,414.42,587.48,416.79,587.48,419.16z"
   id="path146" />
	<path
   class="st8"
   d="M587.15,507.99c-0.5,0.01-1,0.02-1.49,0.03c-1.18-5.15-0.25-10.36-0.47-15.54c-0.03-0.77,0.38-1.56,1.28-1.49   c0.99,0.07,1,1.02,0.98,1.72C587.32,497.8,587.9,502.91,587.15,507.99z"
   id="path148" />
	<path
   class="st3"
   d="M375.26,441.27c2.23,0,4.47-0.01,6.7,0c0.89,0,1.92,0.05,1.87,1.22c-0.04,0.88-0.95,1.01-1.73,1.01   c-4.72,0-9.43,0-14.15,0c-0.81,0-1.7-0.23-1.7-1.05c0-1.09,1.02-1.19,1.93-1.19C370.55,441.27,372.9,441.27,375.26,441.27z"
   id="path150" />
	<path
   class="st4"
   d="M424.22,176.98c0-2.37-0.02-4.74,0.02-7.11c0.01-0.73,0.08-1.62,1.08-1.64c0.94-0.01,1.23,0.8,1.23,1.56   c0.03,4.74,0.03,9.48,0,14.22c0,0.76-0.25,1.63-1.16,1.64c-1.26,0.01-1.15-1.1-1.16-1.93   C424.19,181.47,424.22,179.23,424.22,176.98z"
   id="path152" />
	<path
   class="st4"
   d="M424.22,419.2c0-2.37-0.03-4.74,0.01-7.11c0.01-0.72,0.03-1.62,1.02-1.7c0.95-0.08,1.28,0.73,1.29,1.48   c0.03,4.86,0.01,9.73-0.02,14.59c0,0.65-0.35,1.27-1.06,1.35c-1.05,0.11-1.2-0.77-1.21-1.5   C424.19,423.95,424.23,421.57,424.22,419.2z"
   id="path154" />
	<path
   class="st18"
   d="M587.48,141.78c0,4.98,0.01,9.96-0.01,14.94c0,0.83,0.15,1.94-1.09,2c-0.9,0.04-1.22-0.78-1.22-1.57   c-0.02-4.37,0-8.74-0.02-13.1C585.13,142.74,586.68,142.69,587.48,141.78z"
   id="path156" />
	<path
   class="st9"
   d="M424.23,141.25c2.04,1.41,2.46,2.83,2.4,4.65c-0.13,3.62-0.04,7.24-0.05,10.86c0,0.89-0.09,1.9-1.23,1.96   c-0.99,0.05-1.1-0.88-1.1-1.61C424.22,151.94,424.23,146.78,424.23,141.25z"
   id="path158" />
	<path
   class="st5"
   d="M340.69,443.47c0.24-0.75,0.48-1.5,0.73-2.25c4.49,0.02,8.99,0.03,13.48,0.05c0.89,0,2.01,0.01,2.02,1.12   c0.01,1.13-1.11,1.13-2,1.13C350.17,443.5,345.43,443.49,340.69,443.47z"
   id="path160" />
	<path
   class="st5"
   d="M408.17,119.66c-0.14,0.76-0.28,1.51-0.42,2.27c-4.2-0.03-8.4-0.05-12.6-0.07c-0.9,0-1.98-0.08-1.96-1.16   c0.02-1.08,1.13-1.09,2.01-1.09C399.52,119.62,403.85,119.64,408.17,119.66z"
   id="path162" />
	<path
   class="st19"
   d="M505.48,87.23c0.77-0.38,1.54-0.76,2.31-1.14c0.02,3.85,0.04,7.7,0.03,11.55c0,0.73-0.06,1.65-1.06,1.63   c-0.88-0.02-1.17-0.81-1.18-1.6C505.54,94.18,505.51,90.71,505.48,87.23z"
   id="path164" />
	<path
   class="st13"
   d="M912.26,441.3c1.54,0.65,5.09-1.42,5.22,1.28c0.09,1.9-3.61,0.65-5.59,0.89c-1.84,0.23-3.74,0.04-5.62,0.02   c-0.71-0.01-1.28-0.42-1.29-1.08c0-0.66,0.55-1.1,1.27-1.1C908.12,441.29,910,441.3,912.26,441.3z"
   id="path166" />
	<path
   class="st20"
   d="M102.04,474.43c0.77-0.29,1.55-0.58,2.32-0.87c0.02,3.2,0.06,6.4,0.03,9.61c-0.01,1.03,0.44,2.66-1.04,2.73   c-1.46,0.06-1.21-1.53-1.22-2.59C102.08,480.34,102.07,477.38,102.04,474.43z"
   id="path168" />
	<path
   class="st21"
   d="M424.25,94.68c0.57-0.8,1.27-1.37,2.32-1.29c0.01,2.83,0.04,5.66,0.02,8.49c-0.01,1.18,0.38,3.01-1.14,3.09   c-1.75,0.09-1.18-1.8-1.22-2.9C424.15,99.6,424.23,97.13,424.25,94.68z"
   id="path170" />
	<path
   class="st2"
   d="M585.25,93.9c0.93,0.32,1.74,0.79,2.24,1.68c-0.01,2.24,0.02,4.49-0.07,6.73c-0.04,1,0.48,2.71-1.15,2.62   c-1.38-0.08-1.09-1.71-1.09-2.8C585.19,99.38,585.22,96.64,585.25,93.9z"
   id="path172" />
	<path
   class="st11"
   d="M507.84,147.73c0,1.25,0,2.49,0,3.74c0,0.81-0.26,1.67-1.13,1.61c-0.76-0.05-1.14-0.84-1.14-1.68   c0.01-2.24-0.01-4.48,0-6.73c0-0.86-0.16-1.85,1.2-1.82c1.42,0.03,1.04,1.11,1.08,1.89c0.05,0.99,0.01,1.99,0.01,2.99   C507.85,147.73,507.84,147.73,507.84,147.73z"
   id="path174" />
	<path
   class="st5"
   d="M671.86,441.2c0.33,0.74,0.66,1.48,1,2.23c-2.73,0.03-5.46,0.06-8.2,0.09c-0.89,0.01-2.06,0.03-2.09-1.01   c-0.05-1.36,1.24-1.22,2.21-1.24C667.14,441.24,669.5,441.22,671.86,441.2z"
   id="path176" />
	<path
   class="st22"
   d="M271.64,477.9c0.77,0.09,1.54,0.19,2.3,0.28c-0.02,2.1-0.02,4.2-0.06,6.3c-0.02,0.78-0.25,1.58-1.21,1.46   c-0.61-0.08-1.03-0.67-1.03-1.37C271.62,482.35,271.64,480.12,271.64,477.9z"
   id="path178" />
	<path
   class="st5"
   d="M585.97,66.54c-0.88-1.95,0.9-3.36,1.23-5.11c0,5.46,0,10.93,0,16.39c-1.52-3.71,0.31-7.71-1.34-11.38   L585.97,66.54z"
   id="path180" />
	<path
   class="st23"
   d="M273.89,474.89c-0.88,0.21-1.6-0.19-2.32-0.58c0.61-1.95-1.24-5.58,1.35-5.62c1.99-0.03,0.55,3.78,0.98,5.82   C273.92,474.63,273.9,474.76,273.89,474.89z"
   id="path182" />
	<path
   class="st5"
   d="M425.08,61.44c0,5.42,0,10.84,0,16.26c-0.16,0-0.32,0.01-0.48,0.01c0-5.41,0-10.82,0-16.23   C424.76,61.47,424.92,61.46,425.08,61.44z"
   id="path184" />
	
	
	<path
   class="st24"
   d="M676.82,443.66c-0.59-0.67-1.14-1.37-1.14-2.33c0.36-0.02,0.74-0.12,1.08-0.06c1.18,0.22,3.23-0.74,3.28,1.11   C680.09,444.28,677.92,443.19,676.82,443.66z"
   id="path190" />
	
	
	
	
	
	
	
	
	
	
	
	
	
	
	
	
	
	
	
	
	
	
	
	
	
	
	
	
	
	
	
	
	
	
	
	
	
	
	
	
	
	
	
	
	
	
	
	
	
	
	
	
	
	
	
	
	
	
	
	
	
	
	
	
	
	
	
	
	
	
	
	
	
	
	
	
	
	
	
	
	
	
	
	
	
	
	
	
	
	
	
	
	
	
	
	
	
	
	
	
	
	
	
	
	
	
	
	
	
	
	
	
	
	
	
	
	
	
	
	
	
	
	<path
   d="m 439.57,69.43 c -293.04667,-46.286667 -146.52333,-23.143333 0,0 z"
   id="path436"
   sodipodi:nodetypes="cc" />
	
	
	
	
	
	
	
	
	
	
	
	
	
	
	
	
	
	
	
	
	
	
	
	
	
	
	
	
	
	
	
	
	
	
	
	
	
	<path
   class="st28"
   d="M587.4,91.15c-0.77-0.3-1.55-0.6-2.32-0.9c0.23-1.09-0.32-3.09,1.52-2.68   C588.22,87.94,587.3,89.88,587.4,91.15z"
   id="path512" />
	
	
	
	
	
	
	
	
	
	
	
	
	
	
	
	
	<path
   class="st30"
   d="M426.73,89.76c-0.75,0.74-1.66,0.69-2.6,0.5c0.18-1.01-0.45-2.56,0.99-2.82   C426.72,87.16,426.53,88.73,426.73,89.76z"
   id="path546" />
	
	
	<path
   class="st31"
   d="M104.47,469.8c-0.78,0.39-1.55,0.79-2.32,1.18c-0.05-1.08-0.35-2.37,1.12-2.67   C104.18,468.13,104.35,469.06,104.47,469.8z"
   id="path552" />
	
	
	
	<path
   class="st32"
   d="M433.56,124.17c-2.57-0.57-3.56,0.43-3,3c-2.56-0.56-3.56,0.43-3,3c-1.2-0.05-2.62,0.21-2.31-1.8   c0.07-0.48-0.05-1,0.02-1.48c0.26-1.65-0.92-4.21,0.62-4.79c2.06-0.77,4.64-0.33,6.97-0.11   C434.04,122.09,433.28,123.43,433.56,124.17z"
   id="path560" />
<path
   style="fill:none;stroke:#000000;stroke-width:1px;stroke-linecap:butt;stroke-linejoin:miter;stroke-opacity:1"
   d="M 452.2899,81.250911 466.07604,62.965636"
   id="path3800" /><path
   style="fill:none;stroke:#000000;stroke-width:1px;stroke-linecap:butt;stroke-linejoin:miter;stroke-opacity:1"
   d="M 476.16583,81.395268 489.95197,63.109993"
   id="path3800-7" /><path
   style="fill:none;stroke:#000000;stroke-width:1px;stroke-linecap:butt;stroke-linejoin:miter;stroke-opacity:1"
   d="M 500.83335,81.591506 514.61949,63.306231"
   id="path3800-1" /><path
   style="fill:none;stroke:#000000;stroke-width:1px;stroke-linecap:butt;stroke-linejoin:miter;stroke-opacity:1"
   d="M 524.3423,82.235619 538.12844,63.950344"
   id="path3800-1-5" /><path
   style="fill:none;stroke:#000000;stroke-width:1px;stroke-linecap:butt;stroke-linejoin:miter;stroke-opacity:1"
   d="M 547.19889,82.620572 560.98503,64.335297"
   id="path3800-1-6" /><path
   style="fill:none;stroke:#000000;stroke-width:1px;stroke-linecap:butt;stroke-linejoin:miter;stroke-opacity:1"
   d="M 571.16222,82.76493 584.94836,64.479655"
   id="path3800-1-9" /><path
   style="fill:none;stroke:#000000;stroke-width:1px;stroke-linecap:butt;stroke-linejoin:miter;stroke-opacity:1"
   d="M 428.80173,81.598041 442.58787,63.312766"
   id="path3800-1-92" /><path
   style="fill:none;stroke:#000000;stroke-width:1px;stroke-linecap:butt;stroke-linejoin:miter;stroke-opacity:1"
   d="m 140.68705,441.18802 13.78614,-18.28527"
   id="path3800-0" /><path
   style="fill:none;stroke:#000000;stroke-width:1px;stroke-linecap:butt;stroke-linejoin:miter;stroke-opacity:1"
   d="M 164.56298,441.33238 178.34912,423.0471"
   id="path3800-7-02" /><path
   style="fill:none;stroke:#000000;stroke-width:1px;stroke-linecap:butt;stroke-linejoin:miter;stroke-opacity:1"
   d="m 189.2305,441.52862 13.78614,-18.28528"
   id="path3800-1-0" /><path
   style="fill:none;stroke:#000000;stroke-width:1px;stroke-linecap:butt;stroke-linejoin:miter;stroke-opacity:1"
   d="m 212.73945,442.17273 13.78614,-18.28528"
   id="path3800-1-5-5" /><path
   style="fill:none;stroke:#000000;stroke-width:1px;stroke-linecap:butt;stroke-linejoin:miter;stroke-opacity:1"
   d="m 235.59604,442.55768 13.78614,-18.28527"
   id="path3800-1-6-4" /><path
   style="fill:none;stroke:#000000;stroke-width:1px;stroke-linecap:butt;stroke-linejoin:miter;stroke-opacity:1"
   d="m 259.55937,442.70204 13.78614,-18.28528"
   id="path3800-1-9-2" /><path
   style="fill:none;stroke:#000000;stroke-width:1px;stroke-linecap:butt;stroke-linejoin:miter;stroke-opacity:1"
   d="m 117.19888,441.53515 13.78614,-18.28527"
   id="path3800-1-92-0" /><path
   style="fill:none;stroke:#000000;stroke-width:1px;stroke-linecap:butt;stroke-linejoin:miter;stroke-opacity:1"
   d="m 761.03791,440.99931 13.78614,-18.28527"
   id="path3800-0-8" /><path
   style="fill:none;stroke:#000000;stroke-width:1px;stroke-linecap:butt;stroke-linejoin:miter;stroke-opacity:1"
   d="m 784.91384,441.14367 13.78614,-18.28528"
   id="path3800-7-02-0" /><path
   style="fill:none;stroke:#000000;stroke-width:1px;stroke-linecap:butt;stroke-linejoin:miter;stroke-opacity:1"
   d="M 809.58136,441.33991 823.3675,423.05463"
   id="path3800-1-0-0" /><path
   style="fill:none;stroke:#000000;stroke-width:1px;stroke-linecap:butt;stroke-linejoin:miter;stroke-opacity:1"
   d="m 833.09031,441.98402 13.78614,-18.28528"
   id="path3800-1-5-5-2" /><path
   style="fill:none;stroke:#000000;stroke-width:1px;stroke-linecap:butt;stroke-linejoin:miter;stroke-opacity:1"
   d="M 855.9469,442.36897 869.73304,424.0837"
   id="path3800-1-6-4-8" /><path
   style="fill:none;stroke:#000000;stroke-width:1px;stroke-linecap:butt;stroke-linejoin:miter;stroke-opacity:1"
   d="m 879.91023,442.51333 13.78614,-18.28528"
   id="path3800-1-9-2-3" /><path
   style="fill:none;stroke:#000000;stroke-width:1px;stroke-linecap:butt;stroke-linejoin:miter;stroke-opacity:1"
   d="m 737.54974,441.34644 13.78614,-18.28527"
   id="path3800-1-92-0-1" /><path
   class="st1"
   d="m 518.74308,142.94524 c -1.3,-0.78 -2.6,-1.56 -3.9,-2.33 0.48,-0.05 0.96,-0.1 1.44,-0.14 1.03,-0.77 2.06,-0.79 3.08,0.02 6.72,-0.01 13.45,-0.01 20.17,-0.02 1.03,-0.77 2.06,-0.79 3.08,0.02 6.97,-0.01 13.94,-0.01 20.92,-0.02 1.03,-0.77 2.06,-0.79 3.08,0.02 6.49,0.02 12.97,0.02 19.46,0.09 1.14,0.01 3.05,-0.56 3.07,1.13 0.02,1.81 -1.93,1.07 -3.01,1.07 -22.47,0.08 -44.93,0.12 -67.39,0.16 z"
   id="path24-0"
   style="fill:#040404" /><path
   class="st5"
   d="m 578.81308,125.65524 c -0.88,-1.95 0.9,-3.36 1.23,-5.11 0,5.46 0,10.93 0,16.39 -1.52,-3.71 0.31,-7.71 -1.34,-11.38 z"
   id="path180-3"
   style="fill:#030303" /><path
   class="st5"
   d="m 417.92308,120.55524 c 0,5.42 0,10.84 0,16.26 -0.16,0 -0.32,0.01 -0.48,0.01 0,-5.41 0,-10.82 0,-16.23 0.16,-0.01 0.32,-0.02 0.48,-0.04 z"
   id="path184-3"
   style="fill:#030303" /><path
   style="fill:none;stroke:#000000;stroke-width:1px;stroke-linecap:butt;stroke-linejoin:miter;stroke-opacity:1"
   d="m 445.13298,140.36615 13.78614,-18.28527"
   id="path3800-3" /><path
   style="fill:none;stroke:#000000;stroke-width:1px;stroke-linecap:butt;stroke-linejoin:miter;stroke-opacity:1"
   d="m 469.00891,140.51051 13.78614,-18.28527"
   id="path3800-7-0" /><path
   style="fill:none;stroke:#000000;stroke-width:1px;stroke-linecap:butt;stroke-linejoin:miter;stroke-opacity:1"
   d="m 493.67643,140.70675 13.78614,-18.28528"
   id="path3800-1-62" /><path
   style="fill:none;stroke:#000000;stroke-width:1px;stroke-linecap:butt;stroke-linejoin:miter;stroke-opacity:1"
   d="m 517.18538,141.35086 13.78614,-18.28527"
   id="path3800-1-5-0" /><path
   style="fill:none;stroke:#000000;stroke-width:1px;stroke-linecap:butt;stroke-linejoin:miter;stroke-opacity:1"
   d="m 540.04197,141.73582 13.78614,-18.28528"
   id="path3800-1-6-0" /><path
   style="fill:none;stroke:#000000;stroke-width:1px;stroke-linecap:butt;stroke-linejoin:miter;stroke-opacity:1"
   d="M 564.0053,141.88017 577.79144,123.5949"
   id="path3800-1-9-4" /><path
   style="fill:none;stroke:#000000;stroke-width:0.640516px;stroke-linecap:butt;stroke-linejoin:miter;stroke-opacity:1"
   d="M 426.60331,132.63687 436.6317,122.32415"
   id="path3800-1-92-7" /><text
   xml:space="preserve"
   style="font-style:normal;font-weight:normal;font-size:36px;line-height:1.25;font-family:sans-serif;fill:#000000;fill-opacity:1;stroke:none"
   x="56.973068"
   y="40.805035"
   id="text7260"><tspan
     sodipodi:role="line"
     id="tspan7258"
     x="56.973068"
     y="40.805035"
     style="font-style:italic;font-variant:normal;font-weight:normal;font-stretch:normal;font-size:36px;font-family:'Times New Roman';-inkscape-font-specification:'Times New Roman,  Italic'">АЧХ канала ячейки</tspan></text><text
   xml:space="preserve"
   style="font-style:normal;font-weight:normal;font-size:33.3333px;line-height:1.25;font-family:sans-serif;fill:#000000;fill-opacity:1;stroke:none"
   x="2.3097188"
   y="122.4151"
   id="text17050"><tspan
     sodipodi:role="line"
     id="tspan17048"
     x="2.3097188"
     y="122.4151"
     style="font-style:italic;font-variant:normal;font-weight:normal;font-stretch:normal;font-size:33.3333px;font-family:'Times New Roman';-inkscape-font-specification:'Times New Roman,  Italic'">K<tspan
   style="font-style:italic;font-variant:normal;font-weight:normal;font-stretch:normal;font-size:33.3333px;font-family:'Times New Roman';-inkscape-font-specification:'Times New Roman,  Italic';baseline-shift:sub"
   id="tspan17862">p</tspan></tspan></text><text
   xml:space="preserve"
   style="font-style:normal;font-weight:normal;font-size:33.3333px;line-height:1.25;font-family:sans-serif;white-space:pre;inline-size:14.2464;fill:#000000;fill-opacity:1;stroke:none"
   x="86.930634"
   y="282.84344"
   id="text17050-8" /><g
   id="g96806"><text
     xml:space="preserve"
     style="font-style:normal;font-weight:normal;font-size:33.3333px;line-height:1.25;font-family:sans-serif;fill:#000000;fill-opacity:1;stroke:none"
     x="80.771385"
     y="536.91254"
     id="text17050-9"><tspan
       sodipodi:role="line"
       id="tspan17048-4"
       x="80.771385"
       y="536.91254"
       style="font-style:italic;font-variant:normal;font-weight:normal;font-stretch:normal;font-size:33.3333px;font-family:'Times New Roman';-inkscape-font-specification:'Times New Roman,  Italic'">F<tspan
   style="font-size:65%;baseline-shift:sub"
   id="tspan73619">s1</tspan></tspan></text><text
     xml:space="preserve"
     style="font-style:normal;font-weight:normal;font-size:33.3333px;line-height:1.25;font-family:sans-serif;fill:#000000;fill-opacity:1;stroke:none"
     x="405.5799"
     y="535.64868"
     id="text17050-9-7"><tspan
       sodipodi:role="line"
       id="tspan17048-4-3"
       x="405.5799"
       y="535.64868"
       style="font-style:italic;font-variant:normal;font-weight:normal;font-stretch:normal;font-size:33.3333px;font-family:'Times New Roman';-inkscape-font-specification:'Times New Roman,  Italic'">F<tspan
   style="font-size:65%;baseline-shift:sub"
   id="tspan73619-89">p1</tspan></tspan></text><text
     xml:space="preserve"
     style="font-style:normal;font-weight:normal;font-size:33.3333px;line-height:1.25;font-family:sans-serif;fill:#000000;fill-opacity:1;stroke:none"
     x="566.06769"
     y="535.09198"
     id="text17050-9-7-5"><tspan
       sodipodi:role="line"
       id="tspan17048-4-3-3"
       x="566.06769"
       y="535.09198"
       style="font-style:italic;font-variant:normal;font-weight:normal;font-stretch:normal;font-size:33.3333px;font-family:'Times New Roman';-inkscape-font-specification:'Times New Roman,  Italic'">F<tspan
   style="font-size:65%;baseline-shift:sub"
   id="tspan73619-89-7">p2</tspan></tspan></text><text
     xml:space="preserve"
     style="font-style:normal;font-weight:normal;font-size:33.3333px;line-height:1.25;font-family:sans-serif;fill:#000000;fill-opacity:1;stroke:none"
     x="490.92868"
     y="535.09192"
     id="text17050-9-7-5-7"><tspan
       sodipodi:role="line"
       id="tspan17048-4-3-3-4"
       x="490.92868"
       y="535.09192"
       style="font-style:italic;font-variant:normal;font-weight:normal;font-stretch:normal;font-size:33.3333px;font-family:'Times New Roman';-inkscape-font-specification:'Times New Roman,  Italic'">F<tspan
   style="font-size:65%;baseline-shift:sub"
   id="tspan73619-89-7-3">c</tspan></tspan></text><text
     xml:space="preserve"
     style="font-style:normal;font-weight:normal;font-size:33.3333px;line-height:1.25;font-family:sans-serif;fill:#000000;fill-opacity:1;stroke:none"
     x="250.42421"
     y="536.19305"
     id="text17050-9-1"><tspan
       sodipodi:role="line"
       id="tspan17048-4-8"
       x="250.42421"
       y="536.19305"
       style="font-style:italic;font-variant:normal;font-weight:normal;font-stretch:normal;font-size:33.3333px;font-family:'Times New Roman';-inkscape-font-specification:'Times New Roman,  Italic'">F<tspan
   style="font-size:65%;baseline-shift:sub"
   id="tspan73619-3">s2</tspan></tspan></text><text
     xml:space="preserve"
     style="font-style:normal;font-weight:normal;font-size:33.3333px;line-height:1.25;font-family:sans-serif;fill:#000000;fill-opacity:1;stroke:none"
     x="714.25806"
     y="536.19305"
     id="text17050-9-12"><tspan
       sodipodi:role="line"
       id="tspan17048-4-2"
       x="714.25806"
       y="536.19305"
       style="font-style:italic;font-variant:normal;font-weight:normal;font-stretch:normal;font-size:33.3333px;font-family:'Times New Roman';-inkscape-font-specification:'Times New Roman,  Italic'">F<tspan
   style="font-size:65%;baseline-shift:sub"
   id="tspan73619-8">s3</tspan></tspan></text><text
     xml:space="preserve"
     style="font-style:normal;font-weight:normal;font-size:33.3333px;line-height:1.25;font-family:sans-serif;fill:#000000;fill-opacity:1;stroke:none"
     x="875.40228"
     y="536.19312"
     id="text17050-9-14"><tspan
       sodipodi:role="line"
       id="tspan17048-4-1"
       x="875.40228"
       y="536.19312"
       style="font-style:italic;font-variant:normal;font-weight:normal;font-stretch:normal;font-size:33.3333px;font-family:'Times New Roman';-inkscape-font-specification:'Times New Roman,  Italic'">F<tspan
   style="font-size:65%;baseline-shift:sub"
   id="tspan73619-4">s4</tspan></tspan></text></g><text
   xml:space="preserve"
   style="font-style:normal;font-weight:normal;font-size:29.3333px;line-height:1.25;font-family:sans-serif;fill:#000000;fill-opacity:1;stroke:none"
   x="83.919792"
   y="282.55563"
   id="text34763"><tspan
     sodipodi:role="line"
     id="tspan34761"
     x="83.919792"
     y="282.55563"
     style="font-style:italic;font-variant:normal;font-weight:normal;font-stretch:normal;font-size:29.3333px;font-family:'Times New Roman';-inkscape-font-specification:'Times New Roman,  Italic'"><tspan
   style="font-style:normal;font-variant:normal;font-weight:normal;font-stretch:normal;font-size:29.3333px;font-family:'Times New Roman';-inkscape-font-specification:'Times New Roman, '"
   id="tspan46073">Δ</tspan>A<tspan
   style="font-style:italic;font-variant:normal;font-weight:normal;font-stretch:normal;font-size:29.3333px;font-family:'Times New Roman';-inkscape-font-specification:'Times New Roman,  Italic';baseline-shift:sub"
   id="tspan40389">stop</tspan></tspan></text><text
   xml:space="preserve"
   style="font-style:normal;font-weight:normal;font-size:29.3333px;line-height:1.25;font-family:sans-serif;fill:#000000;fill-opacity:1;stroke:none"
   x="651.86523"
   y="108.38882"
   id="text34763-3"><tspan
     sodipodi:role="line"
     id="tspan34761-3"
     x="651.86523"
     y="108.38882"
     style="font-style:italic;font-variant:normal;font-weight:normal;font-stretch:normal;font-size:29.3333px;font-family:'Times New Roman';-inkscape-font-specification:'Times New Roman,  Italic'"><tspan
   style="font-style:normal;font-variant:normal;font-weight:normal;font-stretch:normal;font-size:29.3333px;font-family:'Times New Roman';-inkscape-font-specification:'Times New Roman, '"
   id="tspan46073-1">Δ</tspan>A<tspan
   style="font-style:italic;font-variant:normal;font-weight:normal;font-stretch:normal;font-size:29.3333px;font-family:'Times New Roman';-inkscape-font-specification:'Times New Roman,  Italic';baseline-shift:sub"
   id="tspan40389-9">pass</tspan></tspan></text><text
   xml:space="preserve"
   style="font-style:normal;font-weight:normal;font-size:29.832px;line-height:1.25;font-family:sans-serif;fill:#000000;fill-opacity:1;stroke:none;stroke-width:0.972783"
   x="442.88779"
   y="370.37897"
   id="text34763-1"
   transform="scale(0.9727827,1.0279788)"><tspan
     sodipodi:role="line"
     id="tspan34761-1"
     x="442.88779"
     y="370.37897"
     style="font-style:italic;font-variant:normal;font-weight:normal;font-stretch:normal;font-size:29.832px;font-family:'Times New Roman';-inkscape-font-specification:'Times New Roman,  Italic';stroke-width:0.972783"><tspan
   style="font-style:normal;font-variant:normal;font-weight:normal;font-stretch:normal;font-size:29.832px;font-family:'Times New Roman';-inkscape-font-specification:'Times New Roman, ';stroke-width:0.972783"
   id="tspan46073-2">Δ</tspan>F<tspan
   style="font-size:19.3908px;baseline-shift:sub;stroke-width:0.972783"
   id="tspan62658">-3dB</tspan></tspan></text></g>
</svg>
