<?xml version="1.0" encoding="UTF-8" standalone="no"?>
<!-- Created with Inkscape (http://www.inkscape.org/) -->

<svg
   version="1.1"
   id="svg2"
   xml:space="preserve"
   width="467.79279"
   height="243.06731"
   viewBox="0 0 467.79279 243.06731"
   sodipodi:docname="LTC-power-limits.svg"
   inkscape:version="1.1 (c68e22c387, 2021-05-23)"
   xmlns:inkscape="http://www.inkscape.org/namespaces/inkscape"
   xmlns:sodipodi="http://sodipodi.sourceforge.net/DTD/sodipodi-0.dtd"
   xmlns="http://www.w3.org/2000/svg"
   xmlns:svg="http://www.w3.org/2000/svg"><defs
     id="defs6"><clipPath
       clipPathUnits="userSpaceOnUse"
       id="clipPath272"><path
         d="M 252.214,308.797 H 383.488 V 440.071 H 252.214 Z"
         id="path270" /></clipPath><clipPath
       clipPathUnits="userSpaceOnUse"
       id="clipPath296"><path
         d="M 252.214,308.797 H 383.488 V 440.071 H 252.214 Z"
         id="path294" /></clipPath><clipPath
       clipPathUnits="userSpaceOnUse"
       id="clipPath590"><path
         d="M 431.414,308.797 H 562.688 V 440.071 H 431.414 Z"
         id="path588" /></clipPath><clipPath
       clipPathUnits="userSpaceOnUse"
       id="clipPath614"><path
         d="M 431.414,308.797 H 562.688 V 440.071 H 431.414 Z"
         id="path612" /></clipPath></defs><sodipodi:namedview
     id="namedview4"
     pagecolor="#ffffff"
     bordercolor="#666666"
     borderopacity="1.0"
     inkscape:pageshadow="2"
     inkscape:pageopacity="0.0"
     inkscape:pagecheckerboard="0"
     showgrid="false"
     inkscape:zoom="0.76893939"
     inkscape:cx="-203.52709"
     inkscape:cy="492.23645"
     inkscape:window-width="1920"
     inkscape:window-height="1001"
     inkscape:window-x="-9"
     inkscape:window-y="-9"
     inkscape:window-maximized="1"
     inkscape:current-layer="g8" /><g
     id="g8"
     inkscape:groupmode="layer"
     inkscape:label="A91gbjbtj_11dtgie_8dk"
     transform="matrix(1.3333333,0,0,-1.3333333,-305.70466,621.24035)"><text
       transform="matrix(0.95,0,0,-1,251.999,458.65)"
       style="font-variant:normal;font-weight:bold;font-stretch:condensed;font-size:10px;font-family:'Linear Helv Cond';-inkscape-font-specification:LinearHelvCond-Bold;writing-mode:lr-tb;fill:#000000;fill-opacity:1;fill-rule:nonzero;stroke:none"
       id="text18"><tspan
         x="0 6.1100001 11.11 13.89 18.889999 23.889999 26.67 29.17 34.549999 39.549999 42.330002 45.110001 50.110001 55.110001 60.110001 63.439999 65.940002 70.940002 73.720001 78.720001 83.720001 88.720001 92.050003 94.830002 97.610001 102.05 104.55 109.55 112.88 116.21 121.21 124.54 127.04 131.48 135.92"
         y="0"
         sodipodi:role="line"
         id="tspan10">Output Voltage, Linearity Error vs </tspan><tspan
         x="0 6.1100001 11.11 13.61 16.389999 21.389999 26.389999 31.389999 34.169998 36.669998 42.23 47.23 53.900002 58.900002 62.23 64.730003 69.730003 72.510002 75.010002 80.010002 83.339996 88.339996 94.449997 100.56"
         y="11"
         sodipodi:role="line"
         id="tspan12">RF Input Power at 5.8GHz</tspan><tspan
         x="188.42 194.53 199.53 202.31 207.31 212.31 215.09 217.59 222.97 227.97 230.75 233.53 238.53 243.53 248.53 251.86 254.36 259.35999 262.14001 267.14001 272.14001 277.14001 280.47 283.25 286.03 290.47 292.97 297.97 301.29999 304.63 309.63 312.95999 315.45999 319.89999 324.34"
         y="0"
         sodipodi:role="line"
         id="tspan14">Output Voltage, Linearity Error vs </tspan><tspan
         x="188.42 194.53 199.53 202.03 204.81 209.81 214.81 219.81 222.59 225.09 230.64999 235.64999 242.32001 247.32001 250.64999 253.14999 258.14999 260.92999 263.42999 268.42999 273.42999 279.54001 285.64999"
         y="11"
         sodipodi:role="line"
         id="tspan16">RF Input Power at 10GHz</tspan></text><g
       id="g20"
       transform="translate(251.9138,440.371)"><path
         d="M 0,0 H 131.874 V -131.874 H 0 Z"
         style="fill:none;stroke:#000000;stroke-width:0.6;stroke-linecap:butt;stroke-linejoin:miter;stroke-miterlimit:4;stroke-dasharray:none;stroke-opacity:1"
         id="path22" /></g><text
       transform="matrix(1,0,0,-1,369.6438,283.6962)"
       style="font-variant:normal;font-weight:normal;font-stretch:condensed;font-size:4px;font-family:'Linear Helv Cond';-inkscape-font-specification:LinearHelvCond;writing-mode:lr-tb;fill:#000000;fill-opacity:1;fill-rule:nonzero;stroke:none"
       id="text26"><tspan
         x="0 2 4 6 8 9 11.444 13.444"
         y="0"
         sodipodi:role="line"
         id="tspan24">5597 G05</tspan></text><g
       id="g28"
       transform="translate(263.9026,440.371)"><path
         d="M 0,0 V -131.874"
         style="fill:none;stroke:#333333;stroke-width:0.35;stroke-linecap:butt;stroke-linejoin:miter;stroke-miterlimit:4;stroke-dasharray:none;stroke-opacity:1"
         id="path30" /></g><g
       id="g32"
       transform="translate(275.8909,440.371)"><path
         d="M 0,0 V -131.874"
         style="fill:none;stroke:#333333;stroke-width:0.35;stroke-linecap:butt;stroke-linejoin:miter;stroke-miterlimit:4;stroke-dasharray:none;stroke-opacity:1"
         id="path34" /></g><g
       id="g36"
       transform="translate(287.8796,440.371)"><path
         d="M 0,0 V -131.874"
         style="fill:none;stroke:#333333;stroke-width:0.35;stroke-linecap:butt;stroke-linejoin:miter;stroke-miterlimit:4;stroke-dasharray:none;stroke-opacity:1"
         id="path38" /></g><g
       id="g40"
       transform="translate(299.8679,440.371)"><path
         d="M 0,0 V -131.874"
         style="fill:none;stroke:#333333;stroke-width:0.35;stroke-linecap:butt;stroke-linejoin:miter;stroke-miterlimit:4;stroke-dasharray:none;stroke-opacity:1"
         id="path42" /></g><g
       id="g44"
       transform="translate(311.8567,440.371)"><path
         d="M 0,0 V -131.874"
         style="fill:none;stroke:#333333;stroke-width:0.35;stroke-linecap:butt;stroke-linejoin:miter;stroke-miterlimit:4;stroke-dasharray:none;stroke-opacity:1"
         id="path46" /></g><g
       id="g48"
       transform="translate(323.8454,440.371)"><path
         d="M 0,0 V -131.874"
         style="fill:none;stroke:#333333;stroke-width:0.35;stroke-linecap:butt;stroke-linejoin:miter;stroke-miterlimit:4;stroke-dasharray:none;stroke-opacity:1"
         id="path50" /></g><g
       id="g52"
       transform="translate(335.8337,440.371)"><path
         d="M 0,0 V -131.874"
         style="fill:none;stroke:#333333;stroke-width:0.35;stroke-linecap:butt;stroke-linejoin:miter;stroke-miterlimit:4;stroke-dasharray:none;stroke-opacity:1"
         id="path54" /></g><g
       id="g56"
       transform="translate(347.822,440.371)"><path
         d="M 0,0 V -131.874"
         style="fill:none;stroke:#333333;stroke-width:0.35;stroke-linecap:butt;stroke-linejoin:miter;stroke-miterlimit:4;stroke-dasharray:none;stroke-opacity:1"
         id="path58" /></g><g
       id="g60"
       transform="translate(359.8103,440.371)"><path
         d="M 0,0 V -131.874"
         style="fill:none;stroke:#333333;stroke-width:0.35;stroke-linecap:butt;stroke-linejoin:miter;stroke-miterlimit:4;stroke-dasharray:none;stroke-opacity:1"
         id="path62" /></g><g
       id="g64"
       transform="translate(371.7995,440.371)"><path
         d="M 0,0 V -131.874"
         style="fill:none;stroke:#333333;stroke-width:0.35;stroke-linecap:butt;stroke-linejoin:miter;stroke-miterlimit:4;stroke-dasharray:none;stroke-opacity:1"
         id="path66" /></g><g
       id="g68"
       transform="translate(383.7878,440.371)"><path
         d="M 0,0 V -131.874"
         style="fill:none;stroke:#333333;stroke-width:0.35;stroke-linecap:butt;stroke-linejoin:miter;stroke-miterlimit:4;stroke-dasharray:none;stroke-opacity:1"
         id="path70" /></g><g
       id="g72"
       transform="translate(251.9138,421.5316)"><path
         d="M 0,0 H 131.874"
         style="fill:none;stroke:#333333;stroke-width:0.35;stroke-linecap:butt;stroke-linejoin:miter;stroke-miterlimit:4;stroke-dasharray:none;stroke-opacity:1"
         id="path74" /></g><g
       id="g76"
       transform="translate(251.9138,402.6928)"><path
         d="M 0,0 H 131.874"
         style="fill:none;stroke:#333333;stroke-width:0.35;stroke-linecap:butt;stroke-linejoin:miter;stroke-miterlimit:4;stroke-dasharray:none;stroke-opacity:1"
         id="path78" /></g><g
       id="g80"
       transform="translate(251.9138,383.8534)"><path
         d="M 0,0 H 131.874"
         style="fill:none;stroke:#333333;stroke-width:0.35;stroke-linecap:butt;stroke-linejoin:miter;stroke-miterlimit:4;stroke-dasharray:none;stroke-opacity:1"
         id="path82" /></g><g
       id="g84"
       transform="translate(251.9138,365.0141)"><path
         d="M 0,0 H 131.874"
         style="fill:none;stroke:#333333;stroke-width:0.35;stroke-linecap:butt;stroke-linejoin:miter;stroke-miterlimit:4;stroke-dasharray:none;stroke-opacity:1"
         id="path86" /></g><g
       id="g88"
       transform="translate(251.9138,346.1752)"><path
         d="M 0,0 H 131.874"
         style="fill:none;stroke:#333333;stroke-width:0.35;stroke-linecap:butt;stroke-linejoin:miter;stroke-miterlimit:4;stroke-dasharray:none;stroke-opacity:1"
         id="path90" /></g><g
       id="g92"
       transform="translate(251.9138,327.3363)"><path
         d="M 0,0 H 131.874"
         style="fill:none;stroke:#333333;stroke-width:0.35;stroke-linecap:butt;stroke-linejoin:miter;stroke-miterlimit:4;stroke-dasharray:none;stroke-opacity:1"
         id="path94" /></g><g
       id="g96"
       transform="translate(251.9138,308.4975)"><path
         d="M 0,0 H 131.874"
         style="fill:none;stroke:#333333;stroke-width:0.35;stroke-linecap:butt;stroke-linejoin:miter;stroke-miterlimit:4;stroke-dasharray:none;stroke-opacity:1"
         id="path98" /></g><text
       transform="matrix(1,0,0,-1,249.5793,299.3065)"
       style="font-variant:normal;font-weight:normal;font-stretch:condensed;font-size:7px;font-family:'Linear Helv Cond';-inkscape-font-specification:LinearHelvCond;writing-mode:lr-tb;fill:#000000;fill-opacity:1;fill-rule:nonzero;stroke:none"
       id="text102"><tspan
         x="0 3.5 -2.3310001"
         y="0"
         sodipodi:role="line"
         id="tspan100">45-</tspan></text><text
       transform="matrix(1,0,0,-1,259.2393,299.3065)"
       style="font-variant:normal;font-weight:normal;font-stretch:condensed;font-size:7px;font-family:'Linear Helv Cond';-inkscape-font-specification:LinearHelvCond;writing-mode:lr-tb;fill:#000000;fill-opacity:1;fill-rule:nonzero;stroke:none"
       id="text106"><tspan
         x="0 2.3310001 5.8309999"
         y="0"
         sodipodi:role="line"
         id="tspan104">-40</tspan></text><text
       transform="matrix(1,0,0,-1,271.2303,299.3065)"
       style="font-variant:normal;font-weight:normal;font-stretch:condensed;font-size:7px;font-family:'Linear Helv Cond';-inkscape-font-specification:LinearHelvCond;writing-mode:lr-tb;fill:#000000;fill-opacity:1;fill-rule:nonzero;stroke:none"
       id="text110"><tspan
         x="0 2.3310001 5.8309999"
         y="0"
         sodipodi:role="line"
         id="tspan108">-35</tspan></text><text
       transform="matrix(1,0,0,-1,283.2213,299.3065)"
       style="font-variant:normal;font-weight:normal;font-stretch:condensed;font-size:7px;font-family:'Linear Helv Cond';-inkscape-font-specification:LinearHelvCond;writing-mode:lr-tb;fill:#000000;fill-opacity:1;fill-rule:nonzero;stroke:none"
       id="text114"><tspan
         x="0 2.3310001 5.8309999"
         y="0"
         sodipodi:role="line"
         id="tspan112">-30</tspan></text><text
       transform="matrix(1,0,0,-1,295.2123,299.3065)"
       style="font-variant:normal;font-weight:normal;font-stretch:condensed;font-size:7px;font-family:'Linear Helv Cond';-inkscape-font-specification:LinearHelvCond;writing-mode:lr-tb;fill:#000000;fill-opacity:1;fill-rule:nonzero;stroke:none"
       id="text118"><tspan
         x="0 2.3310001 5.8309999"
         y="0"
         sodipodi:role="line"
         id="tspan116">-25</tspan></text><text
       transform="matrix(1,0,0,-1,307.2033,299.3065)"
       style="font-variant:normal;font-weight:normal;font-stretch:condensed;font-size:7px;font-family:'Linear Helv Cond';-inkscape-font-specification:LinearHelvCond;writing-mode:lr-tb;fill:#000000;fill-opacity:1;fill-rule:nonzero;stroke:none"
       id="text122"><tspan
         x="0 2.3310001 5.8309999"
         y="0"
         sodipodi:role="line"
         id="tspan120">-20</tspan></text><text
       transform="matrix(1,0,0,-1,319.1943,299.3065)"
       style="font-variant:normal;font-weight:normal;font-stretch:condensed;font-size:7px;font-family:'Linear Helv Cond';-inkscape-font-specification:LinearHelvCond;writing-mode:lr-tb;fill:#000000;fill-opacity:1;fill-rule:nonzero;stroke:none"
       id="text126"><tspan
         x="0 2.3310001 5.8309999"
         y="0"
         sodipodi:role="line"
         id="tspan124">-15</tspan></text><text
       transform="matrix(1,0,0,-1,331.1853,299.3065)"
       style="font-variant:normal;font-weight:normal;font-stretch:condensed;font-size:7px;font-family:'Linear Helv Cond';-inkscape-font-specification:LinearHelvCond;writing-mode:lr-tb;fill:#000000;fill-opacity:1;fill-rule:nonzero;stroke:none"
       id="text130"><tspan
         x="0 2.3310001 5.8309999"
         y="0"
         sodipodi:role="line"
         id="tspan128">-10</tspan></text><text
       transform="matrix(1,0,0,-1,344.9263,299.3065)"
       style="font-variant:normal;font-weight:normal;font-stretch:condensed;font-size:7px;font-family:'Linear Helv Cond';-inkscape-font-specification:LinearHelvCond;writing-mode:lr-tb;fill:#000000;fill-opacity:1;fill-rule:nonzero;stroke:none"
       id="text134"><tspan
         x="0 2.3310001"
         y="0"
         sodipodi:role="line"
         id="tspan132">-5</tspan></text><text
       transform="matrix(1,0,0,-1,358.0793,299.3065)"
       style="font-variant:normal;font-weight:normal;font-stretch:condensed;font-size:7px;font-family:'Linear Helv Cond';-inkscape-font-specification:LinearHelvCond;writing-mode:lr-tb;fill:#000000;fill-opacity:1;fill-rule:nonzero;stroke:none"
       id="text138"><tspan
         x="0"
         y="0"
         id="tspan136">0</tspan></text><text
       transform="matrix(1,0,0,-1,370.0703,299.3065)"
       style="font-variant:normal;font-weight:normal;font-stretch:condensed;font-size:7px;font-family:'Linear Helv Cond';-inkscape-font-specification:LinearHelvCond;writing-mode:lr-tb;fill:#000000;fill-opacity:1;fill-rule:nonzero;stroke:none"
       id="text142"><tspan
         x="0"
         y="0"
         id="tspan140">5</tspan></text><text
       transform="matrix(1,0,0,-1,380.3113,299.3065)"
       style="font-variant:normal;font-weight:normal;font-stretch:condensed;font-size:7px;font-family:'Linear Helv Cond';-inkscape-font-specification:LinearHelvCond;writing-mode:lr-tb;fill:#000000;fill-opacity:1;fill-rule:nonzero;stroke:none"
       id="text146"><tspan
         x="0 3.5"
         y="0"
         sodipodi:role="line"
         id="tspan144">10</tspan></text><text
       transform="matrix(1,0,0,-1,239.4083,437.8715)"
       style="font-variant:normal;font-weight:normal;font-stretch:condensed;font-size:7px;font-family:'Linear Helv Cond';-inkscape-font-specification:LinearHelvCond;writing-mode:lr-tb;fill:#000000;fill-opacity:1;fill-rule:nonzero;stroke:none"
       id="text150"><tspan
         x="0 3.5 5.25"
         y="0"
         sodipodi:role="line"
         id="tspan148">1.4</tspan></text><text
       transform="matrix(1,0,0,-1,239.4083,419.0345)"
       style="font-variant:normal;font-weight:normal;font-stretch:condensed;font-size:7px;font-family:'Linear Helv Cond';-inkscape-font-specification:LinearHelvCond;writing-mode:lr-tb;fill:#000000;fill-opacity:1;fill-rule:nonzero;stroke:none"
       id="text154"><tspan
         x="0 3.5 5.25"
         y="0"
         sodipodi:role="line"
         id="tspan152">1.2</tspan></text><text
       transform="matrix(1,0,0,-1,239.4083,400.1975)"
       style="font-variant:normal;font-weight:normal;font-stretch:condensed;font-size:7px;font-family:'Linear Helv Cond';-inkscape-font-specification:LinearHelvCond;writing-mode:lr-tb;fill:#000000;fill-opacity:1;fill-rule:nonzero;stroke:none"
       id="text158"><tspan
         x="0 3.5 5.25"
         y="0"
         sodipodi:role="line"
         id="tspan156">1.0</tspan></text><text
       transform="matrix(1,0,0,-1,239.4083,381.3605)"
       style="font-variant:normal;font-weight:normal;font-stretch:condensed;font-size:7px;font-family:'Linear Helv Cond';-inkscape-font-specification:LinearHelvCond;writing-mode:lr-tb;fill:#000000;fill-opacity:1;fill-rule:nonzero;stroke:none"
       id="text162"><tspan
         x="0 3.5 5.25"
         y="0"
         sodipodi:role="line"
         id="tspan160">0.8</tspan></text><text
       transform="matrix(1,0,0,-1,239.4083,362.5235)"
       style="font-variant:normal;font-weight:normal;font-stretch:condensed;font-size:7px;font-family:'Linear Helv Cond';-inkscape-font-specification:LinearHelvCond;writing-mode:lr-tb;fill:#000000;fill-opacity:1;fill-rule:nonzero;stroke:none"
       id="text166"><tspan
         x="0 3.5 5.25"
         y="0"
         sodipodi:role="line"
         id="tspan164">0.6</tspan></text><text
       transform="matrix(1,0,0,-1,239.4083,343.6865)"
       style="font-variant:normal;font-weight:normal;font-stretch:condensed;font-size:7px;font-family:'Linear Helv Cond';-inkscape-font-specification:LinearHelvCond;writing-mode:lr-tb;fill:#000000;fill-opacity:1;fill-rule:nonzero;stroke:none"
       id="text170"><tspan
         x="0 3.5 5.25"
         y="0"
         sodipodi:role="line"
         id="tspan168">0.4</tspan></text><text
       transform="matrix(1,0,0,-1,239.4083,324.8495)"
       style="font-variant:normal;font-weight:normal;font-stretch:condensed;font-size:7px;font-family:'Linear Helv Cond';-inkscape-font-specification:LinearHelvCond;writing-mode:lr-tb;fill:#000000;fill-opacity:1;fill-rule:nonzero;stroke:none"
       id="text174"><tspan
         x="0 3.5 5.25"
         y="0"
         sodipodi:role="line"
         id="tspan172">0.2</tspan></text><text
       transform="matrix(1,0,0,-1,244.6583,306.0125)"
       style="font-variant:normal;font-weight:normal;font-stretch:condensed;font-size:7px;font-family:'Linear Helv Cond';-inkscape-font-specification:LinearHelvCond;writing-mode:lr-tb;fill:#000000;fill-opacity:1;fill-rule:nonzero;stroke:none"
       id="text178"><tspan
         x="0"
         y="0"
         id="tspan176">0</tspan></text><text
       transform="matrix(1,0,0,-1,387.5913,437.8855)"
       style="font-variant:normal;font-weight:normal;font-stretch:condensed;font-size:7px;font-family:'Linear Helv Cond';-inkscape-font-specification:LinearHelvCond;writing-mode:lr-tb;fill:#000000;fill-opacity:1;fill-rule:nonzero;stroke:none"
       id="text182"><tspan
         x="0"
         y="0"
         id="tspan180">4</tspan></text><text
       transform="matrix(1,0,0,-1,387.5913,419.0485)"
       style="font-variant:normal;font-weight:normal;font-stretch:condensed;font-size:7px;font-family:'Linear Helv Cond';-inkscape-font-specification:LinearHelvCond;writing-mode:lr-tb;fill:#000000;fill-opacity:1;fill-rule:nonzero;stroke:none"
       id="text186"><tspan
         x="0"
         y="0"
         id="tspan184">3</tspan></text><text
       transform="matrix(1,0,0,-1,387.5913,400.2115)"
       style="font-variant:normal;font-weight:normal;font-stretch:condensed;font-size:7px;font-family:'Linear Helv Cond';-inkscape-font-specification:LinearHelvCond;writing-mode:lr-tb;fill:#000000;fill-opacity:1;fill-rule:nonzero;stroke:none"
       id="text190"><tspan
         x="0"
         y="0"
         id="tspan188">2</tspan></text><text
       transform="matrix(1,0,0,-1,387.5913,381.3745)"
       style="font-variant:normal;font-weight:normal;font-stretch:condensed;font-size:7px;font-family:'Linear Helv Cond';-inkscape-font-specification:LinearHelvCond;writing-mode:lr-tb;fill:#000000;fill-opacity:1;fill-rule:nonzero;stroke:none"
       id="text194"><tspan
         x="0"
         y="0"
         id="tspan192">1</tspan></text><text
       transform="matrix(1,0,0,-1,387.5913,362.5375)"
       style="font-variant:normal;font-weight:normal;font-stretch:condensed;font-size:7px;font-family:'Linear Helv Cond';-inkscape-font-specification:LinearHelvCond;writing-mode:lr-tb;fill:#000000;fill-opacity:1;fill-rule:nonzero;stroke:none"
       id="text198"><tspan
         x="0"
         y="0"
         id="tspan196">0</tspan></text><text
       transform="matrix(1,0,0,-1,387.5913,343.7005)"
       style="font-variant:normal;font-weight:normal;font-stretch:condensed;font-size:7px;font-family:'Linear Helv Cond';-inkscape-font-specification:LinearHelvCond;writing-mode:lr-tb;fill:#000000;fill-opacity:1;fill-rule:nonzero;stroke:none"
       id="text202"><tspan
         x="0 2.3310001"
         y="0"
         sodipodi:role="line"
         id="tspan200">-1</tspan></text><text
       transform="matrix(1,0,0,-1,387.5913,324.8635)"
       style="font-variant:normal;font-weight:normal;font-stretch:condensed;font-size:7px;font-family:'Linear Helv Cond';-inkscape-font-specification:LinearHelvCond;writing-mode:lr-tb;fill:#000000;fill-opacity:1;fill-rule:nonzero;stroke:none"
       id="text206"><tspan
         x="0 2.3310001"
         y="0"
         sodipodi:role="line"
         id="tspan204">-2</tspan></text><text
       transform="matrix(1,0,0,-1,387.5913,306.0265)"
       style="font-variant:normal;font-weight:normal;font-stretch:condensed;font-size:7px;font-family:'Linear Helv Cond';-inkscape-font-specification:LinearHelvCond;writing-mode:lr-tb;fill:#000000;fill-opacity:1;fill-rule:nonzero;stroke:none"
       id="text210"><tspan
         x="0 2.3310001"
         y="0"
         sodipodi:role="line"
         id="tspan208">-3</tspan></text><text
       transform="matrix(1,0,0,-1,287.5403,289.6255)"
       style="font-variant:normal;font-weight:normal;font-stretch:condensed;font-size:7px;font-family:'Linear Helv Cond';-inkscape-font-specification:LinearHelvCond;writing-mode:lr-tb;fill:#000000;fill-opacity:1;fill-rule:nonzero;stroke:none"
       id="text214"><tspan
         x="0 1.946 6.223 10.115 14.392 17.892 19.642 23.534 27.811001 33.641998 37.141998 41.418999 43.168999 45.5 49 52.891998 58.338001"
         y="0"
         sodipodi:role="line"
         id="tspan212">INPUT POWER (dBm)</tspan></text><text
       transform="matrix(0,1,1,0,234.9284,343.7704)"
       style="font-variant:normal;font-weight:normal;font-stretch:condensed;font-size:7px;font-family:'Linear Helv Cond';-inkscape-font-specification:LinearHelvCond;writing-mode:lr-tb;fill:#000000;fill-opacity:1;fill-rule:nonzero;stroke:none"
       id="text218"><tspan
         x="0 4.277 8.5539999 12.054 15.946 20.223 23.723 25.473 29.365 33.641998 36.2397 39.354698 43.2467 47.523701 51.023701 52.773701 55.104698 58.9967"
         y="0"
         sodipodi:role="line"
         id="tspan216">OUTPUT VOLTAGE (V)</tspan></text><text
       transform="matrix(0,-1,-1,0,395.2732,414.8793)"
       style="font-variant:normal;font-weight:normal;font-stretch:condensed;font-size:7px;font-family:'Linear Helv Cond';-inkscape-font-specification:LinearHelvCond;writing-mode:lr-tb;fill:#000000;fill-opacity:1;fill-rule:nonzero;stroke:none"
       id="text222"><tspan
         x="0 3.5 7.777 12.054 14.385 17.885 19.830999 24.108 27.608 31.5 35.777 37.723 40.838001 44.73 46.48 49.98 54.257 58.534 62.811001 67.087997 68.837997 71.168999 74.668999 78.560997"
         y="0"
         sodipodi:role="line"
         id="tspan220">LOG-LINEARITY ERROR (dB)</tspan></text><path
       d="m 274.914,438.371 h 40.8 v -50 h -40.8 z"
       style="fill:#ffffff;fill-opacity:1;fill-rule:nonzero;stroke:none"
       id="path224" /><g
       id="g226"
       transform="translate(278.9138,433.371)"><path
         d="M 0,0 H 15"
         style="fill:none;stroke:#e60019;stroke-width:1.2;stroke-linecap:butt;stroke-linejoin:miter;stroke-miterlimit:1;stroke-dasharray:none;stroke-opacity:1"
         id="path228" /></g><text
       transform="matrix(1,0,0,-1,297.7136,430.371)"
       style="font-variant:normal;font-weight:normal;font-stretch:condensed;font-size:7px;font-family:'Linear Helv Cond';-inkscape-font-specification:LinearHelvCond;writing-mode:lr-tb;fill:#000000;fill-opacity:1;fill-rule:nonzero;stroke:none"
       id="text232"><tspan
         x="0 3.5 7 10.5 13.3"
         y="0"
         sodipodi:role="line"
         id="tspan230">125°C</tspan></text><g
       id="g234"
       transform="translate(278.9138,425.371)"><path
         d="M 0,0 H 15"
         style="fill:none;stroke:#900027;stroke-width:1.2;stroke-linecap:butt;stroke-linejoin:miter;stroke-miterlimit:1;stroke-dasharray:none;stroke-opacity:1"
         id="path236" /></g><text
       transform="matrix(1,0,0,-1,297.7136,422.371)"
       style="font-variant:normal;font-weight:normal;font-stretch:condensed;font-size:7px;font-family:'Linear Helv Cond';-inkscape-font-specification:LinearHelvCond;writing-mode:lr-tb;fill:#000000;fill-opacity:1;fill-rule:nonzero;stroke:none"
       id="text240"><tspan
         x="0 3.5 7 10.5 13.3"
         y="0"
         sodipodi:role="line"
         id="tspan238">105°C</tspan></text><g
       id="g242"
       transform="translate(278.9138,417.371)"><path
         d="M 0,0 H 15"
         style="fill:none;stroke:#b57233;stroke-width:1.2;stroke-linecap:butt;stroke-linejoin:miter;stroke-miterlimit:1;stroke-dasharray:none;stroke-opacity:1"
         id="path244" /></g><text
       transform="matrix(1,0,0,-1,297.7136,414.371)"
       style="font-variant:normal;font-weight:normal;font-stretch:condensed;font-size:7px;font-family:'Linear Helv Cond';-inkscape-font-specification:LinearHelvCond;writing-mode:lr-tb;fill:#000000;fill-opacity:1;fill-rule:nonzero;stroke:none"
       id="text248"><tspan
         x="0 3.5 7 9.8000002"
         y="0"
         sodipodi:role="line"
         id="tspan246">85°C</tspan></text><g
       id="g250"
       transform="translate(278.9138,409.371)"><path
         d="M 0,0 H 15"
         style="fill:none;stroke:#36864b;stroke-width:1.2;stroke-linecap:butt;stroke-linejoin:miter;stroke-miterlimit:1;stroke-dasharray:none;stroke-opacity:1"
         id="path252" /></g><text
       transform="matrix(1,0,0,-1,297.7136,406.371)"
       style="font-variant:normal;font-weight:normal;font-stretch:condensed;font-size:7px;font-family:'Linear Helv Cond';-inkscape-font-specification:LinearHelvCond;writing-mode:lr-tb;fill:#000000;fill-opacity:1;fill-rule:nonzero;stroke:none"
       id="text256"><tspan
         x="0 3.5 7 9.8000002"
         y="0"
         sodipodi:role="line"
         id="tspan254">25°C</tspan></text><g
       id="g258"
       transform="translate(278.9138,401.371)"><path
         d="M 0,0 H 15"
         style="fill:none;stroke:#4c8bfa;stroke-width:1.2;stroke-linecap:butt;stroke-linejoin:miter;stroke-miterlimit:1;stroke-dasharray:none;stroke-opacity:1"
         id="path260" /></g><g
       id="g262"
       transform="translate(278.9138,393.371)"><path
         d="M 0,0 H 15"
         style="fill:none;stroke:#3a52a4;stroke-width:1.2;stroke-linecap:butt;stroke-linejoin:miter;stroke-miterlimit:1;stroke-dasharray:none;stroke-opacity:1"
         id="path264" /></g><g
       id="g266"><g
         id="g268"
         clip-path="url(#clipPath272)"><g
           id="g274"
           transform="translate(254.3117,308.6293)"><path
             d="m 0,0 h 1.199 1.198 l 1.199,0.001 h 1.199 l 1.199,0.001 1.199,0.001 1.199,0.003 1.199,0.005 1.199,0.011 1.198,0.035 1.199,0.151 1.199,0.757 1.199,1.608 1.199,1.689 1.198,1.637 1.2,1.607 1.198,1.578 1.199,1.541 1.199,1.52 1.199,1.5 1.199,1.488 1.199,1.449 1.198,1.448 1.199,1.432 1.199,1.422 1.199,1.402 1.199,1.397 1.199,1.383 1.199,1.372 1.198,1.366 1.199,1.358 1.199,1.392 1.199,1.349 1.199,1.338 1.198,1.336 1.2,1.331 1.198,1.327 1.199,1.332 1.199,1.336 1.199,1.349 1.199,1.364 1.199,1.39 1.198,1.411 1.2,1.412 1.198,1.444 1.199,1.448 1.199,1.44 1.199,1.431 1.199,1.417 1.198,1.397 1.199,1.386 1.199,1.373 1.199,1.365 1.199,1.355 1.199,1.341 1.198,1.335 1.199,1.327 1.2,1.318 1.198,1.311 1.199,1.298 1.199,1.293 1.199,1.288 1.199,1.282 1.198,1.273 1.199,1.27 1.2,1.263 1.198,1.255 1.199,1.254 1.199,1.246 1.198,1.245 1.2,1.242 1.198,1.237 1.199,1.238 1.199,1.241 1.199,1.239 1.199,1.242 1.199,1.243 1.198,1.251 1.199,1.258 1.199,1.269 1.199,1.276 1.199,1.279 1.198,1.291 1.2,1.291 1.199,1.297 1.198,1.288 1.199,1.286 1.199,1.261 1.199,1.246 1.199,1.202 1.198,1.161 1.199,1.086 1.2,0.891 1.198,0.687 1.199,0.428 1.198,0.199 1.2,0.066 1.199,0.023 1.198,0.01 1.199,0.008 1.199,0.005 1.199,0.004 1.199,0.003 1.198,0.001 1.199,0.002 1.2,0.003 1.198,0.001 h 1.199"
             style="fill:none;stroke:#e60019;stroke-width:1.2;stroke-linecap:butt;stroke-linejoin:miter;stroke-miterlimit:1;stroke-dasharray:none;stroke-opacity:1"
             id="path276" /></g><g
           id="g278"
           transform="translate(254.3117,308.6205)"><path
             d="m 0,0 h 1.199 1.198 1.199 l 1.199,0.001 h 1.199 l 1.199,0.002 1.199,0.003 1.199,0.008 1.199,0.022 1.198,0.089 1.199,0.464 1.199,1.348 1.199,1.659 1.199,1.614 1.198,1.574 1.2,1.55 1.198,1.522 1.199,1.502 1.199,1.479 1.199,1.47 1.199,1.451 1.199,1.431 1.198,1.419 1.199,1.414 1.199,1.4 1.199,1.39 1.199,1.378 1.199,1.367 1.199,1.358 1.198,1.351 1.199,1.345 1.199,1.39 1.199,1.346 1.199,1.347 1.198,1.356 1.2,1.368 1.198,1.385 1.199,1.409 1.199,1.438 1.199,1.458 1.199,1.468 1.199,1.474 1.198,1.457 1.2,1.431 1.198,1.431 1.199,1.413 1.199,1.403 1.199,1.389 1.199,1.378 1.198,1.366 1.199,1.363 1.199,1.35 1.199,1.347 1.199,1.342 1.199,1.333 1.198,1.325 1.199,1.322 1.2,1.309 1.198,1.311 1.199,1.298 1.199,1.292 1.199,1.289 1.199,1.28 1.198,1.278 1.199,1.268 1.2,1.267 1.198,1.26 1.199,1.258 1.199,1.255 1.198,1.251 1.2,1.249 1.198,1.247 1.199,1.247 1.199,1.25 1.199,1.251 1.199,1.255 1.199,1.264 1.198,1.275 1.199,1.283 1.199,1.296 1.199,1.317 1.199,1.324 1.198,1.335 1.2,1.345 1.199,1.347 1.198,1.341 1.199,1.33 1.199,1.306 1.199,1.278 1.199,1.236 1.198,1.168 1.199,0.952 1.2,0.724 1.198,0.391 1.199,0.098 1.198,0.021 1.2,0.01 1.199,0.006 1.198,0.005 1.199,0.003 1.199,0.004 1.199,0.002 1.199,0.001 1.198,0.002 h 1.199 l 1.2,0.001 1.198,10e-4 1.199,0.001"
             style="fill:none;stroke:#900027;stroke-width:1.2;stroke-linecap:butt;stroke-linejoin:miter;stroke-miterlimit:1;stroke-dasharray:none;stroke-opacity:1"
             id="path280" /></g></g></g><text
       transform="matrix(1,0,0,-1,297.7136,398.371)"
       style="font-variant:normal;font-weight:normal;font-stretch:condensed;font-size:7px;font-family:'Linear Helv Cond';-inkscape-font-specification:LinearHelvCond;writing-mode:lr-tb;fill:#000000;fill-opacity:1;fill-rule:nonzero;stroke:none"
       id="text284"><tspan
         x="0 2.3310001 5.8309999 9.3310003 12.131"
         y="0"
         sodipodi:role="line"
         id="tspan282">-40°C</tspan></text><text
       transform="matrix(1,0,0,-1,297.7136,390.37)"
       style="font-variant:normal;font-weight:normal;font-stretch:condensed;font-size:7px;font-family:'Linear Helv Cond';-inkscape-font-specification:LinearHelvCond;writing-mode:lr-tb;fill:#000000;fill-opacity:1;fill-rule:nonzero;stroke:none"
       id="text288"><tspan
         x="0 2.3310001 5.8309999 9.3310003 12.131"
         y="0"
         sodipodi:role="line"
         id="tspan286">-55°C</tspan></text><g
       id="g290"><g
         id="g292"
         clip-path="url(#clipPath296)"><g
           id="g298"
           transform="translate(254.3117,308.6117)"><path
             d="m 0,0 h 1.199 1.198 l 1.199,0.001 h 1.199 l 1.199,0.001 1.199,0.001 1.199,0.004 1.199,0.011 1.199,0.038 1.198,0.22 1.199,0.94 1.199,1.603 1.199,1.57 1.199,1.539 1.198,1.537 1.2,1.492 1.198,1.505 1.199,1.456 1.199,1.443 1.199,1.44 1.199,1.426 1.199,1.411 1.198,1.4 1.199,1.39 1.199,1.381 1.199,1.373 1.199,1.36 1.199,1.36 1.199,1.35 1.198,1.353 1.199,1.352 1.199,1.385 1.199,1.374 1.199,1.388 1.198,1.408 1.2,1.425 1.198,1.446 1.199,1.458 1.199,1.46 1.199,1.454 1.199,1.445 1.199,1.426 1.198,1.416 1.2,1.424 1.198,1.39 1.199,1.381 1.199,1.372 1.199,1.367 1.199,1.357 1.198,1.351 1.199,1.344 1.199,1.339 1.199,1.339 1.199,1.329 1.199,1.323 1.198,1.322 1.199,1.309 1.2,1.309 1.198,1.3 1.199,1.294 1.199,1.289 1.199,1.282 1.199,1.279 1.198,1.272 1.199,1.267 1.2,1.261 1.198,1.257 1.199,1.259 1.199,1.257 1.198,1.249 1.2,1.247 1.198,1.251 1.199,1.248 1.199,1.249 1.199,1.259 1.199,1.262 1.199,1.271 1.198,1.288 1.199,1.297 1.199,1.323 1.199,1.345 1.199,1.36 1.198,1.382 1.2,1.393 1.199,1.397 1.198,1.393 1.199,1.374 1.199,1.352 1.199,1.313 1.199,1.261 1.198,1.115 1.199,0.859 1.2,0.566 1.198,0.196 1.199,0.025 1.198,0.013 1.2,0.006 1.199,0.006 1.198,0.002 1.199,0.003 1.199,0.002 1.199,0.001 1.199,0.002 1.198,0.001 1.199,10e-4 1.2,0.001 h 1.198 1.199"
             style="fill:none;stroke:#b57233;stroke-width:1.2;stroke-linecap:butt;stroke-linejoin:miter;stroke-miterlimit:1;stroke-dasharray:none;stroke-opacity:1"
             id="path300" /></g><g
           id="g302"
           transform="translate(254.3117,308.5883)"><path
             d="m 0,0 h 1.199 1.198 1.199 1.199 1.199 l 1.199,0.002 1.199,0.006 1.199,0.042 1.199,0.31 1.198,1.186 1.199,1.546 1.199,1.479 1.199,1.457 1.199,1.434 1.198,1.407 1.2,1.421 1.198,1.398 1.199,1.407 1.199,1.377 1.199,1.395 1.199,1.379 1.199,1.376 1.198,1.366 1.199,1.366 1.199,1.374 1.199,1.372 1.199,1.369 1.199,1.385 1.199,1.378 1.198,1.387 1.199,1.403 1.199,1.448 1.199,1.418 1.199,1.409 1.198,1.407 1.2,1.404 1.198,1.397 1.199,1.388 1.199,1.382 1.199,1.378 1.199,1.361 1.199,1.358 1.198,1.353 1.2,1.367 1.198,1.346 1.199,1.338 1.199,1.333 1.199,1.33 1.199,1.324 1.198,1.326 1.199,1.313 1.199,1.316 1.199,1.312 1.199,1.304 1.199,1.303 1.198,1.292 1.199,1.293 1.2,1.286 1.198,1.28 1.199,1.278 1.199,1.266 1.199,1.263 1.199,1.265 1.198,1.257 1.199,1.256 1.2,1.251 1.198,1.25 1.199,1.246 1.199,1.239 1.198,1.25 1.2,1.241 1.198,1.254 1.199,1.246 1.199,1.249 1.199,1.255 1.199,1.264 1.199,1.274 1.198,1.29 1.199,1.311 1.199,1.352 1.199,1.386 1.199,1.446 1.198,1.511 1.2,1.574 1.199,1.623 1.198,1.644 1.199,1.624 1.199,1.571 1.199,1.493 1.199,1.255 1.198,0.814 1.199,0.445 1.2,0.103 1.198,0.018 1.199,0.007 1.198,0.006 1.2,0.001 1.199,0.003 1.198,0.002 1.199,0.002 1.199,10e-4 1.199,0.001 h 1.199 l 1.198,0.001 1.199,10e-4 1.2,0.002 1.198,-0.002 1.199,0.002"
             style="fill:none;stroke:#36864b;stroke-width:1.2;stroke-linecap:butt;stroke-linejoin:miter;stroke-miterlimit:1;stroke-dasharray:none;stroke-opacity:1"
             id="path304" /></g><g
           id="g306"
           transform="translate(254.3117,308.5629)"><path
             d="m 0,0 h 1.199 1.198 1.199 1.199 1.199 l 1.199,0.001 1.199,0.025 1.199,0.278 1.199,1.198 1.198,1.462 1.199,1.39 1.199,1.37 1.199,1.359 1.199,1.351 1.198,1.367 1.2,1.338 1.198,1.36 1.199,1.35 1.199,1.358 1.199,1.337 1.199,1.346 1.199,1.35 1.198,1.358 1.199,1.353 1.199,1.357 1.199,1.363 1.199,1.353 1.199,1.359 1.199,1.359 1.198,1.358 1.199,1.354 1.199,1.413 1.199,1.357 1.199,1.356 1.198,1.353 1.2,1.344 1.198,1.342 1.199,1.339 1.199,1.338 1.199,1.327 1.199,1.317 1.199,1.322 1.198,1.309 1.2,1.337 1.198,1.304 1.199,1.302 1.199,1.295 1.199,1.293 1.199,1.291 1.198,1.287 1.199,1.281 1.199,1.279 1.199,1.277 1.199,1.265 1.199,1.267 1.198,1.265 1.199,1.259 1.2,1.256 1.198,1.253 1.199,1.248 1.199,1.243 1.199,1.241 1.199,1.239 1.198,1.237 1.199,1.238 1.2,1.235 1.198,1.233 1.199,1.226 1.199,1.239 1.198,1.232 1.2,1.235 1.198,1.24 1.199,1.235 1.199,1.243 1.199,1.235 1.199,1.246 1.199,1.249 1.198,1.254 1.199,1.286 1.199,1.311 1.199,1.35 1.199,1.411 1.198,1.487 1.2,1.633 1.199,1.888 1.198,2.241 1.199,2.415 1.199,2.334 1.199,1.732 1.199,0.777 1.198,0.253 1.199,0.015 1.2,0.008 1.198,0.002 1.199,0.002 h 1.198 l 1.2,0.002 h 1.199 l 1.198,0.002 h 1.199 l 1.199,-10e-4 1.199,10e-4 1.199,0.002 h 1.198 l 1.199,10e-4 h 1.2 l 1.198,0.002 h 1.199"
             style="fill:none;stroke:#4c8bfa;stroke-width:1.2;stroke-linecap:butt;stroke-linejoin:miter;stroke-miterlimit:1;stroke-dasharray:none;stroke-opacity:1"
             id="path308" /></g><g
           id="g310"
           transform="translate(254.3117,308.557)"><path
             d="m 0,0 h 1.199 1.198 1.199 1.199 1.199 l 1.199,0.002 1.199,0.047 1.199,0.381 1.199,1.339 1.198,1.424 1.199,1.366 1.199,1.356 1.199,1.314 1.199,1.344 1.198,1.348 1.2,1.338 1.198,1.335 1.199,1.338 1.199,1.343 1.199,1.335 1.199,1.344 1.199,1.346 1.198,1.344 1.199,1.346 1.199,1.356 1.199,1.347 1.199,1.341 1.199,1.345 1.199,1.347 1.198,1.346 1.199,1.341 1.199,1.356 1.199,1.345 1.199,1.347 1.198,1.337 1.2,1.334 1.198,1.328 1.199,1.325 1.199,1.361 1.199,1.313 1.199,1.307 1.199,1.304 1.198,1.299 1.2,1.324 1.198,1.293 1.199,1.29 1.199,1.284 1.199,1.279 1.199,1.28 1.198,1.278 1.199,1.271 1.199,1.27 1.199,1.263 1.199,1.263 1.199,1.261 1.198,1.254 1.199,1.247 1.2,1.246 1.198,1.25 1.199,1.237 1.199,1.233 1.199,1.235 1.199,1.233 1.198,1.232 1.199,1.23 1.2,1.229 1.198,1.231 1.199,1.227 1.199,1.227 1.198,1.23 1.2,1.234 1.198,1.229 1.199,1.231 1.199,1.234 1.199,1.235 1.199,1.242 1.199,1.239 1.198,1.254 1.199,1.278 1.199,1.294 1.199,1.329 1.199,1.383 1.198,1.465 1.2,1.596 1.199,1.866 1.198,2.388 1.199,2.825 1.199,2.738 1.199,1.662 1.199,0.586 1.198,0.104 1.199,0.01 1.2,0.004 1.198,-10e-4 1.199,10e-4 1.198,0.002 h 1.2 1.199 l 1.198,0.002 1.199,0.001 1.199,0.002 1.199,-0.001 1.199,0.001 h 1.198 1.199 1.2 l 1.198,0.001 1.199,0.003"
             style="fill:none;stroke:#3a52a4;stroke-width:1.2;stroke-linecap:butt;stroke-linejoin:miter;stroke-miterlimit:1;stroke-dasharray:none;stroke-opacity:1"
             id="path312" /></g><g
           id="g314"
           transform="translate(254.3117,446.0722)"><path
             d="m 0,0 1.199,-9.253 1.198,-9.253 1.199,-9.252 1.199,-9.251 1.199,-9.249 1.199,-9.245 1.199,-9.237 1.199,-9.218 1.199,-9.173 1.198,-9.02 1.199,-8.203 1.199,-4.005 1.199,1.906 1.199,2.458 1.198,2.105 1.2,1.889 1.198,1.687 1.199,1.434 1.199,1.291 1.199,1.148 1.199,1.068 1.199,0.797 1.198,0.788 1.199,0.678 1.199,0.61 1.199,0.473 1.199,0.432 1.199,0.345 1.199,0.259 1.198,0.216 1.199,0.165 1.199,0.399 1.199,0.11 1.199,0.027 1.198,0.012 1.2,-0.025 1.198,-0.046 1.199,-0.016 1.199,0.01 1.199,0.1 1.199,0.207 1.199,0.385 1.198,0.534 1.2,0.543 1.198,0.761 1.199,0.784 1.199,0.741 1.199,0.67 1.199,0.57 1.198,0.437 1.199,0.36 1.199,0.268 1.199,0.218 1.199,0.138 1.199,0.05 1.198,0.004 1.199,-0.051 1.2,-0.106 1.198,-0.169 1.199,-0.243 1.199,-0.285 1.199,-0.322 1.199,-0.363 1.198,-0.426 1.199,-0.447 1.2,-0.491 1.198,-0.547 1.199,-0.557 1.199,-0.611 1.198,-0.623 1.2,-0.64 1.198,-0.673 1.199,-0.664 1.199,-0.65 1.199,-0.663 1.199,-0.636 1.199,-0.631 1.198,-0.578 1.199,-0.532 1.199,-0.448 1.199,-0.403 1.199,-0.387 1.198,-0.297 1.2,-0.301 1.199,-0.255 1.198,-0.325 1.199,-0.33 1.199,-0.511 1.199,-0.611 1.199,-0.915 1.198,-1.204 1.199,-1.717 1.2,-3.073 1.198,-4.494 1.199,-6.284 1.198,-7.874 1.2,-8.796 1.199,-9.092 1.198,-9.188 1.199,-9.195 1.199,-9.223 1.199,-9.227 1.199,-9.234 1.198,-9.241 1.199,-9.241 1.2,-9.239 1.198,-9.244 1.199,-9.256"
             style="fill:none;stroke:#e60019;stroke-width:1.2;stroke-linecap:butt;stroke-linejoin:miter;stroke-miterlimit:1;stroke-dasharray:4, 2;stroke-dashoffset:0;stroke-opacity:1"
             id="path316" /></g><g
           id="g318"
           transform="translate(254.3117,445.7416)"><path
             d="m 0,0 1.199,-9.223 1.198,-9.222 1.199,-9.222 1.199,-9.221 1.199,-9.218 1.199,-9.214 1.199,-9.202 1.199,-9.169 1.199,-9.072 1.198,-8.608 1.199,-6.018 1.199,0.102 1.199,2.243 1.199,1.935 1.198,1.662 1.2,1.487 1.198,1.302 1.199,1.16 1.199,1 1.199,0.935 1.199,0.81 1.199,0.671 1.198,0.587 1.199,0.551 1.199,0.452 1.199,0.388 1.199,0.303 1.199,0.219 1.199,0.168 1.198,0.112 1.199,0.079 1.199,0.384 1.199,0.085 1.199,0.09 1.198,0.148 1.2,0.237 1.198,0.348 1.199,0.519 1.199,0.722 1.199,0.849 1.199,0.93 1.199,0.964 1.198,0.847 1.2,0.674 1.198,0.663 1.199,0.547 1.199,0.474 1.199,0.385 1.199,0.296 1.198,0.221 1.199,0.195 1.199,0.114 1.199,0.087 1.199,0.05 1.199,-0.006 1.198,-0.064 1.199,-0.08 1.2,-0.178 1.198,-0.153 1.199,-0.255 1.199,-0.288 1.199,-0.314 1.199,-0.374 1.198,-0.393 1.199,-0.452 1.2,-0.469 1.198,-0.515 1.199,-0.529 1.199,-0.542 1.198,-0.577 1.2,-0.586 1.198,-0.607 1.199,-0.599 1.199,-0.585 1.199,-0.576 1.199,-0.545 1.199,-0.486 1.198,-0.408 1.199,-0.353 1.199,-0.269 1.199,-0.116 1.199,-0.073 1.198,0.008 1.2,0.077 1.199,0.082 1.198,0.052 1.199,-0.027 1.199,-0.196 1.199,-0.39 1.199,-0.678 1.198,-1.152 1.199,-2.641 1.2,-4.216 1.198,-6.521 1.199,-8.549 1.198,-9.078 1.2,-9.155 1.199,-9.18 1.198,-9.191 1.199,-9.196 1.199,-9.2 1.199,-9.209 1.199,-9.22 1.198,-9.209 1.199,-9.218 1.2,-9.216 1.198,-9.219 1.199,-9.213"
             style="fill:none;stroke:#900027;stroke-width:1.2;stroke-linecap:butt;stroke-linejoin:miter;stroke-miterlimit:1;stroke-dasharray:4, 2;stroke-dashoffset:0;stroke-opacity:1"
             id="path320" /></g><g
           id="g322"
           transform="translate(254.3117,445.9945)"><path
             d="m 0,0 1.199,-9.259 1.198,-9.258 1.199,-9.258 1.199,-9.257 1.199,-9.255 1.199,-9.249 1.199,-9.234 1.199,-9.183 1.199,-8.991 1.198,-7.731 1.199,-2.74 1.199,1.871 1.199,1.634 1.199,1.42 1.198,1.404 1.2,1.104 1.198,1.179 1.199,0.848 1.199,0.758 1.199,0.73 1.199,0.634 1.199,0.536 1.198,0.455 1.199,0.39 1.199,0.32 1.199,0.269 1.199,0.182 1.199,0.183 1.199,0.106 1.198,0.137 1.199,0.115 1.199,0.355 1.199,0.275 1.199,0.369 1.198,0.517 1.2,0.625 1.198,0.782 1.199,0.86 1.199,0.87 1.199,0.833 1.199,0.772 1.199,0.636 1.198,0.564 1.2,0.621 1.198,0.397 1.199,0.324 1.199,0.259 1.199,0.227 1.199,0.161 1.198,0.113 1.199,0.071 1.199,0.03 1.199,0.032 1.199,-0.033 1.199,-0.073 1.198,-0.092 1.199,-0.172 1.2,-0.175 1.198,-0.238 1.199,-0.285 1.199,-0.309 1.199,-0.365 1.199,-0.377 1.198,-0.437 1.199,-0.462 1.2,-0.512 1.198,-0.531 1.199,-0.527 1.199,-0.534 1.198,-0.59 1.2,-0.605 1.198,-0.577 1.199,-0.597 1.199,-0.596 1.199,-0.521 1.199,-0.502 1.199,-0.434 1.198,-0.323 1.199,-0.258 1.199,-0.078 1.199,0.073 1.199,0.183 1.198,0.329 1.2,0.412 1.199,0.433 1.198,0.41 1.199,0.276 1.199,0.127 1.199,-0.149 1.199,-0.508 1.198,-1.525 1.199,-3.297 1.2,-5.335 1.198,-7.891 1.199,-9.089 1.198,-9.173 1.2,-9.214 1.199,-9.216 1.198,-9.248 1.199,-9.237 1.199,-9.245 1.199,-9.254 1.199,-9.24 1.198,-9.252 1.199,-9.252 1.2,-9.253 1.198,-9.258 1.199,-9.258"
             style="fill:none;stroke:#b57233;stroke-width:1.2;stroke-linecap:butt;stroke-linejoin:miter;stroke-miterlimit:1;stroke-dasharray:4, 2;stroke-dashoffset:0;stroke-opacity:1"
             id="path324" /></g><g
           id="g326"
           transform="translate(254.3117,447.2299)"><path
             d="m 0,0 1.199,-9.419 1.198,-9.42 1.199,-9.42 1.199,-9.419 1.199,-9.416 1.199,-9.408 1.199,-9.376 1.199,-9.121 1.199,-7.232 1.198,-1.05 1.199,1.496 1.199,1.027 1.199,0.868 1.199,0.699 1.198,0.519 1.2,0.612 1.198,0.442 1.199,0.518 1.199,0.3 1.199,0.437 1.199,0.311 1.199,0.297 1.198,0.226 1.199,0.223 1.199,0.276 1.199,0.266 1.199,0.249 1.199,0.365 1.199,0.309 1.198,0.372 1.199,0.489 1.199,0.794 1.199,0.593 1.199,0.529 1.198,0.517 1.2,0.492 1.198,0.441 1.199,0.379 1.199,0.34 1.199,0.309 1.199,0.19 1.199,0.167 1.198,0.131 1.2,0.235 1.198,0.083 1.199,0.028 1.199,-0.009 1.199,-0.026 1.199,-0.078 1.198,-0.06 1.199,-0.148 1.199,-0.13 1.199,-0.151 1.199,-0.214 1.199,-0.226 1.198,-0.298 1.199,-0.292 1.2,-0.341 1.198,-0.377 1.199,-0.396 1.199,-0.485 1.199,-0.505 1.199,-0.484 1.198,-0.548 1.199,-0.554 1.2,-0.587 1.198,-0.595 1.199,-0.623 1.199,-0.668 1.198,-0.592 1.2,-0.66 1.198,-0.57 1.199,-0.621 1.199,-0.603 1.199,-0.556 1.199,-0.499 1.199,-0.421 1.198,-0.311 1.199,-0.167 1.199,0.125 1.199,0.372 1.199,0.786 1.198,1.249 1.2,1.695 1.199,2.035 1.198,2.188 1.199,2.047 1.199,1.672 1.199,1.122 1.199,-0.561 1.198,-3.675 1.199,-6.272 1.2,-8.694 1.198,-9.298 1.199,-9.368 1.198,-9.376 1.2,-9.41 1.199,-9.4 1.198,-9.404 1.199,-9.408 1.199,-9.416 1.199,-9.405 1.199,-9.426 1.198,-9.405 1.199,-9.416 1.2,-9.408 1.198,-9.432 1.199,-9.407"
             style="fill:none;stroke:#36864b;stroke-width:1.2;stroke-linecap:butt;stroke-linejoin:miter;stroke-miterlimit:1;stroke-dasharray:4, 2;stroke-dashoffset:0;stroke-opacity:1"
             id="path328" /></g><g
           id="g330"
           transform="translate(254.3117,449.1513)"><path
             d="m 0,0 1.199,-9.66 1.198,-9.661 1.199,-9.66 1.199,-9.662 1.199,-9.658 1.199,-9.653 1.199,-9.476 1.199,-7.656 1.199,-0.983 1.198,0.928 1.199,0.4 1.199,0.26 1.199,0.177 1.199,0.12 1.198,0.242 1.2,0.025 1.198,0.186 1.199,0.117 1.199,0.171 1.199,0.022 1.199,0.083 1.199,0.117 1.198,0.174 1.199,0.135 1.199,0.161 1.199,0.211 1.199,0.143 1.199,0.169 1.199,0.189 1.198,0.167 1.199,0.144 1.199,0.575 1.199,0.16 1.199,0.161 1.198,0.133 1.2,0.073 1.198,0.053 1.199,0.036 1.199,0.028 1.199,-0.05 1.199,-0.12 1.199,-0.098 1.198,-0.177 1.2,0.019 1.198,-0.219 1.199,-0.239 1.199,-0.28 1.199,-0.299 1.199,-0.315 1.198,-0.34 1.199,-0.379 1.199,-0.398 1.199,-0.426 1.199,-0.492 1.199,-0.487 1.198,-0.496 1.199,-0.549 1.2,-0.57 1.198,-0.585 1.199,-0.626 1.199,-0.657 1.199,-0.675 1.199,-0.695 1.198,-0.703 1.199,-0.694 1.2,-0.721 1.198,-0.734 1.199,-0.778 1.199,-0.692 1.198,-0.736 1.2,-0.724 1.198,-0.675 1.199,-0.722 1.199,-0.664 1.199,-0.716 1.199,-0.639 1.199,-0.612 1.198,-0.581 1.199,-0.356 1.199,-0.17 1.199,0.122 1.199,0.552 1.198,1.105 1.2,2.166 1.199,4.012 1.198,6.563 1.199,7.828 1.199,7.237 1.199,2.885 1.199,-4.039 1.198,-7.825 1.199,-9.555 1.2,-9.606 1.198,-9.64 1.199,-9.644 1.198,-9.665 1.2,-9.648 1.199,-9.656 1.198,-9.651 1.199,-9.66 1.199,-9.668 1.199,-9.649 1.199,-9.65 1.198,-9.658 1.199,-9.656 1.2,-9.658 1.198,-9.649 1.199,-9.66"
             style="fill:none;stroke:#4c8bfa;stroke-width:1.2;stroke-linecap:butt;stroke-linejoin:miter;stroke-miterlimit:1;stroke-dasharray:4, 2;stroke-dashoffset:0;stroke-opacity:1"
             id="path332" /></g><g
           id="g334"
           transform="translate(254.3117,449.7592)"><path
             d="m 0,0 1.199,-9.735 1.198,-9.735 1.199,-9.735 1.199,-9.736 1.199,-9.734 1.199,-9.724 1.199,-9.392 1.199,-6.953 1.199,0.03 1.198,0.66 1.199,0.231 1.199,0.159 1.199,-0.143 1.199,0.072 1.198,0.093 1.2,0.031 1.198,0.004 1.199,0.024 1.199,0.072 1.199,0.01 1.199,0.065 1.199,0.087 1.198,0.066 1.199,0.094 1.199,0.158 1.199,0.092 1.199,0.048 1.199,0.081 1.199,0.087 1.198,0.091 1.199,0.049 1.199,0.159 1.199,0.085 1.199,0.089 1.198,0.019 1.2,-0.001 1.198,-0.045 1.199,-0.063 1.199,0.187 1.199,-0.15 1.199,-0.204 1.199,-0.211 1.198,-0.259 1.2,-0.073 1.198,-0.3 1.199,-0.325 1.199,-0.371 1.199,-0.398 1.199,-0.393 1.198,-0.411 1.199,-0.465 1.199,-0.47 1.199,-0.515 1.199,-0.521 1.199,-0.541 1.198,-0.584 1.199,-0.634 1.2,-0.64 1.198,-0.619 1.199,-0.702 1.199,-0.74 1.199,-0.73 1.199,-0.737 1.198,-0.743 1.199,-0.761 1.2,-0.769 1.198,-0.755 1.199,-0.778 1.199,-0.784 1.198,-0.756 1.2,-0.737 1.198,-0.766 1.199,-0.748 1.199,-0.735 1.199,-0.721 1.199,-0.675 1.199,-0.695 1.198,-0.582 1.199,-0.414 1.199,-0.291 1.199,-0.04 1.199,0.36 1.198,0.953 1.2,1.906 1.199,3.886 1.198,7.684 1.199,10.884 1.199,10.237 1.199,2.398 1.199,-5.466 1.198,-8.971 1.199,-9.668 1.2,-9.702 1.198,-9.745 1.199,-9.725 1.198,-9.724 1.2,-9.73 1.199,-9.736 1.198,-9.725 1.199,-9.722 1.199,-9.725 1.199,-9.738 1.199,-9.734 1.198,-9.736 1.199,-9.735 1.2,-9.73 1.198,-9.727 1.199,-9.713"
             style="fill:none;stroke:#3a52a4;stroke-width:1.2;stroke-linecap:butt;stroke-linejoin:miter;stroke-miterlimit:1;stroke-dasharray:4, 2;stroke-dashoffset:0;stroke-opacity:1"
             id="path336" /></g></g></g><g
       id="g338"
       transform="translate(431.1138,440.371)"><path
         d="M 0,0 H 131.874 V -131.874 H 0 Z"
         style="fill:none;stroke:#000000;stroke-width:0.6;stroke-linecap:butt;stroke-linejoin:miter;stroke-miterlimit:4;stroke-dasharray:none;stroke-opacity:1"
         id="path340" /></g><text
       transform="matrix(1,0,0,-1,548.8438,283.6962)"
       style="font-variant:normal;font-weight:normal;font-stretch:condensed;font-size:4px;font-family:'Linear Helv Cond';-inkscape-font-specification:LinearHelvCond;writing-mode:lr-tb;fill:#000000;fill-opacity:1;fill-rule:nonzero;stroke:none"
       id="text344"><tspan
         x="0 2 4 6 8 9 11.444 13.444"
         y="0"
         sodipodi:role="line"
         id="tspan342">5597 G06</tspan></text><g
       id="g346"
       transform="translate(443.1026,440.371)"><path
         d="M 0,0 V -131.874"
         style="fill:none;stroke:#333333;stroke-width:0.35;stroke-linecap:butt;stroke-linejoin:miter;stroke-miterlimit:4;stroke-dasharray:none;stroke-opacity:1"
         id="path348" /></g><g
       id="g350"
       transform="translate(455.0909,440.371)"><path
         d="M 0,0 V -131.874"
         style="fill:none;stroke:#333333;stroke-width:0.35;stroke-linecap:butt;stroke-linejoin:miter;stroke-miterlimit:4;stroke-dasharray:none;stroke-opacity:1"
         id="path352" /></g><g
       id="g354"
       transform="translate(467.0796,440.371)"><path
         d="M 0,0 V -131.874"
         style="fill:none;stroke:#333333;stroke-width:0.35;stroke-linecap:butt;stroke-linejoin:miter;stroke-miterlimit:4;stroke-dasharray:none;stroke-opacity:1"
         id="path356" /></g><g
       id="g358"
       transform="translate(479.0679,440.371)"><path
         d="M 0,0 V -131.874"
         style="fill:none;stroke:#333333;stroke-width:0.35;stroke-linecap:butt;stroke-linejoin:miter;stroke-miterlimit:4;stroke-dasharray:none;stroke-opacity:1"
         id="path360" /></g><g
       id="g362"
       transform="translate(491.0567,440.371)"><path
         d="M 0,0 V -131.874"
         style="fill:none;stroke:#333333;stroke-width:0.35;stroke-linecap:butt;stroke-linejoin:miter;stroke-miterlimit:4;stroke-dasharray:none;stroke-opacity:1"
         id="path364" /></g><g
       id="g366"
       transform="translate(503.0454,440.371)"><path
         d="M 0,0 V -131.874"
         style="fill:none;stroke:#333333;stroke-width:0.35;stroke-linecap:butt;stroke-linejoin:miter;stroke-miterlimit:4;stroke-dasharray:none;stroke-opacity:1"
         id="path368" /></g><g
       id="g370"
       transform="translate(515.0337,440.371)"><path
         d="M 0,0 V -131.874"
         style="fill:none;stroke:#333333;stroke-width:0.35;stroke-linecap:butt;stroke-linejoin:miter;stroke-miterlimit:4;stroke-dasharray:none;stroke-opacity:1"
         id="path372" /></g><g
       id="g374"
       transform="translate(527.022,440.371)"><path
         d="M 0,0 V -131.874"
         style="fill:none;stroke:#333333;stroke-width:0.35;stroke-linecap:butt;stroke-linejoin:miter;stroke-miterlimit:4;stroke-dasharray:none;stroke-opacity:1"
         id="path376" /></g><g
       id="g378"
       transform="translate(539.0103,440.371)"><path
         d="M 0,0 V -131.874"
         style="fill:none;stroke:#333333;stroke-width:0.35;stroke-linecap:butt;stroke-linejoin:miter;stroke-miterlimit:4;stroke-dasharray:none;stroke-opacity:1"
         id="path380" /></g><g
       id="g382"
       transform="translate(550.9995,440.371)"><path
         d="M 0,0 V -131.874"
         style="fill:none;stroke:#333333;stroke-width:0.35;stroke-linecap:butt;stroke-linejoin:miter;stroke-miterlimit:4;stroke-dasharray:none;stroke-opacity:1"
         id="path384" /></g><g
       id="g386"
       transform="translate(562.9878,440.371)"><path
         d="M 0,0 V -131.874"
         style="fill:none;stroke:#333333;stroke-width:0.35;stroke-linecap:butt;stroke-linejoin:miter;stroke-miterlimit:4;stroke-dasharray:none;stroke-opacity:1"
         id="path388" /></g><g
       id="g390"
       transform="translate(431.1138,421.5316)"><path
         d="M 0,0 H 131.874"
         style="fill:none;stroke:#333333;stroke-width:0.35;stroke-linecap:butt;stroke-linejoin:miter;stroke-miterlimit:4;stroke-dasharray:none;stroke-opacity:1"
         id="path392" /></g><g
       id="g394"
       transform="translate(431.1138,402.6928)"><path
         d="M 0,0 H 131.874"
         style="fill:none;stroke:#333333;stroke-width:0.35;stroke-linecap:butt;stroke-linejoin:miter;stroke-miterlimit:4;stroke-dasharray:none;stroke-opacity:1"
         id="path396" /></g><g
       id="g398"
       transform="translate(431.1138,383.8534)"><path
         d="M 0,0 H 131.874"
         style="fill:none;stroke:#333333;stroke-width:0.35;stroke-linecap:butt;stroke-linejoin:miter;stroke-miterlimit:4;stroke-dasharray:none;stroke-opacity:1"
         id="path400" /></g><g
       id="g402"
       transform="translate(431.1138,365.0141)"><path
         d="M 0,0 H 131.874"
         style="fill:none;stroke:#333333;stroke-width:0.35;stroke-linecap:butt;stroke-linejoin:miter;stroke-miterlimit:4;stroke-dasharray:none;stroke-opacity:1"
         id="path404" /></g><g
       id="g406"
       transform="translate(431.1138,346.1752)"><path
         d="M 0,0 H 131.874"
         style="fill:none;stroke:#333333;stroke-width:0.35;stroke-linecap:butt;stroke-linejoin:miter;stroke-miterlimit:4;stroke-dasharray:none;stroke-opacity:1"
         id="path408" /></g><g
       id="g410"
       transform="translate(431.1138,327.3363)"><path
         d="M 0,0 H 131.874"
         style="fill:none;stroke:#333333;stroke-width:0.35;stroke-linecap:butt;stroke-linejoin:miter;stroke-miterlimit:4;stroke-dasharray:none;stroke-opacity:1"
         id="path412" /></g><g
       id="g414"
       transform="translate(431.1138,308.4975)"><path
         d="M 0,0 H 131.874"
         style="fill:none;stroke:#333333;stroke-width:0.35;stroke-linecap:butt;stroke-linejoin:miter;stroke-miterlimit:4;stroke-dasharray:none;stroke-opacity:1"
         id="path416" /></g><text
       transform="matrix(1,0,0,-1,426.4483,299.3065)"
       style="font-variant:normal;font-weight:normal;font-stretch:condensed;font-size:7px;font-family:'Linear Helv Cond';-inkscape-font-specification:LinearHelvCond;writing-mode:lr-tb;fill:#000000;fill-opacity:1;fill-rule:nonzero;stroke:none"
       id="text420"><tspan
         x="0 2.3310001 5.8309999"
         y="0"
         sodipodi:role="line"
         id="tspan418">-45</tspan></text><text
       transform="matrix(1,0,0,-1,438.4393,299.3065)"
       style="font-variant:normal;font-weight:normal;font-stretch:condensed;font-size:7px;font-family:'Linear Helv Cond';-inkscape-font-specification:LinearHelvCond;writing-mode:lr-tb;fill:#000000;fill-opacity:1;fill-rule:nonzero;stroke:none"
       id="text424"><tspan
         x="0 2.3310001 5.8309999"
         y="0"
         sodipodi:role="line"
         id="tspan422">-40</tspan></text><text
       transform="matrix(1,0,0,-1,450.4303,299.3065)"
       style="font-variant:normal;font-weight:normal;font-stretch:condensed;font-size:7px;font-family:'Linear Helv Cond';-inkscape-font-specification:LinearHelvCond;writing-mode:lr-tb;fill:#000000;fill-opacity:1;fill-rule:nonzero;stroke:none"
       id="text428"><tspan
         x="0 2.3310001 5.8309999"
         y="0"
         sodipodi:role="line"
         id="tspan426">-35</tspan></text><text
       transform="matrix(1,0,0,-1,462.4213,299.3065)"
       style="font-variant:normal;font-weight:normal;font-stretch:condensed;font-size:7px;font-family:'Linear Helv Cond';-inkscape-font-specification:LinearHelvCond;writing-mode:lr-tb;fill:#000000;fill-opacity:1;fill-rule:nonzero;stroke:none"
       id="text432"><tspan
         x="0 2.3310001 5.8309999"
         y="0"
         sodipodi:role="line"
         id="tspan430">-30</tspan></text><text
       transform="matrix(1,0,0,-1,474.4123,299.3065)"
       style="font-variant:normal;font-weight:normal;font-stretch:condensed;font-size:7px;font-family:'Linear Helv Cond';-inkscape-font-specification:LinearHelvCond;writing-mode:lr-tb;fill:#000000;fill-opacity:1;fill-rule:nonzero;stroke:none"
       id="text436"><tspan
         x="0 2.3310001 5.8309999"
         y="0"
         sodipodi:role="line"
         id="tspan434">-25</tspan></text><text
       transform="matrix(1,0,0,-1,486.4033,299.3065)"
       style="font-variant:normal;font-weight:normal;font-stretch:condensed;font-size:7px;font-family:'Linear Helv Cond';-inkscape-font-specification:LinearHelvCond;writing-mode:lr-tb;fill:#000000;fill-opacity:1;fill-rule:nonzero;stroke:none"
       id="text440"><tspan
         x="0 2.3310001 5.8309999"
         y="0"
         sodipodi:role="line"
         id="tspan438">-20</tspan></text><text
       transform="matrix(1,0,0,-1,498.3943,299.3065)"
       style="font-variant:normal;font-weight:normal;font-stretch:condensed;font-size:7px;font-family:'Linear Helv Cond';-inkscape-font-specification:LinearHelvCond;writing-mode:lr-tb;fill:#000000;fill-opacity:1;fill-rule:nonzero;stroke:none"
       id="text444"><tspan
         x="0 2.3310001 5.8309999"
         y="0"
         sodipodi:role="line"
         id="tspan442">-15</tspan></text><text
       transform="matrix(1,0,0,-1,510.3853,299.3065)"
       style="font-variant:normal;font-weight:normal;font-stretch:condensed;font-size:7px;font-family:'Linear Helv Cond';-inkscape-font-specification:LinearHelvCond;writing-mode:lr-tb;fill:#000000;fill-opacity:1;fill-rule:nonzero;stroke:none"
       id="text448"><tspan
         x="0 2.3310001 5.8309999"
         y="0"
         sodipodi:role="line"
         id="tspan446">-10</tspan></text><text
       transform="matrix(1,0,0,-1,524.1263,299.3065)"
       style="font-variant:normal;font-weight:normal;font-stretch:condensed;font-size:7px;font-family:'Linear Helv Cond';-inkscape-font-specification:LinearHelvCond;writing-mode:lr-tb;fill:#000000;fill-opacity:1;fill-rule:nonzero;stroke:none"
       id="text452"><tspan
         x="0 2.3310001"
         y="0"
         sodipodi:role="line"
         id="tspan450">-5</tspan></text><text
       transform="matrix(1,0,0,-1,537.2793,299.3065)"
       style="font-variant:normal;font-weight:normal;font-stretch:condensed;font-size:7px;font-family:'Linear Helv Cond';-inkscape-font-specification:LinearHelvCond;writing-mode:lr-tb;fill:#000000;fill-opacity:1;fill-rule:nonzero;stroke:none"
       id="text456"><tspan
         x="0"
         y="0"
         id="tspan454">0</tspan></text><text
       transform="matrix(1,0,0,-1,549.2703,299.3065)"
       style="font-variant:normal;font-weight:normal;font-stretch:condensed;font-size:7px;font-family:'Linear Helv Cond';-inkscape-font-specification:LinearHelvCond;writing-mode:lr-tb;fill:#000000;fill-opacity:1;fill-rule:nonzero;stroke:none"
       id="text460"><tspan
         x="0"
         y="0"
         id="tspan458">5</tspan></text><text
       transform="matrix(1,0,0,-1,559.5113,299.3065)"
       style="font-variant:normal;font-weight:normal;font-stretch:condensed;font-size:7px;font-family:'Linear Helv Cond';-inkscape-font-specification:LinearHelvCond;writing-mode:lr-tb;fill:#000000;fill-opacity:1;fill-rule:nonzero;stroke:none"
       id="text464"><tspan
         x="0 3.5"
         y="0"
         sodipodi:role="line"
         id="tspan462">10</tspan></text><text
       transform="matrix(1,0,0,-1,418.6083,437.8715)"
       style="font-variant:normal;font-weight:normal;font-stretch:condensed;font-size:7px;font-family:'Linear Helv Cond';-inkscape-font-specification:LinearHelvCond;writing-mode:lr-tb;fill:#000000;fill-opacity:1;fill-rule:nonzero;stroke:none"
       id="text468"><tspan
         x="0 3.5 5.25"
         y="0"
         sodipodi:role="line"
         id="tspan466">1.4</tspan></text><text
       transform="matrix(1,0,0,-1,418.6083,419.0345)"
       style="font-variant:normal;font-weight:normal;font-stretch:condensed;font-size:7px;font-family:'Linear Helv Cond';-inkscape-font-specification:LinearHelvCond;writing-mode:lr-tb;fill:#000000;fill-opacity:1;fill-rule:nonzero;stroke:none"
       id="text472"><tspan
         x="0 3.5 5.25"
         y="0"
         sodipodi:role="line"
         id="tspan470">1.2</tspan></text><text
       transform="matrix(1,0,0,-1,418.6083,400.1975)"
       style="font-variant:normal;font-weight:normal;font-stretch:condensed;font-size:7px;font-family:'Linear Helv Cond';-inkscape-font-specification:LinearHelvCond;writing-mode:lr-tb;fill:#000000;fill-opacity:1;fill-rule:nonzero;stroke:none"
       id="text476"><tspan
         x="0 3.5 5.25"
         y="0"
         sodipodi:role="line"
         id="tspan474">1.0</tspan></text><text
       transform="matrix(1,0,0,-1,418.6083,381.3605)"
       style="font-variant:normal;font-weight:normal;font-stretch:condensed;font-size:7px;font-family:'Linear Helv Cond';-inkscape-font-specification:LinearHelvCond;writing-mode:lr-tb;fill:#000000;fill-opacity:1;fill-rule:nonzero;stroke:none"
       id="text480"><tspan
         x="0 3.5 5.25"
         y="0"
         sodipodi:role="line"
         id="tspan478">0.8</tspan></text><text
       transform="matrix(1,0,0,-1,418.6083,362.5235)"
       style="font-variant:normal;font-weight:normal;font-stretch:condensed;font-size:7px;font-family:'Linear Helv Cond';-inkscape-font-specification:LinearHelvCond;writing-mode:lr-tb;fill:#000000;fill-opacity:1;fill-rule:nonzero;stroke:none"
       id="text484"><tspan
         x="0 3.5 5.25"
         y="0"
         sodipodi:role="line"
         id="tspan482">0.6</tspan></text><text
       transform="matrix(1,0,0,-1,418.6083,343.6865)"
       style="font-variant:normal;font-weight:normal;font-stretch:condensed;font-size:7px;font-family:'Linear Helv Cond';-inkscape-font-specification:LinearHelvCond;writing-mode:lr-tb;fill:#000000;fill-opacity:1;fill-rule:nonzero;stroke:none"
       id="text488"><tspan
         x="0 3.5 5.25"
         y="0"
         sodipodi:role="line"
         id="tspan486">0.4</tspan></text><text
       transform="matrix(1,0,0,-1,418.6083,324.8495)"
       style="font-variant:normal;font-weight:normal;font-stretch:condensed;font-size:7px;font-family:'Linear Helv Cond';-inkscape-font-specification:LinearHelvCond;writing-mode:lr-tb;fill:#000000;fill-opacity:1;fill-rule:nonzero;stroke:none"
       id="text492"><tspan
         x="0 3.5 5.25"
         y="0"
         sodipodi:role="line"
         id="tspan490">0.2</tspan></text><text
       transform="matrix(1,0,0,-1,423.8583,306.0125)"
       style="font-variant:normal;font-weight:normal;font-stretch:condensed;font-size:7px;font-family:'Linear Helv Cond';-inkscape-font-specification:LinearHelvCond;writing-mode:lr-tb;fill:#000000;fill-opacity:1;fill-rule:nonzero;stroke:none"
       id="text496"><tspan
         x="0"
         y="0"
         id="tspan494">0</tspan></text><text
       transform="matrix(1,0,0,-1,566.7913,437.8855)"
       style="font-variant:normal;font-weight:normal;font-stretch:condensed;font-size:7px;font-family:'Linear Helv Cond';-inkscape-font-specification:LinearHelvCond;writing-mode:lr-tb;fill:#000000;fill-opacity:1;fill-rule:nonzero;stroke:none"
       id="text500"><tspan
         x="0"
         y="0"
         id="tspan498">4</tspan></text><text
       transform="matrix(1,0,0,-1,566.7913,419.0485)"
       style="font-variant:normal;font-weight:normal;font-stretch:condensed;font-size:7px;font-family:'Linear Helv Cond';-inkscape-font-specification:LinearHelvCond;writing-mode:lr-tb;fill:#000000;fill-opacity:1;fill-rule:nonzero;stroke:none"
       id="text504"><tspan
         x="0"
         y="0"
         id="tspan502">3</tspan></text><text
       transform="matrix(1,0,0,-1,566.7913,400.2115)"
       style="font-variant:normal;font-weight:normal;font-stretch:condensed;font-size:7px;font-family:'Linear Helv Cond';-inkscape-font-specification:LinearHelvCond;writing-mode:lr-tb;fill:#000000;fill-opacity:1;fill-rule:nonzero;stroke:none"
       id="text508"><tspan
         x="0"
         y="0"
         id="tspan506">2</tspan></text><text
       transform="matrix(1,0,0,-1,566.7913,381.3745)"
       style="font-variant:normal;font-weight:normal;font-stretch:condensed;font-size:7px;font-family:'Linear Helv Cond';-inkscape-font-specification:LinearHelvCond;writing-mode:lr-tb;fill:#000000;fill-opacity:1;fill-rule:nonzero;stroke:none"
       id="text512"><tspan
         x="0"
         y="0"
         id="tspan510">1</tspan></text><text
       transform="matrix(1,0,0,-1,566.7913,362.5375)"
       style="font-variant:normal;font-weight:normal;font-stretch:condensed;font-size:7px;font-family:'Linear Helv Cond';-inkscape-font-specification:LinearHelvCond;writing-mode:lr-tb;fill:#000000;fill-opacity:1;fill-rule:nonzero;stroke:none"
       id="text516"><tspan
         x="0"
         y="0"
         id="tspan514">0</tspan></text><text
       transform="matrix(1,0,0,-1,566.7913,343.7005)"
       style="font-variant:normal;font-weight:normal;font-stretch:condensed;font-size:7px;font-family:'Linear Helv Cond';-inkscape-font-specification:LinearHelvCond;writing-mode:lr-tb;fill:#000000;fill-opacity:1;fill-rule:nonzero;stroke:none"
       id="text520"><tspan
         x="0 2.3310001"
         y="0"
         sodipodi:role="line"
         id="tspan518">-1</tspan></text><text
       transform="matrix(1,0,0,-1,566.7913,324.8635)"
       style="font-variant:normal;font-weight:normal;font-stretch:condensed;font-size:7px;font-family:'Linear Helv Cond';-inkscape-font-specification:LinearHelvCond;writing-mode:lr-tb;fill:#000000;fill-opacity:1;fill-rule:nonzero;stroke:none"
       id="text524"><tspan
         x="0 2.3310001"
         y="0"
         sodipodi:role="line"
         id="tspan522">-2</tspan></text><text
       transform="matrix(1,0,0,-1,566.7913,306.0265)"
       style="font-variant:normal;font-weight:normal;font-stretch:condensed;font-size:7px;font-family:'Linear Helv Cond';-inkscape-font-specification:LinearHelvCond;writing-mode:lr-tb;fill:#000000;fill-opacity:1;fill-rule:nonzero;stroke:none"
       id="text528"><tspan
         x="0 2.3310001"
         y="0"
         sodipodi:role="line"
         id="tspan526">-3</tspan></text><text
       transform="matrix(1,0,0,-1,466.7403,289.6255)"
       style="font-variant:normal;font-weight:normal;font-stretch:condensed;font-size:7px;font-family:'Linear Helv Cond';-inkscape-font-specification:LinearHelvCond;writing-mode:lr-tb;fill:#000000;fill-opacity:1;fill-rule:nonzero;stroke:none"
       id="text532"><tspan
         x="0 1.946 6.223 10.115 14.392 17.892 19.642 23.534 27.811001 33.641998 37.141998 41.418999 43.168999 45.5 49 52.891998 58.338001"
         y="0"
         sodipodi:role="line"
         id="tspan530">INPUT POWER (dBm)</tspan></text><text
       transform="matrix(0,1,1,0,414.1284,343.7704)"
       style="font-variant:normal;font-weight:normal;font-stretch:condensed;font-size:7px;font-family:'Linear Helv Cond';-inkscape-font-specification:LinearHelvCond;writing-mode:lr-tb;fill:#000000;fill-opacity:1;fill-rule:nonzero;stroke:none"
       id="text536"><tspan
         x="0 4.277 8.5539999 12.054 15.946 20.223 23.723 25.473 29.365 33.641998 36.2397 39.354698 43.2467 47.523701 51.023701 52.773701 55.104698 58.9967"
         y="0"
         sodipodi:role="line"
         id="tspan534">OUTPUT VOLTAGE (V)</tspan></text><text
       transform="matrix(0,-1,-1,0,574.4732,414.8793)"
       style="font-variant:normal;font-weight:normal;font-stretch:condensed;font-size:7px;font-family:'Linear Helv Cond';-inkscape-font-specification:LinearHelvCond;writing-mode:lr-tb;fill:#000000;fill-opacity:1;fill-rule:nonzero;stroke:none"
       id="text540"><tspan
         x="0 3.5 7.777 12.054 14.385 17.885 19.830999 24.108 27.608 31.5 35.777 37.723 40.838001 44.73 46.48 49.98 54.257 58.534 62.811001 67.087997 68.837997 71.168999 74.668999 78.560997"
         y="0"
         sodipodi:role="line"
         id="tspan538">LOG-LINEARITY ERROR (dB)</tspan></text><path
       d="m 454.114,438.371 h 40.8 v -50 h -40.8 z"
       style="fill:#ffffff;fill-opacity:1;fill-rule:nonzero;stroke:none"
       id="path542" /><g
       id="g544"
       transform="translate(458.1138,433.371)"><path
         d="M 0,0 H 15"
         style="fill:none;stroke:#e60019;stroke-width:1.2;stroke-linecap:butt;stroke-linejoin:miter;stroke-miterlimit:1;stroke-dasharray:none;stroke-opacity:1"
         id="path546" /></g><text
       transform="matrix(1,0,0,-1,476.9136,430.371)"
       style="font-variant:normal;font-weight:normal;font-stretch:condensed;font-size:7px;font-family:'Linear Helv Cond';-inkscape-font-specification:LinearHelvCond;writing-mode:lr-tb;fill:#000000;fill-opacity:1;fill-rule:nonzero;stroke:none"
       id="text550"><tspan
         x="0 3.5 7 10.5 13.3"
         y="0"
         sodipodi:role="line"
         id="tspan548">125°C</tspan></text><g
       id="g552"
       transform="translate(458.1138,425.371)"><path
         d="M 0,0 H 15"
         style="fill:none;stroke:#900027;stroke-width:1.2;stroke-linecap:butt;stroke-linejoin:miter;stroke-miterlimit:1;stroke-dasharray:none;stroke-opacity:1"
         id="path554" /></g><text
       transform="matrix(1,0,0,-1,476.9136,422.371)"
       style="font-variant:normal;font-weight:normal;font-stretch:condensed;font-size:7px;font-family:'Linear Helv Cond';-inkscape-font-specification:LinearHelvCond;writing-mode:lr-tb;fill:#000000;fill-opacity:1;fill-rule:nonzero;stroke:none"
       id="text558"><tspan
         x="0 3.5 7 10.5 13.3"
         y="0"
         sodipodi:role="line"
         id="tspan556">105°C</tspan></text><g
       id="g560"
       transform="translate(458.1138,417.371)"><path
         d="M 0,0 H 15"
         style="fill:none;stroke:#b57233;stroke-width:1.2;stroke-linecap:butt;stroke-linejoin:miter;stroke-miterlimit:1;stroke-dasharray:none;stroke-opacity:1"
         id="path562" /></g><text
       transform="matrix(1,0,0,-1,476.9136,414.371)"
       style="font-variant:normal;font-weight:normal;font-stretch:condensed;font-size:7px;font-family:'Linear Helv Cond';-inkscape-font-specification:LinearHelvCond;writing-mode:lr-tb;fill:#000000;fill-opacity:1;fill-rule:nonzero;stroke:none"
       id="text566"><tspan
         x="0 3.5 7 9.8000002"
         y="0"
         sodipodi:role="line"
         id="tspan564">85°C</tspan></text><g
       id="g568"
       transform="translate(458.1138,409.371)"><path
         d="M 0,0 H 15"
         style="fill:none;stroke:#36864b;stroke-width:1.2;stroke-linecap:butt;stroke-linejoin:miter;stroke-miterlimit:1;stroke-dasharray:none;stroke-opacity:1"
         id="path570" /></g><text
       transform="matrix(1,0,0,-1,476.9136,406.371)"
       style="font-variant:normal;font-weight:normal;font-stretch:condensed;font-size:7px;font-family:'Linear Helv Cond';-inkscape-font-specification:LinearHelvCond;writing-mode:lr-tb;fill:#000000;fill-opacity:1;fill-rule:nonzero;stroke:none"
       id="text574"><tspan
         x="0 3.5 7 9.8000002"
         y="0"
         sodipodi:role="line"
         id="tspan572">25°C</tspan></text><g
       id="g576"
       transform="translate(458.1138,401.371)"><path
         d="M 0,0 H 15"
         style="fill:none;stroke:#4c8bfa;stroke-width:1.2;stroke-linecap:butt;stroke-linejoin:miter;stroke-miterlimit:1;stroke-dasharray:none;stroke-opacity:1"
         id="path578" /></g><g
       id="g580"
       transform="translate(458.1138,393.371)"><path
         d="M 0,0 H 15"
         style="fill:none;stroke:#3a52a4;stroke-width:1.2;stroke-linecap:butt;stroke-linejoin:miter;stroke-miterlimit:1;stroke-dasharray:none;stroke-opacity:1"
         id="path582" /></g><g
       id="g584"><g
         id="g586"
         clip-path="url(#clipPath590)"><g
           id="g592"
           transform="translate(433.5117,308.6293)"><path
             d="m 0,0 h 1.199 l 1.198,0.001 h 1.199 l 1.199,0.001 1.199,0.001 1.199,0.002 1.199,0.004 1.199,0.01 1.199,0.024 1.198,0.086 1.199,0.485 1.199,1.469 1.199,1.701 1.199,1.667 1.198,1.62 1.2,1.578 1.198,1.555 1.199,1.525 1.199,1.503 1.199,1.495 1.199,1.465 1.199,1.449 1.198,1.438 1.199,1.421 1.199,1.413 1.199,1.399 1.199,1.389 1.199,1.38 1.199,1.363 1.198,1.359 1.199,1.349 1.199,1.324 1.199,1.322 1.199,1.337 1.198,1.329 1.2,1.326 1.198,1.329 1.199,1.34 1.199,1.345 1.199,1.36 1.199,1.384 1.199,1.405 1.198,1.43 1.2,1.43 1.198,1.44 1.199,1.436 1.199,1.432 1.199,1.414 1.199,1.403 1.198,1.39 1.199,1.377 1.199,1.368 1.199,1.354 1.199,1.344 1.199,1.336 1.198,1.333 1.199,1.322 1.2,1.311 1.198,1.306 1.199,1.3 1.199,1.291 1.199,1.283 1.199,1.276 1.198,1.273 1.199,1.269 1.2,1.26 1.198,1.256 1.199,1.249 1.199,1.251 1.198,1.242 1.2,1.239 1.198,1.245 1.199,1.242 1.199,1.244 1.199,1.241 1.199,1.251 1.199,1.248 1.198,1.26 1.199,1.264 1.199,1.274 1.199,1.273 1.199,1.282 1.198,1.274 1.2,1.286 1.199,1.279 1.198,1.281 1.199,1.27 1.199,1.25 1.199,1.238 1.199,1.203 1.198,1.155 1.199,0.999 1.2,0.77 1.198,0.497 1.199,0.225 1.198,0.065 1.2,0.022 1.199,0.012 1.198,0.007 1.199,0.004 1.199,0.002 1.199,0.004 1.199,0.001 1.198,10e-4 1.199,0.003 1.2,-0.002 1.198,0.002 1.199,0.002"
             style="fill:none;stroke:#e60019;stroke-width:1.2;stroke-linecap:butt;stroke-linejoin:miter;stroke-miterlimit:1;stroke-dasharray:none;stroke-opacity:1"
             id="path594" /></g><g
           id="g596"
           transform="translate(433.5117,308.6205)"><path
             d="m 0,0 h 1.199 1.198 l 1.199,0.001 h 1.199 l 1.199,0.001 1.199,0.003 1.199,0.006 1.199,0.016 1.199,0.056 1.198,0.298 1.199,1.167 1.199,1.637 1.199,1.633 1.199,1.581 1.198,1.562 1.2,1.535 1.198,1.506 1.199,1.487 1.199,1.47 1.199,1.454 1.199,1.445 1.199,1.419 1.198,1.414 1.199,1.405 1.199,1.39 1.199,1.383 1.199,1.372 1.199,1.358 1.199,1.351 1.198,1.345 1.199,1.339 1.199,1.321 1.199,1.326 1.199,1.354 1.198,1.364 1.2,1.38 1.198,1.405 1.199,1.431 1.199,1.453 1.199,1.471 1.199,1.477 1.199,1.464 1.198,1.449 1.2,1.43 1.198,1.413 1.199,1.4 1.199,1.392 1.199,1.375 1.199,1.371 1.198,1.36 1.199,1.353 1.199,1.346 1.199,1.34 1.199,1.333 1.199,1.326 1.198,1.319 1.199,1.318 1.2,1.31 1.198,1.302 1.199,1.299 1.199,1.292 1.199,1.286 1.199,1.28 1.198,1.274 1.199,1.271 1.2,1.264 1.198,1.264 1.199,1.254 1.199,1.252 1.198,1.253 1.2,1.252 1.198,1.255 1.199,1.251 1.199,1.254 1.199,1.261 1.199,1.266 1.199,1.274 1.198,1.284 1.199,1.297 1.199,1.308 1.199,1.316 1.199,1.325 1.198,1.328 1.2,1.331 1.199,1.335 1.198,1.323 1.199,1.311 1.199,1.297 1.199,1.268 1.199,1.227 1.198,1.057 1.199,0.807 1.2,0.455 1.198,0.133 1.199,0.022 1.198,0.012 1.2,0.007 1.199,0.003 1.198,0.005 h 1.199 l 1.199,0.004 1.199,10e-4 1.199,0.002 1.198,10e-4 h 1.199 1.2 1.198 1.199"
             style="fill:none;stroke:#900027;stroke-width:1.2;stroke-linecap:butt;stroke-linejoin:miter;stroke-miterlimit:1;stroke-dasharray:none;stroke-opacity:1"
             id="path598" /></g></g></g><text
       transform="matrix(1,0,0,-1,476.9136,398.371)"
       style="font-variant:normal;font-weight:normal;font-stretch:condensed;font-size:7px;font-family:'Linear Helv Cond';-inkscape-font-specification:LinearHelvCond;writing-mode:lr-tb;fill:#000000;fill-opacity:1;fill-rule:nonzero;stroke:none"
       id="text602"><tspan
         x="0 2.3310001 5.8309999 9.3310003 12.131"
         y="0"
         sodipodi:role="line"
         id="tspan600">-40°C</tspan></text><text
       transform="matrix(1,0,0,-1,476.9136,390.37)"
       style="font-variant:normal;font-weight:normal;font-stretch:condensed;font-size:7px;font-family:'Linear Helv Cond';-inkscape-font-specification:LinearHelvCond;writing-mode:lr-tb;fill:#000000;fill-opacity:1;fill-rule:nonzero;stroke:none"
       id="text606"><tspan
         x="0 2.3310001 5.8309999 9.3310003 12.131"
         y="0"
         sodipodi:role="line"
         id="tspan604">-55°C</tspan></text><g
       id="g608"><g
         id="g610"
         clip-path="url(#clipPath614)"><g
           id="g616"
           transform="translate(433.5117,308.6117)"><path
             d="m 0,0 h 1.199 l 1.198,0.001 h 1.199 1.199 l 1.199,0.002 1.199,0.003 1.199,0.008 1.199,0.029 1.199,0.141 1.198,0.752 1.199,1.514 1.199,1.598 1.199,1.555 1.199,1.529 1.198,1.505 1.2,1.486 1.198,1.467 1.199,1.452 1.199,1.447 1.199,1.427 1.199,1.422 1.199,1.403 1.198,1.398 1.199,1.387 1.199,1.372 1.199,1.37 1.199,1.357 1.199,1.354 1.199,1.352 1.198,1.351 1.199,1.35 1.199,1.357 1.199,1.362 1.199,1.4 1.198,1.423 1.2,1.439 1.198,1.456 1.199,1.46 1.199,1.46 1.199,1.451 1.199,1.436 1.199,1.419 1.198,1.406 1.2,1.392 1.198,1.371 1.199,1.371 1.199,1.367 1.199,1.357 1.199,1.35 1.198,1.344 1.199,1.34 1.199,1.334 1.199,1.33 1.199,1.322 1.199,1.32 1.198,1.318 1.199,1.308 1.2,1.306 1.198,1.296 1.199,1.293 1.199,1.285 1.199,1.284 1.199,1.274 1.198,1.267 1.199,1.268 1.2,1.264 1.198,1.256 1.199,1.259 1.199,1.255 1.198,1.248 1.2,1.257 1.198,1.249 1.199,1.254 1.199,1.262 1.199,1.266 1.199,1.272 1.199,1.293 1.198,1.299 1.199,1.318 1.199,1.335 1.199,1.354 1.199,1.365 1.198,1.379 1.2,1.385 1.199,1.389 1.198,1.368 1.199,1.354 1.199,1.335 1.199,1.301 1.199,1.218 1.198,0.934 1.199,0.634 1.2,0.257 1.198,0.026 1.199,0.014 1.198,0.008 1.2,0.005 1.199,0.004 1.198,0.002 1.199,0.004 1.199,0.001 1.199,0.001 1.199,10e-4 h 1.198 l 1.199,0.001 h 1.2 l 1.198,0.002 1.199,-0.002"
             style="fill:none;stroke:#b57233;stroke-width:1.2;stroke-linecap:butt;stroke-linejoin:miter;stroke-miterlimit:1;stroke-dasharray:none;stroke-opacity:1"
             id="path618" /></g><g
           id="g620"
           transform="translate(433.5117,308.5883)"><path
             d="m 0,0 h 1.199 1.198 1.199 1.199 l 1.199,0.001 1.199,0.005 1.199,0.029 1.199,0.236 1.199,1.056 1.198,1.566 1.199,1.45 1.199,1.455 1.199,1.436 1.199,1.436 1.198,1.406 1.2,1.4 1.198,1.395 1.199,1.401 1.199,1.38 1.199,1.38 1.199,1.379 1.199,1.369 1.198,1.374 1.199,1.367 1.199,1.373 1.199,1.377 1.199,1.376 1.199,1.382 1.199,1.39 1.198,1.398 1.199,1.4 1.199,1.386 1.199,1.388 1.199,1.408 1.198,1.411 1.2,1.393 1.198,1.392 1.199,1.384 1.199,1.373 1.199,1.372 1.199,1.361 1.199,1.352 1.198,1.35 1.2,1.354 1.198,1.351 1.199,1.329 1.199,1.331 1.199,1.323 1.199,1.318 1.198,1.313 1.199,1.317 1.199,1.31 1.199,1.303 1.199,1.297 1.199,1.295 1.198,1.294 1.199,1.289 1.2,1.284 1.198,1.276 1.199,1.274 1.199,1.267 1.199,1.267 1.199,1.26 1.198,1.256 1.199,1.254 1.2,1.245 1.198,1.251 1.199,1.247 1.199,1.244 1.198,1.248 1.2,1.243 1.198,1.249 1.199,1.245 1.199,1.254 1.199,1.261 1.199,1.277 1.199,1.292 1.198,1.316 1.199,1.352 1.199,1.397 1.199,1.443 1.199,1.495 1.198,1.555 1.2,1.609 1.199,1.638 1.198,1.629 1.199,1.594 1.199,1.525 1.199,1.364 1.199,0.888 1.198,0.505 1.199,0.115 1.2,0.016 1.198,0.008 1.199,0.006 1.198,0.004 1.2,0.004 1.199,0.002 1.198,10e-4 1.199,0.002 h 1.199 l 1.199,10e-4 1.199,0.001 h 1.198 l 1.199,0.001 h 1.2 1.198 l 1.199,10e-4"
             style="fill:none;stroke:#36864b;stroke-width:1.2;stroke-linecap:butt;stroke-linejoin:miter;stroke-miterlimit:1;stroke-dasharray:none;stroke-opacity:1"
             id="path622" /></g><g
           id="g624"
           transform="translate(433.5117,308.5629)"><path
             d="m 0,0 h 1.199 1.198 1.199 1.199 l 1.199,0.001 1.199,0.029 1.199,0.203 1.199,1.138 1.199,1.443 1.198,1.394 1.199,1.397 1.199,1.33 1.199,1.356 1.199,1.356 1.198,1.346 1.2,1.361 1.198,1.35 1.199,1.339 1.199,1.361 1.199,1.344 1.199,1.356 1.199,1.356 1.198,1.356 1.199,1.36 1.199,1.365 1.199,1.359 1.199,1.359 1.199,1.354 1.199,1.361 1.198,1.351 1.199,1.349 1.199,1.336 1.199,1.333 1.199,1.351 1.198,1.345 1.2,1.344 1.198,1.339 1.199,1.331 1.199,1.329 1.199,1.318 1.199,1.32 1.199,1.313 1.198,1.305 1.2,1.314 1.198,1.33 1.199,1.293 1.199,1.288 1.199,1.289 1.199,1.283 1.198,1.279 1.199,1.275 1.199,1.277 1.199,1.266 1.199,1.265 1.199,1.266 1.198,1.264 1.199,1.252 1.2,1.254 1.198,1.241 1.199,1.25 1.199,1.24 1.199,1.245 1.199,1.232 1.198,1.236 1.199,1.23 1.2,1.233 1.198,1.224 1.199,1.229 1.199,1.224 1.198,1.226 1.2,1.223 1.198,1.222 1.199,1.219 1.199,1.232 1.199,1.239 1.199,1.251 1.199,1.273 1.198,1.302 1.199,1.339 1.199,1.394 1.199,1.446 1.199,1.513 1.198,1.621 1.2,1.822 1.199,2.165 1.198,2.409 1.199,2.367 1.199,1.917 1.199,0.861 1.199,0.29 1.198,0.018 1.199,0.005 1.2,0.006 h 1.198 1.199 l 1.198,0.001 1.2,0.002 h 1.199 l 1.198,0.001 h 1.199 l 1.199,10e-4 h 1.199 l 1.199,0.002 1.198,10e-4 1.199,-10e-4 h 1.2 l 1.198,0.002 1.199,-0.001"
             style="fill:none;stroke:#4c8bfa;stroke-width:1.2;stroke-linecap:butt;stroke-linejoin:miter;stroke-miterlimit:1;stroke-dasharray:none;stroke-opacity:1"
             id="path626" /></g><g
           id="g628"
           transform="translate(433.5117,308.557)"><path
             d="m 0,0 h 1.199 1.198 1.199 1.199 l 1.199,0.003 1.199,0.055 1.199,0.336 1.199,1.264 1.199,1.438 1.198,1.338 1.199,1.343 1.199,1.337 1.199,1.333 1.199,1.322 1.198,1.336 1.2,1.345 1.198,1.332 1.199,1.342 1.199,1.347 1.199,1.35 1.199,1.34 1.199,1.347 1.198,1.348 1.199,1.35 1.199,1.356 1.199,1.352 1.199,1.345 1.199,1.344 1.199,1.34 1.198,1.344 1.199,1.332 1.199,1.326 1.199,1.321 1.199,1.338 1.198,1.336 1.2,1.331 1.198,1.311 1.199,1.333 1.199,1.314 1.199,1.301 1.199,1.32 1.199,1.3 1.198,1.293 1.2,1.309 1.198,1.307 1.199,1.282 1.199,1.281 1.199,1.278 1.199,1.27 1.198,1.272 1.199,1.266 1.199,1.262 1.199,1.258 1.199,1.251 1.199,1.253 1.198,1.255 1.199,1.248 1.2,1.24 1.198,1.237 1.199,1.241 1.199,1.233 1.199,1.235 1.199,1.228 1.198,1.233 1.199,1.216 1.2,1.216 1.198,1.224 1.199,1.223 1.199,1.217 1.198,1.215 1.2,1.215 1.198,1.218 1.199,1.223 1.199,1.214 1.199,1.233 1.199,1.249 1.199,1.274 1.198,1.296 1.199,1.34 1.199,1.39 1.199,1.427 1.199,1.488 1.198,1.585 1.2,1.815 1.199,2.292 1.198,2.793 1.199,2.809 1.199,1.824 1.199,0.668 1.199,0.13 1.198,0.008 1.199,0.005 1.2,0.002 h 1.198 l 1.199,0.002 h 1.198 1.2 l 1.199,0.002 1.198,-10e-4 1.199,10e-4 h 1.199 l 1.199,0.001 h 1.199 1.198 1.199 l 1.2,0.002 1.198,0.001 1.199,-0.001"
             style="fill:none;stroke:#3a52a4;stroke-width:1.2;stroke-linecap:butt;stroke-linejoin:miter;stroke-miterlimit:1;stroke-dasharray:none;stroke-opacity:1"
             id="path630" /></g><g
           id="g632"
           transform="translate(433.5117,437.5854)"><path
             d="m 0,0 1.199,-9.253 1.198,-9.253 1.199,-9.252 1.199,-9.25 1.199,-9.248 1.199,-9.239 1.199,-9.226 1.199,-9.19 1.199,-9.082 1.198,-8.653 1.199,-5.878 1.199,0.961 1.199,2.581 1.199,2.346 1.198,2.017 1.2,1.725 1.198,1.563 1.199,1.348 1.199,1.214 1.199,1.136 1.199,0.944 1.199,0.823 1.198,0.756 1.199,0.634 1.199,0.578 1.199,0.482 1.199,0.404 1.199,0.347 1.199,0.229 1.198,0.195 1.199,0.137 1.199,-0.047 1.199,-0.056 1.199,0.046 1.198,-0.004 1.2,-0.026 1.198,-0.007 1.199,0.061 1.199,0.102 1.199,0.214 1.199,0.374 1.199,0.524 1.198,0.693 1.2,0.695 1.198,0.759 1.199,0.741 1.199,0.711 1.199,0.581 1.199,0.51 1.198,0.416 1.199,0.326 1.199,0.262 1.199,0.165 1.199,0.1 1.199,0.04 1.198,0.017 1.199,-0.058 1.2,-0.129 1.198,-0.176 1.199,-0.207 1.199,-0.27 1.199,-0.329 1.199,-0.375 1.198,-0.399 1.199,-0.427 1.2,-0.489 1.198,-0.508 1.199,-0.566 1.199,-0.552 1.198,-0.619 1.2,-0.633 1.198,-0.592 1.199,-0.613 1.199,-0.596 1.199,-0.623 1.199,-0.547 1.199,-0.572 1.198,-0.485 1.199,-0.463 1.199,-0.389 1.199,-0.401 1.199,-0.338 1.198,-0.384 1.2,-0.311 1.199,-0.354 1.198,-0.34 1.199,-0.421 1.199,-0.556 1.199,-0.644 1.199,-0.884 1.198,-1.218 1.199,-2.3 1.2,-3.899 1.198,-5.801 1.199,-7.689 1.198,-8.799 1.2,-9.101 1.199,-9.17 1.198,-9.211 1.199,-9.22 1.199,-9.24 1.199,-9.228 1.199,-9.252 1.198,-9.248 1.199,-9.231 1.2,-9.27 1.198,-9.24 1.199,-9.239"
             style="fill:none;stroke:#e60019;stroke-width:1.2;stroke-linecap:butt;stroke-linejoin:miter;stroke-miterlimit:1;stroke-dasharray:4, 2;stroke-dashoffset:0;stroke-opacity:1"
             id="path634" /></g><g
           id="g636"
           transform="translate(433.5117,437.2665)"><path
             d="m 0,0 1.199,-9.221 1.198,-9.221 1.199,-9.22 1.199,-9.217 1.199,-9.214 1.199,-9.204 1.199,-9.183 1.199,-9.105 1.199,-8.836 1.198,-7.154 1.199,-1.131 1.199,2.123 1.199,2.104 1.199,1.738 1.198,1.607 1.2,1.419 1.198,1.22 1.199,1.092 1.199,0.969 1.199,0.855 1.199,0.799 1.199,0.618 1.198,0.579 1.199,0.52 1.199,0.417 1.199,0.361 1.199,0.294 1.199,0.188 1.199,0.152 1.198,0.101 1.199,0.055 1.199,-0.056 1.199,-0.03 1.199,0.163 1.198,0.238 1.2,0.342 1.198,0.522 1.199,0.694 1.199,0.854 1.199,0.978 1.199,1.021 1.199,0.925 1.198,0.824 1.2,0.695 1.198,0.576 1.199,0.487 1.199,0.422 1.199,0.315 1.199,0.281 1.198,0.203 1.199,0.162 1.199,0.105 1.199,0.068 1.199,0.025 1.199,-0.032 1.198,-0.073 1.199,-0.083 1.2,-0.141 1.198,-0.197 1.199,-0.218 1.199,-0.267 1.199,-0.305 1.199,-0.342 1.198,-0.391 1.199,-0.407 1.2,-0.46 1.198,-0.456 1.199,-0.529 1.199,-0.544 1.198,-0.533 1.2,-0.542 1.198,-0.523 1.199,-0.545 1.199,-0.53 1.199,-0.479 1.199,-0.446 1.199,-0.389 1.198,-0.318 1.199,-0.23 1.199,-0.157 1.199,-0.099 1.199,-0.03 1.198,-0.013 h 1.2 l 1.199,0.036 1.198,-0.05 1.199,-0.13 1.199,-0.233 1.199,-0.429 1.199,-0.715 1.198,-1.89 1.199,-3.629 1.2,-6.073 1.198,-8.296 1.199,-9.068 1.198,-9.14 1.2,-9.173 1.199,-9.198 1.198,-9.193 1.199,-9.219 1.199,-9.192 1.199,-9.218 1.199,-9.211 1.198,-9.211 1.199,-9.224 1.2,-9.221 1.198,-9.218 1.199,-9.223"
             style="fill:none;stroke:#900027;stroke-width:1.2;stroke-linecap:butt;stroke-linejoin:miter;stroke-miterlimit:1;stroke-dasharray:4, 2;stroke-dashoffset:0;stroke-opacity:1"
             id="path638" /></g><g
           id="g640"
           transform="translate(433.5117,437.4868)"><path
             d="m 0,0 1.199,-9.257 1.198,-9.256 1.199,-9.256 1.199,-9.254 1.199,-9.248 1.199,-9.237 1.199,-9.198 1.199,-9.053 1.199,-8.279 1.198,-4.025 1.199,1.281 1.199,1.86 1.199,1.567 1.199,1.383 1.198,1.219 1.2,1.09 1.198,0.95 1.199,0.846 1.199,0.816 1.199,0.669 1.199,0.644 1.199,0.507 1.198,0.466 1.199,0.405 1.199,0.291 1.199,0.267 1.199,0.193 1.199,0.165 1.199,0.154 1.198,0.142 1.199,0.145 1.199,0.179 1.199,0.224 1.199,0.489 1.198,0.644 1.2,0.76 1.198,0.875 1.199,0.904 1.199,0.904 1.199,0.842 1.199,0.741 1.199,0.619 1.198,0.518 1.2,0.434 1.198,0.285 1.199,0.287 1.199,0.253 1.199,0.189 1.199,0.137 1.198,0.098 1.199,0.07 1.199,0.023 1.199,0.006 1.199,-0.065 1.199,-0.067 1.198,-0.081 1.199,-0.16 1.2,-0.162 1.198,-0.238 1.199,-0.263 1.199,-0.311 1.199,-0.327 1.199,-0.387 1.198,-0.439 1.199,-0.431 1.2,-0.463 1.198,-0.514 1.199,-0.498 1.199,-0.522 1.198,-0.567 1.2,-0.51 1.198,-0.564 1.199,-0.535 1.199,-0.471 1.199,-0.452 1.199,-0.404 1.199,-0.254 1.198,-0.213 1.199,-0.088 1.199,0.035 1.199,0.16 1.199,0.248 1.198,0.34 1.2,0.378 1.199,0.412 1.198,0.262 1.199,0.168 1.199,0.031 1.199,-0.2 1.199,-0.781 1.198,-2.76 1.199,-4.84 1.2,-7.472 1.198,-9.076 1.199,-9.162 1.198,-9.196 1.2,-9.222 1.199,-9.232 1.198,-9.244 1.199,-9.234 1.199,-9.248 1.199,-9.252 1.199,-9.249 1.198,-9.258 1.199,-9.251 1.2,-9.252 1.198,-9.243 1.199,-9.271"
             style="fill:none;stroke:#b57233;stroke-width:1.2;stroke-linecap:butt;stroke-linejoin:miter;stroke-miterlimit:1;stroke-dasharray:4, 2;stroke-dashoffset:0;stroke-opacity:1"
             id="path642" /></g><g
           id="g644"
           transform="translate(433.5117,438.5858)"><path
             d="m 0,0 1.199,-9.419 1.198,-9.42 1.199,-9.419 1.199,-9.418 1.199,-9.412 1.199,-9.383 1.199,-9.214 1.199,-7.752 1.199,-1.939 1.198,1.665 1.199,0.854 1.199,0.881 1.199,0.758 1.199,0.746 1.198,0.534 1.2,0.494 1.198,0.465 1.199,0.503 1.199,0.35 1.199,0.357 1.199,0.345 1.199,0.275 1.198,0.309 1.199,0.259 1.199,0.299 1.199,0.336 1.199,0.331 1.199,0.364 1.199,0.422 1.198,0.48 1.199,0.494 1.199,0.391 1.199,0.419 1.199,0.547 1.198,0.568 1.2,0.453 1.198,0.435 1.199,0.377 1.199,0.305 1.199,0.295 1.199,0.225 1.199,0.153 1.198,0.14 1.2,0.169 1.198,0.152 1.199,-0.006 1.199,0.005 1.199,-0.057 1.199,-0.083 1.198,-0.117 1.199,-0.101 1.199,-0.136 1.199,-0.193 1.199,-0.235 1.199,-0.252 1.198,-0.253 1.199,-0.291 1.2,-0.328 1.198,-0.379 1.199,-0.401 1.199,-0.45 1.199,-0.444 1.199,-0.497 1.198,-0.529 1.199,-0.539 1.2,-0.6 1.198,-0.563 1.199,-0.585 1.199,-0.612 1.198,-0.58 1.2,-0.621 1.198,-0.575 1.199,-0.602 1.199,-0.54 1.199,-0.483 1.199,-0.381 1.199,-0.271 1.198,-0.095 1.199,0.154 1.199,0.469 1.199,0.802 1.199,1.168 1.198,1.591 1.2,1.978 1.199,2.178 1.198,2.115 1.199,1.871 1.199,1.383 1.199,0.236 1.199,-3.133 1.198,-5.844 1.199,-8.607 1.2,-9.3 1.198,-9.363 1.199,-9.376 1.198,-9.393 1.2,-9.395 1.199,-9.402 1.198,-9.417 1.199,-9.403 1.199,-9.417 1.199,-9.417 1.199,-9.412 1.198,-9.42 1.199,-9.41 1.2,-9.416 1.198,-9.425 1.199,-9.411"
             style="fill:none;stroke:#36864b;stroke-width:1.2;stroke-linecap:butt;stroke-linejoin:miter;stroke-miterlimit:1;stroke-dasharray:4, 2;stroke-dashoffset:0;stroke-opacity:1"
             id="path646" /></g><g
           id="g648"
           transform="translate(433.5117,440.3695)"><path
             d="m 0,0 1.199,-9.671 1.198,-9.671 1.199,-9.671 1.199,-9.672 1.199,-9.665 1.199,-9.456 1.199,-8.199 1.199,-1.393 1.199,0.82 1.198,0.464 1.199,0.49 1.199,-0.012 1.199,0.196 1.199,0.186 1.198,0.111 1.2,0.222 1.198,0.149 1.199,0.067 1.199,0.222 1.199,0.101 1.199,0.184 1.199,0.19 1.198,0.196 1.199,0.213 1.199,0.255 1.199,0.208 1.199,0.207 1.199,0.177 1.199,0.222 1.198,0.155 1.199,0.136 1.199,0.041 1.199,0.022 1.199,0.153 1.198,0.107 1.2,0.101 1.198,0.06 1.199,0.011 1.199,-0.008 1.199,-0.087 1.199,-0.078 1.199,-0.125 1.198,-0.181 1.2,-0.113 1.198,-0.007 1.199,-0.268 1.199,-0.306 1.199,-0.294 1.199,-0.351 1.198,-0.369 1.199,-0.4 1.199,-0.393 1.199,-0.462 1.199,-0.475 1.199,-0.459 1.198,-0.482 1.199,-0.572 1.2,-0.551 1.198,-0.647 1.199,-0.582 1.199,-0.653 1.199,-0.628 1.199,-0.708 1.198,-0.686 1.199,-0.729 1.2,-0.708 1.198,-0.766 1.199,-0.74 1.199,-0.774 1.198,-0.757 1.2,-0.773 1.198,-0.79 1.199,-0.806 1.199,-0.716 1.199,-0.66 1.199,-0.58 1.199,-0.411 1.198,-0.205 1.199,0.063 1.199,0.465 1.199,0.84 1.199,1.333 1.198,2.114 1.2,3.574 1.199,6.074 1.198,7.847 1.199,7.535 1.199,4.267 1.199,-3.406 1.199,-7.568 1.198,-9.541 1.199,-9.634 1.2,-9.631 1.198,-9.671 1.199,-9.667 1.198,-9.663 1.2,-9.659 1.199,-9.672 1.198,-9.667 1.199,-9.666 1.199,-9.67 1.199,-9.672 1.199,-9.656 1.198,-9.662 1.199,-9.678 1.2,-9.672 1.198,-9.657 1.199,-9.676"
             style="fill:none;stroke:#4c8bfa;stroke-width:1.2;stroke-linecap:butt;stroke-linejoin:miter;stroke-miterlimit:1;stroke-dasharray:4, 2;stroke-dashoffset:0;stroke-opacity:1"
             id="path650" /></g><g
           id="g652"
           transform="translate(433.5117,440.9257)"><path
             d="m 0,0 1.199,-9.748 1.198,-9.748 1.199,-9.748 1.199,-9.747 1.199,-9.731 1.199,-9.346 1.199,-7.286 1.199,-0.48 1.199,0.79 1.198,0.058 1.199,0.098 1.199,0.047 1.199,0.023 1.199,-0.069 1.198,0.054 1.2,0.109 1.198,0.009 1.199,0.085 1.199,0.126 1.199,0.145 1.199,0.077 1.199,0.119 1.198,0.137 1.199,0.143 1.199,0.186 1.199,0.157 1.199,0.108 1.199,0.101 1.199,0.081 1.198,0.099 1.199,0.017 1.199,-0.033 1.199,-0.073 1.199,0.061 1.198,0.048 1.2,-10e-4 1.198,-0.139 1.199,0.022 1.199,-0.122 1.199,-0.207 1.199,-0.079 1.199,-0.212 1.198,-0.273 1.2,-0.161 1.198,-0.171 1.199,-0.349 1.199,-0.359 1.199,-0.379 1.199,-0.444 1.198,-0.428 1.199,-0.473 1.199,-0.498 1.199,-0.528 1.199,-0.584 1.199,-0.554 1.198,-0.555 1.199,-0.598 1.2,-0.666 1.198,-0.684 1.199,-0.648 1.199,-0.722 1.199,-0.689 1.199,-0.749 1.198,-0.711 1.199,-0.837 1.2,-0.838 1.198,-0.781 1.199,-0.781 1.199,-0.829 1.198,-0.844 1.2,-0.847 1.198,-0.818 1.199,-0.791 1.199,-0.848 1.199,-0.706 1.199,-0.597 1.199,-0.41 1.198,-0.252 1.199,0.068 1.199,0.444 1.199,0.706 1.199,1.155 1.198,1.872 1.2,3.551 1.199,7.046 1.198,10.723 1.199,10.841 1.199,3.622 1.199,-4.853 1.199,-8.798 1.198,-9.688 1.199,-9.714 1.2,-9.732 1.198,-9.746 1.199,-9.737 1.198,-9.744 1.2,-9.751 1.199,-9.734 1.198,-9.753 1.199,-9.74 1.199,-9.751 1.199,-9.742 1.199,-9.743 1.198,-9.75 1.199,-9.746 1.2,-9.734 1.198,-9.742 1.199,-9.754"
             style="fill:none;stroke:#3a52a4;stroke-width:1.2;stroke-linecap:butt;stroke-linejoin:miter;stroke-miterlimit:1;stroke-dasharray:4, 2;stroke-dashoffset:0;stroke-opacity:1"
             id="path654" /></g></g></g></g></svg>
