<?xml version="1.0" encoding="UTF-8" standalone="no"?>
<!-- Created with Inkscape (http://www.inkscape.org/) -->

<svg
   version="1.1"
   id="svg2"
   xml:space="preserve"
   width="287.72025"
   height="159.57114"
   viewBox="0 0 287.72025 159.57114"
   sodipodi:docname="PMA-GvsFvsV.svg"
   inkscape:version="1.1 (c68e22c387, 2021-05-23)"
   xmlns:inkscape="http://www.inkscape.org/namespaces/inkscape"
   xmlns:sodipodi="http://sodipodi.sourceforge.net/DTD/sodipodi-0.dtd"
   xmlns="http://www.w3.org/2000/svg"
   xmlns:svg="http://www.w3.org/2000/svg"><defs
     id="defs6"><clipPath
       clipPathUnits="userSpaceOnUse"
       id="clipPath44"><path
         d="M 339.72,595.8 H 525 v 82.68 H 339.72 Z"
         clip-rule="evenodd"
         id="path42" /></clipPath><clipPath
       clipPathUnits="userSpaceOnUse"
       id="clipPath56"><path
         d="M 339.72,595.8 H 525 v 82.68 H 339.72 Z"
         clip-rule="evenodd"
         id="path54" /></clipPath><clipPath
       clipPathUnits="userSpaceOnUse"
       id="clipPath68"><path
         d="M 339.72,595.8 H 525 v 82.68 H 339.72 Z"
         clip-rule="evenodd"
         id="path66" /></clipPath></defs><sodipodi:namedview
     id="namedview4"
     pagecolor="#ffffff"
     bordercolor="#666666"
     borderopacity="1.0"
     inkscape:pageshadow="2"
     inkscape:pageopacity="0.0"
     inkscape:pagecheckerboard="0"
     showgrid="false"
     inkscape:zoom="3.0757576"
     inkscape:cx="131.18719"
     inkscape:cy="75.916256"
     inkscape:window-width="1920"
     inkscape:window-height="1001"
     inkscape:window-x="-9"
     inkscape:window-y="-9"
     inkscape:window-maximized="1"
     inkscape:current-layer="g8" /><g
     id="g8"
     inkscape:groupmode="layer"
     inkscape:label="A91lp3b8q_1es7u4c_81k"
     transform="matrix(1.3333333,0,0,-1.3333333,-420.56025,923.41159)"><path
       d="m 339.79,596.53 h 184.54 v 81.901 H 339.79 Z"
       style="fill:#ffffff;fill-opacity:1;fill-rule:evenodd;stroke:none"
       id="path10" /><g
       id="g12"
       transform="translate(339.79,596.53)"><path
         d="M 0,0 H 184.54 M 0,13.67 H 184.54 M 0,27.35 H 184.54 M 0,40.91 H 184.54 M 0,54.59 H 184.54 M 0,68.27 H 184.54 M 0,81.9 h 184.54"
         style="fill:none;stroke:#c0c0c0;stroke-width:0.25;stroke-linecap:butt;stroke-linejoin:round;stroke-miterlimit:10;stroke-dasharray:none;stroke-opacity:1"
         id="path14" /></g><g
       id="g16"
       transform="translate(339.79,678.43)"><path
         d="M 0,0 V -81.9 M 30.77,0 V -81.9 M 61.49,0 V -81.9 M 92.33,0 V -81.9 M 123.05,0 V -81.9 M 153.77,0 V -81.9 M 184.54,0 v -81.9"
         style="fill:none;stroke:#c0c0c0;stroke-width:0.25;stroke-linecap:butt;stroke-linejoin:round;stroke-miterlimit:10;stroke-dasharray:none;stroke-opacity:1"
         id="path18" /></g><path
       d="m 339.79,596.53 h 184.54 v 81.901 H 339.79 Z"
       style="fill:none;stroke:#808080;stroke-width:1;stroke-linecap:butt;stroke-linejoin:round;stroke-miterlimit:10;stroke-dasharray:none;stroke-opacity:1"
       id="path20" /><g
       id="g22"
       transform="translate(339.79,596.53)"><path
         d="M 0,0 V 81.9"
         style="fill:none;stroke:#868686;stroke-width:0.75;stroke-linecap:butt;stroke-linejoin:round;stroke-miterlimit:10;stroke-dasharray:none;stroke-opacity:1"
         id="path24" /></g><g
       id="g26"
       transform="translate(338.64,596.53)"><path
         d="M 0,0 H 1.15 M 0,2.75 H 1.15 M 0,5.51 H 1.15 M 0,8.15 H 1.15 M 0,10.91 H 1.15 M 0,13.67 H 1.15 M 0,16.43 H 1.15 M 0,19.07 H 1.15 M 0,21.83 H 1.15 M 0,24.59 H 1.15 M 0,27.35 H 1.15 M 0,29.99 H 1.15 M 0,32.75 H 1.15 M 0,35.51 H 1.15 M 0,38.27 H 1.15 M 0,40.91 H 1.15 M 0,43.67 H 1.15 M 0,46.43 H 1.15 M 0,49.19 H 1.15 M 0,51.83 H 1.15 M 0,54.59 H 1.15 M 0,57.35 H 1.15 M 0,60.11 H 1.15 M 0,62.75 H 1.15 M 0,65.51 H 1.15 M 0,68.27 H 1.15 M 0,71.03 H 1.15 M 0,73.67 H 1.15 M 0,76.43 H 1.15 M 0,79.19 H 1.15 M 0,81.9 H 1.15 M -0.36,0 H 1.15 M -0.36,13.67 H 1.15 M -0.36,27.35 H 1.15 M -0.36,40.91 H 1.15 M -0.36,54.59 H 1.15 M -0.36,68.27 H 1.15 M -0.36,81.9 h 1.51"
         style="fill:none;stroke:#868686;stroke-width:0.75;stroke-linecap:butt;stroke-linejoin:round;stroke-miterlimit:10;stroke-dasharray:none;stroke-opacity:1"
         id="path28" /></g><g
       id="g30"
       transform="translate(339.79,596.53)"><path
         d="M 0,0 H 184.54"
         style="fill:none;stroke:#868686;stroke-width:0.75;stroke-linecap:butt;stroke-linejoin:round;stroke-miterlimit:10;stroke-dasharray:none;stroke-opacity:1"
         id="path32" /></g><g
       id="g34"
       transform="translate(339.79,596.53)"><path
         d="M 0,0 V -1.09 M 6.17,0 V -1.09 M 12.29,0 V -1.09 M 18.41,0 V -1.09 M 24.65,0 V -1.09 M 30.77,0 V -1.09 M 36.89,0 V -1.09 M 43.01,0 V -1.09 M 49.25,0 V -1.09 M 55.37,0 V -1.09 M 61.49,0 V -1.09 M 67.61,0 V -1.09 M 73.85,0 V -1.09 M 79.97,0 V -1.09 M 86.09,0 V -1.09 M 92.33,0 V -1.09 M 98.45,0 V -1.09 M 104.57,0 V -1.09 M 110.69,0 V -1.09 M 116.93,0 V -1.09 M 123.05,0 V -1.09 M 129.17,0 V -1.09 M 135.29,0 V -1.09 M 141.53,0 V -1.09 M 147.65,0 V -1.09 M 153.77,0 V -1.09 M 159.89,0 V -1.09 M 166.13,0 V -1.09 M 172.25,0 V -1.09 M 178.37,0 V -1.09 M 184.54,0 V -1.09 M 0,0 V -1.51 M 30.77,0 V -1.51 M 61.49,0 V -1.51 M 92.33,0 V -1.51 M 123.05,0 V -1.51 M 153.77,0 V -1.51 M 184.54,0 v -1.51"
         style="fill:none;stroke:#868686;stroke-width:0.75;stroke-linecap:butt;stroke-linejoin:round;stroke-miterlimit:10;stroke-dasharray:none;stroke-opacity:1"
         id="path36" /></g><g
       id="g38"><g
         id="g40"
         clip-path="url(#clipPath44)"><g
           id="g46"
           transform="translate(339.79,612.84)"><path
             d="m 0,0 3.05,-0.24 3.12,-0.12 3,0.12 3.12,0.36 3.12,0.36 3,0.6 3.12,0.6 3.12,0.6 3,0.6 3.12,0.6 3.12,0.36 3,0.24 3.12,0.24 h 3 l 3.12,0.12 3.12,-0.12 3,-0.12 h 3.12 l 3.12,-0.12 h 3 l 3.12,0.12 h 3 l 3.12,0.12 3.12,0.12 3,0.12 3.12,0.24 3.12,0.24 3,0.24 3.12,0.24 3.12,0.36 3,0.36 3.12,0.36 3,0.48 3.12,0.36 3.12,0.6 3,0.6 3.12,0.6 3.12,0.6 3,0.72 3.12,0.6 3,0.48 3.12,0.72 3.12,0.48 3,0.6 3.12,0.36 3.12,0.36 3,0.48 3.12,0.36 3,0.6 3.12,0.84 3.12,0.96 3,1.32 3.12,1.56 3.12,1.92 3,2.04 3.12,2.4 3.12,2.16 3,1.8 3.12,1.44 3.05,0.57"
             style="fill:none;stroke:#3366ff;stroke-width:2;stroke-linecap:round;stroke-linejoin:round;stroke-miterlimit:10;stroke-dasharray:14, 8;stroke-dashoffset:0;stroke-opacity:1"
             id="path48" /></g></g></g><g
       id="g50"><g
         id="g52"
         clip-path="url(#clipPath56)"><g
           id="g58"
           transform="translate(339.79,619.92)"><path
             d="m 0,0 3.05,-0.36 3.12,-0.02 3,0.14 3.12,0.36 3.12,0.48 3,0.72 3.12,0.72 3.12,0.6 3,0.72 3.12,0.72 3.12,0.48 3,0.48 3.12,0.24 3,0.24 3.12,0.24 3.12,0.12 h 3 3.12 L 58.49,6 h 3 l 3.12,0.12 3,0.12 3.12,0.24 3.12,0.12 3,0.24 3.12,0.12 3.12,0.24 3,0.24 3.12,0.24 3.12,0.36 3,0.24 3.12,0.36 3,0.36 3.12,0.48 3.12,0.48 3,0.6 3.12,0.6 3.12,0.6 3,0.72 3.12,0.6 3,0.48 3.12,0.6 3.12,0.48 3,0.6 3.12,0.36 3.12,0.24 3,0.36 3.12,0.24 3,0.48 3.12,0.6 3.12,0.96 3,1.2 3.12,1.44 3.12,1.8 3,2.04 3.12,2.16 3.12,2.04 3,1.68 3.12,1.08 3.05,0.34"
             style="fill:none;stroke:#ff9900;stroke-width:2;stroke-linecap:round;stroke-linejoin:round;stroke-miterlimit:10;stroke-dasharray:none;stroke-opacity:1"
             id="path60" /></g></g></g><g
       id="g62"><g
         id="g64"
         clip-path="url(#clipPath68)"><g
           id="g70"
           transform="translate(339.79,625.08)"><path
             d="m 0,0 3.05,-0.24 3.12,-0.03 3,0.15 3.12,0.36 3.12,0.6 3,0.6 3.12,0.84 3.12,0.72 3,0.84 3.12,0.72 3.12,0.6 3,0.6 3.12,0.36 3,0.36 3.12,0.24 3.12,0.24 3,0.12 3.12,0.24 3.12,0.12 3,0.12 3.12,0.12 3,0.24 3.12,0.24 3.12,0.12 3,0.24 3.12,0.12 3.12,0.24 3,0.24 3.12,0.24 3.12,0.24 3,0.24 3.12,0.36 3,0.36 3.12,0.48 3.12,0.48 3,0.48 3.12,0.72 3.12,0.48 3,0.72 3.12,0.6 3,0.6 3.12,0.48 3.12,0.48 3,0.48 3.12,0.36 3.12,0.24 3,0.24 3.12,0.24 3,0.24 3.12,0.6 3.12,0.84 3,1.08 3.12,1.44 3.12,1.68 3,1.92 3.12,2.04 3.12,1.92 3,1.56 3.12,0.96 3.05,0.21"
             style="fill:none;stroke:#339966;stroke-width:2;stroke-linecap:round;stroke-linejoin:round;stroke-miterlimit:10;stroke-dasharray:4, 4;stroke-dashoffset:0;stroke-opacity:1"
             id="path72" /></g></g></g><text
       transform="matrix(1,0,0,-1,330,594.89)"
       style="font-variant:normal;font-weight:normal;font-size:5.04px;font-family:Arial;-inkscape-font-specification:ArialMT;writing-mode:lr-tb;fill:#000000;fill-opacity:1;fill-rule:nonzero;stroke:none"
       id="text80"><tspan
         x="0 2.76004"
         y="0"
         sodipodi:role="line"
         id="tspan74">22</tspan><tspan
         x="0 2.76004"
         y="-13.65"
         sodipodi:role="line"
         id="tspan76">24</tspan><tspan
         x="0 2.76004"
         y="-27.309999"
         sodipodi:role="line"
         id="tspan78">26</tspan></text><text
       transform="matrix(1,0,0,-1,330,635.86)"
       style="font-variant:normal;font-weight:normal;font-size:5.064px;font-family:Arial;-inkscape-font-specification:ArialMT;writing-mode:lr-tb;fill:#000000;fill-opacity:1;fill-rule:nonzero;stroke:none"
       id="text84"><tspan
         x="0 2.759984"
         y="0"
         sodipodi:role="line"
         id="tspan82">28</tspan></text><text
       transform="matrix(1,0,0,-1,330,649.49)"
       style="font-variant:normal;font-weight:normal;font-size:5.04px;font-family:Arial;-inkscape-font-specification:ArialMT;writing-mode:lr-tb;fill:#000000;fill-opacity:1;fill-rule:nonzero;stroke:none"
       id="text94"><tspan
         x="0 2.76004"
         y="0"
         sodipodi:role="line"
         id="tspan86">30</tspan><tspan
         x="0 2.76004"
         y="-13.65"
         sodipodi:role="line"
         id="tspan88">32</tspan><tspan
         x="0 2.76004"
         y="-27.309999"
         sodipodi:role="line"
         id="tspan90">34</tspan><tspan
         x="4.3000002 7.0619402 9.8238802 12.69662 35.060001 37.821941 40.583881 43.456619 64.440002 67.201942 69.963882 72.836617 75.598557 95.18 97.94194 100.70388 103.57662 106.33856 125.95 128.71194 131.47388 134.34662 137.10857 156.72 159.48193 162.24388 165.11662 167.87856 187.49001 190.25194 193.01389 195.88663 198.64856"
         y="60.549999"
         sodipodi:role="line"
         id="tspan92">600080001000012000140001600018000</tspan></text><text
       transform="matrix(0,1,1,0,318.74,623.54)"
       style="font-variant:normal;font-weight:bold;font-size:4.56px;font-family:Arial;-inkscape-font-specification:Arial-BoldMT;writing-mode:lr-tb;fill:#000000;fill-opacity:1;fill-rule:nonzero;stroke:none"
       id="text98"><tspan
         x="0 3.5932801 6.8353992 8.1487789 11.390899 12.471578 14.026555 16.785315 20.027534"
         y="0"
         sodipodi:role="line"
         id="tspan96">GAIN (dB)</tspan></text><text
       transform="matrix(1,0,0,-1,401.9,573.84)"
       style="font-variant:normal;font-weight:bold;font-size:4.56px;font-family:Arial;-inkscape-font-specification:Arial-BoldMT;writing-mode:lr-tb;fill:#000000;fill-opacity:1;fill-rule:nonzero;stroke:none"
       id="text102"><tspan
         x="0 2.758759 6.0009785 9.001399 12.594779 15.836898 18.83742 22.079538 25.321657 28.322178 29.521458 31.076437 35.029915 38.272034 40.433533"
         y="0"
         sodipodi:role="line"
         id="tspan100">FREQUENCY (MHz)</tspan></text><path
       d="m 357.37,649.91 h 56.781 v 23.611 H 357.37 Z"
       style="fill:#ffffff;fill-opacity:1;fill-rule:evenodd;stroke:none"
       id="path104" /><path
       d="m 357.37,649.91 h 56.781 v 23.611 H 357.37 Z"
       style="fill:none;stroke:#000000;stroke-width:0.25;stroke-linecap:butt;stroke-linejoin:round;stroke-miterlimit:10;stroke-dasharray:none;stroke-opacity:1"
       id="path106" /><g
       id="g108"
       transform="translate(367.26,669.59)"><path
         d="M 0,0 H 25.2"
         style="fill:none;stroke:#3366ff;stroke-width:1.5;stroke-linecap:round;stroke-linejoin:round;stroke-miterlimit:10;stroke-dasharray:10.5, 6;stroke-dashoffset:0;stroke-opacity:1"
         id="path110" /></g><g
       id="g112"
       transform="translate(367.26,661.72)"><path
         d="M 0,0 H 25.2"
         style="fill:none;stroke:#ff9900;stroke-width:1.5;stroke-linecap:round;stroke-linejoin:round;stroke-miterlimit:10;stroke-dasharray:none;stroke-opacity:1"
         id="path114" /></g><text
       transform="matrix(1,0,0,-1,395.33,667.97)"
       style="font-variant:normal;font-weight:normal;font-size:5.04px;font-family:Arial;-inkscape-font-specification:ArialMT;writing-mode:lr-tb;fill:#000000;fill-opacity:1;fill-rule:nonzero;stroke:none"
       id="text118"><tspan
         x="0 2.7619402 4.1983604 6.9601998"
         y="0"
         sodipodi:role="line"
         id="tspan116">2.3V</tspan></text><g
       id="g120"
       transform="translate(367.26,653.85)"><path
         d="M 0,0 H 25.2"
         style="fill:none;stroke:#339966;stroke-width:1.5;stroke-linecap:round;stroke-linejoin:round;stroke-miterlimit:10;stroke-dasharray:3, 3;stroke-dashoffset:0;stroke-opacity:1"
         id="path122" /></g><text
       transform="matrix(1,0,0,-1,395.33,660.1)"
       style="font-variant:normal;font-weight:normal;font-size:5.04px;font-family:Arial;-inkscape-font-specification:ArialMT;writing-mode:lr-tb;fill:#000000;fill-opacity:1;fill-rule:nonzero;stroke:none"
       id="text128"><tspan
         x="0 2.7619402 4.1983604 6.9601998"
         y="0"
         sodipodi:role="line"
         id="tspan124">2.6V</tspan><tspan
         x="0 2.7619402 4.1983604 6.9601998"
         y="7.8800001"
         sodipodi:role="line"
         id="tspan126">2.9V</tspan></text><text
       transform="matrix(1,0,0,-1,374.4,688.54)"
       style="font-variant:normal;font-weight:bold;font-size:5.52px;font-family:Arial;-inkscape-font-specification:Arial-BoldMT;writing-mode:lr-tb;fill:#000000;fill-opacity:1;fill-rule:nonzero;stroke:none"
       id="text134"><tspan
         x="0 4.3166623 8.0371037 9.4778624 13.319804 15.235267 18.232588 21.22991 22.786572 24.459131 27.831852 31.77869 35.493629 39.810291 43.652233 47.367168 51.20911 55.16695 58.765892 60.438454 64.396294 65.952957 69.910797 73.625732 77.340767 78.781425 82.739265 86.454208 88.010872 91.725906 96.042465 99.415192 102.87621 106.59675 110.91341"
         y="0"
         sodipodi:role="line"
         id="tspan130">GAIN vs. FREQUENCY &amp; DEVICE VOLTAGE</tspan><tspan
         x="-7.4400001 -5.9992414 -2.1573987 1.5576386 5.3994813 8.8716002 10.54416 14.259098 18.57576 23.736938 27.451876 31.409716 32.850475 36.074154 37.559914 39.359974 42.473194 45.58651 47.143173 50.256393 53.369713 56.742432 60.727871 65.563354 67.120018 68.560776 72.060394 75.173714 79.998192 83.370911 86.495232 88.642509 91.772331 93.571884 96.944611 99.108383 102.2217 103.41957 106.64325 108.21641 111.44009 114.56991 117.61993 119.77982"
         y="6.3600001"
         sodipodi:role="line"
         id="tspan132">INPUT POWER = -25.00dBm, Temperature = +25°C</tspan></text></g></svg>
