<?xml version="1.0" encoding="UTF-8" standalone="no"?>
<!-- Created with Inkscape (http://www.inkscape.org/) -->

<svg
   version="1.1"
   id="svg2"
   xml:space="preserve"
   width="292.38693"
   height="160.67781"
   viewBox="0 0 292.38693 160.67781"
   sodipodi:docname="PMA-NFvsFvsV.svg"
   inkscape:version="1.1 (c68e22c387, 2021-05-23)"
   xmlns:inkscape="http://www.inkscape.org/namespaces/inkscape"
   xmlns:sodipodi="http://sodipodi.sourceforge.net/DTD/sodipodi-0.dtd"
   xmlns="http://www.w3.org/2000/svg"
   xmlns:svg="http://www.w3.org/2000/svg"><defs
     id="defs6"><clipPath
       clipPathUnits="userSpaceOnUse"
       id="clipPath44"><path
         d="m 343.08,287.88 h 183.84 v 84.24 H 343.08 Z"
         clip-rule="evenodd"
         id="path42" /></clipPath><clipPath
       clipPathUnits="userSpaceOnUse"
       id="clipPath56"><path
         d="m 343.08,287.88 h 183.84 v 84.24 H 343.08 Z"
         clip-rule="evenodd"
         id="path54" /></clipPath><clipPath
       clipPathUnits="userSpaceOnUse"
       id="clipPath68"><path
         d="m 343.08,287.88 h 183.84 v 84.24 H 343.08 Z"
         clip-rule="evenodd"
         id="path66" /></clipPath></defs><sodipodi:namedview
     id="namedview4"
     pagecolor="#ffffff"
     bordercolor="#666666"
     borderopacity="1.0"
     inkscape:pageshadow="2"
     inkscape:pageopacity="0.0"
     inkscape:pagecheckerboard="0"
     showgrid="false"
     inkscape:zoom="3.0757576"
     inkscape:cx="110.05419"
     inkscape:cy="80.46798"
     inkscape:window-width="1920"
     inkscape:window-height="1001"
     inkscape:window-x="-9"
     inkscape:window-y="-9"
     inkscape:window-maximized="1"
     inkscape:current-layer="g8" /><g
     id="g8"
     inkscape:groupmode="layer"
     inkscape:label="A96yo5yy_1es7u4e_81k"
     transform="matrix(1.3333333,0,0,-1.3333333,-418.36025,513.86494)"><path
       d="m 343.14,288.62 h 183.05 v 83.447 H 343.14 Z"
       style="fill:#ffffff;fill-opacity:1;fill-rule:evenodd;stroke:none"
       id="path10" /><g
       id="g12"
       transform="translate(343.14,288.62)"><path
         d="M 0,0 H 183.05 M 0,13.9 H 183.05 M 0,27.82 H 183.05 M 0,41.74 H 183.05 M 0,55.66 H 183.05 M 0,69.58 H 183.05 M 0,83.44 h 183.05"
         style="fill:none;stroke:#c0c0c0;stroke-width:0.25;stroke-linecap:butt;stroke-linejoin:round;stroke-miterlimit:10;stroke-dasharray:none;stroke-opacity:1"
         id="path14" /></g><g
       id="g16"
       transform="translate(343.14,372.06)"><path
         d="M 0,0 V -83.44 M 30.54,0 V -83.44 M 61.02,0 V -83.44 M 91.5,0 V -83.44 M 121.98,0 V -83.44 M 152.58,0 V -83.44 M 183.05,0 v -83.44"
         style="fill:none;stroke:#c0c0c0;stroke-width:0.25;stroke-linecap:butt;stroke-linejoin:round;stroke-miterlimit:10;stroke-dasharray:none;stroke-opacity:1"
         id="path18" /></g><path
       d="m 343.14,288.62 h 183.05 v 83.447 H 343.14 Z"
       style="fill:none;stroke:#808080;stroke-width:1;stroke-linecap:butt;stroke-linejoin:round;stroke-miterlimit:10;stroke-dasharray:none;stroke-opacity:1"
       id="path20" /><g
       id="g22"
       transform="translate(343.14,288.62)"><path
         d="M 0,0 V 83.44"
         style="fill:none;stroke:#868686;stroke-width:0.75;stroke-linecap:butt;stroke-linejoin:round;stroke-miterlimit:10;stroke-dasharray:none;stroke-opacity:1"
         id="path24" /></g><g
       id="g26"
       transform="translate(342,288.62)"><path
         d="M 0,0 H 1.14 M 0,2.74 H 1.14 M 0,5.62 H 1.14 M 0,8.38 H 1.14 M 0,11.14 H 1.14 M 0,13.9 H 1.14 M 0,16.66 H 1.14 M 0,19.42 H 1.14 M 0,22.3 H 1.14 M 0,25.06 H 1.14 M 0,27.82 H 1.14 M 0,30.58 H 1.14 M 0,33.34 H 1.14 M 0,36.1 H 1.14 M 0,38.98 H 1.14 M 0,41.74 H 1.14 M 0,44.5 H 1.14 M 0,47.26 H 1.14 M 0,50.02 H 1.14 M 0,52.9 H 1.14 M 0,55.66 H 1.14 M 0,58.42 H 1.14 M 0,61.18 H 1.14 M 0,63.94 H 1.14 M 0,66.7 H 1.14 M 0,69.58 H 1.14 M 0,72.34 H 1.14 M 0,75.1 H 1.14 M 0,77.86 H 1.14 M 0,80.62 H 1.14 M 0,83.44 H 1.14 M -0.37,0 h 1.51 m -1.51,13.9 h 1.51 m -1.51,13.92 h 1.51 m -1.51,13.92 h 1.51 m -1.51,13.92 h 1.51 m -1.51,13.92 h 1.51 m -1.51,13.86 h 1.51"
         style="fill:none;stroke:#868686;stroke-width:0.75;stroke-linecap:butt;stroke-linejoin:round;stroke-miterlimit:10;stroke-dasharray:none;stroke-opacity:1"
         id="path28" /></g><g
       id="g30"
       transform="translate(343.14,288.62)"><path
         d="M 0,0 H 183.05"
         style="fill:none;stroke:#868686;stroke-width:0.75;stroke-linecap:butt;stroke-linejoin:round;stroke-miterlimit:10;stroke-dasharray:none;stroke-opacity:1"
         id="path32" /></g><g
       id="g34"
       transform="translate(343.14,288.62)"><path
         d="M 0,0 V -1.1 M 6.06,0 V -1.1 M 12.18,0 V -1.1 M 18.3,0 V -1.1 M 24.42,0 V -1.1 M 30.54,0 V -1.1 M 36.66,0 v -1.1 m 6,1.1 V -1.1 M 48.78,0 V -1.1 M 54.9,0 V -1.1 M 61.02,0 V -1.1 M 67.14,0 V -1.1 M 73.26,0 v -1.1 m 6,1.1 V -1.1 M 85.38,0 V -1.1 M 91.5,0 V -1.1 M 97.62,0 v -1.1 m 6.12,1.1 v -1.1 m 6.12,1.1 v -1.1 m 6.12,1.1 v -1.1 m 6,1.1 V -1.1 M 128.1,0 V -1.1 M 134.22,0 V -1.1 M 140.34,0 V -1.1 M 146.46,0 V -1.1 M 152.58,0 V -1.1 M 158.7,0 v -1.1 m 6,1.1 V -1.1 M 170.82,0 V -1.1 M 176.94,0 V -1.1 M 183.05,0 V -1.1 M 0,0 V -1.51 M 30.54,0 V -1.51 M 61.02,0 V -1.51 M 91.5,0 V -1.51 M 121.98,0 V -1.51 M 152.58,0 V -1.51 M 183.05,0 v -1.51"
         style="fill:none;stroke:#868686;stroke-width:0.75;stroke-linecap:butt;stroke-linejoin:round;stroke-miterlimit:10;stroke-dasharray:none;stroke-opacity:1"
         id="path36" /></g><g
       id="g38"><g
         id="g40"
         clip-path="url(#clipPath44)"><g
           id="g46"
           transform="translate(343.14,324.58)"><path
             d="m 0,0 3.06,-3.94 3,-1.08 3.12,1.56 3,-0.12 3.12,-0.6 3,-0.24 3,-0.24 3.12,-1.08 3,0.96 3.12,-0.72 h 3 l 3.12,-0.24 3,-1.07 3,0.11 3.12,1.68 3,0.24 3.12,0.12 3,-0.36 3.12,0.72 3,0.72 3,1.56 3.12,-0.24 h 3 l 3.12,-0.6 3,0.48 h 3 l 3.12,-0.48 3,0.12 3.12,-0.48 3,0.48 3.12,-0.72 3,-0.24 3,-0.96 3.12,-0.6 3,0.12 3.12,0.24 3,-0.84 3.12,0.24 3,-0.6 3,0.24 3.12,0.12 3,-0.96 3.12,-0.12 3,0.48 3.12,0.36 3,1.08 3,0.24 3.12,-0.12 3,-0.12 3.12,0.36 h 3 l 3.12,0.24 3,0.24 3,-0.36 3.12,-0.24 3,0.24 3.12,-1.08 3,1.32 3,0.12 3.11,-0.36"
             style="fill:none;stroke:#3366ff;stroke-width:2;stroke-linecap:round;stroke-linejoin:round;stroke-miterlimit:10;stroke-dasharray:14, 8;stroke-dashoffset:0;stroke-opacity:1"
             id="path48" /></g></g></g><g
       id="g50"><g
         id="g52"
         clip-path="url(#clipPath56)"><g
           id="g58"
           transform="translate(343.14,320.76)"><path
             d="m 0,0 3.06,-2.4 h 3 l 3.12,-1.08 h 3 l 3.12,-0.24 3,-0.48 3,0.96 3.12,-0.84 3,-0.24 3.12,-0.6 3,0.24 3.12,-0.84 3,0.24 3,0.24 3.12,-0.36 3,1.56 3.12,0.36 3,-0.84 3.12,0.24 3,1.56 3,0.36 3.12,-0.24 3,1.32 3.12,-0.36 3,-0.72 3,0.6 3.12,-0.24 3,0.12 3.12,-0.12 h 3 l 3.12,-0.48 3,-0.96 3,-0.72 3.12,0.36 3,0.24 3.12,0.24 3,-0.36 3.12,0.24 3,-0.84 h 3 l 3.12,-0.48 3,-1.19 3.12,1.31 3,-0.6 3.12,0.6 3,0.72 3,0.6 3.12,-1.44 h 3 l 3.12,0.96 3,0.6 3.12,0.24 3,0.36 3,0.84 3.12,-0.72 3,-0.36 3.12,0.24 3,0.72 3,-0.72 3.11,1.32"
             style="fill:none;stroke:#ff9900;stroke-width:2;stroke-linecap:round;stroke-linejoin:round;stroke-miterlimit:10;stroke-dasharray:none;stroke-opacity:1"
             id="path60" /></g></g></g><g
       id="g62"><g
         id="g64"
         clip-path="url(#clipPath68)"><g
           id="g70"
           transform="translate(343.14,318.69)"><path
             d="m 0,0 3.06,-2.61 3,-0.36 3.12,-1.08 3,0.36 3.12,0.24 3,-0.48 h 3 l 3.12,-0.6 3,-0.24 3.12,0.72 3,-0.24 3.12,-0.36 3,-1.11 3,0.99 3.12,0.6 3,-0.36 3.12,-0.48 3,0.12 3.12,1.2 3,0.84 3,1.56 3.12,-0.72 3,0.36 3.12,-0.72 3,0.24 3,0.24 3.12,0.96 3,-0.48 3.12,-0.48 3,-0.24 3.12,0.12 3,-0.6 3,-0.12 3.12,-0.72 h 3 l 3.12,0.48 3,0.24 3.12,-0.36 3,-0.6 3,-0.6 3.12,0.6 3,-0.48 3.12,-0.72 3,0.84 3.12,0.72 3,0.48 3,-0.6 3.12,0.48 3,0.24 3.12,0.24 3,-0.36 3.12,1.32 3,-0.12 3,0.12 3.12,-0.24 3,0.24 3.12,-0.12 3,0.6 3,-0.12 3.11,0.12"
             style="fill:none;stroke:#339966;stroke-width:2;stroke-linecap:round;stroke-linejoin:round;stroke-miterlimit:10;stroke-dasharray:4, 4;stroke-dashoffset:0;stroke-opacity:1"
             id="path72" /></g></g></g><text
       transform="matrix(1,0,0,-1,331.94,286.92)"
       style="font-variant:normal;font-weight:normal;font-size:5.04px;font-family:Arial;-inkscape-font-specification:ArialMT;writing-mode:lr-tb;fill:#000000;fill-opacity:1;fill-rule:nonzero;stroke:none"
       id="text86"><tspan
         x="0 2.7619402 4.1983604"
         y="0"
         sodipodi:role="line"
         id="tspan74">0.0</tspan><tspan
         x="0 2.7619402 4.1983604"
         y="-13.92"
         sodipodi:role="line"
         id="tspan76">0.5</tspan><tspan
         x="0 2.7619402 4.1983604"
         y="-27.82"
         sodipodi:role="line"
         id="tspan78">1.0</tspan><tspan
         x="0 2.7619402 4.1983604"
         y="-41.740002"
         sodipodi:role="line"
         id="tspan80">1.5</tspan><tspan
         x="0 2.7619402 4.1983604"
         y="-55.630001"
         sodipodi:role="line"
         id="tspan82">2.0</tspan><tspan
         x="0 2.7619402 4.1983604"
         y="-69.550003"
         sodipodi:role="line"
         id="tspan84">2.5</tspan></text><text
       transform="matrix(1,0,0,-1,331.94,370.39)"
       style="font-variant:normal;font-weight:normal;font-size:5.064px;font-family:Arial;-inkscape-font-specification:ArialMT;writing-mode:lr-tb;fill:#000000;fill-opacity:1;fill-rule:nonzero;stroke:none"
       id="text90"><tspan
         x="0 2.7598851 4.192977"
         y="0"
         sodipodi:role="line"
         id="tspan88">3.0</tspan></text><text
       transform="matrix(1,0,0,-1,337.63,280.97)"
       style="font-variant:normal;font-weight:normal;font-size:5.04px;font-family:Arial;-inkscape-font-specification:ArialMT;writing-mode:lr-tb;fill:#000000;fill-opacity:1;fill-rule:nonzero;stroke:none"
       id="text94"><tspan
         x="0 2.7619402 5.5238805 8.3966198 30.530001 33.291939 36.053879 38.92662 59.639999 62.401939 65.163879 68.036621 70.798561 90.169998 92.931938 95.693878 98.56662 101.32856 120.67 123.43194 126.19388 129.06662 131.82857 151.2 153.96194 156.72388 159.59662 162.35857 181.71001 184.47194 187.23389 190.10661 192.86856"
         y="0"
         sodipodi:role="line"
         id="tspan92">600080001000012000140001600018000</tspan></text><text
       transform="matrix(0,1,1,0,317.09,304.97)"
       style="font-variant:normal;font-weight:bold;font-size:4.56px;font-family:Arial;-inkscape-font-specification:Arial-BoldMT;writing-mode:lr-tb;fill:#000000;fill-opacity:1;fill-rule:nonzero;stroke:none"
       id="text98"><tspan
         x="0 3.2421191 6.8353992 8.1486788 11.1492 14.149721 15.2304 17.98926 19.302439 22.89572 26.137938 29.380056 32.380577 33.461258 35.016235 37.774994 41.017212"
         y="0"
         sodipodi:role="line"
         id="tspan96">NOISE FIGURE (dB)</tspan></text><text
       transform="matrix(1,0,0,-1,403.42,265.85)"
       style="font-variant:normal;font-weight:bold;font-size:4.56px;font-family:Arial;-inkscape-font-specification:Arial-BoldMT;writing-mode:lr-tb;fill:#000000;fill-opacity:1;fill-rule:nonzero;stroke:none"
       id="text102"><tspan
         x="0 2.758759 6.0009785 9.001399 12.594679 15.836898 18.83742 22.079538 25.321657 28.322178 29.521458 31.076437 35.029915 38.272034 40.433533"
         y="0"
         sodipodi:role="line"
         id="tspan100">FREQUENCY (MHz)</tspan></text><path
       d="m 464.63,344 h 57.599 v 23.631 H 464.63 Z"
       style="fill:#ffffff;fill-opacity:1;fill-rule:evenodd;stroke:none"
       id="path104" /><path
       d="m 464.63,344 h 57.599 v 23.631 H 464.63 Z"
       style="fill:none;stroke:#000000;stroke-width:0.25;stroke-linecap:butt;stroke-linejoin:round;stroke-miterlimit:10;stroke-dasharray:none;stroke-opacity:1"
       id="path106" /><g
       id="g108"
       transform="translate(474.94,363.7)"><path
         d="M 0,0 H 25.2"
         style="fill:none;stroke:#3366ff;stroke-width:1.5;stroke-linecap:round;stroke-linejoin:round;stroke-miterlimit:10;stroke-dasharray:10.5, 6;stroke-dashoffset:0;stroke-opacity:1"
         id="path110" /></g><g
       id="g112"
       transform="translate(474.94,355.82)"><path
         d="M 0,0 H 25.2"
         style="fill:none;stroke:#ff9900;stroke-width:1.5;stroke-linecap:round;stroke-linejoin:round;stroke-miterlimit:10;stroke-dasharray:none;stroke-opacity:1"
         id="path114" /></g><text
       transform="matrix(1,0,0,-1,503.02,362.02)"
       style="font-variant:normal;font-weight:normal;font-size:5.04px;font-family:Arial;-inkscape-font-specification:ArialMT;writing-mode:lr-tb;fill:#000000;fill-opacity:1;fill-rule:nonzero;stroke:none"
       id="text118"><tspan
         x="0 2.7619402 4.1983604 6.9601998"
         y="0"
         sodipodi:role="line"
         id="tspan116">2.3V</tspan></text><g
       id="g120"
       transform="translate(474.94,347.94)"><path
         d="M 0,0 H 25.2"
         style="fill:none;stroke:#339966;stroke-width:1.5;stroke-linecap:round;stroke-linejoin:round;stroke-miterlimit:10;stroke-dasharray:3, 3;stroke-dashoffset:0;stroke-opacity:1"
         id="path122" /></g><text
       transform="matrix(1,0,0,-1,503.02,354.14)"
       style="font-variant:normal;font-weight:normal;font-size:5.064px;font-family:Arial;-inkscape-font-specification:ArialMT;writing-mode:lr-tb;fill:#000000;fill-opacity:1;fill-rule:nonzero;stroke:none"
       id="text126"><tspan
         x="0 2.7598851 4.192977 6.9528618"
         y="0"
         sodipodi:role="line"
         id="tspan124">2.6V</tspan></text><text
       transform="matrix(1,0,0,-1,503.02,346.25)"
       style="font-variant:normal;font-weight:normal;font-size:5.04px;font-family:Arial;-inkscape-font-specification:ArialMT;writing-mode:lr-tb;fill:#000000;fill-opacity:1;fill-rule:nonzero;stroke:none"
       id="text130"><tspan
         x="0 2.7619402 4.1983604 6.9601998"
         y="0"
         sodipodi:role="line"
         id="tspan128">2.9V</tspan></text><text
       transform="matrix(1,0,0,-1,362.18,381.38)"
       style="font-variant:normal;font-weight:bold;font-size:5.52px;font-family:Arial;-inkscape-font-specification:Arial-BoldMT;writing-mode:lr-tb;fill:#000000;fill-opacity:1;fill-rule:nonzero;stroke:none"
       id="text136"><tspan
         x="0 3.8419421 8.1586046 9.5992632 13.314301 17.029238 18.585901 21.95862 23.388279 27.704941 31.546783 35.504623 39.219563 40.89212 43.889542 46.886864 48.443527 50.116085 53.488804 57.435646 61.150581 65.467247 69.30909 73.024124 76.866066 80.823906 84.422943 86.095406 90.053246 91.609909 95.567749 99.282684 102.99773 104.43839 108.39622 112.11126 113.66782 117.38286 121.69942 125.07214 128.53316 132.25371 136.57036"
         y="0"
         sodipodi:role="line"
         id="tspan132">NOISE FIGURE vs. FREQUENCY &amp; DEVICE VOLTAGE</tspan><tspan
         x="43.439999 46.912117 50.025337 54.827717 58.200436 61.302753 63.450031 66.579849 68.379311 71.752029 73.899307 77.012627 78.210487 81.434174 83.007332 86.23101 89.360832 92.54995 94.709946"
         y="6.3600001"
         sodipodi:role="line"
         id="tspan134">Temperature = +25°C</tspan></text></g></svg>
